<?xml version="1.0" standalone="no"?>
<!DOCTYPE svg PUBLIC "-//W3C//DTD SVG 1.1//EN" "http://www.w3.org/Graphics/SVG/1.1/DTD/svg11.dtd" >
<svg xmlns="http://www.w3.org/2000/svg" xmlns:xlink="http://www.w3.org/1999/xlink" version="1.1">
<metadata></metadata>
<defs>
<font id="uniform_extra_condensedmedium" horiz-adv-x="819" >
<font-face units-per-em="2048" ascent="1536" descent="-512" />
<missing-glyph horiz-adv-x="413" />
<glyph unicode="&#x2e;&#x2e;&#x2e;" horiz-adv-x="1310" d="M72 102q0 51 36 87t87 36t86.5 -36t35.5 -87t-35.5 -86.5t-86.5 -35.5t-87 35.5t-36 86.5zM532 102q0 51 36 87t87 36t87 -36t36 -87t-36 -86.5t-87 -35.5t-87 35.5t-36 86.5zM993 102q0 51 36 87t87 36t87 -36t36 -87t-36 -86.5t-87 -35.5t-87 35.5t-36 86.5z" />
<glyph horiz-adv-x="0" />
<glyph horiz-adv-x="682" />
<glyph unicode=" "  horiz-adv-x="413" />
<glyph unicode="&#x09;" horiz-adv-x="413" />
<glyph unicode="&#xa0;" horiz-adv-x="413" />
<glyph unicode="!" horiz-adv-x="450" d="M102 102q0 51 36 87t87 36t87 -36t36 -87t-36 -86.5t-87 -35.5t-87 35.5t-36 86.5zM117 1434h215l-43 -994h-129z" />
<glyph unicode="&#x22;" horiz-adv-x="622" d="M82 922v512h158v-512h-158zM383 922v512h158v-512h-158z" />
<glyph unicode="#" d="M41 334v119h139l27 321h-135v119h145l29 336h129l-29 -336h172l29 336h129l-29 -336h131v-119h-141l-27 -321h138v-119h-148l-27 -334h-129l27 334h-172l-27 -334h-129l27 334h-129zM309 453h172l27 321h-172z" />
<glyph unicode="$" horiz-adv-x="772" d="M72 299v121h180v-111q0 -72 36 -113.5t95 -41.5t95 40.5t36 110.5q0 95 -45 181t-150 194q-114 118 -173.5 226t-59.5 227q0 123 66.5 205t173.5 104v155h123v-153q111 -14 179 -93.5t68 -205.5v-101h-182v89q0 69 -33 108t-88 39t-88 -38t-33 -105q0 -80 48.5 -157.5 t154.5 -188.5q113 -117 169 -232t56 -250q0 -129 -69.5 -212.5t-181.5 -104.5v-156h-123v152q-115 15 -184.5 97.5t-69.5 213.5z" />
<glyph unicode="%" horiz-adv-x="1126" d="M51 993q0 110 74.5 183t183.5 73q110 0 183 -71t73 -181q0 -108 -75.5 -181t-184.5 -73t-181.5 71t-72.5 179zM117 0l757 1229h134l-758 -1229h-133zM188 995q0 -53 34 -88t85 -35t85 35t34 88q0 54 -34 88.5t-85 34.5t-85 -34.5t-34 -88.5zM561 229q0 110 74.5 183 t183.5 73q110 0 183 -71t73 -181q0 -108 -75.5 -180.5t-184.5 -72.5t-181.5 70.5t-72.5 178.5zM698 231q0 -52 34 -87t85 -35t85 35t34 87q0 54 -34 88.5t-85 34.5t-85 -34.5t-34 -88.5z" />
<glyph unicode="&#x26;" horiz-adv-x="1003" d="M61 324q0 117 54 223t170 239q-71 111 -101 197.5t-30 179.5q0 126 81.5 208.5t202.5 82.5q119 0 196 -80t77 -205q0 -98 -52.5 -189t-162.5 -210l180 -281l147 330h170l-221 -479l221 -340h-198l-109 168q-59 -95 -132 -141.5t-173 -46.5q-145 0 -232.5 95.5 t-87.5 248.5zM246 348q0 -90 42.5 -144t114.5 -54q56 0 102 36.5t89 122.5l-215 334q-133 -157 -133 -295zM328 1167q0 -66 17.5 -127.5t64.5 -138.5q74 82 105.5 143t31.5 123q0 56 -29 93.5t-78 37.5q-54 0 -83 -36.5t-29 -94.5z" />
<glyph unicode="'" horiz-adv-x="321" d="M82 922v512h158v-512h-158z" />
<glyph unicode="(" horiz-adv-x="591" d="M82 711q0 127 19 247t48.5 210t66 169t73 133t66 93t48.5 57l19 18l129 -104q-12 -12 -31 -34t-68 -100t-86.5 -165.5t-68.5 -228t-31 -289.5q0 -109 15.5 -213t41 -183t55.5 -149.5t60.5 -119t56 -84t41.5 -52.5l15 -16l-129 -105q-7 6 -19.5 18t-47.5 54.5t-67 91.5 t-71.5 130t-67.5 168t-47.5 207t-19.5 247z" />
<glyph unicode=")" horiz-adv-x="591" d="M41 -100q12 12 31 34t68 100t86.5 165.5t68.5 228t31 289.5q0 109 -15.5 213t-41 183t-56 149.5t-60.5 119t-55.5 84t-41.5 52.5l-15 16l129 104q7 -6 19.5 -18t47.5 -54.5t67 -91.5t71.5 -129.5t67.5 -167.5t47.5 -207t19.5 -247t-19 -247t-48.5 -210t-66 -169.5 t-73 -133t-66 -93t-48.5 -57.5l-19 -18z" />
<glyph unicode="*" horiz-adv-x="768" d="M51 1139l43 135l234 -92l-17 252h146l-19 -252l236 92l43 -135l-244 -64l162 -192l-117 -84l-135 211l-133 -211l-117 84l160 192z" />
<glyph unicode="+" d="M61 655v148h275v317h147v-317h275v-148h-275v-319h-147v319h-275z" />
<glyph unicode="," horiz-adv-x="362" d="M72 -266l14 512h205l-72 -512h-147z" />
<glyph unicode="-" horiz-adv-x="614" d="M61 645v168h492v-168h-492z" />
<glyph unicode="." horiz-adv-x="389" d="M72 102q0 51 36 87t87 36t86.5 -36t35.5 -87t-35.5 -86.5t-86.5 -35.5t-87 35.5t-36 86.5z" />
<glyph unicode="/" horiz-adv-x="737" d="M0 -164l573 1761h164l-573 -1761h-164z" />
<glyph unicode="0" d="M92 299v829q0 143 93 234.5t227 91.5t224.5 -88t90.5 -231v-830q0 -144 -93.5 -234.5t-227.5 -90.5t-224 87.5t-90 231.5zM279 311q0 -71 36 -112t95 -41t95 41t36 112v809q0 72 -36 113t-95 41t-95 -41t-36 -113v-809z" />
<glyph unicode="1" horiz-adv-x="690" d="M20 1130l371 304h156v-1434h-187v1202l-243 -196z" />
<glyph unicode="2" horiz-adv-x="780" d="M82 983v147q0 143 89.5 233.5t219.5 90.5q133 0 220 -89.5t87 -236.5q0 -84 -24.5 -165t-73.5 -181l-305 -610h403v-172h-614v131l367 733q61 125 61 254q0 74 -34.5 115t-92.5 41t-91.5 -41t-33.5 -115v-135h-178z" />
<glyph unicode="3" horiz-adv-x="790" d="M82 299v141h178v-133q0 -72 35.5 -112.5t95.5 -40.5q61 0 96 40t35 113v205q0 72 -35.5 113t-95.5 41h-82v153h82q52 0 83.5 36.5t31.5 100.5v187q0 64 -31.5 100.5t-83.5 36.5t-83.5 -36.5t-31.5 -100.5v-119h-178v121q0 135 86.5 222t210.5 87q126 0 211.5 -84 t85.5 -219v-166q0 -76 -30 -138.5t-82 -101.5q61 -39 95 -106t34 -154v-180q0 -145 -92.5 -235t-227.5 -90q-133 0 -220 87t-87 232z" />
<glyph unicode="4" d="M66 358v158l393 918h180v-922h113v-154h-113v-358h-172v358h-401zM215 512h252v602z" />
<glyph unicode="5" horiz-adv-x="800" d="M92 287v143h180v-125q0 -67 35 -107t90 -40t90 40t35 107v348q0 66 -35 106t-90 40q-51 0 -84.5 -36t-33.5 -93v-25h-166v789h565v-174h-397v-371q63 74 165 74q112 0 187.5 -78t75.5 -203v-383q0 -139 -92.5 -229t-221.5 -90q-128 0 -215.5 85.5t-87.5 221.5z" />
<glyph unicode="6" d="M86 303v242q0 174 64 329l231 560h188l-233 -549q50 37 113 37q132 0 208 -85.5t76 -230.5v-297q0 -146 -94.5 -237.5t-232.5 -91.5q-137 0 -228.5 88.5t-91.5 234.5zM272 315q0 -74 37.5 -115.5t100.5 -41.5q61 0 99 41.5t38 115.5v285q0 74 -38 116t-99 42 q-62 0 -100 -42t-38 -116v-285z" />
<glyph unicode="7" horiz-adv-x="716" d="M51 1255v179h615v-138l-359 -1296h-190l354 1255h-420z" />
<glyph unicode="8" d="M82 309v176q0 91 36.5 162t100.5 113q-57 39 -89 104t-32 148v123q0 140 91.5 229.5t222.5 89.5t220 -87t89 -226v-123q0 -81 -33 -147t-90 -107q65 -41 102 -111t37 -161v-177q0 -149 -95 -242t-236 -93q-140 0 -232 90t-92 239zM268 311q0 -76 38.5 -120t103.5 -44 q64 0 102.5 44t38.5 120v211q0 77 -38.5 120.5t-102.5 43.5q-65 0 -103.5 -43.5t-38.5 -120.5v-211zM285 981q0 -68 34.5 -107.5t90.5 -39.5t90.5 39.5t34.5 107.5v156q0 68 -34.5 107.5t-90.5 39.5t-90.5 -39.5t-34.5 -107.5v-156z" />
<glyph unicode="9" d="M86 827v297q0 146 95 238t233 92q137 0 228 -89t91 -235v-241q0 -93 -14 -168.5t-49 -161.5l-232 -559h-188l233 549q-50 -37 -112 -37q-132 0 -208.5 85t-76.5 230zM272 834q0 -74 38.5 -116t99.5 -42q62 0 99.5 42t37.5 116v284q0 74 -37.5 116t-99.5 42 q-61 0 -99.5 -42t-38.5 -116v-284z" />
<glyph unicode=":" horiz-adv-x="389" d="M72 102q0 51 36 87t87 36t86.5 -36t35.5 -87t-35.5 -86.5t-86.5 -35.5t-87 35.5t-36 86.5zM72 948q0 51 36 87t87 36t86.5 -36t35.5 -87t-35.5 -87t-86.5 -36t-87 36t-36 87z" />
<glyph unicode=";" horiz-adv-x="389" d="M72 -266l14 512h205l-72 -512h-147zM72 948q0 51 36 87t87 36t86.5 -36t35.5 -87t-35.5 -87t-86.5 -36t-87 36t-36 87z" />
<glyph unicode="&#x3c;" d="M61 645v164l697 410v-185l-539 -305l539 -303v-190z" />
<glyph unicode="=" d="M61 440v154h697v-154h-697zM61 819v154h697v-154h-697z" />
<glyph unicode="&#x3e;" d="M61 236v184l539 305l-539 303v191l697 -410v-164z" />
<glyph unicode="?" horiz-adv-x="749" d="M72 1004v116q0 151 89 242.5t220 91.5q133 0 220 -89.5t87 -236.5q0 -66 -16.5 -129.5t-41.5 -111.5t-54.5 -100t-54.5 -95.5t-41.5 -96t-16.5 -103.5v-52h-172v62q0 63 21.5 127.5t52.5 120t62.5 111.5t53 123t21.5 134q0 74 -34.5 115t-92.5 41t-91.5 -41t-33.5 -115 v-114h-178zM254 102q0 51 36 87t87 36t87 -36t36 -87t-36 -86.5t-87 -35.5t-87 35.5t-36 86.5z" />
<glyph unicode="@" horiz-adv-x="1855" d="M61 561q0 183 67 348t181.5 285t276 190t342.5 70q182 0 343 -69.5t275.5 -188.5t181 -283.5t66.5 -347.5q0 -271 -142.5 -442.5t-359.5 -171.5q-145 0 -225.5 77t-85.5 201q-62 -77 -172 -77q-98 0 -154 64t-41 165l60 412q15 102 78.5 159.5t158.5 57.5q55 0 97.5 -25 t66.5 -70l17 78h133l8 -14l-96 -682q-13 -97 34 -152t134 -55q146 0 244 131t98 332q0 162 -55 303.5t-150 241t-229 156.5t-287 57q-149 0 -282.5 -59t-228.5 -159.5t-150.5 -238.5t-55.5 -291q0 -196 93 -361.5t258 -262.5t366 -97q89 0 147 15l23 -133l-27.5 -5.5 t-38 -7.5t-45.5 -5.5t-61 -2.5q-183 0 -343.5 67t-274.5 182t-179.5 273.5t-65.5 335.5zM782 406q-6 -52 18.5 -82.5t73.5 -30.5q46 0 74.5 26.5t34.5 73.5l51 363q7 49 -18 79.5t-72 30.5q-46 0 -75 -25.5t-35 -72.5z" />
<glyph unicode="A" horiz-adv-x="788" d="M10 0l289 1434h188l291 -1434h-203l-57 322h-262l-55 -322h-191zM281 477h215l-109 604z" />
<glyph unicode="B" horiz-adv-x="860" d="M113 0v1434h319q152 0 244 -89.5t92 -250.5v-41q0 -104 -41 -181t-113 -118q81 -36 127.5 -114.5t46.5 -190.5v-103q0 -162 -94.5 -254t-247.5 -92h-333zM307 164h123q78 0 121 47t43 137v133q0 90 -43.5 137.5t-120.5 47.5h-123v-502zM307 817h103q77 0 120 47t43 137 v84q0 90 -43 137.5t-120 47.5h-103v-453z" />
<glyph unicode="C" horiz-adv-x="831" d="M92 309v809q0 150 95 243t235 93q138 0 227.5 -88.5t89.5 -237.5v-196h-186v186q0 72 -36.5 113t-96.5 41q-61 0 -97 -40.5t-36 -113.5v-805q0 -71 36 -112t97 -41q59 0 96 41t37 112v209h186v-213q0 -148 -92.5 -238.5t-230.5 -90.5q-140 0 -232 89.5t-92 239.5z" />
<glyph unicode="D" horiz-adv-x="870" d="M113 0v1434h319q160 0 253 -91t93 -260v-727q0 -169 -96 -262.5t-256 -93.5h-313zM307 178h113q78 0 121 47t43 137v707q0 90 -43 137t-121 47h-113v-1075z" />
<glyph unicode="E" horiz-adv-x="706" d="M113 0v1434h532v-191h-338v-414h277v-176h-277v-465h348v-188h-542z" />
<glyph unicode="F" horiz-adv-x="665" d="M113 0v1434h522v-191h-328v-479h266v-184h-266v-580h-194z" />
<glyph unicode="G" horiz-adv-x="860" d="M92 319v789q0 155 98 250.5t242 95.5q146 0 241 -92.5t95 -247.5v-162h-195v156q0 77 -39.5 120.5t-103.5 43.5q-65 0 -104 -43.5t-39 -120.5v-786q0 -77 40 -121.5t105 -44.5t105.5 44.5t40.5 121.5v272h-138v154h328v-422q0 -155 -98 -250.5t-244 -95.5 q-145 0 -239.5 92t-94.5 247z" />
<glyph unicode="H" horiz-adv-x="890" d="M113 0v1434h194v-590h277v590h194v-1434h-194v655h-277v-655h-194z" />
<glyph unicode="I" horiz-adv-x="444" d="M123 0v1434h199v-1434h-199z" />
<glyph unicode="J" horiz-adv-x="503" d="M31 -14v182q17 -2 37 -2q133 0 133 147v1121h200v-1158q0 -142 -80.5 -219t-205.5 -77q-25 0 -46 1.5t-29 2.5z" />
<glyph unicode="K" d="M113 0v1434h194v-650l275 650h217l-316 -684l336 -750h-217l-295 690v-690h-194z" />
<glyph unicode="L" horiz-adv-x="645" d="M113 0v1434h194v-1246h307v-188h-501z" />
<glyph unicode="M" horiz-adv-x="1126" d="M113 0v1434h196l260 -877l260 877h185v-1434h-183v975l-223 -750h-90l-225 750v-975h-180z" />
<glyph unicode="N" horiz-adv-x="911" d="M113 0v1434h184l330 -963v963h172v-1434h-172l-342 999v-999h-172z" />
<glyph unicode="O" horiz-adv-x="860" d="M92 319v789q0 155 98 250.5t242 95.5q146 0 241 -92.5t95 -247.5v-788q0 -155 -98 -250.5t-244 -95.5q-145 0 -239.5 92t-94.5 247zM287 324q0 -76 39 -120t104 -44q64 0 103.5 44.5t39.5 119.5v784q0 77 -39.5 120.5t-103.5 43.5q-65 0 -104 -43.5t-39 -120.5v-784z" />
<glyph unicode="P" horiz-adv-x="839" d="M113 0v1434h309q166 0 261 -93t95 -268v-164q0 -176 -97.5 -271t-264.5 -95h-109v-543h-194zM307 717h113q78 0 121 47t43 137v168q0 90 -43 137t-121 47h-113v-536z" />
<glyph unicode="Q" horiz-adv-x="860" d="M92 319v789q0 155 98 250.5t242 95.5q146 0 241 -92.5t95 -247.5v-788q0 -93 -36.5 -166t-100.5 -117l104 -289h-186l-78 230q-20 -4 -45 -4q-145 0 -239.5 92t-94.5 247zM287 324q0 -76 39 -120t104 -44q64 0 103.5 44.5t39.5 119.5v784q0 77 -39.5 120.5t-103.5 43.5 q-65 0 -104 -43.5t-39 -120.5v-784z" />
<glyph unicode="R" horiz-adv-x="860" d="M113 0v1434h309q166 0 261 -93t95 -268v-147q0 -104 -40.5 -178.5t-112.5 -110.5l215 -637h-203l-184 575q-18 -2 -60 -2h-86v-573h-194zM307 735h113q77 0 120.5 47.5t43.5 137.5v149q0 90 -43 137t-121 47h-113v-518z" />
<glyph unicode="S" horiz-adv-x="790" d="M61 313v107h187v-96q0 -78 39.5 -123t103.5 -45q65 0 104.5 42.5t39.5 116.5q0 89 -49 169.5t-175 199.5q-118 112 -177.5 218t-59.5 220q0 149 95.5 240.5t236.5 91.5q138 0 227.5 -88.5t89.5 -237.5v-84h-188v74q0 74 -36.5 117t-97.5 43q-59 0 -96 -40.5t-37 -109.5 q0 -73 46 -145t159 -180q129 -123 192.5 -237.5t63.5 -246.5q0 -152 -97.5 -245.5t-242.5 -93.5q-143 0 -235.5 90.5t-92.5 242.5z" />
<glyph unicode="T" horiz-adv-x="727" d="M31 1243v191h665v-191h-235v-1243h-195v1243h-235z" />
<glyph unicode="U" horiz-adv-x="860" d="M102 309v1125h197v-1121q0 -71 36 -112t97 -41q59 0 96 41t37 112v1121h193v-1119q0 -150 -95.5 -242.5t-236.5 -92.5q-140 0 -232 89.5t-92 239.5z" />
<glyph unicode="V" horiz-adv-x="768" d="M10 1434h207l172 -1020l172 1020h197l-281 -1434h-188z" />
<glyph unicode="W" horiz-adv-x="1126" d="M10 1434h207l131 -998l146 998h151l143 -996l132 996h196l-239 -1434h-175l-139 911l-139 -911h-176z" />
<glyph unicode="X" horiz-adv-x="813" d="M10 0l291 737l-270 697h213l164 -480l167 480h207l-272 -689l293 -745h-213l-187 530l-186 -530h-207z" />
<glyph unicode="Y" horiz-adv-x="747" d="M10 1434h207l162 -629l162 629h196l-268 -881v-553h-195v555z" />
<glyph unicode="Z" horiz-adv-x="696" d="M51 0v147l387 1106h-356v181h563v-150l-387 -1106h387v-178h-594z" />
<glyph unicode="[" horiz-adv-x="645" d="M123 -164v1761h461v-163h-277v-1434h277v-164h-461z" />
<glyph unicode="\" horiz-adv-x="737" d="M0 1597h164l573 -1761h-164z" />
<glyph unicode="]" horiz-adv-x="645" d="M61 0h277v1434h-277v163h461v-1761h-461v164z" />
<glyph unicode="^" horiz-adv-x="823" d="M61 737l271 697h160l270 -697h-191l-159 475l-158 -475h-193z" />
<glyph unicode="_" d="M0 -102h819v-140h-819v140z" />
<glyph unicode="`" horiz-adv-x="757" d="M236 1516h194l107 -338h-144z" />
<glyph unicode="a" horiz-adv-x="798" d="M72 279v45q0 137 75.5 221t190.5 84q117 0 184 -86v231q0 63 -32.5 99t-83.5 36q-52 0 -84.5 -36t-32.5 -99v-51h-178v41q0 134 86.5 220.5t210.5 86.5q127 0 213 -83.5t86 -217.5v-770h-154l-12 100q-66 -120 -209 -120q-115 0 -187.5 81t-72.5 218zM256 283 q0 -70 36.5 -112t96.5 -42q59 0 96 42t37 112v51q0 70 -37 111.5t-96 41.5q-60 0 -96.5 -41.5t-36.5 -111.5v-51z" />
<glyph unicode="b" horiz-adv-x="806" d="M102 0v1434h185v-451q66 88 184 88q111 0 182.5 -77t71.5 -206v-520q0 -130 -74 -209t-186 -79q-137 0 -199 106l-6 -86h-158zM287 295q0 -67 35.5 -106t91.5 -39q55 0 91 39.5t36 105.5v459q0 67 -35.5 106t-91.5 39q-57 0 -92 -38.5t-35 -106.5v-459z" />
<glyph unicode="c" horiz-adv-x="761" d="M82 283v479q0 134 89 221.5t216 87.5q125 0 209 -84.5t84 -218.5v-127h-176v121q0 63 -33.5 100t-85.5 37q-53 0 -86 -36.5t-33 -100.5v-475q0 -62 33 -99.5t86 -37.5q52 0 85.5 37.5t33.5 99.5v133h176v-131q0 -135 -87 -222t-212 -87q-127 0 -213 84t-86 219z" />
<glyph unicode="d" horiz-adv-x="806" d="M82 262v520q0 130 74 209.5t186 79.5t178 -82v445h185v-1434h-160l-6 92q-67 -112 -203 -112q-113 0 -183.5 75.5t-70.5 206.5zM266 295q0 -67 35.5 -106t91.5 -39q55 0 91 39.5t36 105.5v459q0 67 -35.5 106t-91.5 39q-57 0 -92 -38.5t-35 -106.5v-459z" />
<glyph unicode="e" horiz-adv-x="774" d="M82 285v473q0 137 90 225t219 88t215 -85t86 -222v-252h-426v-217q0 -67 35.5 -106t91.5 -39q55 0 91 39.5t36 105.5v63h172v-67q0 -137 -89 -224t-218 -87t-216 84t-87 221zM266 643h254v123q0 66 -36 105.5t-91 39.5q-56 0 -91.5 -39t-35.5 -106v-123z" />
<glyph unicode="f" horiz-adv-x="552" d="M31 897v154h123v139q0 130 66 197t183 67q29 0 59 -3.5t45 -6.5l15 -4v-158q-40 6 -73 6q-55 0 -83 -31t-28 -100v-106h184v-154h-184v-897h-184v897h-123z" />
<glyph unicode="g" horiz-adv-x="806" d="M82 365v417q0 130 74 209.5t186 79.5q134 0 197 -108l6 88h160v-1082q0 -140 -92 -228.5t-224 -88.5q-129 0 -215 85.5t-86 225.5v37h178v-43q0 -67 35.5 -106t91.5 -39q55 0 91 39.5t36 105.5v211q-67 -86 -184 -86q-113 0 -183.5 76t-70.5 207zM266 387 q0 -67 35.5 -106t91.5 -39q54 0 90.5 38.5t36.5 102.5v371q0 67 -35.5 106t-91.5 39q-57 0 -92 -38.5t-35 -106.5v-367z" />
<glyph unicode="h" horiz-adv-x="808" d="M102 0v1434h185v-476q66 113 194 113q105 0 170.5 -75t65.5 -208v-788h-185v758q0 68 -31 104.5t-87 36.5q-55 0 -91 -34.5t-36 -96.5v-768h-185z" />
<glyph unicode="i" horiz-adv-x="413" d="M84 1331q0 51 36 87t87 36t87 -36t36 -87t-36 -87t-87 -36t-87 36t-36 87zM113 0v1051h188v-1051h-188z" />
<glyph unicode="j" horiz-adv-x="413" d="M-20 -180q20 -2 43 -2q41 0 65.5 25.5t24.5 76.5v1131h188v-1149q0 -118 -65 -184t-168 -66q-26 0 -48 2.5t-31 5.5l-9 2v158zM82 1329q0 54 35.5 89.5t89.5 35.5q53 0 88 -35.5t35 -89.5q0 -53 -35 -88t-88 -35q-54 0 -89.5 35t-35.5 88z" />
<glyph unicode="k" horiz-adv-x="757" d="M102 0v1434h185v-834l241 451h209l-282 -476l303 -575h-215l-256 522v-522h-185z" />
<glyph unicode="l" horiz-adv-x="413" d="M113 0v1434h188v-1434h-188z" />
<glyph unicode="m" horiz-adv-x="1214" d="M102 0v1051h158l8 -103q66 123 207 123q69 0 122 -36t81 -103q31 66 87 102.5t128 36.5q104 0 166.5 -74.5t62.5 -208.5v-788h-184v758q0 69 -29.5 105t-83.5 36t-87 -35.5t-33 -99.5v-764h-185v758q0 69 -29 105t-83 36t-87.5 -37t-33.5 -104v-758h-185z" />
<glyph unicode="n" horiz-adv-x="808" d="M102 0v1051h158l8 -105q32 60 88 92.5t125 32.5q105 0 170.5 -75t65.5 -208v-788h-185v758q0 68 -31 104.5t-87 36.5t-91.5 -37t-35.5 -104v-758h-185z" />
<glyph unicode="o" horiz-adv-x="786" d="M82 291v463q0 138 91.5 227.5t221.5 89.5q132 0 221 -86.5t89 -224.5v-463q0 -140 -92 -228.5t-224 -88.5q-131 0 -219 86t-88 225zM266 295q0 -67 35.5 -106t91.5 -39q55 0 91 39.5t36 105.5v459q0 67 -35.5 106t-91.5 39q-57 0 -92 -38.5t-35 -106.5v-459z" />
<glyph unicode="p" horiz-adv-x="806" d="M102 -328v1379h158l8 -95q31 55 83.5 85t119.5 30q111 0 182.5 -77t71.5 -206v-520q0 -130 -74 -209t-186 -79q-114 0 -178 79v-387h-185zM287 295q0 -67 35.5 -106t91.5 -39q55 0 91 39.5t36 105.5v459q0 67 -35.5 106t-91.5 39q-57 0 -92 -38.5t-35 -106.5v-459z" />
<glyph unicode="q" horiz-adv-x="806" d="M82 262v520q0 130 74 209.5t186 79.5q134 0 197 -108l6 88h160v-1379h-185v394q-67 -86 -184 -86q-113 0 -183.5 75.5t-70.5 206.5zM266 295q0 -67 35.5 -106t91.5 -39q55 0 91 39.5t36 105.5v459q0 67 -35.5 106t-91.5 39q-57 0 -92 -38.5t-35 -106.5v-459z" />
<glyph unicode="r" horiz-adv-x="546" d="M102 0v1051h158l10 -140q35 78 98 119t148 41v-207h-41q-90 0 -139 -51.5t-49 -155.5v-657h-185z" />
<glyph unicode="s" horiz-adv-x="737" d="M61 281v36h177v-36q0 -65 36 -103.5t91 -38.5q56 0 91.5 36.5t35.5 98.5q0 60 -40.5 104.5t-150.5 98.5q-112 57 -169.5 133t-57.5 185q0 117 87.5 196.5t211.5 79.5q127 0 212 -80t85 -207v-30h-178v30q0 56 -32.5 90.5t-84.5 34.5q-51 0 -84 -31t-33 -83 q0 -53 38 -93.5t136 -89.5q122 -61 183 -139.5t61 -191.5q0 -131 -89 -216t-220 -85t-218.5 83t-87.5 218z" />
<glyph unicode="t" horiz-adv-x="583" d="M31 897v154h123v260h184v-260h194v-154h-194v-616q0 -69 28 -100t83 -31l73 6v-164q-53 -12 -119 -12q-117 0 -183 66t-66 196v655h-123z" />
<glyph unicode="u" horiz-adv-x="808" d="M92 262v789h184v-758q0 -68 31.5 -104.5t87.5 -36.5t91.5 37t35.5 104v758h185v-1051h-158l-8 104q-32 -60 -88 -92t-125 -32q-106 0 -171 74.5t-65 207.5z" />
<glyph unicode="v" horiz-adv-x="675" d="M10 1051h193l141 -746l139 746h183l-244 -1051h-170z" />
<glyph unicode="w" horiz-adv-x="993" d="M10 1051h193l112 -701l121 701h131l123 -701l113 701h180l-217 -1051h-158l-112 666l-111 -666h-158z" />
<glyph unicode="x" horiz-adv-x="737" d="M10 0l262 543l-241 508h192l148 -340l147 340h189l-244 -502l264 -549h-195l-165 381l-170 -381h-187z" />
<glyph unicode="y" horiz-adv-x="675" d="M10 1051h193l141 -777l139 777h183l-250 -1080q-41 -174 -110.5 -246.5t-168.5 -72.5q-28 0 -49.5 3t-29.5 6l-7 3v148q18 -5 51 -5q59 0 93.5 41t56.5 152z" />
<glyph unicode="z" horiz-adv-x="634" d="M51 0v127l336 764h-305v160h502v-129l-336 -764h336v-158h-533z" />
<glyph unicode="{" horiz-adv-x="727" d="M61 635v162h72q59 0 86 26.5t27 85.5v375q0 159 77 236t234 77h109v-159h-93q-74 0 -108.5 -34t-34.5 -110v-366q0 -100 -43 -154t-117 -57q75 -5 117.5 -58.5t42.5 -154.5v-367q0 -75 34.5 -109t108.5 -34h93v-158h-109q-158 0 -234.5 76t-76.5 235v375q0 61 -27 87 t-86 26h-72z" />
<glyph unicode="|" horiz-adv-x="526" d="M184 -205v1843h158v-1843h-158z" />
<glyph unicode="}" horiz-adv-x="727" d="M61 -4h93q74 0 108.5 33.5t34.5 109.5v367q0 100 43 154t117 57q-75 5 -117.5 58.5t-42.5 154.5v366q0 75 -34.5 109.5t-108.5 34.5h-93v157h109q158 0 234.5 -76t76.5 -235v-375q0 -61 27 -86.5t86 -25.5h72v-162h-72q-59 0 -86 -26.5t-27 -86.5v-374q0 -159 -77 -236.5 t-234 -77.5h-109v160z" />
<glyph unicode="~" d="M41 545q0 6 0.5 16t4.5 39t11.5 55t24 58t38.5 55t58 39t80 16q43 0 79.5 -14.5t62.5 -34.5t50 -40.5t52.5 -35t58.5 -14.5q22 0 38.5 12.5t24 30t12 35.5t4.5 30l1 13h137q0 -6 -0.5 -16t-5 -39t-12 -55.5t-24 -58.5t-38.5 -55t-57.5 -39t-79.5 -16q-52 0 -97.5 22 t-72 48t-62.5 48t-73 22q-22 0 -38 -12.5t-24 -30t-12.5 -35.5t-5.5 -30v-13h-135z" />
<glyph unicode="&#xa1;" horiz-adv-x="450" d="M102 1331q0 51 36 87t87 36t87 -36t36 -87t-36 -87t-87 -36t-87 36t-36 87zM119 0l43 993h129l43 -993h-215z" />
<glyph unicode="&#xa2;" horiz-adv-x="782" d="M92 666v479q0 114 69 195t175 102v155h123v-155q102 -19 166.5 -97.5t64.5 -193.5v-127h-176v121q0 63 -33.5 100t-85.5 37q-53 0 -86 -36.5t-33 -100.5v-475q0 -62 33 -100t86 -38q52 0 85.5 38t33.5 100v133h176v-131q0 -115 -64.5 -195t-166.5 -102v-156h-123v152 q-107 18 -175.5 97t-68.5 198z" />
<glyph unicode="&#xa3;" horiz-adv-x="851" d="M31 631v119h143v385q0 142 90.5 230.5t222.5 88.5q131 0 217.5 -84.5t86.5 -224.5v-141h-181v129q0 70 -33.5 108.5t-91.5 38.5t-91.5 -38.5t-33.5 -108.5v-383h254v-119h-254v-459h408v-172h-594v631h-143z" />
<glyph unicode="&#xa4;" horiz-adv-x="1044" d="M61 338l138 131q-82 102 -82 246q0 138 84 246l-140 135l89 88l143 -140q106 72 231 72q129 0 230 -69l141 137l88 -88l-139 -131q86 -110 86 -246q0 -138 -86 -248l139 -133l-88 -88l-143 135q-104 -68 -232 -68t-231 70l-139 -137zM287 717q0 -101 67.5 -170.5 t167.5 -69.5q101 0 168.5 69t67.5 171q0 100 -67.5 168.5t-168.5 68.5q-100 0 -167.5 -68.5t-67.5 -168.5z" />
<glyph unicode="&#xa5;" horiz-adv-x="808" d="M41 1434h205l162 -580l165 580h195l-223 -648h182v-108h-217l-10 -33v-110h227v-109h-227v-426h-195v426h-223v109h223v112l-10 31h-213v108h178z" />
<glyph unicode="&#xa6;" horiz-adv-x="526" d="M184 -205v686h158v-686h-158zM184 952v686h158v-686h-158z" />
<glyph unicode="&#xa7;" horiz-adv-x="983" d="M82 606q0 109 57.5 183t155.5 106q-111 120 -111 264q0 132 92.5 213.5t227.5 81.5q134 0 220.5 -78.5t86.5 -210.5v-59h-182v53q0 63 -35 101t-92 38q-58 0 -93.5 -35t-35.5 -94q0 -72 48.5 -131.5t158.5 -128.5q170 -109 245.5 -200.5t75.5 -208.5q0 -110 -58 -184.5 t-155 -106.5q111 -120 111 -262q0 -132 -92.5 -213.5t-229.5 -81.5q-134 0 -220.5 78.5t-86.5 210.5v59h182v-55q0 -61 36 -99.5t93 -38.5t92 35t35 95q0 71 -48 130t-157 130q-114 73 -180 131t-103.5 127.5t-37.5 150.5zM270 623q0 -72 55.5 -131.5t211.5 -159.5l18 -13 q67 6 111.5 51t44.5 111q0 72 -55 131.5t-212 161.5l-18 10q-67 -6 -111.5 -50.5t-44.5 -110.5z" />
<glyph unicode="&#xa8;" horiz-adv-x="1044" d="M250 1319q0 47 31.5 79t78.5 32t79 -32t32 -79t-32 -79t-79 -32t-78.5 32t-31.5 79zM573 1319q0 47 32 79t79 32t79 -32t32 -79t-32 -79t-79 -32t-79 32t-32 79z" />
<glyph unicode="&#xa9;" horiz-adv-x="1609" d="M61 713q0 153 58.5 290t158 236t238 157t293.5 58q207 0 376.5 -96.5t266 -264.5t96.5 -372t-98.5 -374t-270 -268.5t-378.5 -98.5q-155 0 -292.5 56.5t-235.5 154t-155 233.5t-57 289zM190 717q0 -129 48 -244t129.5 -197t195.5 -130t242 -48q171 0 311.5 81 t221.5 223.5t81 314.5q0 171 -81 312.5t-222 222.5t-311 81q-171 0 -312 -81t-222 -222.5t-81 -312.5zM414 713q0 172 116.5 290.5t294.5 118.5q60 0 114.5 -14.5t89 -35t60 -40.5t37.5 -34l11 -15l-109 -92q-3 4 -8 10t-23 21.5t-39 27.5t-56 21.5t-73 9.5 q-111 0 -186.5 -75.5t-75.5 -188.5t75.5 -188.5t186.5 -75.5q41 0 77.5 10.5t60 25.5t41 30t24.5 25l8 11l103 -92q-4 -6 -12 -16.5t-37.5 -36.5t-64 -46t-91.5 -36.5t-119 -16.5q-178 0 -291.5 115t-113.5 287z" />
<glyph unicode="&#xaa;" horiz-adv-x="555" d="M72 965v18q0 87 47.5 139t122.5 52q69 0 110 -44v134q0 31 -17 49t-48 18q-29 0 -46.5 -18t-17.5 -49v-35h-127v20q0 85 56 139t137 54q85 0 139.5 -52t54.5 -137v-462h-110l-8 53q-40 -66 -127 -66q-75 0 -120.5 50t-45.5 137zM92 569v101h391v-101h-391zM203 961 q0 -38 19.5 -61t53.5 -23q35 0 55.5 23t20.5 61v34q0 40 -20.5 63t-55.5 23q-34 0 -53.5 -23t-19.5 -63v-34z" />
<glyph unicode="&#xab;" horiz-adv-x="1187" d="M61 686v62l404 378l102 -102l-295 -305l295 -303l-102 -109zM580 686v62l403 378l102 -102l-294 -305l294 -303l-102 -109z" />
<glyph unicode="&#xac;" d="M61 717v147h697v-444h-160v297h-537z" />
<glyph unicode="&#xad;" horiz-adv-x="614" d="M61 645v168h492v-168h-492z" />
<glyph unicode="&#xae;" horiz-adv-x="835" d="M61 1098q0 150 103.5 253t255.5 103q151 0 252.5 -101.5t101.5 -250.5q0 -150 -103 -253.5t-255 -103.5q-151 0 -253 102t-102 251zM145 1100q0 -118 78.5 -196.5t194.5 -78.5t194 78.5t78 196.5t-78 196t-194 78t-194.5 -78t-78.5 -196zM287 928v344h153q57 0 92 -31.5 t35 -83.5q0 -77 -75 -104l90 -125h-93l-79 116h-43v-116h-80zM367 1106h63q59 0 59 49q0 51 -59 51h-63v-100z" />
<glyph unicode="&#xaf;" horiz-adv-x="942" d="M205 1288v131h532v-131h-532z" />
<glyph unicode="&#xb0;" horiz-adv-x="733" d="M61 1151q0 128 88.5 215.5t217.5 87.5t217 -87t88 -214q0 -129 -89 -216t-218 -87t-216.5 86t-87.5 215zM207 1151q0 -69 45.5 -116.5t114.5 -47.5q67 0 112 47.5t45 116.5q0 70 -45 118t-112 48q-68 0 -114 -48t-46 -118z" />
<glyph unicode="&#xb1;" d="M61 215v147h697v-147h-697zM61 786v148h275v285h147v-285h275v-148h-275v-284h-147v284h-275z" />
<glyph unicode="&#xb2;" horiz-adv-x="489" d="M51 573v93l217 417q39 73 39 156q0 84 -65 84q-31 0 -48.5 -21.5t-17.5 -62.5v-76h-125v80q0 89 56 146t139 57q84 0 138 -56t54 -149t-61 -209l-180 -342h241v-117h-387z" />
<glyph unicode="&#xb3;" horiz-adv-x="495" d="M51 762v76h125v-76q0 -39 18.5 -60.5t51.5 -21.5q67 0 67 82v121q0 40 -17.5 62t-49.5 22h-49v102h49q28 0 43.5 20.5t15.5 55.5v108q0 35 -15.5 54.5t-43.5 19.5t-44 -19.5t-16 -54.5v-65h-127v63q0 86 55 140.5t134 54.5q80 0 134 -53t54 -140v-84q0 -94 -65 -149 q73 -57 73 -160v-94q0 -92 -57 -148.5t-143 -56.5q-85 0 -139 55t-54 146z" />
<glyph unicode="&#xb4;" horiz-adv-x="757" d="M221 1178l107 338h194l-157 -338h-144z" />
<glyph unicode="&#xb5;" d="M102 -328v1379h185v-760q0 -67 31 -104t85 -37q57 0 93 37.5t36 103.5v760h185v-1051h-160l-8 94q-29 -54 -76 -84t-100 -30q-44 0 -86 20v-328h-185z" />
<glyph unicode="&#xb6;" horiz-adv-x="1130" d="M51 1073q0 154 96 257.5t265 103.5h555v-1434h-185v1270h-174v-1270h-184v717h-16q-112 0 -195 50t-122.5 129.5t-39.5 176.5z" />
<glyph unicode="&#xb7;" horiz-adv-x="389" d="M72 717q0 51 36 87t87 36t86.5 -36t35.5 -87t-35.5 -87t-86.5 -36t-87 36t-36 87z" />
<glyph unicode="&#xb8;" horiz-adv-x="727" d="M205 -260q20 -10 71 -10q61 0 99.5 35.5t38.5 97.5q0 42 -19 76t-38 47l-19 14l82 66q6 -3 15.5 -8t34 -24.5t43.5 -43t34.5 -64t15.5 -86.5q0 -111 -75 -175t-187 -64q-25 0 -49 3t-36 6l-11 3v127z" />
<glyph unicode="&#xb9;" horiz-adv-x="421" d="M10 1251l219 183h111v-861h-131v699l-129 -107z" />
<glyph unicode="&#xba;" horiz-adv-x="546" d="M72 977v264q0 90 58.5 146.5t143.5 56.5q86 0 143.5 -54.5t57.5 -144.5v-264q0 -90 -59 -145.5t-146 -55.5q-86 0 -142 53.5t-56 143.5zM92 569v101h363v-101h-363zM203 975q0 -37 19.5 -57.5t49.5 -20.5q32 0 52 20.5t20 57.5v274q0 37 -20 56.5t-52 19.5 q-31 0 -50 -19.5t-19 -56.5v-274z" />
<glyph unicode="&#xbb;" horiz-adv-x="1187" d="M102 410l295 305l-295 303l103 108l403 -378v-62l-403 -379zM621 410l294 305l-294 303l102 108l403 -378v-62l-403 -379z" />
<glyph unicode="&#xbc;" horiz-adv-x="1236" d="M20 1251l220 183h110v-861h-131v699l-129 -107zM154 0l829 1434h133l-829 -1434h-133zM725 207v108l238 545h124v-547h68v-106h-68v-207h-120v207h-242zM831 313h136v326z" />
<glyph unicode="&#xbd;" horiz-adv-x="1333" d="M20 1251l220 183h110v-861h-131v699l-129 -107zM154 0l829 1434h133l-829 -1434h-133zM854 0v92l217 418q39 73 39 156q0 41 -17.5 62.5t-48.5 21.5q-65 0 -65 -84v-76h-125v80q0 89 56 145.5t139 56.5q84 0 138 -55.5t54 -148.5t-61 -209l-181 -342h242v-117h-387z" />
<glyph unicode="&#xbe;" horiz-adv-x="1247" d="M51 762v76h125v-76q0 -39 18.5 -60.5t51.5 -21.5q67 0 67 82v121q0 40 -17.5 62t-49.5 22h-49v102h49q28 0 43.5 20.5t15.5 55.5v108q0 35 -15.5 54.5t-43.5 19.5t-44 -19.5t-16 -54.5v-65h-127v63q0 86 55 140.5t134 54.5q80 0 134 -53t54 -140v-84q0 -94 -65 -149 q73 -57 73 -160v-94q0 -92 -57 -148.5t-143 -56.5q-85 0 -139 55t-54 146zM164 0l829 1434h133l-829 -1434h-133zM735 207v108l238 545h125v-547h67v-106h-67v-207h-121v207h-242zM842 313h135v326z" />
<glyph unicode="&#xbf;" horiz-adv-x="749" d="M61 305q0 78 23.5 152t56.5 132t66 113.5t56.5 117.5t23.5 122v51h172v-61q0 -63 -21.5 -127.5t-52.5 -120.5t-62.5 -112t-53 -123t-21.5 -134q0 -74 34.5 -114.5t92.5 -40.5t91.5 40.5t33.5 114.5v115h178v-117q0 -151 -88.5 -242t-220.5 -91q-133 0 -220.5 89 t-87.5 236zM250 1331q0 51 36 87t87 36t87 -36t36 -87t-36 -87t-87 -36t-87 36t-36 87z" />
<glyph unicode="&#xc0;" horiz-adv-x="788" d="M10 0l289 1434h188l291 -1434h-203l-57 322h-262l-55 -322h-191zM154 1884h194l107 -338h-144zM281 477h215l-109 604z" />
<glyph unicode="&#xc1;" horiz-adv-x="788" d="M10 0l289 1434h188l291 -1434h-203l-57 322h-262l-55 -322h-191zM281 477h215l-109 604zM334 1546l106 338h195l-158 -338h-143z" />
<glyph unicode="&#xc2;" horiz-adv-x="788" d="M10 0l289 1434h188l291 -1434h-203l-57 322h-262l-55 -322h-191zM127 1546l195 338h143l194 -338h-147l-123 199l-121 -199h-141zM281 477h215l-109 604z" />
<glyph unicode="&#xc3;" horiz-adv-x="788" d="M10 0l289 1434h188l291 -1434h-203l-57 322h-262l-55 -322h-191zM115 1571q0 4 0.5 12t4 29.5t9 41.5t18.5 44.5t30.5 42t46 29.5t63.5 12q34 0 61 -11.5t45.5 -28t34.5 -33.5t34.5 -28.5t39.5 -11.5q25 0 40 23t17 46l2 23h111q0 -8 -1 -22.5t-10 -50.5t-25 -63.5 t-51 -50t-83 -22.5q-34 0 -61.5 11.5t-45.5 28t-34.5 33.5t-35 28.5t-38.5 11.5q-26 0 -41.5 -23.5t-17.5 -47.5l-3 -23h-110zM281 477h215l-109 604z" />
<glyph unicode="&#xc4;" horiz-adv-x="788" d="M10 0l289 1434h188l291 -1434h-203l-57 322h-262l-55 -322h-191zM121 1688q0 47 31.5 78.5t78.5 31.5t79 -31.5t32 -78.5t-32 -79t-79 -32t-78.5 32t-31.5 79zM281 477h215l-109 604zM444 1688q0 47 32 78.5t79 31.5t79 -31.5t32 -78.5t-32 -79t-79 -32t-79 32t-32 79z " />
<glyph unicode="&#xc5;" horiz-adv-x="788" d="M10 0l289 1434h188l291 -1434h-203l-57 322h-262l-55 -322h-191zM207 1724q0 78 52.5 129.5t133.5 51.5q82 0 135.5 -51.5t53.5 -129.5q0 -77 -53.5 -127.5t-135.5 -50.5q-81 0 -133.5 50.5t-52.5 127.5zM281 477h215l-109 604zM307 1724q0 -38 24.5 -62t61.5 -24 q38 0 63 24t25 62t-25 63t-63 25q-37 0 -61.5 -25t-24.5 -63z" />
<glyph unicode="&#xc6;" horiz-adv-x="1126" d="M0 0l410 1434h655v-191h-338v-414h277v-176h-277v-465h348v-188h-543v322h-251l-91 -322h-190zM315 477h217v797z" />
<glyph unicode="&#xc7;" horiz-adv-x="831" d="M92 309v809q0 150 95 243t235 93q138 0 227.5 -88.5t89.5 -237.5v-196h-186v186q0 72 -36.5 113t-96.5 41q-61 0 -97 -40.5t-36 -113.5v-805q0 -71 36 -112t97 -41q59 0 96 41t37 112v209h186v-213q0 -126 -68.5 -211.5t-178.5 -109.5q49 -59 49 -148q0 -111 -75 -175 t-187 -64q-25 0 -49.5 3t-35.5 6l-12 3v127q21 -10 72 -10q61 0 99 35.5t38 97.5q0 45 -19 78t-42 49q-107 25 -172.5 109t-65.5 210z" />
<glyph unicode="&#xc8;" horiz-adv-x="706" d="M113 0v1434h532v-191h-338v-414h277v-176h-277v-465h348v-188h-542zM174 1884h195l106 -338h-143z" />
<glyph unicode="&#xc9;" horiz-adv-x="706" d="M113 0v1434h532v-191h-338v-414h277v-176h-277v-465h348v-188h-542zM324 1546l106 338h195l-158 -338h-143z" />
<glyph unicode="&#xca;" horiz-adv-x="706" d="M113 0v1434h532v-191h-338v-414h277v-176h-277v-465h348v-188h-542zM113 1546l194 338h144l194 -338h-147l-123 199l-121 -199h-141z" />
<glyph unicode="&#xcb;" horiz-adv-x="706" d="M111 1688q0 47 31.5 78.5t78.5 31.5t79 -31.5t32 -78.5t-32 -79t-79 -32t-78.5 32t-31.5 79zM113 0v1434h532v-191h-338v-414h277v-176h-277v-465h348v-188h-542zM434 1688q0 47 32 78.5t79 31.5t78.5 -31.5t31.5 -78.5t-31.5 -79t-78.5 -32t-79 32t-32 79z" />
<glyph unicode="&#xcc;" horiz-adv-x="444" d="M-10 1884h194l107 -338h-144zM123 0v1434h199v-1434h-199z" />
<glyph unicode="&#xcd;" horiz-adv-x="444" d="M123 0v1434h199v-1434h-199zM154 1546l106 338h195l-158 -338h-143z" />
<glyph unicode="&#xce;" horiz-adv-x="444" d="M-45 1546l195 338h143l194 -338h-147l-123 199l-121 -199h-141zM123 0v1434h199v-1434h-199z" />
<glyph unicode="&#xcf;" horiz-adv-x="444" d="M-49 1688q0 47 31.5 78.5t78.5 31.5t79 -31.5t32 -78.5t-32 -79t-79 -32t-78.5 32t-31.5 79zM123 0v1434h199v-1434h-199zM274 1688q0 47 32 78.5t79 31.5t79 -31.5t32 -78.5t-32 -79t-79 -32t-79 32t-32 79z" />
<glyph unicode="&#xd0;" horiz-adv-x="931" d="M20 662v124h154v648h320q160 0 253 -91t93 -260v-727q0 -169 -96.5 -262.5t-256.5 -93.5h-313v662h-154zM369 178h112q78 0 121 47t43 137v707q0 90 -43 137t-121 47h-112v-467h174v-124h-174v-484z" />
<glyph unicode="&#xd1;" horiz-adv-x="911" d="M113 0v1434h184l330 -963v963h172v-1434h-172l-342 999v-999h-172zM186 1591q0 4 0.5 12t4 29.5t9 41.5t18.5 44.5t30.5 42t46 29.5t63.5 12q41 0 74 -17.5t50.5 -38.5t41.5 -38.5t49 -17.5t40 23t17 46l3 23h110q0 -8 -1 -22.5t-10 -50.5t-25 -63.5t-51 -50t-83 -22.5 q-34 0 -61.5 11.5t-45.5 28.5t-34.5 33.5t-35 28t-38.5 11.5q-26 0 -41.5 -24t-17.5 -48l-2 -23h-111z" />
<glyph unicode="&#xd2;" horiz-adv-x="860" d="M92 319v789q0 155 98 250.5t242 95.5q146 0 241 -92.5t95 -247.5v-788q0 -155 -98 -250.5t-244 -95.5q-145 0 -239.5 92t-94.5 247zM205 1884h194l107 -338h-144zM287 324q0 -76 39 -120t104 -44q64 0 103.5 44.5t39.5 119.5v784q0 77 -39.5 120.5t-103.5 43.5 q-65 0 -104 -43.5t-39 -120.5v-784z" />
<glyph unicode="&#xd3;" horiz-adv-x="860" d="M92 319v789q0 155 98 250.5t242 95.5q146 0 241 -92.5t95 -247.5v-788q0 -155 -98 -250.5t-244 -95.5q-145 0 -239.5 92t-94.5 247zM287 324q0 -76 39 -120t104 -44q64 0 103.5 44.5t39.5 119.5v784q0 77 -39.5 120.5t-103.5 43.5q-65 0 -104 -43.5t-39 -120.5v-784z M354 1546l107 338h194l-157 -338h-144z" />
<glyph unicode="&#xd4;" horiz-adv-x="860" d="M92 319v789q0 155 98 250.5t242 95.5q146 0 241 -92.5t95 -247.5v-788q0 -155 -98 -250.5t-244 -95.5q-145 0 -239.5 92t-94.5 247zM164 1546l194 338h144l194 -338h-147l-123 199l-121 -199h-141zM287 324q0 -76 39 -120t104 -44q64 0 103.5 44.5t39.5 119.5v784 q0 77 -39.5 120.5t-103.5 43.5q-65 0 -104 -43.5t-39 -120.5v-784z" />
<glyph unicode="&#xd5;" horiz-adv-x="860" d="M92 319v789q0 155 98 250.5t242 95.5q146 0 241 -92.5t95 -247.5v-788q0 -155 -98 -250.5t-244 -95.5q-145 0 -239.5 92t-94.5 247zM152 1591q0 4 0.5 12t4 29.5t9 41.5t18.5 44.5t30.5 42t46 29.5t63.5 12q41 0 74 -17.5t50.5 -38.5t41.5 -38.5t49 -17.5t40 23t17 46 l2 23h111q0 -8 -1 -22.5t-10 -50.5t-25 -63.5t-51 -50t-83 -22.5q-34 0 -61.5 11.5t-45.5 28.5t-34.5 33.5t-35 28t-38.5 11.5q-26 0 -41.5 -24t-18.5 -48l-2 -23h-110zM287 324q0 -76 39 -120t104 -44q64 0 103.5 44.5t39.5 119.5v784q0 77 -39.5 120.5t-103.5 43.5 q-65 0 -104 -43.5t-39 -120.5v-784z" />
<glyph unicode="&#xd6;" horiz-adv-x="860" d="M92 319v789q0 155 98 250.5t242 95.5q146 0 241 -92.5t95 -247.5v-788q0 -155 -98 -250.5t-244 -95.5q-145 0 -239.5 92t-94.5 247zM158 1688q0 47 31.5 78.5t78.5 31.5t79 -31.5t32 -78.5t-32 -79t-79 -32t-78.5 32t-31.5 79zM287 324q0 -76 39 -120t104 -44 q64 0 103.5 44.5t39.5 119.5v784q0 77 -39.5 120.5t-103.5 43.5q-65 0 -104 -43.5t-39 -120.5v-784zM481 1688q0 47 32 78.5t79 31.5t78.5 -31.5t31.5 -78.5t-31.5 -79t-78.5 -32t-79 32t-32 79z" />
<glyph unicode="&#xd7;" d="M68 481l239 236l-239 233l104 107l236 -240l235 240l107 -107l-242 -233l242 -236l-107 -104l-235 239l-236 -239z" />
<glyph unicode="&#xd8;" horiz-adv-x="860" d="M72 -61l73 184q-53 80 -53 196v789q0 155 98 250.5t244 95.5q119 0 209 -68l43 109h102l-73 -186q53 -85 53 -195v-788q0 -155 -98 -250.5t-242 -95.5q-125 0 -211 65l-43 -106h-102zM287 481l274 699q-15 44 -49.5 68t-81.5 24q-64 0 -103.5 -43.5t-39.5 -120.5v-627z M297 252q17 -44 52 -68t81 -24q65 0 104 44t39 120v626z" />
<glyph unicode="&#xd9;" horiz-adv-x="860" d="M102 309v1125h197v-1121q0 -71 36 -112t97 -41q59 0 96 41t37 112v1121h193v-1119q0 -150 -95.5 -242.5t-236.5 -92.5q-140 0 -232 89.5t-92 239.5zM197 1884h194l107 -338h-144z" />
<glyph unicode="&#xda;" horiz-adv-x="860" d="M102 309v1125h197v-1121q0 -71 36 -112t97 -41q59 0 96 41t37 112v1121h193v-1119q0 -150 -95.5 -242.5t-236.5 -92.5q-140 0 -232 89.5t-92 239.5zM367 1546l106 338h195l-158 -338h-143z" />
<glyph unicode="&#xdb;" horiz-adv-x="860" d="M102 309v1125h197v-1121q0 -71 36 -112t97 -41q59 0 96 41t37 112v1121h193v-1119q0 -150 -95.5 -242.5t-236.5 -92.5q-140 0 -232 89.5t-92 239.5zM164 1546l194 338h144l194 -338h-147l-123 199l-121 -199h-141z" />
<glyph unicode="&#xdc;" horiz-adv-x="860" d="M102 309v1125h197v-1121q0 -71 36 -112t97 -41q59 0 96 41t37 112v1121h193v-1119q0 -150 -95.5 -242.5t-236.5 -92.5q-140 0 -232 89.5t-92 239.5zM158 1688q0 47 31.5 78.5t78.5 31.5t79 -31.5t32 -78.5t-32 -79t-79 -32t-78.5 32t-31.5 79zM481 1688q0 47 32 78.5 t79 31.5t78.5 -31.5t31.5 -78.5t-31.5 -79t-78.5 -32t-79 32t-32 79z" />
<glyph unicode="&#xdd;" horiz-adv-x="747" d="M10 1434h207l162 -629l162 629h196l-268 -881v-553h-195v555zM319 1546l107 338h195l-158 -338h-144z" />
<glyph unicode="&#xde;" horiz-adv-x="839" d="M113 0v1434h194v-252h115q166 0 261 -92.5t95 -268.5v-137q0 -176 -98 -271.5t-264 -95.5h-109v-317h-194zM307 492h113q78 0 121 47t43 137v147q0 90 -43.5 137.5t-120.5 47.5h-113v-516z" />
<glyph unicode="&#xdf;" horiz-adv-x="825" d="M102 0v1143q0 137 89.5 224t218.5 87q131 0 217 -83.5t86 -221.5v-148q0 -150 -107 -237q68 -38 108 -107t40 -159v-217q0 -132 -86.5 -216.5t-210.5 -84.5l-58 4v170q14 -4 43 -4q55 0 91 39.5t36 105.5v217q0 67 -35.5 106t-91.5 39h-43v168h9q53 0 86.5 37.5 t33.5 102.5v178q0 66 -33 102.5t-87 36.5q-55 0 -88 -36.5t-33 -102.5v-1143h-185z" />
<glyph unicode="&#xe0;" horiz-adv-x="798" d="M72 279v45q0 137 75.5 221t190.5 84q117 0 184 -86v231q0 63 -32.5 99t-83.5 36q-52 0 -84.5 -36t-32.5 -99v-51h-178v41q0 134 86.5 220.5t210.5 86.5q127 0 213 -83.5t86 -217.5v-770h-154l-12 100q-66 -120 -209 -120q-115 0 -187.5 81t-72.5 218zM203 1516h194 l107 -338h-144zM256 283q0 -70 36.5 -112t96.5 -42q59 0 96 42t37 112v51q0 70 -37 111.5t-96 41.5q-60 0 -96.5 -41.5t-36.5 -111.5v-51z" />
<glyph unicode="&#xe1;" horiz-adv-x="798" d="M72 279v45q0 137 75.5 221t190.5 84q117 0 184 -86v231q0 63 -32.5 99t-83.5 36q-52 0 -84.5 -36t-32.5 -99v-51h-178v41q0 134 86.5 220.5t210.5 86.5q127 0 213 -83.5t86 -217.5v-770h-154l-12 100q-66 -120 -209 -120q-115 0 -187.5 81t-72.5 218zM256 283 q0 -70 36.5 -112t96.5 -42q59 0 96 42t37 112v51q0 70 -37 111.5t-96 41.5q-60 0 -96.5 -41.5t-36.5 -111.5v-51zM360 1178l107 338h195l-158 -338h-144z" />
<glyph unicode="&#xe2;" horiz-adv-x="798" d="M72 279v45q0 137 75.5 221t190.5 84q117 0 184 -86v231q0 63 -32.5 99t-83.5 36q-52 0 -84.5 -36t-32.5 -99v-51h-178v41q0 134 86.5 220.5t210.5 86.5q127 0 213 -83.5t86 -217.5v-770h-154l-12 100q-66 -120 -209 -120q-115 0 -187.5 81t-72.5 218zM147 1178l195 338 h143l195 -338h-148l-122 198l-121 -198h-142zM256 283q0 -70 36.5 -112t96.5 -42q59 0 96 42t37 112v51q0 70 -37 111.5t-96 41.5q-60 0 -96.5 -41.5t-36.5 -111.5v-51z" />
<glyph unicode="&#xe3;" horiz-adv-x="798" d="M72 279v45q0 137 75.5 221t190.5 84q117 0 184 -86v231q0 63 -32.5 99t-83.5 36q-52 0 -84.5 -36t-32.5 -99v-51h-178v41q0 134 86.5 220.5t210.5 86.5q127 0 213 -83.5t86 -217.5v-770h-154l-12 100q-66 -120 -209 -120q-115 0 -187.5 81t-72.5 218zM135 1223 q0 4 0.5 12t4 29.5t9 41.5t18.5 44.5t30.5 42t46 29.5t63.5 12q34 0 61 -11.5t45.5 -28t34.5 -33.5t34.5 -28.5t39.5 -11.5q25 0 40 23t18 46l2 23h110q0 -8 -1 -22.5t-10 -50.5t-25 -63.5t-51 -50t-83 -22.5q-34 0 -61.5 11.5t-45.5 28t-34.5 33.5t-35 28.5t-38.5 11.5 q-26 0 -41.5 -23.5t-17.5 -47.5l-2 -23h-111zM256 283q0 -70 36.5 -112t96.5 -42q59 0 96 42t37 112v51q0 70 -37 111.5t-96 41.5q-60 0 -96.5 -41.5t-36.5 -111.5v-51z" />
<glyph unicode="&#xe4;" horiz-adv-x="798" d="M72 279v45q0 137 75.5 221t190.5 84q117 0 184 -86v231q0 63 -32.5 99t-83.5 36q-52 0 -84.5 -36t-32.5 -99v-51h-178v41q0 134 86.5 220.5t210.5 86.5q127 0 213 -83.5t86 -217.5v-770h-154l-12 100q-66 -120 -209 -120q-115 0 -187.5 81t-72.5 218zM147 1319 q0 47 32 79t79 32t79 -32t32 -79t-32 -79t-79 -32t-79 32t-32 79zM256 283q0 -70 36.5 -112t96.5 -42q59 0 96 42t37 112v51q0 70 -37 111.5t-96 41.5q-60 0 -96.5 -41.5t-36.5 -111.5v-51zM471 1319q0 47 32 79t79 32t78.5 -32t31.5 -79t-31.5 -79t-78.5 -32t-79 32t-32 79 z" />
<glyph unicode="&#xe5;" horiz-adv-x="798" d="M72 279v45q0 137 75.5 221t190.5 84q117 0 184 -86v231q0 63 -32.5 99t-83.5 36q-52 0 -84.5 -36t-32.5 -99v-51h-178v41q0 134 86.5 220.5t210.5 86.5q127 0 213 -83.5t86 -217.5v-770h-154l-12 100q-66 -120 -209 -120q-115 0 -187.5 81t-72.5 218zM236 1356 q0 78 52.5 129t133.5 51q82 0 135 -51t53 -129q0 -77 -53 -127.5t-135 -50.5q-81 0 -133.5 50.5t-52.5 127.5zM256 283q0 -70 36.5 -112t96.5 -42q59 0 96 42t37 112v51q0 70 -37 111.5t-96 41.5q-60 0 -96.5 -41.5t-36.5 -111.5v-51zM336 1356q0 -38 24.5 -62t61.5 -24 q38 0 63 24t25 62t-25 63t-63 25q-37 0 -61.5 -25t-24.5 -63z" />
<glyph unicode="&#xe6;" horiz-adv-x="1214" d="M72 279v45q0 137 75.5 221t190.5 84q117 0 184 -86v231q0 63 -32.5 99t-83.5 36q-52 0 -84.5 -36t-32.5 -99v-51h-178v41q0 134 86.5 220.5t210.5 86.5q137 0 208 -104q81 104 215 104q129 0 215.5 -85t86.5 -222v-252h-426v-217q0 -67 35.5 -106t91.5 -39q55 0 91 39.5 t36 105.5v63h172v-67q0 -137 -89.5 -224t-218.5 -87q-79 0 -139 34.5t-94 96.5q-34 -62 -99 -96.5t-151 -34.5q-121 0 -195.5 80.5t-74.5 218.5zM256 283q0 -70 36.5 -112t96.5 -42q59 0 96 42t37 112v51q0 70 -37 111.5t-96 41.5q-60 0 -96.5 -41.5t-36.5 -111.5v-51z M707 639h254v135q0 67 -36 106.5t-91 39.5q-57 0 -92 -39t-35 -107v-135z" />
<glyph unicode="&#xe7;" horiz-adv-x="761" d="M82 283v479q0 134 89 221.5t216 87.5q125 0 209 -84.5t84 -218.5v-127h-176v121q0 63 -33.5 100t-85.5 37q-53 0 -86 -36.5t-33 -100.5v-475q0 -62 33 -99.5t86 -37.5q52 0 85.5 37.5t33.5 99.5v133h176v-131q0 -114 -61.5 -193.5t-159.5 -105.5q49 -64 49 -150 q0 -111 -75 -175t-187 -64q-25 0 -49 3t-35 6l-12 3v127q20 -10 71 -10q61 0 99 35.5t38 97.5q0 45 -19 78t-42 49q-97 25 -156 102.5t-59 190.5z" />
<glyph unicode="&#xe8;" horiz-adv-x="774" d="M82 285v473q0 137 90 225t219 88t215 -85t86 -222v-252h-426v-217q0 -67 35.5 -106t91.5 -39q55 0 91 39.5t36 105.5v63h172v-67q0 -137 -89 -224t-218 -87t-216 84t-87 221zM170 1516h195l106 -338h-143zM266 643h254v123q0 66 -36 105.5t-91 39.5q-56 0 -91.5 -39 t-35.5 -106v-123z" />
<glyph unicode="&#xe9;" horiz-adv-x="774" d="M82 285v473q0 137 90 225t219 88t215 -85t86 -222v-252h-426v-217q0 -67 35.5 -106t91.5 -39q55 0 91 39.5t36 105.5v63h172v-67q0 -137 -89 -224t-218 -87t-216 84t-87 221zM266 643h254v123q0 66 -36 105.5t-91 39.5q-56 0 -91.5 -39t-35.5 -106v-123zM338 1178 l106 338h195l-158 -338h-143z" />
<glyph unicode="&#xea;" horiz-adv-x="774" d="M82 285v473q0 137 90 225t219 88t215 -85t86 -222v-252h-426v-217q0 -67 35.5 -106t91.5 -39q55 0 91 39.5t36 105.5v63h172v-67q0 -137 -89 -224t-218 -87t-216 84t-87 221zM119 1178l194 338h144l194 -338h-147l-123 198l-121 -198h-141zM266 643h254v123 q0 66 -36 105.5t-91 39.5q-56 0 -91.5 -39t-35.5 -106v-123z" />
<glyph unicode="&#xeb;" horiz-adv-x="774" d="M82 285v473q0 137 90 225t219 88t215 -85t86 -222v-252h-426v-217q0 -67 35.5 -106t91.5 -39q55 0 91 39.5t36 105.5v63h172v-67q0 -137 -89 -224t-218 -87t-216 84t-87 221zM113 1319q0 47 31.5 79t78.5 32t79 -32t32 -79t-32 -79t-79 -32t-78.5 32t-31.5 79zM266 643 h254v123q0 66 -36 105.5t-91 39.5q-56 0 -91.5 -39t-35.5 -106v-123zM436 1319q0 47 32 79t79 32t78.5 -32t31.5 -79t-31.5 -79t-78.5 -32t-79 32t-32 79z" />
<glyph unicode="&#xec;" horiz-adv-x="413" d="M-31 1516h195l106 -338h-143zM113 0v1051h188v-1051h-188z" />
<glyph unicode="&#xed;" horiz-adv-x="413" d="M113 0v1051h188v-1051h-188zM143 1178l107 338h194l-157 -338h-144z" />
<glyph unicode="&#xee;" horiz-adv-x="413" d="M-59 1178l194 338h144l194 -338h-147l-123 198l-121 -198h-141zM113 0v1051h188v-1051h-188z" />
<glyph unicode="&#xef;" horiz-adv-x="413" d="M-66 1319q0 47 32 79t79 32t79 -32t32 -79t-32 -79t-79 -32t-79 32t-32 79zM113 0v1051h188v-1051h-188zM258 1319q0 47 32 79t79 32t78.5 -32t31.5 -79t-31.5 -79t-78.5 -32t-79 32t-32 79z" />
<glyph unicode="&#xf0;" horiz-adv-x="786" d="M82 291v446q0 131 83 212t206 81q34 0 78 -14l-91 186l-184 -45v107l139 34l-63 136h186l41 -95l228 58v-107l-185 -47l144 -323q41 -90 41 -252v-371q0 -140 -92 -228.5t-224 -88.5q-131 0 -219 86t-88 225zM266 295q0 -67 35.5 -106t91.5 -39q55 0 91 39.5t36 105.5 v438q0 67 -36 106.5t-91 39.5q-57 0 -92 -39t-35 -107v-438z" />
<glyph unicode="&#xf1;" horiz-adv-x="808" d="M102 0v1051h158l8 -105q32 60 88 92.5t125 32.5q105 0 170.5 -75t65.5 -208v-788h-185v758q0 68 -31 104.5t-87 36.5t-91.5 -37t-35.5 -104v-758h-185zM139 1223q0 4 0.5 12t4 29.5t9 41.5t18.5 44.5t30.5 42t46 29.5t63.5 12q34 0 61 -11.5t45.5 -28t34.5 -33.5 t34.5 -28.5t39.5 -11.5q25 0 40 23t18 46l2 23h110q0 -8 -1 -22.5t-10 -50.5t-25 -63.5t-51 -50t-83 -22.5q-34 0 -61.5 11.5t-45.5 28t-34.5 33.5t-35 28.5t-38.5 11.5q-26 0 -41.5 -23.5t-17.5 -47.5l-2 -23h-111z" />
<glyph unicode="&#xf2;" horiz-adv-x="786" d="M82 291v463q0 138 91.5 227.5t221.5 89.5q132 0 221 -86.5t89 -224.5v-463q0 -140 -92 -228.5t-224 -88.5q-131 0 -219 86t-88 225zM164 1516h194l107 -338h-143zM266 295q0 -67 35.5 -106t91.5 -39q55 0 91 39.5t36 105.5v459q0 67 -35.5 106t-91.5 39q-57 0 -92 -38.5 t-35 -106.5v-459z" />
<glyph unicode="&#xf3;" horiz-adv-x="786" d="M82 291v463q0 138 91.5 227.5t221.5 89.5q132 0 221 -86.5t89 -224.5v-463q0 -140 -92 -228.5t-224 -88.5q-131 0 -219 86t-88 225zM266 295q0 -67 35.5 -106t91.5 -39q55 0 91 39.5t36 105.5v459q0 67 -35.5 106t-91.5 39q-57 0 -92 -38.5t-35 -106.5v-459zM322 1178 l106 338h195l-158 -338h-143z" />
<glyph unicode="&#xf4;" horiz-adv-x="786" d="M82 291v463q0 138 91.5 227.5t221.5 89.5q132 0 221 -86.5t89 -224.5v-463q0 -140 -92 -228.5t-224 -88.5q-131 0 -219 86t-88 225zM127 1178l195 338h143l194 -338h-147l-123 198l-121 -198h-141zM266 295q0 -67 35.5 -106t91.5 -39q55 0 91 39.5t36 105.5v459 q0 67 -35.5 106t-91.5 39q-57 0 -92 -38.5t-35 -106.5v-459z" />
<glyph unicode="&#xf5;" horiz-adv-x="786" d="M82 291v463q0 138 91.5 227.5t221.5 89.5q132 0 221 -86.5t89 -224.5v-463q0 -140 -92 -228.5t-224 -88.5q-131 0 -219 86t-88 225zM115 1223q0 4 0.5 12t4 29.5t9 41.5t18.5 44.5t30.5 42t46 29.5t63.5 12q34 0 61 -11.5t45.5 -28t34.5 -33.5t34.5 -28.5t39.5 -11.5 q25 0 40 23t17 46l2 23h111q0 -8 -1 -22.5t-10 -50.5t-25 -63.5t-51 -50t-83 -22.5q-34 0 -61.5 11.5t-45.5 28t-34.5 33.5t-35 28.5t-38.5 11.5q-26 0 -41.5 -23.5t-17.5 -47.5l-3 -23h-110zM266 295q0 -67 35.5 -106t91.5 -39q55 0 91 39.5t36 105.5v459q0 67 -35.5 106 t-91.5 39q-57 0 -92 -38.5t-35 -106.5v-459z" />
<glyph unicode="&#xf6;" horiz-adv-x="786" d="M82 291v463q0 138 91.5 227.5t221.5 89.5q132 0 221 -86.5t89 -224.5v-463q0 -140 -92 -228.5t-224 -88.5q-131 0 -219 86t-88 225zM121 1319q0 47 31.5 79t78.5 32t79 -32t32 -79t-32 -79t-79 -32t-78.5 32t-31.5 79zM266 295q0 -67 35.5 -106t91.5 -39q55 0 91 39.5 t36 105.5v459q0 67 -35.5 106t-91.5 39q-57 0 -92 -38.5t-35 -106.5v-459zM444 1319q0 47 32 79t79 32t79 -32t32 -79t-32 -79t-79 -32t-79 32t-32 79z" />
<glyph unicode="&#xf7;" d="M61 649v160h697v-160h-697zM297 362q0 46 33.5 79.5t79.5 33.5t79 -33.5t33 -79.5t-33 -79t-79 -33t-79.5 33t-33.5 79zM297 1096q0 46 33.5 79t79.5 33t79 -33t33 -79t-33 -79.5t-79 -33.5t-79.5 33.5t-33.5 79.5z" />
<glyph unicode="&#xf8;" horiz-adv-x="786" d="M51 -61l82 170q-51 76 -51 182v463q0 139 91 228t222 89q107 0 183 -55l47 96h110l-84 -170q54 -80 54 -182v-463q0 -138 -92 -227.5t-224 -89.5q-102 0 -182 55l-47 -96h-109zM260 367l238 485q-38 53 -105 53q-58 0 -95.5 -40t-37.5 -109v-389zM287 199q35 -54 106 -54 q58 0 94.5 41.5t36.5 110.5v385z" />
<glyph unicode="&#xf9;" horiz-adv-x="808" d="M92 262v789h184v-758q0 -68 31.5 -104.5t87.5 -36.5t91.5 37t35.5 104v758h185v-1051h-158l-8 104q-32 -60 -88 -92t-125 -32q-106 0 -171 74.5t-65 207.5zM170 1516h195l106 -338h-143z" />
<glyph unicode="&#xfa;" horiz-adv-x="808" d="M92 262v789h184v-758q0 -68 31.5 -104.5t87.5 -36.5t91.5 37t35.5 104v758h185v-1051h-158l-8 104q-32 -60 -88 -92t-125 -32q-106 0 -171 74.5t-65 207.5zM330 1178l106 338h195l-158 -338h-143z" />
<glyph unicode="&#xfb;" horiz-adv-x="811" d="M94 262v789h185v-758q0 -68 31 -104.5t87 -36.5t91.5 37t35.5 104v758h185v-1051h-158l-8 104q-32 -60 -88 -92t-125 -32q-106 0 -171 74.5t-65 207.5zM135 1178l195 338h143l195 -338h-148l-123 198l-121 -198h-141z" />
<glyph unicode="&#xfc;" horiz-adv-x="808" d="M92 262v789h184v-758q0 -68 31.5 -104.5t87.5 -36.5t91.5 37t35.5 104v758h185v-1051h-158l-8 104q-32 -60 -88 -92t-125 -32q-106 0 -171 74.5t-65 207.5zM127 1319q0 47 32 79t79 32t78.5 -32t31.5 -79t-31.5 -79t-78.5 -32t-79 32t-32 79zM451 1319q0 47 31.5 79 t78.5 32t79 -32t32 -79t-32 -79t-79 -32t-78.5 32t-31.5 79z" />
<glyph unicode="&#xfd;" horiz-adv-x="675" d="M10 1051h193l141 -777l139 777h183l-250 -1080q-41 -174 -110.5 -246.5t-168.5 -72.5q-28 0 -49.5 3t-29.5 6l-7 3v148q18 -5 51 -5q59 0 93.5 41t56.5 152zM276 1178l107 338h195l-158 -338h-144z" />
<glyph unicode="&#xfe;" horiz-adv-x="806" d="M102 -328v1762h185v-451q66 88 184 88q111 0 182.5 -77t71.5 -206v-520q0 -130 -74 -209t-186 -79q-114 0 -178 79v-387h-185zM287 295q0 -67 35.5 -106t91.5 -39q55 0 91 39.5t36 105.5v459q0 67 -35.5 106t-91.5 39q-57 0 -92 -38.5t-35 -106.5v-459z" />
<glyph unicode="&#xff;" horiz-adv-x="675" d="M10 1051h193l141 -777l139 777h183l-250 -1080q-41 -174 -110.5 -246.5t-168.5 -72.5q-28 0 -49.5 3t-29.5 6l-7 3v148q18 -5 51 -5q59 0 93.5 41t56.5 152zM72 1319q0 47 31.5 79t78.5 32t79 -32t32 -79t-32 -79t-79 -32t-78.5 32t-31.5 79zM395 1319q0 47 32 79t79 32 t78.5 -32t31.5 -79t-31.5 -79t-78.5 -32t-79 32t-32 79z" />
<glyph unicode="&#x152;" horiz-adv-x="1157" d="M92 350v727q0 169 96 263t254 94h654v-191h-338v-414h276v-176h-276v-465h348v-188h-670q-159 0 -251.5 91t-92.5 259zM287 362q0 -90 43 -137t121 -47h112v1075h-112q-78 0 -121 -47t-43 -137v-707z" />
<glyph unicode="&#x153;" horiz-adv-x="1212" d="M82 291v463q0 138 91.5 227.5t221.5 89.5q137 0 217 -96q83 96 217 96q129 0 215 -85t86 -222v-252h-425v-217q0 -67 35 -106t91 -39q55 0 91 39.5t36 105.5v63h172v-67q0 -137 -89 -224t-218 -87q-137 0 -215 94q-84 -94 -219 -94q-131 0 -219 86t-88 225zM266 295 q0 -67 35.5 -106t91.5 -39q55 0 91 39.5t36 105.5v459q0 67 -35.5 106t-91.5 39q-57 0 -92 -38.5t-35 -106.5v-459zM705 643h253v123q0 66 -36 105.5t-91 39.5q-56 0 -91 -39t-35 -106v-123z" />
<glyph unicode="&#x178;" horiz-adv-x="747" d="M10 1434h207l162 -629l162 629h196l-268 -881v-553h-195v555zM106 1688q0 47 32 78.5t79 31.5t79 -31.5t32 -78.5t-32 -79t-79 -32t-79 32t-32 79zM430 1688q0 47 32 78.5t79 31.5t78.5 -31.5t31.5 -78.5t-31.5 -79t-78.5 -32t-79 32t-32 79z" />
<glyph unicode="&#x2c6;" horiz-adv-x="1085" d="M276 1178l195 338h143l195 -338h-147l-123 198l-121 -198h-142z" />
<glyph unicode="&#x2dc;" horiz-adv-x="956" d="M199 1235q0 4 0.5 12t4 29.5t9 41.5t18.5 44.5t30.5 42t46 29.5t63.5 12q34 0 61 -11.5t45.5 -28t34.5 -33.5t34.5 -28.5t39.5 -11.5q25 0 40 23t17 46l2 23h111q0 -8 -1 -22.5t-10 -50t-25 -63t-51 -50t-83 -22.5q-41 0 -74 17.5t-51 38.5t-42 38.5t-48 17.5 q-26 0 -41.5 -23.5t-17.5 -47.5l-3 -23h-110z" />
<glyph unicode="&#x2000;" horiz-adv-x="952" />
<glyph unicode="&#x2001;" horiz-adv-x="1905" />
<glyph unicode="&#x2002;" horiz-adv-x="952" />
<glyph unicode="&#x2003;" horiz-adv-x="1905" />
<glyph unicode="&#x2004;" horiz-adv-x="635" />
<glyph unicode="&#x2005;" horiz-adv-x="476" />
<glyph unicode="&#x2006;" horiz-adv-x="317" />
<glyph unicode="&#x2007;" horiz-adv-x="317" />
<glyph unicode="&#x2008;" horiz-adv-x="238" />
<glyph unicode="&#x2009;" horiz-adv-x="381" />
<glyph unicode="&#x200a;" horiz-adv-x="105" />
<glyph unicode="&#x2010;" horiz-adv-x="614" d="M61 645v168h492v-168h-492z" />
<glyph unicode="&#x2011;" horiz-adv-x="614" d="M61 645v168h492v-168h-492z" />
<glyph unicode="&#x2012;" horiz-adv-x="614" d="M61 645v168h492v-168h-492z" />
<glyph unicode="&#x2013;" horiz-adv-x="921" d="M61 645v168h799v-168h-799z" />
<glyph unicode="&#x2014;" horiz-adv-x="1064" d="M61 645v168h943v-168h-943z" />
<glyph unicode="&#x2018;" horiz-adv-x="362" d="M72 922l71 512h148l-15 -512h-204z" />
<glyph unicode="&#x2019;" horiz-adv-x="362" d="M72 922l14 512h205l-72 -512h-147z" />
<glyph unicode="&#x201a;" horiz-adv-x="362" d="M72 -266l14 512h205l-72 -512h-147z" />
<glyph unicode="&#x201c;" horiz-adv-x="673" d="M72 922l71 512h148l-15 -512h-204zM383 922l72 512h147l-14 -512h-205z" />
<glyph unicode="&#x201d;" horiz-adv-x="673" d="M72 922l14 512h205l-72 -512h-147zM383 922l14 512h205l-72 -512h-147z" />
<glyph unicode="&#x201e;" horiz-adv-x="673" d="M72 -266l14 512h205l-72 -512h-147zM383 -266l14 512h205l-72 -512h-147z" />
<glyph unicode="&#x2022;" horiz-adv-x="604" d="M72 715q0 97 67 164t164 67t163 -66t66 -163q0 -95 -68 -163.5t-165 -68.5q-95 0 -161 66.5t-66 163.5z" />
<glyph unicode="&#x202f;" horiz-adv-x="381" />
<glyph unicode="&#x2039;" horiz-adv-x="669" d="M61 686v62l404 378l102 -102l-295 -305l295 -303l-102 -109z" />
<glyph unicode="&#x203a;" horiz-adv-x="669" d="M102 410l295 305l-295 303l103 108l403 -378v-62l-403 -379z" />
<glyph unicode="&#x205f;" horiz-adv-x="476" />
<glyph unicode="&#x20ac;" horiz-adv-x="851" d="M31 543v106h143v133h-143v109h143v244q0 142 90.5 230.5t222.5 88.5q131 0 217.5 -84.5t86.5 -224.5v-121h-181v109q0 70 -33.5 108.5t-91.5 38.5t-91.5 -38.5t-33.5 -108.5v-242h334v-109h-334v-133h293v-106h-293v-242q0 -71 33.5 -109t91.5 -38t91.5 38t33.5 109v109 h181v-117q0 -139 -89.5 -226t-220.5 -87q-132 0 -219.5 85t-87.5 228v250h-143z" />
<glyph unicode="&#x2122;" horiz-adv-x="1064" d="M72 1319v115h366v-115h-119v-531h-129v531h-118zM524 788v646h125l111 -340l112 340h121v-646h-121v379l-90 -268h-49l-90 270v-381h-119z" />
<glyph unicode="&#x25fc;" horiz-adv-x="1054" d="M0 0v1055h1055v-1055h-1055z" />
<glyph unicode="&#xfb01;" horiz-adv-x="966" d="M31 897v154h123v139q0 130 66 197t183 67q29 0 59 -3.5t45 -6.5l15 -4v-158q-40 6 -73 6q-55 0 -83 -31t-28 -100v-106h184v-154h-184v-897h-184v897h-123zM637 1331q0 51 36 87t87 36t87 -36t36 -87t-36 -87t-87 -36t-87 36t-36 87zM666 0v1051h188v-1051h-188z" />
<glyph unicode="&#xfb02;" horiz-adv-x="966" d="M31 897v154h123v139q0 130 66 197t183 67q29 0 59 -3.5t45 -6.5l15 -4v-158q-40 6 -73 6q-55 0 -83 -31t-28 -100v-106h184v-154h-184v-897h-184v897h-123zM666 0v1434h188v-1434h-188z" />
</font>
</defs>
</svg>
