<?xml version="1.0" encoding="utf-8"?>
<!-- Generator: Adobe Illustrator 24.0.0, SVG Export Plug-In . SVG Version: 6.00 Build 0)  -->
<svg version="1.1" id="Capa_1" xmlns="http://www.w3.org/2000/svg" xmlns:xlink="http://www.w3.org/1999/xlink" x="0px" y="0px"
	 viewBox="0 0 215.3 461.9" style="enable-background:new 0 0 215.3 461.9;" xml:space="preserve">
<style type="text/css">
	.st0{fill:#FFFFFF;}
	.st1{fill:#F2CD19;}
</style>
<g id="Grupo_10" transform="translate(-56.575 -60.47)">
	<g id="Grupo_7" transform="translate(58.089 60.47)">
		<path id="Trazado_19" class="st0" d="M105.6,40.6H37.3v140.9l27.6-21.3v69.3l-27,20.2h38.2v-97l30.8-24.2v121.2
			c44.8-0.5,69.6-27.7,69.6-62.7V103C176.5,71.6,151.2,40.6,105.6,40.6z"/>
	</g>
	<g id="Grupo_8" transform="translate(58.399 300.366)">
		<path id="Trazado_20" class="st0" d="M46.3,40.6h-8.4v35h8.3c5.3,0,8.9-3.1,8.9-8.9V49.4C55.1,43.6,51.6,40.6,46.3,40.6z
			 M48.9,66.4c0,2.3-1.1,3.5-3.1,3.5h-1.9V46.3h1.9c2,0,3.1,1.2,3.1,3.5V66.4z"/>
		<path id="Trazado_21" class="st0" d="M86.8,53.5v-3.8c0-6.1-3.5-9.1-9.2-9.1h-8v35h6.1V46.3h1.9c2,0,3.1,1.2,3.1,3.5v3.8
			c0,2.1-0.9,3.2-2.5,3.5v5.1L82,75.6h6.3l-4.8-15.4C85.6,59,86.8,56.7,86.8,53.5z"/>
		<rect id="Rectángulo_2" x="101.3" y="40.6" class="st0" width="6.2" height="35"/>
		<path id="Trazado_22" class="st0" d="M134.5,60.3l-5.5-19.6h-6.1v35h5.6V54.5l4.5,15.4h2.7l4.5-15.4v21.1h5.6v-35H140L134.5,60.3z
			"/>
		<path id="Trazado_23" class="st0" d="M48.4,110.2h-5l0-23.2h-6.1v35h6.1l0-5.7h5l0,5.7h6.2V87h-6.2L48.4,110.2z"/>
		<path id="Trazado_24" class="st0" d="M74,115.2l-1,6.8H67l6.9-35h5.9l6.9,35h-6.4l-1-6.8l-2.7-17.3L74,115.2z"/>
		<path id="Trazado_25" class="st0" d="M109.3,113.6c0,1.7-0.9,2.7-2.3,2.7s-2.4-1-2.4-2.7l0-26.5h-6.1v27.1c0,5.2,3.7,8.3,8.4,8.3
			c4.6,0.2,8.4-3.4,8.6-7.9c0-0.2,0-0.4,0-0.6V87h-6.1L109.3,113.6z"/>
		<path id="Trazado_26" class="st0" d="M140.7,107.3L134,87h-5.7v35h5.3v-21.5l7,21.5h5.3V87h-5.3L140.7,107.3z"/>
		<path id="Trazado_27" class="st0" d="M159,87v6h5.3V122h6.2V93.1h5.3v-6L159,87z"/>
	</g>
	<g id="Grupo_9" transform="translate(56.575 398.059)">
		<path id="Trazado_28" class="st1" d="M43.4,52.4h2.4v2.7c0.1,2.2-1.6,4-3.8,4.2c-0.1,0-0.2,0-0.3,0c-2.2,0.1-4-1.6-4.1-3.8
			c0-0.1,0-0.3,0-0.4V44.9c-0.1-2.2,1.6-4.1,3.9-4.2c0.1,0,0.2,0,0.3,0c2.1-0.1,3.9,1.6,4,3.7c0,0.1,0,0.3,0,0.4v2.5h-2.3v-2.4
			c0-1.2-0.7-1.9-1.7-1.9c-1,0-1.7,0.7-1.7,1.9V55c0,1.2,0.7,1.9,1.7,1.9c0.9,0,1.7-0.8,1.7-1.7c0-0.1,0-0.1,0-0.2L43.4,52.4z"/>
		<path id="Trazado_29" class="st1" d="M55.9,48.1h-0.5c-1.5,0-2.4,0.8-2.4,2.6V59h-2.3V45.7h2l0.1,1.8c0.5-1.3,1.7-2.1,3.1-2
			L55.9,48.1z"/>
		<path id="Trazado_30" class="st1" d="M65.2,54.4h2.2v0.9c0.1,2.1-1.6,3.9-3.7,3.9c-0.1,0-0.1,0-0.2,0c-2,0.1-3.8-1.5-3.8-3.6
			c0-0.1,0-0.2,0-0.3v-6c-0.1-2.1,1.6-3.9,3.7-3.9c0.1,0,0.1,0,0.2,0c2-0.1,3.7,1.5,3.8,3.6c0,0.1,0,0.2,0,0.3v3.2H62v2.7
			c-0.1,0.9,0.5,1.7,1.4,1.8c0.9,0.1,1.7-0.5,1.8-1.4c0-0.1,0-0.3,0-0.4L65.2,54.4z M62,50.8h3.2v-1.5c0.1-0.9-0.5-1.7-1.4-1.8
			C63,47.4,62.2,48,62,48.9c0,0.1,0,0.3,0,0.4V50.8z"/>
		<path id="Trazado_31" class="st1" d="M71.8,54.9c0-2.4,1.5-3.8,3.4-3.8c0.9,0,1.8,0.4,2.3,1.1v-2.9c0.1-0.8-0.5-1.6-1.3-1.7
			c-0.1,0-0.1,0-0.2,0c-0.9,0-1.5,0.6-1.5,1.7v0.6h-2.2v-0.5c-0.1-2.1,1.5-3.8,3.6-3.9c0.1,0,0.1,0,0.2,0c2-0.1,3.7,1.5,3.8,3.5
			c0,0.1,0,0.2,0,0.3v9.7h-1.9l-0.2-1.3c-0.5,1-1.5,1.6-2.6,1.5c-1.9,0-3.3-1.4-3.3-3.8V54.9z M74.2,55.4c-0.2,0.9,0.5,1.8,1.4,2
			c0.9,0.2,1.8-0.5,2-1.4c0-0.2,0-0.4,0-0.5v-0.6c0.2-0.9-0.5-1.8-1.4-2c-0.9-0.2-1.8,0.5-2,1.4c0,0.2,0,0.4,0,0.5V55.4z"/>
		<path id="Trazado_32" class="st1" d="M83.6,45.7h1.5v-3.3h2.3v3.3h2.5v1.9h-2.5v7.8c0,1.2,0.5,1.7,1.4,1.7c0.3,0,0.6,0,0.9-0.1
			v2.1c-0.5,0.1-1,0.2-1.5,0.2c-1.9,0-3.1-1.1-3.1-3.3v-8.3h-1.6V45.7z"/>
		<path id="Trazado_33" class="st1" d="M97.2,42.2c0,0.9-0.7,1.5-1.5,1.5c-0.9,0-1.5-0.7-1.5-1.5c0-0.9,0.7-1.5,1.5-1.5
			C96.5,40.6,97.2,41.3,97.2,42.2z M94.5,45.7h2.4V59h-2.4V45.7z"/>
		<path id="Trazado_34" class="st1" d="M100.9,45.7h2.4l1.8,9.4l1.8-9.4h2.3L106.1,59h-2.1L100.9,45.7z"/>
		<path id="Trazado_35" class="st1" d="M118.1,54.4h2.2v0.9c0.1,2.1-1.6,3.9-3.7,3.9c-0.1,0-0.1,0-0.2,0c-2,0.1-3.8-1.5-3.8-3.6
			c0-0.1,0-0.2,0-0.3v-6c-0.1-2.1,1.6-3.9,3.7-3.9c0.1,0,0.1,0,0.2,0c2-0.1,3.7,1.5,3.8,3.6c0,0.1,0,0.2,0,0.3v3.2h-5.4v2.7
			c-0.1,0.9,0.5,1.7,1.4,1.8c0.9,0.1,1.7-0.5,1.8-1.4c0-0.1,0-0.3,0-0.4L118.1,54.4z M114.9,50.8h3.2v-1.5c0.1-0.9-0.5-1.7-1.4-1.8
			c-0.9-0.1-1.7,0.5-1.8,1.4c0,0.1,0,0.3,0,0.4V50.8z"/>
		<path id="Trazado_36" class="st1" d="M42.7,73.5c0.1-0.8-0.5-1.5-1.3-1.6c0,0-0.1,0-0.1,0c-0.8,0-1.4,0.6-1.5,1.3c0,0,0,0.1,0,0.1
			c0,0.9,0.5,1.5,2.2,2.3c2,1,3.1,2.2,3.1,4.2c0,2.1-1.6,3.8-3.7,3.8c-0.1,0-0.1,0-0.2,0c-2,0.1-3.7-1.5-3.8-3.5c0-0.1,0-0.2,0-0.3
			v-0.5h2.2v0.5c-0.1,0.9,0.5,1.7,1.4,1.8c0.1,0,0.1,0,0.2,0c0.9,0,1.6-0.7,1.6-1.5c0-0.1,0-0.1,0-0.2c0-1-0.5-1.6-2.4-2.6
			c-1.8-0.9-2.9-2.1-2.9-4c0.1-2,1.7-3.5,3.7-3.5c0,0,0,0,0.1,0c2-0.1,3.6,1.4,3.7,3.4c0,0.1,0,0.2,0,0.2v0.4h-2.2V73.5z"/>
		<path id="Trazado_37" class="st1" d="M48.6,70.2h1.5v-3.3h2.3v3.3H55v1.9h-2.5v7.8c0,1.2,0.5,1.7,1.4,1.7c0.3,0,0.6,0,0.9-0.1v2.1
			c-0.5,0.1-1,0.2-1.5,0.2c-1.9,0-3.1-1.1-3.1-3.3v-8.3h-1.5V70.2z"/>
		<path id="Trazado_38" class="st1" d="M64.7,70.2H67v13.2h-2l-0.1-1.3c-0.5,1-1.6,1.6-2.7,1.6c-1.7,0-3-1.3-3-3.6v-9.9h2.3v9.5
			c0,1.2,0.6,1.8,1.5,1.8c0.9,0,1.6-0.7,1.6-1.6c0-0.1,0-0.1,0-0.2L64.7,70.2z"/>
		<path id="Trazado_39" class="st1" d="M79.7,83.4h-2l-0.1-1.2c-0.5,0.9-1.5,1.4-2.6,1.4c-1.9,0-3.2-1.3-3.2-3.6v-6.6
			c-0.2-1.8,1.2-3.4,3-3.6c0.1,0,0.2,0,0.3,0c0.9,0,1.7,0.4,2.2,1v-5.6h2.3V83.4z M74.1,79.7c-0.1,0.9,0.5,1.7,1.4,1.8
			c0.9,0.1,1.7-0.5,1.8-1.4c0-0.1,0-0.3,0-0.4v-5.8c0.1-0.9-0.5-1.7-1.4-1.8c-0.9-0.1-1.7,0.5-1.8,1.4c0,0.1,0,0.3,0,0.4V79.7z"/>
		<path id="Trazado_40" class="st1" d="M87.6,66.6c0,0.9-0.7,1.5-1.5,1.5s-1.5-0.7-1.5-1.5c0-0.9,0.7-1.5,1.5-1.5
			C86.9,65.1,87.6,65.8,87.6,66.6z M84.9,70.2h2.4v13.2h-2.4V70.2z"/>
		<path id="Trazado_41" class="st1" d="M92.2,73.9c-0.1-2.2,1.6-3.9,3.8-4c0.1,0,0.1,0,0.2,0c2.1-0.1,3.8,1.6,3.9,3.6
			c0,0.1,0,0.2,0,0.3v5.8c0.1,2.1-1.6,3.9-3.8,4c-0.1,0-0.1,0-0.2,0c-2.1,0.1-3.8-1.6-3.9-3.6c0-0.1,0-0.2,0-0.3V73.9z M94.5,79.7
			c-0.1,0.9,0.5,1.7,1.4,1.8c0.9,0.1,1.7-0.5,1.8-1.4c0-0.1,0-0.3,0-0.4v-5.8c0.1-0.9-0.5-1.7-1.4-1.8c-0.9-0.1-1.7,0.5-1.8,1.4
			c0,0.1,0,0.3,0,0.4V79.7z"/>
	</g>
</g>
</svg>
