<svg id="Capa_1" data-name="Capa 1" xmlns="http://www.w3.org/2000/svg" viewBox="0 0 1119.99 150"><defs><style>.cls-1{fill:#f3ce20;}</style></defs><path class="cls-1" d="M37.81-.12H2.05V148H37.18c22.43,0,37.88-13.12,37.88-37.67V36.91C75.06,12.36,60.25-.12,37.81-.12ZM49,109.07c0,9.73-4.65,14.81-13.12,14.81h-8V24h8C44.38,24,49,29.08,49,38.81Z"/><path class="cls-1" d="M209.44,54.47V38.39c0-26-15-38.51-38.94-38.51H136.43V148h25.82V24h8c8.47,0,13.12,5.08,13.12,14.81V54.9c0,8.7-3.74,13.65-10.58,14.61V91.29L188.91,148h26.88l-20.1-65.18C204.15,77.75,209.44,68,209.44,54.47Z"/><rect class="cls-1" x="270.81" y="-0.12" width="26.45" height="148.13"/><polygon class="cls-1" points="411.33 83.04 387.84 -0.13 361.81 -0.13 361.81 148.01 385.72 148.01 385.72 58.71 404.63 123.88 416.27 123.88 435.24 58.71 435.24 148.01 459.15 148.01 459.15 -0.13 434.82 -0.13 411.33 83.04"/><polygon class="cls-1" points="569.7 98.07 548.54 98.07 548.46 -0.13 522.65 -0.13 522.65 148.01 548.46 148.01 548.54 123.88 569.7 123.88 569.63 148.01 595.65 148.01 595.65 -0.13 569.63 -0.13 569.7 98.07"/><path class="cls-1" d="M678.19,119.23,673.75,148H648.56L677.77-.12H703L732.15,148H705.28l-4.45-28.78L689.41,45.8Z"/><path class="cls-1" d="M827.91,112.25c0,7.4-3.81,11.63-9.94,11.63s-10.16-4.23-10.16-11.63L807.92-.12h-26v114.9c0,22,15.65,35.35,35.55,35.35s36.4-14,36.4-36V-.12H828Z"/><polygon class="cls-1" points="968.75 85.79 940.6 -0.13 916.27 -0.13 916.27 148.01 938.91 148.01 938.91 56.8 968.75 148.01 991.39 148.01 991.39 -0.13 968.75 -0.13 968.75 85.79"/><polygon class="cls-1" points="1046.42 -0.13 1046.42 25.48 1069.06 25.48 1069.06 148.01 1095.3 148.01 1095.3 25.48 1117.94 25.48 1117.94 -0.13 1046.42 -0.13"/></svg>