<?xml version="1.0" standalone="no"?>
<!DOCTYPE svg PUBLIC "-//W3C//DTD SVG 1.1//EN" "http://www.w3.org/Graphics/SVG/1.1/DTD/svg11.dtd" >
<svg xmlns="http://www.w3.org/2000/svg" xmlns:xlink="http://www.w3.org/1999/xlink" version="1.1">
<metadata></metadata>
<defs>
<font id="uniform_extra_condensedRg" horiz-adv-x="839" >
<font-face units-per-em="2048" ascent="1536" descent="-512" />
<missing-glyph horiz-adv-x="382" />
<glyph unicode="&#x2e;&#x2e;&#x2e;" horiz-adv-x="1157" d="M72 76q0 40 28 69t68 29t69 -29t29 -69t-29 -68t-69 -28t-68 28t-28 68zM481 76q0 40 28.5 69t68.5 29t69 -29t29 -69t-29 -68t-69 -28t-68.5 28t-28.5 68zM891 76q0 40 28 69t68 29t69 -29t29 -69t-29 -68t-69 -28t-68 28t-28 68z" />
<glyph horiz-adv-x="0" />
<glyph horiz-adv-x="682" />
<glyph unicode=" "  horiz-adv-x="382" />
<glyph unicode="&#x09;" horiz-adv-x="382" />
<glyph unicode="&#xa0;" horiz-adv-x="382" />
<glyph unicode="!" horiz-adv-x="419" d="M113 76q0 40 28 69t68 29t69 -29t29 -69t-29 -68t-69 -28t-68 28t-28 68zM131 1434h158l-33 -1010h-92z" />
<glyph unicode="&#x22;" horiz-adv-x="544" d="M82 963v471h115v-471h-115zM348 963v471h115v-471h-115z" />
<glyph unicode="#" horiz-adv-x="808" d="M41 348v92h147l29 348h-145v93h153l31 348h100l-30 -348h198l31 348h100l-30 -348h143v-93h-152l-28 -348h149v-92h-157l-27 -348h-100l26 348h-198l-27 -348h-100l26 348h-139zM289 440h198l29 348h-199z" />
<glyph unicode="$" horiz-adv-x="755" d="M82 287v112h131v-104q0 -89 45.5 -140t118.5 -51q72 0 117 50.5t45 138.5q0 108 -49 200.5t-154 204.5q-115 120 -175.5 225t-60.5 226q0 120 64 199t168 98v151h98v-149q107 -12 173.5 -90t66.5 -201v-92h-131v84q0 84 -42 132t-110 48q-69 0 -111.5 -47.5t-42.5 -130.5 q0 -93 52.5 -176.5t160.5 -196.5q113 -118 170.5 -231.5t57.5 -251.5q0 -125 -68 -207t-176 -100v-152h-98v150q-112 12 -181 92.5t-69 208.5z" />
<glyph unicode="%" horiz-adv-x="1126" d="M61 1001q0 105 72.5 176.5t177.5 71.5q106 0 176 -69t70 -174q0 -106 -72 -177t-178 -71q-105 0 -175.5 69t-70.5 174zM131 0l758 1229h106l-757 -1229h-107zM170 1004q0 -61 40 -102.5t99 -41.5q60 0 101 41.5t41 102.5t-41 103t-101 42q-59 0 -99 -42t-40 -103z M567 223q0 104 73 175t179 71q105 0 175.5 -69t70.5 -173q0 -105 -72.5 -176t-177.5 -71q-106 0 -177 69t-71 174zM676 225q0 -63 40.5 -104t100.5 -41q59 0 99 41t40 104q0 61 -40 102.5t-99 41.5q-60 0 -100.5 -41.5t-40.5 -102.5z" />
<glyph unicode="&#x26;" horiz-adv-x="983" d="M72 319q0 119 55 226.5t176 240.5q-74 117 -106.5 209.5t-32.5 184.5q0 118 75 196t189 78q113 0 182.5 -76.5t69.5 -193.5q0 -101 -54.5 -195t-168.5 -217l215 -328l164 375h127l-220 -485l220 -334h-148l-133 201q-113 -221 -309 -221q-138 0 -219.5 94t-81.5 245z M205 332q0 -101 49.5 -165.5t130.5 -64.5q68 0 123 50t104 159l-241 371q-87 -99 -126.5 -182.5t-39.5 -167.5zM291 1182q0 -74 22 -144.5t80 -165.5q90 101 127 170t37 140q0 65 -34.5 110t-94.5 45q-64 0 -100.5 -43.5t-36.5 -111.5z" />
<glyph unicode="'" horiz-adv-x="278" d="M82 963v471h115v-471h-115z" />
<glyph unicode="(" horiz-adv-x="579" d="M92 711q0 130 19 251t50 211t68 169t74 132t68 91t50 55l19 18l88 -79l-17 -17t-42.5 -50.5t-60 -85t-63.5 -120t-60.5 -154.5t-42.5 -189.5t-17 -225.5t16.5 -225t43.5 -190.5t59 -153.5t64.5 -120.5t59.5 -84t44 -51.5l16 -17l-88 -80q-7 6 -19.5 17.5t-49 53t-69 89.5 t-73 128t-69 167.5t-48.5 209t-20 251.5z" />
<glyph unicode=")" horiz-adv-x="579" d="M51 -125l17 17t42.5 50.5t60 85t63.5 120t60.5 154.5t42.5 189.5t17 225.5t-16.5 225t-43.5 190.5t-59 153.5t-64.5 120.5t-59.5 84t-43 51.5l-17 17l88 79q7 -6 19.5 -17.5t49 -52.5t69 -89.5t73 -128t69 -167.5t48.5 -209t20 -251t-19 -251t-50 -211t-68 -169t-74 -132 t-68 -91.5t-50 -56.5l-19 -17z" />
<glyph unicode="*" horiz-adv-x="770" d="M61 1157l33 105l250 -97l-14 269h110l-14 -269l250 97l33 -105l-256 -70l165 -208l-88 -64l-145 223l-145 -223l-88 64l163 208z" />
<glyph unicode="+" horiz-adv-x="808" d="M61 676v108h289v334h109v-334h289v-108h-289v-334h-109v334h-289z" />
<glyph unicode="," horiz-adv-x="325" d="M82 -266l12 471h150l-51 -471h-111z" />
<glyph unicode="-" horiz-adv-x="614" d="M61 670v121h492v-121h-492z" />
<glyph unicode="." horiz-adv-x="337" d="M72 76q0 40 28 69t68 29t69 -29t29 -69t-29 -68t-69 -28t-68 28t-28 68z" />
<glyph unicode="/" horiz-adv-x="696" d="M0 -164l573 1761h123l-573 -1761h-123z" />
<glyph unicode="0" horiz-adv-x="808" d="M106 287v854q0 140 86.5 226.5t213.5 86.5t210.5 -84.5t83.5 -222.5v-856q0 -138 -86 -224.5t-213 -86.5t-211 84.5t-84 222.5zM240 297q0 -89 45 -140t118 -51q72 0 117 51t45 140v840q0 89 -45 139.5t-117 50.5q-73 0 -118 -50.5t-45 -139.5v-840z" />
<glyph unicode="1" horiz-adv-x="673" d="M31 1122l370 312h109v-1434h-135v1260l-273 -226z" />
<glyph unicode="2" horiz-adv-x="761" d="M92 1004v141q0 137 82.5 223t206.5 86q125 0 207 -86.5t82 -228.5q0 -145 -97 -348l-321 -670h418v-121h-574v90l369 762q36 76 54 140.5t18 144.5q0 89 -44 139.5t-116 50.5q-70 0 -113 -50.5t-43 -139.5v-133h-129z" />
<glyph unicode="3" horiz-adv-x="772" d="M92 287v133h129v-127q0 -88 44.5 -138.5t117.5 -50.5t118.5 50.5t45.5 138.5v209q0 89 -45 138.5t-119 49.5h-76v113h76q64 0 105.5 47t41.5 127v178q0 80 -41.5 127t-105.5 47t-104.5 -47t-40.5 -127v-111h-129v113q0 131 80 214t196 83q120 0 199.5 -80t79.5 -211v-168 q0 -81 -33 -144t-90 -99q65 -38 102 -106.5t37 -158.5v-196q0 -139 -85.5 -225t-213.5 -86q-126 0 -207.5 84t-81.5 223z" />
<glyph unicode="4" horiz-adv-x="808" d="M80 383v117l407 934h129v-938h113v-113h-113v-383h-127v383h-409zM193 496h296v694z" />
<glyph unicode="5" horiz-adv-x="784" d="M102 279v131h131v-119q0 -85 44.5 -135t113.5 -50q68 0 112 50.5t44 134.5v360q0 84 -44 132t-112 48q-65 0 -107 -43t-42 -112v-21h-119v779h528v-125h-407v-439q67 82 178 82q112 0 186 -77t74 -205v-385q0 -134 -86 -219.5t-209 -85.5q-121 0 -203 82.5t-82 216.5z " />
<glyph unicode="6" horiz-adv-x="808" d="M100 293v266q0 155 56 283l254 592h135l-246 -566q53 43 129 43q127 0 203 -82.5t76 -224.5v-307q0 -142 -88 -229.5t-218 -87.5q-132 0 -216.5 85t-84.5 228zM233 301q0 -92 46.5 -143.5t123.5 -51.5q76 0 122 51.5t46 143.5v297q0 92 -45.5 142.5t-122.5 50.5 t-123.5 -50.5t-46.5 -142.5v-297z" />
<glyph unicode="7" horiz-adv-x="716" d="M61 1309v125h594v-95l-379 -1339h-135l375 1309h-455z" />
<glyph unicode="8" horiz-adv-x="808" d="M96 297v188q0 93 40 164.5t108 110.5q-61 38 -96 104t-35 152v131q0 135 85 221t208 86q124 0 206 -83t82 -218v-131q0 -85 -35.5 -151.5t-95.5 -104.5q69 -37 108.5 -109.5t39.5 -167.5v-188q0 -143 -89 -232t-221 -89q-133 0 -219 86.5t-86 230.5zM229 301 q0 -93 48 -146t126 -53t125 52.5t47 146.5v207q0 93 -47 146t-125 53t-126 -53.5t-48 -145.5v-207zM246 999q0 -85 44 -134.5t113 -49.5t112.5 49.5t43.5 134.5v150q0 84 -43.5 133t-112.5 49t-113 -49t-44 -133v-150z" />
<glyph unicode="9" horiz-adv-x="798" d="M92 829v308q0 142 87.5 229.5t217.5 87.5q132 0 216.5 -85t84.5 -228v-267q0 -157 -55 -282l-254 -592h-135l246 565q-53 -43 -129 -43q-127 0 -203 82.5t-76 224.5zM227 836q0 -92 45.5 -142.5t122.5 -50.5t123.5 50.5t46.5 142.5v297q0 92 -46.5 143t-123.5 51 t-122.5 -51t-45.5 -143v-297z" />
<glyph unicode=":" horiz-adv-x="337" d="M72 76q0 40 28 69t68 29t69 -29t29 -69t-29 -68t-69 -28t-68 28t-28 68zM72 965q0 40 28 69t68 29t69 -29t29 -69t-29 -68.5t-69 -28.5t-68 28.5t-28 68.5z" />
<glyph unicode=";" horiz-adv-x="337" d="M72 965q0 40 28 69t68 29t69 -29t29 -69t-29 -68.5t-69 -28.5t-68 28.5t-28 68.5zM92 -266l12 471h150l-51 -471h-111z" />
<glyph unicode="&#x3c;" horiz-adv-x="808" d="M61 670v112l687 426v-133l-568 -346l568 -344v-139z" />
<glyph unicode="=" horiz-adv-x="808" d="M61 465v113h687v-113h-687zM61 834v112h687v-112h-687z" />
<glyph unicode="&#x3e;" horiz-adv-x="808" d="M61 246v133l568 346l-568 344v139l687 -424v-112z" />
<glyph unicode="?" horiz-adv-x="751" d="M92 1024v115q0 143 82 229t207 86t207 -86.5t82 -228.5q0 -76 -23.5 -150.5t-57.5 -135.5t-68 -120t-57.5 -124.5t-23.5 -127.5v-57h-127v61q0 64 23 131.5t56 126.5t66 119.5t56 132t23 142.5q0 89 -44 139.5t-116 50.5q-70 0 -113 -50.5t-43 -139.5v-113h-129zM281 76 q0 40 28 69t68 29t69 -29t29 -69t-29 -68t-69 -28t-68 28t-28 68z" />
<glyph unicode="@" horiz-adv-x="1865" d="M72 559q0 183 67 348.5t181.5 285.5t274 190.5t337.5 70.5q179 0 339 -70.5t274.5 -189.5t181.5 -284.5t67 -348.5q0 -266 -139 -434t-352 -168q-137 0 -214.5 75.5t-80.5 196.5q-66 -81 -177 -81q-97 0 -152 64t-42 165l57 416q13 100 78.5 157.5t161.5 57.5 q55 0 99.5 -26.5t66.5 -72.5l18 82h99l8 -10l-101 -700q-15 -101 38 -158t149 -57q161 0 264.5 138t103.5 349q0 165 -58 310.5t-157 250t-237.5 165t-294.5 60.5q-206 0 -378 -104.5t-270 -284t-98 -393.5q0 -151 57.5 -288.5t156.5 -237.5t238 -159.5t294 -59.5 q94 0 166 16l18 -104q-113 -23 -186 -23q-238 0 -435.5 114.5t-310 311t-112.5 430.5zM762 399q-9 -62 22.5 -99.5t92.5 -37.5q57 0 92.5 31.5t42.5 89.5l53 377q9 62 -22.5 100.5t-92.5 38.5q-57 0 -92 -32t-43 -91z" />
<glyph unicode="A" horiz-adv-x="768" d="M20 0l297 1434h134l297 -1434h-146l-70 365h-305l-69 -365h-138zM246 477h268l-133 699z" />
<glyph unicode="B" d="M123 0v1434h289q149 0 237 -89t88 -249v-37q0 -107 -43 -185.5t-121 -117.5q88 -34 136.5 -114.5t48.5 -197.5v-102q0 -159 -91.5 -250.5t-238.5 -91.5h-305zM260 117h160q93 0 145.5 58t52.5 167v125q0 109 -52.5 167t-145.5 58h-160v-575zM260 803h139q94 0 146.5 58 t52.5 167v62q0 109 -52.5 167t-146.5 58h-139v-512z" />
<glyph unicode="C" horiz-adv-x="815" d="M102 297v833q0 145 88.5 234.5t221.5 89.5q131 0 215 -85.5t84 -229.5v-187h-133v178q0 91 -46.5 143t-121.5 52t-122.5 -52.5t-47.5 -142.5v-827q0 -91 47 -142.5t123 -51.5q75 0 121.5 51t46.5 143v199h133v-203q0 -144 -86 -231.5t-217 -87.5q-133 0 -219.5 86 t-86.5 231z" />
<glyph unicode="D" horiz-adv-x="849" d="M123 0v1434h295q151 0 240.5 -90.5t89.5 -253.5v-742q0 -163 -92 -255.5t-244 -92.5h-289zM260 125h150q93 0 145.5 58t52.5 167v733q0 109 -52.5 167.5t-145.5 58.5h-150v-1184z" />
<glyph unicode="E" horiz-adv-x="696" d="M123 0v1434h502v-131h-365v-494h303v-123h-303v-555h375v-131h-512z" />
<glyph unicode="F" horiz-adv-x="655" d="M123 0v1434h491v-131h-354v-562h293v-129h-293v-612h-137z" />
<glyph unicode="G" d="M102 307v813q0 150 91 242t229 92t226.5 -89t88.5 -239v-153h-139v147q0 95 -49.5 150t-128.5 55q-80 0 -130 -55t-50 -150v-809q0 -96 50 -151.5t130 -55.5q81 0 131.5 55.5t50.5 151.5v303h-168v113h303v-416q0 -149 -91 -240t-228 -91q-138 0 -227 89t-89 238z" />
<glyph unicode="H" horiz-adv-x="870" d="M123 0v1434h137v-613h348v613h140v-1434h-140v690h-348v-690h-137z" />
<glyph unicode="I" horiz-adv-x="409" d="M133 0v1434h143v-1434h-143z" />
<glyph unicode="J" horiz-adv-x="466" d="M20 -16v129q17 -2 37 -2q75 0 115.5 43.5t40.5 128.5v1151h141v-1176q0 -130 -74.5 -204t-187.5 -74z" />
<glyph unicode="K" horiz-adv-x="768" d="M123 0v1434h137v-664l330 664h158l-361 -689l381 -745h-158l-350 705v-705h-137z" />
<glyph unicode="L" horiz-adv-x="634" d="M123 0v1434h137v-1303h334v-131h-471z" />
<glyph unicode="M" horiz-adv-x="1105" d="M123 0v1434h141l293 -949l293 949h133v-1434h-131v1087l-266 -851h-68l-264 851v-1087h-131z" />
<glyph unicode="N" horiz-adv-x="890" d="M123 0v1434h133l387 -1094v1094h125v-1434h-125l-395 1118v-1118h-125z" />
<glyph unicode="O" d="M102 307v813q0 150 91 242t229 92t226.5 -89t88.5 -239v-815q0 -149 -91 -240t-228 -91q-138 0 -227 89t-89 238zM240 313q0 -96 50 -150t130 -54t129 54t49 150v807q0 95 -49.5 150t-128.5 55q-80 0 -130 -55t-50 -150v-807z" />
<glyph unicode="P" horiz-adv-x="819" d="M123 0v1434h289q155 0 245.5 -91.5t90.5 -257.5v-159q0 -166 -92.5 -259.5t-247.5 -93.5h-148v-573h-137zM260 696h150q93 0 145.5 58.5t52.5 167.5v161q0 109 -52.5 167.5t-145.5 58.5h-150v-613z" />
<glyph unicode="Q" d="M102 307v813q0 150 91 242t229 92t226.5 -89t88.5 -239v-815q0 -95 -38.5 -167t-106.5 -113l110 -277h-141l-84 232q-27 -6 -59 -6q-138 0 -227 89t-89 238zM240 313q0 -96 50 -150t130 -54t129 54t49 150v807q0 95 -49.5 150t-128.5 55q-80 0 -130 -55t-50 -150v-807z " />
<glyph unicode="R" d="M123 0v1434h289q155 0 245.5 -91.5t90.5 -257.5v-139q0 -111 -46.5 -189t-126.5 -114l234 -643h-145l-211 602q-14 -2 -54 -2h-139v-600h-137zM260 715h150q93 0 145.5 58t52.5 167v143q0 109 -52.5 167.5t-145.5 58.5h-150v-594z" />
<glyph unicode="S" horiz-adv-x="772" d="M72 305v94h133v-86q0 -97 49.5 -153t128.5 -56q80 0 130 53.5t50 145.5q0 103 -55.5 193t-183.5 211q-115 107 -176.5 212t-61.5 220q0 142 88.5 228.5t220.5 86.5q131 0 215 -85.5t84 -229.5v-74h-131v65q0 92 -47.5 144.5t-122.5 52.5t-121.5 -49.5t-46.5 -136.5 t49.5 -164.5t159.5 -179.5q133 -125 199.5 -241t66.5 -251q0 -147 -90.5 -236t-228.5 -89q-136 0 -222.5 88t-86.5 237z" />
<glyph unicode="T" horiz-adv-x="720" d="M41 1303v131h639v-131h-250v-1303h-139v1303h-250z" />
<glyph unicode="U" d="M113 297v1137h139v-1131q0 -91 47 -142.5t123 -51.5q75 0 121.5 51t46.5 143v1131h137v-1133q0 -145 -88.5 -233t-220.5 -88q-133 0 -219 86t-86 231z" />
<glyph unicode="V" horiz-adv-x="747" d="M20 1434h148l209 -1139l211 1139h139l-287 -1434h-133z" />
<glyph unicode="W" horiz-adv-x="1105" d="M20 1434h148l164 -1110l170 1110h108l170 -1110l166 1110h139l-239 -1434h-127l-166 1036l-166 -1036h-127z" />
<glyph unicode="X" horiz-adv-x="786" d="M20 0l297 739l-276 695h152l200 -545l205 545h147l-278 -689l299 -745h-154l-223 596l-223 -596h-146z" />
<glyph unicode="Y" horiz-adv-x="727" d="M20 1434h148l199 -689l200 689h140l-275 -861v-573h-139v578z" />
<glyph unicode="Z" horiz-adv-x="675" d="M61 0v100l406 1209h-375v125h522v-101l-407 -1208h407v-125h-553z" />
<glyph unicode="[" horiz-adv-x="634" d="M133 -164v1761h430v-118h-297v-1526h297v-117h-430z" />
<glyph unicode="\" horiz-adv-x="696" d="M0 1597h123l573 -1761h-123z" />
<glyph unicode="]" horiz-adv-x="634" d="M72 -47h297v1526h-297v118h430v-1761h-430v117z" />
<glyph unicode="^" horiz-adv-x="800" d="M72 737l274 697h109l274 -697h-141l-189 525l-188 -525h-139z" />
<glyph unicode="_" horiz-adv-x="819" d="M0 -102h819v-105h-819v105z" />
<glyph unicode="`" horiz-adv-x="757" d="M248 1516h143l121 -332h-109z" />
<glyph unicode="a" horiz-adv-x="778" d="M82 276v48q0 133 76 218t190 85q122 0 195 -99v246q0 78 -42 125t-106 47t-105.5 -47t-41.5 -125v-43h-127v37q0 131 79 213t197 82q119 0 199 -79.5t80 -209.5v-774h-109l-10 102q-74 -122 -215 -122q-114 0 -187 80.5t-73 215.5zM215 283q0 -87 45.5 -139t118.5 -52 t118.5 52t45.5 139v45q0 87 -45.5 138.5t-118.5 51.5t-118.5 -51.5t-45.5 -138.5v-45z" />
<glyph unicode="b" horiz-adv-x="786" d="M113 0v1434h133v-469q69 98 194 98q112 0 183 -75.5t71 -201.5v-524q0 -125 -73.5 -203.5t-184.5 -78.5q-140 0 -203 108l-6 -88h-114zM246 285q0 -84 44 -133.5t113 -49.5t113.5 49.5t44.5 133.5v473q0 84 -44.5 133t-113.5 49t-113 -49t-44 -133v-473z" />
<glyph unicode="c" horiz-adv-x="743" d="M92 270v496q0 131 82.5 214t202.5 83q119 0 196.5 -80.5t77.5 -210.5v-119h-127v113q0 80 -42 127t-107 47t-107.5 -47t-42.5 -127v-490q0 -80 42.5 -127t107.5 -47t107 47t42 127v123h127v-123q0 -130 -80 -213t-198 -83q-121 0 -201 80t-80 210z" />
<glyph unicode="d" horiz-adv-x="786" d="M92 256v524q0 127 73.5 205t184.5 78q123 0 191 -90v461h133v-1434h-115l-6 94q-32 -55 -86.5 -84.5t-122.5 -29.5q-111 0 -181.5 75t-70.5 201zM225 285q0 -84 44.5 -133.5t113.5 -49.5t113.5 49.5t44.5 133.5v473q0 84 -44.5 133t-113.5 49t-113.5 -49t-44.5 -133v-473 z" />
<glyph unicode="e" horiz-adv-x="757" d="M92 276v486q0 132 84 216.5t207 84.5q122 0 202.5 -81.5t80.5 -215.5v-238h-441v-243q0 -84 44.5 -133.5t113.5 -49.5t113.5 49.5t44.5 133.5v53h125v-55q0 -134 -83.5 -218.5t-205.5 -84.5t-203.5 81.5t-81.5 214.5zM225 625h316v141q0 84 -44.5 133t-113.5 49 t-113.5 -49t-44.5 -133v-141z" />
<glyph unicode="f" horiz-adv-x="552" d="M41 930v112h133v154q0 127 62 192.5t170 65.5q26 0 52.5 -3t39.5 -6l14 -3v-115q-41 6 -76 6q-129 0 -129 -153v-138h205v-112h-205v-930h-133v930h-133z" />
<glyph unicode="g" horiz-adv-x="786" d="M92 348v432q0 127 73.5 205t184.5 78q134 0 203 -109l6 88h115v-1085q0 -134 -85 -219.5t-208 -85.5q-122 0 -202.5 82.5t-80.5 216.5v33h127v-31q0 -84 44.5 -133t113.5 -49t113.5 49t44.5 133v215q-71 -96 -197 -96q-111 0 -181.5 75t-70.5 201zM225 373 q0 -84 44.5 -133.5t113.5 -49.5q68 0 113 48.5t45 130.5v389q0 84 -44.5 133t-113.5 49t-113.5 -49t-44.5 -133v-385z" />
<glyph unicode="h" horiz-adv-x="788" d="M113 0v1434h133v-482q33 54 86.5 82.5t116.5 28.5q105 0 171 -74.5t66 -202.5v-786h-133v762q0 85 -39.5 131.5t-107.5 46.5q-69 0 -114.5 -44.5t-45.5 -123.5v-772h-133z" />
<glyph unicode="i" horiz-adv-x="382" d="M94 1335q0 40 28.5 69.5t67.5 29.5q40 0 69.5 -29.5t29.5 -69.5q0 -39 -29.5 -67.5t-69.5 -28.5t-68 28t-28 68zM123 0v1042h137v-1042h-137z" />
<glyph unicode="j" horiz-adv-x="382" d="M-31 -223q20 -4 47 -4q49 0 78 31.5t29 91.5v1146h137v-1157q0 -110 -60 -171.5t-155 -61.5q-23 0 -42 2t-27 4l-7 2v117zM94 1335q0 40 28.5 69.5t67.5 29.5q40 0 69.5 -29.5t29.5 -69.5q0 -39 -29.5 -67.5t-69.5 -28.5t-68 28t-28 68z" />
<glyph unicode="k" horiz-adv-x="727" d="M113 0v1434h133v-846l284 454h156l-315 -471l336 -571h-158l-303 535v-535h-133z" />
<glyph unicode="l" horiz-adv-x="382" d="M123 0v1434h137v-1434h-137z" />
<glyph unicode="m" horiz-adv-x="1204" d="M113 0v1042h114l6 -98q32 57 86.5 88t122.5 31q72 0 125.5 -36.5t81.5 -104.5q31 66 89.5 103.5t131.5 37.5q103 0 167.5 -74.5t64.5 -202.5v-786h-133v762q0 85 -37.5 131.5t-104.5 46.5t-110 -45.5t-43 -124.5v-770h-133v762q0 85 -37.5 131.5t-104.5 46.5 q-68 0 -110.5 -47t-42.5 -131v-762h-133z" />
<glyph unicode="n" horiz-adv-x="788" d="M113 0v1042h114l6 -100q34 58 90.5 89.5t125.5 31.5q105 0 171 -74.5t66 -202.5v-786h-133v762q0 85 -39.5 131.5t-107.5 46.5q-70 0 -115 -47t-45 -131v-762h-133z" />
<glyph unicode="o" horiz-adv-x="765" d="M92 279v479q0 135 84.5 220t208.5 85t206.5 -82.5t82.5 -216.5v-479q0 -134 -85 -219.5t-208 -85.5q-124 0 -206.5 82.5t-82.5 216.5zM225 285q0 -84 44.5 -133.5t113.5 -49.5t113.5 49.5t44.5 133.5v473q0 84 -44.5 133t-113.5 49t-113.5 -49t-44.5 -133v-473z" />
<glyph unicode="p" horiz-adv-x="786" d="M113 -328v1370h114l6 -94q33 55 86.5 85t120.5 30q112 0 183 -75.5t71 -201.5v-524q0 -125 -73.5 -203.5t-184.5 -78.5q-122 0 -190 90v-398h-133zM246 285q0 -84 44 -133.5t113 -49.5t113.5 49.5t44.5 133.5v473q0 84 -44.5 133t-113.5 49t-113 -49t-44 -133v-473z" />
<glyph unicode="q" horiz-adv-x="786" d="M92 256v524q0 127 73.5 205t184.5 78q134 0 203 -109l6 88h115v-1370h-133v404q-71 -96 -197 -96q-111 0 -181.5 75t-70.5 201zM225 285q0 -84 44.5 -133.5t113.5 -49.5t113.5 49.5t44.5 133.5v473q0 84 -44.5 133t-113.5 49t-113.5 -49t-44.5 -133v-473z" />
<glyph unicode="r" horiz-adv-x="526" d="M113 0v1042h114l9 -127q72 148 249 148v-141h-28q-99 0 -155 -60t-56 -180v-682h-133z" />
<glyph unicode="s" horiz-adv-x="718" d="M72 264v33h127v-31q0 -78 44 -123t113 -45t113.5 45t44.5 121q0 69 -45.5 121.5t-159.5 108.5q-110 55 -166.5 129t-56.5 176q0 114 81.5 189t199.5 75t196 -74.5t78 -191.5v-31h-127v29q0 67 -41.5 109t-105.5 42t-106 -41t-42 -106q0 -63 40.5 -109.5t139.5 -95.5 q126 -61 187 -138.5t61 -189.5q0 -126 -84 -206t-207 -80q-124 0 -204 78t-80 206z" />
<glyph unicode="t" horiz-adv-x="583" d="M41 930v112h133v269h133v-269h215v-112h-215v-674q0 -154 129 -154q16 0 35 2t30 4l11 1v-117q-47 -12 -106 -12q-108 0 -170 65.5t-62 192.5v692h-133z" />
<glyph unicode="u" horiz-adv-x="788" d="M102 256v786h134v-761q0 -85 39.5 -132t107.5 -47q70 0 115 47.5t45 131.5v761h133v-1042h-115l-6 100q-34 -58 -89.5 -89t-125.5 -31q-105 0 -171.5 74t-66.5 202z" />
<glyph unicode="v" horiz-adv-x="655" d="M20 1042h142l170 -811l170 811h133l-246 -1042h-123z" />
<glyph unicode="w" horiz-adv-x="972" d="M20 1042h140l141 -778l143 778h93l143 -778l139 778h133l-219 -1042h-115l-133 735l-133 -735h-114z" />
<glyph unicode="x" horiz-adv-x="700" d="M20 0l261 539l-240 503h141l170 -380l172 380h135l-241 -497l262 -545h-139l-193 424l-192 -424h-136z" />
<glyph unicode="y" horiz-adv-x="655" d="M20 1042h142l170 -835l170 835h133l-254 -1073q-41 -174 -104 -245.5t-152 -71.5q-21 0 -37 2t-22 4l-5 2v111q14 -4 41 -4q61 0 98 47.5t66 185.5z" />
<glyph unicode="z" horiz-adv-x="614" d="M61 0v90l351 838h-320v114h461v-88l-350 -839h350v-115h-492z" />
<glyph unicode="{" horiz-adv-x="727" d="M72 659v115h65q69 0 99 29t30 100v410q0 284 285 284h104v-114h-92q-85 0 -124.5 -39t-39.5 -125v-408q0 -91 -38.5 -140t-102.5 -54q64 -5 102.5 -54.5t38.5 -140.5v-407q0 -87 39 -125.5t125 -38.5h92v-115h-104q-285 0 -285 285v409q0 71 -30 100t-99 29h-65z" />
<glyph unicode="|" horiz-adv-x="530" d="M205 -205v1843h121v-1843h-121z" />
<glyph unicode="}" horiz-adv-x="727" d="M72 -49h92q85 0 124.5 39t39.5 125v407q0 91 38.5 140.5t102.5 54.5q-64 5 -102.5 54t-38.5 140v408q0 87 -39 125.5t-125 38.5h-92v114h104q285 0 285 -284v-410q0 -71 30 -100t99 -29h65v-115h-65q-69 0 -99 -29t-30 -100v-409q0 -285 -285 -285h-104v115z" />
<glyph unicode="~" horiz-adv-x="808" d="M41 559q0 5 0.5 14t4.5 35.5t11 50t22 53t35.5 50t54.5 35t75 14.5q45 0 83.5 -16t66 -38.5t53.5 -45t57 -38.5t65 -16q25 0 44 14t28 34t14 40t6 34l1 14h106q0 -5 -0.5 -14t-4.5 -35.5t-11.5 -50t-23 -53t-36 -50t-54.5 -35t-75 -14.5q-45 0 -83.5 16t-65.5 38.5 t-53 44.5t-56.5 38t-64.5 16q-41 0 -64 -34t-26 -68l-3 -33h-106z" />
<glyph unicode="&#xa1;" horiz-adv-x="419" d="M113 1358q0 40 29 68t69 28t68 -28t28 -68t-28 -69t-68 -29t-69 29t-29 69zM131 0l33 1010h92l33 -1010h-158z" />
<glyph unicode="&#xa2;" horiz-adv-x="763" d="M102 662v495q0 114 66.5 192.5t169.5 96.5v151h98v-149q100 -18 163 -95t63 -192v-117h-127v113q0 78 -43 126t-107 48t-106.5 -48t-42.5 -126v-489q0 -80 42 -127t107 -47t107.5 47t42.5 127v120h127v-122q0 -115 -63.5 -193t-162.5 -96v-152h-98v150q-104 15 -170 92.5 t-66 194.5z" />
<glyph unicode="&#xa3;" horiz-adv-x="845" d="M41 647v92h154v408q0 138 83 222.5t209 84.5q125 0 206 -81t81 -218v-131h-133v121q0 87 -42.5 135.5t-113.5 48.5q-72 0 -114.5 -48t-42.5 -136v-406h266v-92h-266v-526h420v-121h-553v647h-154z" />
<glyph unicode="&#xa4;" horiz-adv-x="1042" d="M72 330l137 131q-90 104 -90 254q0 148 92 254l-139 135l71 72l142 -136q107 76 239 76t236 -74l139 134l72 -72l-137 -129q92 -113 92 -256q0 -145 -92 -258l137 -131l-72 -72l-141 133q-104 -74 -238 -74q-132 0 -239 76l-138 -135zM246 717q0 -119 79 -200t197 -81 t197.5 81t79.5 200t-79.5 199.5t-197.5 80.5t-197 -80.5t-79 -199.5z" />
<glyph unicode="&#xa5;" horiz-adv-x="788" d="M51 1434h148l198 -627l201 627h139l-237 -660h196v-90h-225l-8 -25v-143h233v-90h-233v-426h-139v426h-232v90h232v148l-7 20h-225v90h193z" />
<glyph unicode="&#xa6;" horiz-adv-x="530" d="M205 -205v680h121v-680h-121zM205 956v682h121v-682h-121z" />
<glyph unicode="&#xa7;" horiz-adv-x="962" d="M92 614q0 107 61 184t160 107q-118 121 -118 266q0 126 85.5 204.5t213.5 78.5q126 0 207 -78t81 -205v-51h-129v47q0 76 -45 123t-116 47q-72 0 -117 -43.5t-45 -117.5q0 -85 52.5 -148t170.5 -137q164 -101 240.5 -191t76.5 -208q0 -108 -61.5 -184t-161.5 -107 q121 -124 121 -269q0 -124 -86 -202t-213 -78t-208 76.5t-81 203.5v52h129v-45q0 -77 45.5 -124.5t116.5 -47.5t116.5 44t45.5 117q0 85 -53 149t-170 136q-164 101 -241 192t-77 209zM227 623q0 -85 59.5 -149t213.5 -159l47 -30q78 5 133 60.5t55 137.5q0 85 -59 149 t-213 159l-47 30q-80 -6 -134.5 -61t-54.5 -137z" />
<glyph unicode="&#xa8;" horiz-adv-x="1044" d="M279 1343q0 38 27 65.5t65 27.5t64 -27t26 -66q0 -38 -26 -64t-64 -26t-65 26t-27 64zM584 1343q0 38 27 65.5t65 27.5t64 -27t26 -66q0 -38 -26 -64t-64 -26t-65 26t-27 64z" />
<glyph unicode="&#xa9;" horiz-adv-x="1609" d="M61 713q0 153 58.5 290t158 236t238 157t293.5 58q207 0 376.5 -96.5t266 -264.5t96.5 -372t-98.5 -374t-270 -268.5t-378.5 -98.5q-155 0 -292.5 56.5t-235.5 154t-155 233.5t-57 289zM166 717q0 -177 84.5 -324t231.5 -231t323 -84t322.5 84t230.5 231t84 324t-84 324 t-230.5 231t-322.5 84t-323 -84t-231.5 -231t-84.5 -324zM414 713q0 172 117 290.5t296 118.5q60 0 113.5 -14.5t88 -35t60 -40.5t37.5 -34l11 -15l-84 -70q-3 4 -8.5 11t-26.5 24.5t-44.5 30.5t-62.5 24t-82 11q-125 0 -212 -85t-87 -212q0 -128 86.5 -212.5t212.5 -84.5 q45 0 85.5 11.5t66.5 28t45.5 33t27.5 27.5l9 12l80 -67q-4 -6 -12 -16.5t-37.5 -37t-63.5 -47t-90.5 -37t-118.5 -16.5q-179 0 -293 115t-114 287z" />
<glyph unicode="&#xaa;" horiz-adv-x="557" d="M82 963v24q0 84 48.5 136.5t121.5 52.5q74 0 119 -48v136q0 39 -22 62.5t-60 23.5t-60 -23.5t-22 -62.5v-27h-103v20q0 82 54 133.5t133 51.5q81 0 132.5 -49t51.5 -131v-471h-88l-6 51q-42 -64 -131 -64q-74 0 -121 50.5t-47 134.5zM102 571v86h373v-86h-373zM186 963 q0 -46 25.5 -74.5t67.5 -28.5t67 28.5t25 74.5v30q0 48 -25 76.5t-67 28.5q-43 0 -68 -29t-25 -76v-30z" />
<glyph unicode="&#xab;" horiz-adv-x="1167" d="M61 690v51l412 385l78 -77l-332 -330l332 -330l-78 -82zM575 690v51l412 385l78 -77l-332 -330l332 -330l-78 -82z" />
<glyph unicode="&#xac;" horiz-adv-x="808" d="M61 737v111h687v-428h-115v317h-572z" />
<glyph unicode="&#xad;" horiz-adv-x="614" d="M61 670v121h492v-121h-492z" />
<glyph unicode="&#xae;" horiz-adv-x="835" d="M61 1098q0 150 103.5 253t255.5 103q151 0 252.5 -101.5t101.5 -250.5q0 -150 -103 -253.5t-255 -103.5q-151 0 -253 102t-102 251zM139 1100q0 -121 80 -200t199 -79t197.5 79t78.5 200t-78.5 199.5t-197.5 78.5t-199 -78.5t-80 -199.5zM289 928v344h151 q56 0 90.5 -30.5t34.5 -82.5q0 -37 -22 -64.5t-58 -39.5l95 -127h-84l-86 121h-50v-121h-71zM360 1106h72q62 0 62 53q0 25 -16.5 39t-45.5 14h-72v-106z" />
<glyph unicode="&#xaf;" horiz-adv-x="942" d="M215 1303v100h512v-100h-512z" />
<glyph unicode="&#xb0;" horiz-adv-x="704" d="M61 1163q0 125 83.5 208t207.5 83q125 0 208 -82.5t83 -206.5q0 -125 -83.5 -208t-207.5 -83t-207.5 83t-83.5 206zM176 1165q0 -77 50 -130.5t126 -53.5t126 53.5t50 130.5t-50 130t-126 53t-126 -53t-50 -130z" />
<glyph unicode="&#xb1;" horiz-adv-x="808" d="M61 229v111h687v-111h-687zM61 795v108h289v299h109v-299h289v-108h-289v-299h-109v299h-289z" />
<glyph unicode="&#xb2;" horiz-adv-x="487" d="M61 1176v75q0 86 52.5 140.5t130.5 54.5q80 0 131 -54t51 -145q0 -95 -61 -217l-187 -364h248v-93h-363v74l216 426q45 85 45 174q0 50 -21.5 76.5t-60.5 26.5t-60.5 -26.5t-21.5 -76.5v-71h-99z" />
<glyph unicode="&#xb3;" horiz-adv-x="493" d="M61 754v71h99v-67q0 -50 22.5 -76.5t61.5 -26.5q40 0 63 26.5t23 76.5v119q0 50 -23 77t-63 27h-45v82h45q35 0 55 24t20 68v105q0 44 -20 68t-55 24q-33 0 -53.5 -24.5t-20.5 -67.5v-60h-100v57q0 83 50.5 136t125.5 53q77 0 127.5 -50.5t50.5 -133.5v-88 q0 -99 -68 -150q76 -53 76 -160v-106q0 -88 -53.5 -142.5t-134.5 -54.5q-80 0 -131.5 52.5t-51.5 140.5z" />
<glyph unicode="&#xb4;" horiz-adv-x="757" d="M248 1184l121 332h143l-156 -332h-108z" />
<glyph unicode="&#xb5;" horiz-adv-x="798" d="M113 -328v1370h133v-761q0 -85 39.5 -132t107.5 -47q69 0 114.5 48t45.5 131v761h133v-1042h-115l-8 98q-31 -56 -82 -87t-112 -31q-74 0 -123 40v-348h-133z" />
<glyph unicode="&#xb6;" horiz-adv-x="1067" d="M61 1085q0 150 92.5 249.5t258.5 99.5h481v-1434h-133v1315h-199v-1315h-133v741h-20q-166 0 -256.5 98t-90.5 246z" />
<glyph unicode="&#xb7;" horiz-adv-x="337" d="M72 717q0 40 28 69t68 29t69 -29t29 -69t-29 -68t-69 -28t-68 28t-28 68z" />
<glyph unicode="&#xb8;" horiz-adv-x="727" d="M215 -287q23 -12 80 -12q64 0 103.5 37.5t39.5 103.5q0 31 -9.5 58.5t-22.5 45t-26 30.5t-22 18l-10 6l62 49q6 -2 15.5 -7t34 -24t43.5 -42t34.5 -63t15.5 -85q0 -109 -70.5 -168t-171.5 -59q-24 0 -48 3.5t-36 7.5l-12 3v98z" />
<glyph unicode="&#xb9;" horiz-adv-x="417" d="M20 1247l218 187h88v-861h-105v727l-143 -120z" />
<glyph unicode="&#xba;" horiz-adv-x="548" d="M82 973v276q0 88 56 141.5t138 53.5t136.5 -52t54.5 -139v-276q0 -88 -56.5 -142.5t-138.5 -54.5t-136 53t-54 140zM102 571v86h344v-86h-344zM186 973q0 -45 24.5 -69.5t63.5 -24.5t63.5 24.5t24.5 69.5v278q0 47 -24.5 72t-63.5 25t-63.5 -25t-24.5 -72v-278z" />
<glyph unicode="&#xbb;" horiz-adv-x="1167" d="M102 385l332 330l-332 329l78 82l412 -383v-51l-412 -385zM616 385l332 330l-332 329l78 82l412 -383v-51l-412 -385z" />
<glyph unicode="&#xbc;" horiz-adv-x="1155" d="M31 1247l217 187h88v-861h-105v727l-143 -120zM174 0l834 1434h108l-835 -1434h-107zM715 219v90l241 551h101v-553h67v-88h-67v-219h-99v219h-243zM801 307h157v371z" />
<glyph unicode="&#xbd;" horiz-adv-x="1261" d="M31 1247l217 187h88v-861h-105v727l-143 -120zM174 0l834 1434h108l-835 -1434h-107zM856 602v76q0 86 52 140t130 54q80 0 131.5 -54t51.5 -144q0 -93 -62 -217l-186 -365h248v-92h-363v74l215 426q45 85 45 174q0 50 -21.5 76t-60.5 26t-60.5 -26t-21.5 -76v-72h-98z " />
<glyph unicode="&#xbe;" horiz-adv-x="1165" d="M61 754v71h99v-67q0 -50 22.5 -76.5t61.5 -26.5q40 0 63 26.5t23 76.5v119q0 50 -23 77t-63 27h-45v82h45q35 0 55 24t20 68v105q0 44 -20 68t-55 24q-33 0 -53.5 -24.5t-20.5 -67.5v-60h-100v57q0 83 50.5 136t125.5 53q77 0 127.5 -50.5t50.5 -133.5v-88 q0 -99 -68 -150q76 -53 76 -160v-106q0 -88 -53.5 -142.5t-134.5 -54.5q-80 0 -131.5 52.5t-51.5 140.5zM184 0l834 1434h108l-835 -1434h-107zM725 219v90l242 551h100v-553h68v-88h-68v-219h-98v219h-244zM811 307h158v371z" />
<glyph unicode="&#xbf;" horiz-adv-x="751" d="M82 295q0 76 23.5 150.5t57.5 135t67.5 119.5t57 124.5t23.5 127.5v58h127v-62q0 -64 -23 -131t-56 -126.5t-65.5 -119.5t-55.5 -131.5t-23 -142.5q0 -89 44 -140t116 -51q70 0 112.5 51t42.5 140v113h129v-115q0 -143 -82 -229t-206 -86q-125 0 -207 86.5t-82 228.5z M276 1358q0 39 29.5 67.5t69.5 28.5t68 -28t28 -68t-28 -69t-68 -29t-69.5 29t-29.5 69z" />
<glyph unicode="&#xc0;" horiz-adv-x="768" d="M20 0l297 1434h134l297 -1434h-146l-70 365h-305l-69 -365h-138zM164 1884h143l121 -332h-109zM246 477h268l-133 699z" />
<glyph unicode="&#xc1;" horiz-adv-x="768" d="M20 0l297 1434h134l297 -1434h-146l-70 365h-305l-69 -365h-138zM246 477h268l-133 699zM340 1552l121 332h143l-155 -332h-109z" />
<glyph unicode="&#xc2;" horiz-adv-x="768" d="M20 0l297 1434h134l297 -1434h-146l-70 365h-305l-69 -365h-138zM137 1552l191 332h112l189 -332h-113l-137 224l-133 -224h-109zM246 477h268l-133 699z" />
<glyph unicode="&#xc3;" horiz-adv-x="768" d="M20 0l297 1434h134l297 -1434h-146l-70 365h-305l-69 -365h-138zM113 1593q0 4 0.5 11t3.5 27.5t8.5 38.5t17.5 40.5t28 39t43 27.5t60 11q35 0 63.5 -13t47 -32t35 -37.5t35.5 -31.5t41 -13q29 0 46 26t19 52l2 26h92q0 -8 -1 -21t-9.5 -47t-24 -60t-49 -47t-79.5 -21 q-41 0 -74.5 20t-51.5 43.5t-43 43.5t-51 20q-29 0 -46 -26t-19 -52l-2 -25h-92zM246 477h268l-133 699z" />
<glyph unicode="&#xc4;" horiz-adv-x="768" d="M20 0l297 1434h134l297 -1434h-146l-70 365h-305l-69 -365h-138zM141 1692q0 38 27 65t65 27t64.5 -27t26.5 -65t-26.5 -64t-64.5 -26t-65 26t-27 64zM246 477h268l-133 699zM446 1692q0 38 27.5 65t65.5 27t64 -27t26 -65t-26 -64t-64 -26q-39 0 -66 26t-27 64z" />
<glyph unicode="&#xc5;" horiz-adv-x="768" d="M20 0l297 1434h134l297 -1434h-146l-70 365h-305l-69 -365h-138zM201 1729q0 75 51.5 125.5t130.5 50.5t131.5 -50.5t52.5 -125.5q0 -77 -52.5 -128t-131.5 -51t-130.5 51t-51.5 128zM246 477h268l-133 699zM289 1729q0 -44 27 -71.5t67 -27.5q42 0 69 27.5t27 71.5 q0 42 -27 69t-69 27q-40 0 -67 -27t-27 -69z" />
<glyph unicode="&#xc6;" horiz-adv-x="1105" d="M0 0l444 1434h590v-131h-364v-494h303v-123h-303v-555h374v-131h-512v365h-284l-111 -365h-137zM279 477h253v844z" />
<glyph unicode="&#xc7;" horiz-adv-x="813" d="M102 297v833q0 145 88.5 234.5t221.5 89.5q131 0 215 -85.5t84 -229.5v-187h-133v178q0 91 -46.5 143t-121.5 52t-122.5 -52.5t-47.5 -142.5v-827q0 -91 47 -142.5t123 -51.5q75 0 121.5 51t46.5 143v199h133v-203q0 -127 -68.5 -211t-177.5 -102q59 -63 59 -158 q0 -109 -70 -168t-171 -59q-24 0 -48.5 3.5t-36.5 7.5l-12 3v98q23 -12 80 -12q64 0 104 37.5t40 103.5q0 92 -70 144q-107 21 -172.5 103t-65.5 208z" />
<glyph unicode="&#xc8;" horiz-adv-x="696" d="M123 0v1434h502v-131h-365v-494h303v-123h-303v-555h375v-131h-512zM176 1884h143l121 -332h-108z" />
<glyph unicode="&#xc9;" horiz-adv-x="696" d="M123 0v1434h502v-131h-365v-494h303v-123h-303v-555h375v-131h-512zM319 1552l121 332h144l-156 -332h-109z" />
<glyph unicode="&#xca;" horiz-adv-x="696" d="M123 0v1434h502v-131h-365v-494h303v-123h-303v-555h375v-131h-512zM129 1552l190 332h113l189 -332h-113l-137 224l-133 -224h-109z" />
<glyph unicode="&#xcb;" horiz-adv-x="696" d="M123 0v1434h502v-131h-365v-494h303v-123h-303v-555h375v-131h-512zM129 1692q0 38 27 65t65 27t64 -27t26 -65t-26 -64t-64 -26t-65 26t-27 64zM434 1692q0 38 27 65t65 27t64 -27t26 -65t-26 -64t-64 -26t-65 26t-27 64z" />
<glyph unicode="&#xcc;" horiz-adv-x="409" d="M-10 1884h143l121 -332h-109zM133 0v1434h143v-1434h-143z" />
<glyph unicode="&#xcd;" horiz-adv-x="409" d="M133 0v1434h143v-1434h-143zM156 1552l120 332h144l-156 -332h-108z" />
<glyph unicode="&#xce;" horiz-adv-x="409" d="M-41 1552l191 332h112l189 -332h-113l-137 224l-133 -224h-109zM133 0v1434h143v-1434h-143z" />
<glyph unicode="&#xcf;" horiz-adv-x="409" d="M-39 1692q0 38 27 65t65 27t64 -27t26 -65t-26 -64t-64 -26t-65 26t-27 64zM133 0v1434h143v-1434h-143zM266 1692q0 38 27 65t65 27t64.5 -27t26.5 -65t-26.5 -64t-64.5 -26t-65 26t-27 64z" />
<glyph unicode="&#xd0;" horiz-adv-x="915" d="M20 680v96h168v658h295q152 0 241 -90.5t89 -253.5v-742q0 -163 -91.5 -255.5t-242.5 -92.5h-291v680h-168zM328 125h147q94 0 147.5 58t53.5 167v733q0 109 -53.5 167.5t-147.5 58.5h-147v-533h215v-96h-215v-555z" />
<glyph unicode="&#xd1;" horiz-adv-x="890" d="M123 0v1434h133l387 -1094v1094h125v-1434h-125l-395 1118v-1118h-125zM174 1593q0 4 0.5 11t3.5 27.5t8.5 38.5t18 40.5t28.5 39t43 27.5t60 11q35 0 63.5 -13t46.5 -32t34.5 -37.5t35.5 -31.5t41 -13q29 0 46 26t19 52l3 26h92q0 -4 -0.5 -11t-3.5 -27.5t-8.5 -39 t-18 -41t-29 -39t-44 -27.5t-60.5 -11q-41 0 -74.5 20t-51.5 43.5t-42.5 43.5t-50.5 20q-29 0 -46 -26t-20 -52l-2 -25h-92z" />
<glyph unicode="&#xd2;" d="M102 307v813q0 150 91 242t229 92t226.5 -89t88.5 -239v-815q0 -149 -91 -240t-228 -91q-138 0 -227 89t-89 238zM215 1884h143l121 -332h-108zM240 313q0 -96 50 -150t130 -54t129 54t49 150v807q0 95 -49.5 150t-128.5 55q-80 0 -130 -55t-50 -150v-807z" />
<glyph unicode="&#xd3;" d="M102 307v813q0 150 91 242t229 92t226.5 -89t88.5 -239v-815q0 -149 -91 -240t-228 -91q-138 0 -227 89t-89 238zM240 313q0 -96 50 -150t130 -54t129 54t49 150v807q0 95 -49.5 150t-128.5 55q-80 0 -130 -55t-50 -150v-807zM360 1552l121 332h144l-156 -332h-109z" />
<glyph unicode="&#xd4;" d="M102 307v813q0 150 91 242t229 92t226.5 -89t88.5 -239v-815q0 -149 -91 -240t-228 -91q-138 0 -227 89t-89 238zM174 1552l191 332h112l189 -332h-113l-137 224l-133 -224h-109zM240 313q0 -96 50 -150t130 -54t129 54t49 150v807q0 95 -49.5 150t-128.5 55 q-80 0 -130 -55t-50 -150v-807z" />
<glyph unicode="&#xd5;" d="M102 307v813q0 150 91 242t229 92t226.5 -89t88.5 -239v-815q0 -149 -91 -240t-228 -91q-138 0 -227 89t-89 238zM150 1593q0 4 0.5 11t3.5 27.5t8.5 38.5t17.5 40.5t28 39t43 27.5t60 11q35 0 63.5 -13t46.5 -32t34.5 -37.5t35.5 -31.5t41 -13q29 0 46 26t20 52l2 26h92 q0 -4 -0.5 -11t-3.5 -27.5t-8.5 -39t-18 -41t-29 -39t-44 -27.5t-60.5 -11q-41 0 -74.5 20t-51.5 43.5t-42.5 43.5t-50.5 20q-29 0 -46 -26t-19 -52l-2 -25h-92zM240 313q0 -96 50 -150t130 -54t129 54t49 150v807q0 95 -49.5 150t-128.5 55q-80 0 -130 -55t-50 -150v-807z " />
<glyph unicode="&#xd6;" d="M102 307v813q0 150 91 242t229 92t226.5 -89t88.5 -239v-815q0 -149 -91 -240t-228 -91q-138 0 -227 89t-89 238zM176 1692q0 38 27 65t65 27t64 -27t26 -65t-26 -64t-64 -26t-65 26t-27 64zM240 313q0 -96 50 -150t130 -54t129 54t49 150v807q0 95 -49.5 150t-128.5 55 q-80 0 -130 -55t-50 -150v-807zM481 1692q0 38 27 65t65 27t64.5 -27t26.5 -65t-26.5 -64t-64.5 -26t-65 26t-27 64z" />
<glyph unicode="&#xd7;" horiz-adv-x="808" d="M78 469l252 248l-252 248l78 77l250 -251l247 251l78 -77l-252 -248l252 -248l-78 -80l-247 254l-250 -254z" />
<glyph unicode="&#xd8;" d="M82 -61l68 182q-48 76 -48 186v813q0 150 91 242t229 92q120 0 205 -72l43 113h88l-70 -182q49 -81 49 -187v-815q0 -149 -91 -240t-228 -91q-127 0 -207 71l-43 -112h-86zM240 356l331 881q-48 88 -151 88q-80 0 -130 -55t-50 -150v-764zM264 195q23 -43 64 -66t92 -23 q79 0 128.5 55t49.5 150v762z" />
<glyph unicode="&#xd9;" d="M113 297v1137h139v-1131q0 -91 47 -142.5t123 -51.5q75 0 121.5 51t46.5 143v1131h137v-1133q0 -145 -88.5 -233t-220.5 -88q-133 0 -219 86t-86 231zM217 1884h143l121 -332h-108z" />
<glyph unicode="&#xda;" d="M113 297v1137h139v-1131q0 -91 47 -142.5t123 -51.5q75 0 121.5 51t46.5 143v1131h137v-1133q0 -145 -88.5 -233t-220.5 -88q-133 0 -219 86t-86 231zM381 1552l121 332h143l-156 -332h-108z" />
<glyph unicode="&#xdb;" d="M113 297v1137h139v-1131q0 -91 47 -142.5t123 -51.5q75 0 121.5 51t46.5 143v1131h137v-1133q0 -145 -88.5 -233t-220.5 -88q-133 0 -219 86t-86 231zM174 1552l191 332h112l189 -332h-113l-137 224l-133 -224h-109z" />
<glyph unicode="&#xdc;" d="M113 297v1137h139v-1131q0 -91 47 -142.5t123 -51.5q75 0 121.5 51t46.5 143v1131h137v-1133q0 -145 -88.5 -233t-220.5 -88q-133 0 -219 86t-86 231zM176 1692q0 38 27 65t65 27t64 -27t26 -65t-26 -64t-64 -26t-65 26t-27 64zM481 1692q0 38 27 65t65 27t64.5 -27 t26.5 -65t-26.5 -64t-64.5 -26t-65 26t-27 64z" />
<glyph unicode="&#xdd;" horiz-adv-x="727" d="M20 1434h148l199 -689l200 689h140l-275 -861v-573h-139v578zM330 1552l121 332h143l-156 -332h-108z" />
<glyph unicode="&#xde;" horiz-adv-x="819" d="M123 0v1434h137v-265h152q155 0 245.5 -91t90.5 -257v-135q0 -166 -92.5 -260t-247.5 -94h-148v-332h-137zM260 455h150q93 0 145.5 58t52.5 167v141q0 109 -52.5 167.5t-145.5 58.5h-150v-592z" />
<glyph unicode="&#xdf;" horiz-adv-x="794" d="M113 0v1155q0 133 82 216t204 83q123 0 203 -80.5t80 -214.5v-153q0 -80 -32 -143t-87 -101q73 -33 116.5 -103.5t43.5 -164.5v-218q0 -131 -81.5 -213.5t-201.5 -82.5l-51 4v120q16 -2 43 -2q69 0 113.5 49.5t44.5 133.5v219q0 83 -44.5 132.5t-113.5 49.5h-43v119h8 q68 0 110 46.5t42 129.5v174q0 82 -42.5 129t-109.5 47t-109 -47t-42 -129v-1155h-133z" />
<glyph unicode="&#xe0;" horiz-adv-x="778" d="M82 276v48q0 133 76 218t190 85q122 0 195 -99v246q0 78 -42 125t-106 47t-105.5 -47t-41.5 -125v-43h-127v37q0 131 79 213t197 82q119 0 199 -79.5t80 -209.5v-774h-109l-10 102q-74 -122 -215 -122q-114 0 -187 80.5t-73 215.5zM215 283q0 -87 45.5 -139t118.5 -52 t118.5 52t45.5 139v45q0 87 -45.5 138.5t-118.5 51.5t-118.5 -51.5t-45.5 -138.5v-45zM215 1516h143l121 -332h-108z" />
<glyph unicode="&#xe1;" horiz-adv-x="778" d="M82 276v48q0 133 76 218t190 85q122 0 195 -99v246q0 78 -42 125t-106 47t-105.5 -47t-41.5 -125v-43h-127v37q0 131 79 213t197 82q119 0 199 -79.5t80 -209.5v-774h-109l-10 102q-74 -122 -215 -122q-114 0 -187 80.5t-73 215.5zM215 283q0 -87 45.5 -139t118.5 -52 t118.5 52t45.5 139v45q0 87 -45.5 138.5t-118.5 51.5t-118.5 -51.5t-45.5 -138.5v-45zM356 1184l121 332h144l-156 -332h-109z" />
<glyph unicode="&#xe2;" horiz-adv-x="778" d="M82 276v48q0 133 76 218t190 85q122 0 195 -99v246q0 78 -42 125t-106 47t-105.5 -47t-41.5 -125v-43h-127v37q0 131 79 213t197 82q119 0 199 -79.5t80 -209.5v-774h-109l-10 102q-74 -122 -215 -122q-114 0 -187 80.5t-73 215.5zM147 1184l191 332h113l188 -332h-113 l-137 223l-133 -223h-109zM215 283q0 -87 45.5 -139t118.5 -52t118.5 52t45.5 139v45q0 87 -45.5 138.5t-118.5 51.5t-118.5 -51.5t-45.5 -138.5v-45z" />
<glyph unicode="&#xe3;" horiz-adv-x="778" d="M82 276v48q0 133 76 218t190 85q122 0 195 -99v246q0 78 -42 125t-106 47t-105.5 -47t-41.5 -125v-43h-127v37q0 131 79 213t197 82q119 0 199 -79.5t80 -209.5v-774h-109l-10 102q-74 -122 -215 -122q-114 0 -187 80.5t-73 215.5zM133 1225q0 4 0.5 11t3.5 27t8.5 38.5 t18 41t28.5 38.5t43 27t60 11q35 0 63.5 -13t46.5 -31.5t34.5 -37.5t35.5 -32t41 -13q29 0 46 26t20 52l2 27h92q0 -4 -0.5 -11t-3.5 -27.5t-8.5 -39t-18 -41.5t-29 -39.5t-44 -27.5t-60.5 -11q-41 0 -74.5 20t-51.5 43.5t-42.5 43.5t-50.5 20q-29 0 -46 -25.5t-19 -51.5 l-3 -25h-92zM215 283q0 -87 45.5 -139t118.5 -52t118.5 52t45.5 139v45q0 87 -45.5 138.5t-118.5 51.5t-118.5 -51.5t-45.5 -138.5v-45z" />
<glyph unicode="&#xe4;" horiz-adv-x="778" d="M82 276v48q0 133 76 218t190 85q122 0 195 -99v246q0 78 -42 125t-106 47t-105.5 -47t-41.5 -125v-43h-127v37q0 131 79 213t197 82q119 0 199 -79.5t80 -209.5v-774h-109l-10 102q-74 -122 -215 -122q-114 0 -187 80.5t-73 215.5zM145 1323q0 38 27.5 65t65.5 27t64 -27 t26 -65t-26 -64t-64 -26q-39 0 -66 26t-27 64zM215 283q0 -87 45.5 -139t118.5 -52t118.5 52t45.5 139v45q0 87 -45.5 138.5t-118.5 51.5t-118.5 -51.5t-45.5 -138.5v-45zM451 1323q0 38 27 65t65 27t64 -27t26 -65t-26 -64t-64 -26t-65 26t-27 64z" />
<glyph unicode="&#xe5;" horiz-adv-x="778" d="M82 276v48q0 133 76 218t190 85q122 0 195 -99v246q0 78 -42 125t-106 47t-105.5 -47t-41.5 -125v-43h-127v37q0 131 79 213t197 82q119 0 199 -79.5t80 -209.5v-774h-109l-10 102q-74 -122 -215 -122q-114 0 -187 80.5t-73 215.5zM215 283q0 -87 45.5 -139t118.5 -52 t118.5 52t45.5 139v45q0 87 -45.5 138.5t-118.5 51.5t-118.5 -51.5t-45.5 -138.5v-45zM221 1360q0 75 51.5 125.5t130.5 50.5t132 -50.5t53 -125.5q0 -76 -52.5 -127t-132.5 -51q-79 0 -130.5 50.5t-51.5 127.5zM309 1360q0 -44 27 -71t67 -27q42 0 69.5 27t27.5 71 q0 42 -27.5 69t-69.5 27q-40 0 -67 -27t-27 -69z" />
<glyph unicode="&#xe6;" horiz-adv-x="1208" d="M82 276v48q0 133 76 218t190 85q122 0 195 -99v246q0 78 -42 125t-106 47t-105.5 -47t-41.5 -125v-43h-127v37q0 131 79 213t197 82q148 0 215 -121q34 57 92 89t130 32q122 0 202 -81.5t80 -215.5v-238h-440v-243q0 -84 44.5 -133.5t113.5 -49.5t113 49.5t44 133.5v53 h125v-55q0 -134 -83.5 -218.5t-205.5 -84.5q-83 0 -143.5 39t-91.5 110q-32 -70 -96.5 -109.5t-147.5 -39.5q-117 0 -191.5 80.5t-74.5 215.5zM215 283q0 -87 45.5 -139t118.5 -52t118.5 52t45.5 139v45q0 87 -45.5 138.5t-118.5 51.5t-118.5 -51.5t-45.5 -138.5v-45z M676 625h315v143q0 84 -44 133t-113 49t-113.5 -49t-44.5 -133v-143z" />
<glyph unicode="&#xe7;" horiz-adv-x="743" d="M92 270v496q0 131 82.5 214t202.5 83q119 0 196.5 -80.5t77.5 -210.5v-119h-127v113q0 80 -42 127t-107 47t-107.5 -47t-42.5 -127v-490q0 -80 42.5 -127t107.5 -47t107 47t42 127v123h127v-123q0 -113 -61.5 -191t-157.5 -99q60 -68 60 -158q0 -109 -70.5 -168 t-171.5 -59q-24 0 -48 3.5t-36 7.5l-12 3v98q22 -12 79 -12q64 0 104 37.5t40 103.5q0 92 -70 144q-96 21 -155.5 96.5t-59.5 187.5z" />
<glyph unicode="&#xe8;" horiz-adv-x="757" d="M92 276v486q0 132 84 216.5t207 84.5q122 0 202.5 -81.5t80.5 -215.5v-238h-441v-243q0 -84 44.5 -133.5t113.5 -49.5t113.5 49.5t44.5 133.5v53h125v-55q0 -134 -83.5 -218.5t-205.5 -84.5t-203.5 81.5t-81.5 214.5zM182 1516h144l120 -332h-108zM225 625h316v141 q0 84 -44.5 133t-113.5 49t-113.5 -49t-44.5 -133v-141z" />
<glyph unicode="&#xe9;" horiz-adv-x="757" d="M92 276v486q0 132 84 216.5t207 84.5q122 0 202.5 -81.5t80.5 -215.5v-238h-441v-243q0 -84 44.5 -133.5t113.5 -49.5t113.5 49.5t44.5 133.5v53h125v-55q0 -134 -83.5 -218.5t-205.5 -84.5t-203.5 81.5t-81.5 214.5zM225 625h316v141q0 84 -44.5 133t-113.5 49 t-113.5 -49t-44.5 -133v-141zM334 1184l121 332h143l-156 -332h-108z" />
<glyph unicode="&#xea;" horiz-adv-x="757" d="M92 276v486q0 132 84 216.5t207 84.5q122 0 202.5 -81.5t80.5 -215.5v-238h-441v-243q0 -84 44.5 -133.5t113.5 -49.5t113.5 49.5t44.5 133.5v53h125v-55q0 -134 -83.5 -218.5t-205.5 -84.5t-203.5 81.5t-81.5 214.5zM135 1184l191 332h112l189 -332h-113l-137 223 l-133 -223h-109zM225 625h316v141q0 84 -44.5 133t-113.5 49t-113.5 -49t-44.5 -133v-141z" />
<glyph unicode="&#xeb;" horiz-adv-x="757" d="M92 276v486q0 132 84 216.5t207 84.5q122 0 202.5 -81.5t80.5 -215.5v-238h-441v-243q0 -84 44.5 -133.5t113.5 -49.5t113.5 49.5t44.5 133.5v53h125v-55q0 -134 -83.5 -218.5t-205.5 -84.5t-203.5 81.5t-81.5 214.5zM137 1323q0 38 27 65t65 27t64 -27t26 -65t-26 -64 t-64 -26t-65 26t-27 64zM225 625h316v141q0 84 -44.5 133t-113.5 49t-113.5 -49t-44.5 -133v-141zM442 1323q0 38 27.5 65t65.5 27t64 -27t26 -65t-26 -64t-64 -26q-39 0 -66 26t-27 64z" />
<glyph unicode="&#xec;" horiz-adv-x="382" d="M-25 1516h144l121 -332h-109zM123 0v1042h137v-1042h-137z" />
<glyph unicode="&#xed;" horiz-adv-x="382" d="M123 0v1042h137v-1042h-137zM143 1184l121 332h144l-156 -332h-109z" />
<glyph unicode="&#xee;" horiz-adv-x="382" d="M-53 1184l190 332h113l188 -332h-112l-138 223l-133 -223h-108zM123 0v1042h137v-1042h-137z" />
<glyph unicode="&#xef;" horiz-adv-x="382" d="M-53 1323q0 38 27 65t65 27t64 -27t26 -65t-26 -64t-64 -26t-65 26t-27 64zM123 0v1042h137v-1042h-137zM252 1323q0 38 27 65t65 27t64 -27t26 -65t-26 -64t-64 -26t-65 26t-27 64z" />
<glyph unicode="&#xf0;" horiz-adv-x="765" d="M92 279v456q0 128 79 207.5t196 79.5q47 0 102 -25l-109 220l-176 -43v86l140 34l-68 140h139l49 -109l230 57v-86l-195 -49l158 -344q37 -78 37 -231v-387q0 -134 -85 -219.5t-208 -85.5q-124 0 -206.5 82.5t-82.5 216.5zM225 285q0 -84 44.5 -133.5t113.5 -49.5 t113.5 49.5t44.5 133.5v442q0 84 -44.5 133t-113.5 49t-113.5 -49t-44.5 -133v-442z" />
<glyph unicode="&#xf1;" horiz-adv-x="788" d="M113 0v1042h114l6 -100q34 58 90.5 89.5t125.5 31.5q105 0 171 -74.5t66 -202.5v-786h-133v762q0 85 -39.5 131.5t-107.5 46.5q-70 0 -115 -47t-45 -131v-762h-133zM133 1225q0 4 0.5 11t3.5 27t8.5 38.5t18 41t28.5 38.5t43 27t60 11q35 0 63.5 -13t46.5 -31.5 t34.5 -37.5t35.5 -32t41 -13q29 0 46 26t20 52l2 27h92q0 -4 -0.5 -11t-3.5 -27.5t-8.5 -39t-18 -41.5t-29 -39.5t-44 -27.5t-60.5 -11q-41 0 -74.5 20t-51.5 43.5t-42.5 43.5t-50.5 20q-29 0 -46 -25.5t-19 -51.5l-3 -25h-92z" />
<glyph unicode="&#xf2;" horiz-adv-x="765" d="M92 279v479q0 135 84.5 220t208.5 85t206.5 -82.5t82.5 -216.5v-479q0 -134 -85 -219.5t-208 -85.5q-124 0 -206.5 82.5t-82.5 216.5zM164 1516h143l121 -332h-109zM225 285q0 -84 44.5 -133.5t113.5 -49.5t113.5 49.5t44.5 133.5v473q0 84 -44.5 133t-113.5 49 t-113.5 -49t-44.5 -133v-473z" />
<glyph unicode="&#xf3;" horiz-adv-x="765" d="M92 279v479q0 135 84.5 220t208.5 85t206.5 -82.5t82.5 -216.5v-479q0 -134 -85 -219.5t-208 -85.5q-124 0 -206.5 82.5t-82.5 216.5zM225 285q0 -84 44.5 -133.5t113.5 -49.5t113.5 49.5t44.5 133.5v473q0 84 -44.5 133t-113.5 49t-113.5 -49t-44.5 -133v-473zM338 1184 l121 332h143l-156 -332h-108z" />
<glyph unicode="&#xf4;" horiz-adv-x="765" d="M92 279v479q0 135 84.5 220t208.5 85t206.5 -82.5t82.5 -216.5v-479q0 -134 -85 -219.5t-208 -85.5q-124 0 -206.5 82.5t-82.5 216.5zM137 1184l191 332h112l189 -332h-113l-137 223l-133 -223h-109zM225 285q0 -84 44.5 -133.5t113.5 -49.5t113.5 49.5t44.5 133.5v473 q0 84 -44.5 133t-113.5 49t-113.5 -49t-44.5 -133v-473z" />
<glyph unicode="&#xf5;" horiz-adv-x="765" d="M92 279v479q0 135 84.5 220t208.5 85t206.5 -82.5t82.5 -216.5v-479q0 -134 -85 -219.5t-208 -85.5q-124 0 -206.5 82.5t-82.5 216.5zM113 1225q0 4 0.5 11t3.5 27t8.5 38.5t17.5 41t28 38.5t43 27t60 11q35 0 63.5 -13t47 -31.5t35 -37.5t35.5 -32t41 -13q29 0 46 26 t19 52l2 27h92q0 -4 -0.5 -11t-3.5 -27.5t-8.5 -39t-17.5 -41.5t-28.5 -39.5t-44 -27.5t-60.5 -11q-41 0 -74.5 20t-51.5 43.5t-43 43.5t-51 20q-29 0 -46 -25.5t-19 -51.5l-2 -25h-92zM225 285q0 -84 44.5 -133.5t113.5 -49.5t113.5 49.5t44.5 133.5v473q0 84 -44.5 133 t-113.5 49t-113.5 -49t-44.5 -133v-473z" />
<glyph unicode="&#xf6;" horiz-adv-x="765" d="M92 279v479q0 135 84.5 220t208.5 85t206.5 -82.5t82.5 -216.5v-479q0 -134 -85 -219.5t-208 -85.5q-124 0 -206.5 82.5t-82.5 216.5zM139 1323q0 38 27 65t65 27t64.5 -27t26.5 -65t-26.5 -64t-64.5 -26t-65 26t-27 64zM225 285q0 -84 44.5 -133.5t113.5 -49.5 t113.5 49.5t44.5 133.5v473q0 84 -44.5 133t-113.5 49t-113.5 -49t-44.5 -133v-473zM444 1323q0 38 27.5 65t65.5 27t64 -27t26 -65t-26 -64t-64 -26q-39 0 -66 26t-27 64z" />
<glyph unicode="&#xf7;" horiz-adv-x="808" d="M61 674v114h687v-114h-687zM311 360q0 37 27.5 65t64.5 28q38 0 65.5 -28t27.5 -65q0 -38 -27.5 -65t-65.5 -27q-37 0 -64.5 27t-27.5 65zM311 1102q0 37 27.5 64.5t64.5 27.5q38 0 65.5 -27.5t27.5 -64.5q0 -38 -27.5 -65t-65.5 -27q-37 0 -64.5 27t-27.5 65z" />
<glyph unicode="&#xf8;" horiz-adv-x="765" d="M51 -61l84 172q-43 75 -43 168v479q0 135 84.5 220t208.5 85q104 0 186 -66l52 107h92l-86 -174q45 -70 45 -166v-479q0 -134 -85 -219.5t-208 -85.5q-111 0 -186 63l-52 -104h-92zM223 289l287 585q-46 68 -127 68q-71 0 -115.5 -49t-44.5 -135v-469zM254 166 q45 -66 129 -66q69 0 114.5 50.5t45.5 134.5v469z" />
<glyph unicode="&#xf9;" horiz-adv-x="788" d="M102 256v786h134v-761q0 -85 39.5 -132t107.5 -47q70 0 115 47.5t45 131.5v761h133v-1042h-115l-6 100q-34 -58 -89.5 -89t-125.5 -31q-105 0 -171.5 74t-66.5 202zM182 1516h144l120 -332h-108z" />
<glyph unicode="&#xfa;" horiz-adv-x="788" d="M102 256v786h134v-761q0 -85 39.5 -132t107.5 -47q70 0 115 47.5t45 131.5v761h133v-1042h-115l-6 100q-34 -58 -89.5 -89t-125.5 -31q-105 0 -171.5 74t-66.5 202zM346 1184l121 332h143l-155 -332h-109z" />
<glyph unicode="&#xfb;" horiz-adv-x="788" d="M102 256v786h134v-761q0 -85 39.5 -132t107.5 -47q70 0 115 47.5t45 131.5v761h133v-1042h-115l-6 100q-34 -58 -89.5 -89t-125.5 -31q-105 0 -171.5 74t-66.5 202zM143 1184l191 332h112l189 -332h-113l-137 223l-133 -223h-109z" />
<glyph unicode="&#xfc;" horiz-adv-x="788" d="M102 256v786h134v-761q0 -85 39.5 -132t107.5 -47q70 0 115 47.5t45 131.5v761h133v-1042h-115l-6 100q-34 -58 -89.5 -89t-125.5 -31q-105 0 -171.5 74t-66.5 202zM145 1323q0 38 27.5 65t65.5 27t64 -27t26 -65t-26 -64t-64 -26q-39 0 -66 26t-27 64zM451 1323 q0 38 27 65t65 27t64 -27t26 -65t-26 -64t-64 -26t-65 26t-27 64z" />
<glyph unicode="&#xfd;" horiz-adv-x="655" d="M20 1042h142l170 -835l170 835h133l-254 -1073q-41 -174 -104 -245.5t-152 -71.5q-21 0 -37 2t-22 4l-5 2v111q14 -4 41 -4q61 0 98 47.5t66 185.5zM279 1184l120 332h144l-156 -332h-108z" />
<glyph unicode="&#xfe;" horiz-adv-x="786" d="M113 -328v1762h133v-469q69 98 194 98q112 0 183 -75.5t71 -201.5v-524q0 -125 -73.5 -203.5t-184.5 -78.5q-122 0 -190 90v-398h-133zM246 285q0 -84 44 -133.5t113 -49.5t113.5 49.5t44.5 133.5v473q0 84 -44.5 133t-113.5 49t-113 -49t-44 -133v-473z" />
<glyph unicode="&#xff;" horiz-adv-x="655" d="M20 1042h142l170 -835l170 835h133l-254 -1073q-41 -174 -104 -245.5t-152 -71.5q-21 0 -37 2t-22 4l-5 2v111q14 -4 41 -4q61 0 98 47.5t66 185.5zM88 1323q0 38 27 65t65 27t64 -27t26 -65t-26 -64t-64 -26t-65 26t-27 64zM393 1323q0 38 27 65t65 27t64 -27t26 -65 t-26 -64t-64 -26t-65 26t-27 64z" />
<glyph unicode="&#x152;" horiz-adv-x="1161" d="M102 342v743q0 163 92 256t244 93h652v-131h-363v-494h301v-123h-301v-555h373v-131h-668q-152 0 -241 89.5t-89 252.5zM240 350q0 -109 53 -167t147 -58h148v1184h-148q-94 0 -147 -58.5t-53 -167.5v-733z" />
<glyph unicode="&#x153;" horiz-adv-x="1206" d="M92 279v479q0 135 84.5 220t208.5 85q145 0 223 -111q81 111 223 111q122 0 202.5 -81.5t80.5 -215.5v-238h-440v-243q0 -84 44 -133.5t113 -49.5t113.5 49.5t44.5 133.5v53h125v-55q0 -134 -83.5 -218.5t-205.5 -84.5q-70 0 -128 28.5t-93 81.5q-80 -110 -223 -110 q-124 0 -206.5 82.5t-82.5 216.5zM225 285q0 -84 44.5 -133.5t113.5 -49.5t113.5 49.5t44.5 133.5v473q0 84 -44.5 133t-113.5 49t-113.5 -49t-44.5 -133v-473zM674 625h315v141q0 84 -44.5 133t-113.5 49t-113 -49t-44 -133v-141z" />
<glyph unicode="&#x178;" horiz-adv-x="727" d="M20 1434h148l199 -689l200 689h140l-275 -861v-573h-139v578zM123 1692q0 38 27 65t65 27t64 -27t26 -65t-26 -64t-64 -26t-65 26t-27 64zM428 1692q0 38 27 65t65 27t64 -27t26 -65t-26 -64t-64 -26t-65 26t-27 64z" />
<glyph unicode="&#x2c6;" horiz-adv-x="1085" d="M297 1184l190 332h113l188 -332h-112l-137 223l-133 -223h-109z" />
<glyph unicode="&#x2dc;" horiz-adv-x="956" d="M207 1245q0 4 0.5 11t3.5 27.5t8.5 38.5t18 40.5t28.5 39t43 27.5t60 11q35 0 63.5 -13t46.5 -32t34.5 -37.5t35.5 -31.5t41 -13q29 0 46 26t19 52l2 26h93q0 -4 -0.5 -11t-3.5 -27.5t-8.5 -39t-18 -41t-29 -39t-44 -27.5t-60.5 -11q-41 0 -74.5 20t-51.5 43.5 t-42.5 43.5t-50.5 20q-29 0 -46 -26t-19 -52l-3 -25h-92z" />
<glyph unicode="&#x2000;" horiz-adv-x="952" />
<glyph unicode="&#x2001;" horiz-adv-x="1905" />
<glyph unicode="&#x2002;" horiz-adv-x="952" />
<glyph unicode="&#x2003;" horiz-adv-x="1905" />
<glyph unicode="&#x2004;" horiz-adv-x="635" />
<glyph unicode="&#x2005;" horiz-adv-x="476" />
<glyph unicode="&#x2006;" horiz-adv-x="317" />
<glyph unicode="&#x2007;" horiz-adv-x="317" />
<glyph unicode="&#x2008;" horiz-adv-x="238" />
<glyph unicode="&#x2009;" horiz-adv-x="381" />
<glyph unicode="&#x200a;" horiz-adv-x="105" />
<glyph unicode="&#x2010;" horiz-adv-x="614" d="M61 670v121h492v-121h-492z" />
<glyph unicode="&#x2011;" horiz-adv-x="614" d="M61 670v121h492v-121h-492z" />
<glyph unicode="&#x2012;" horiz-adv-x="614" d="M61 670v121h492v-121h-492z" />
<glyph unicode="&#x2013;" horiz-adv-x="921" d="M61 670v121h799v-121h-799z" />
<glyph unicode="&#x2014;" horiz-adv-x="1064" d="M61 670v121h943v-121h-943z" />
<glyph unicode="&#x2018;" horiz-adv-x="325" d="M82 963l51 471h111l-13 -471h-149z" />
<glyph unicode="&#x2019;" horiz-adv-x="325" d="M82 963l12 471h150l-51 -471h-111z" />
<glyph unicode="&#x201a;" horiz-adv-x="325" d="M82 -266l12 471h150l-51 -471h-111z" />
<glyph unicode="&#x201c;" horiz-adv-x="591" d="M82 963l51 471h111l-13 -471h-149zM348 963l51 471h111l-12 -471h-150z" />
<glyph unicode="&#x201d;" horiz-adv-x="591" d="M82 963l12 471h150l-51 -471h-111zM348 963l12 471h150l-51 -471h-111z" />
<glyph unicode="&#x201e;" horiz-adv-x="591" d="M82 -266l12 471h150l-51 -471h-111zM348 -266l12 471h150l-51 -471h-111z" />
<glyph unicode="&#x2022;" horiz-adv-x="567" d="M82 715q0 86 59 145.5t144 59.5q86 0 143 -58t57 -145q0 -85 -58 -144t-144 -59t-143.5 58t-57.5 143z" />
<glyph unicode="&#x202f;" horiz-adv-x="381" />
<glyph unicode="&#x2039;" horiz-adv-x="653" d="M61 690v51l412 385l78 -77l-332 -330l332 -330l-78 -82z" />
<glyph unicode="&#x203a;" horiz-adv-x="653" d="M102 385l332 330l-332 329l78 82l412 -383v-51l-412 -385z" />
<glyph unicode="&#x205f;" horiz-adv-x="476" />
<glyph unicode="&#x20ac;" horiz-adv-x="845" d="M41 549v88h154v160h-154v88h154v262q0 138 83 222.5t209 84.5q125 0 206 -81t81 -218v-111h-133v101q0 87 -42.5 135.5t-113.5 48.5q-72 0 -114.5 -48t-42.5 -136v-260h346v-88h-346v-160h305v-88h-305v-262q0 -86 42.5 -134.5t114.5 -48.5q70 0 113 48.5t43 134.5v102 h133v-106q0 -135 -83.5 -219t-207.5 -84q-126 0 -207 82t-81 219v268h-154z" />
<glyph unicode="&#x2122;" horiz-adv-x="1050" d="M82 1343v91h356v-91h-127v-555h-102v555h-127zM528 788v646h105l117 -365l118 365h101v-646h-101v410l-98 -297h-43l-100 299v-412h-99z" />
<glyph unicode="&#x25fc;" horiz-adv-x="1044" d="M0 0v1044h1044v-1044h-1044z" />
<glyph unicode="&#xfb01;" horiz-adv-x="905" d="M41 930v112h133v154q0 127 62 192.5t170 65.5q26 0 52.5 -3t39.5 -6l14 -3v-115q-41 6 -76 6q-129 0 -129 -153v-138h205v-112h-205v-930h-133v930h-133zM627 1335q0 40 28.5 69.5t67.5 29.5q40 0 69 -29.5t29 -69.5t-29 -68t-69 -28t-68 28t-28 68zM655 0v1042h138 v-1042h-138z" />
<glyph unicode="&#xfb02;" horiz-adv-x="905" d="M41 930v112h133v154q0 127 62 192.5t170 65.5q26 0 52.5 -3t39.5 -6l14 -3v-115q-41 6 -76 6q-129 0 -129 -153v-138h205v-112h-205v-930h-133v930h-133zM655 0v1434h138v-1434h-138z" />
</font>
</defs>
</svg>
