<?xml version="1.0" encoding="utf-8"?>
<!-- Generator: Adobe Illustrator 24.0.0, SVG Export Plug-In . SVG Version: 6.00 Build 0)  -->
<svg version="1.1" id="Capa_1" xmlns="http://www.w3.org/2000/svg" xmlns:xlink="http://www.w3.org/1999/xlink" x="0px" y="0px"
	 viewBox="0 0 627 497" style="enable-background:new 0 0 627 497;" xml:space="preserve">
<style type="text/css">
	.st0{fill:#A800F6;enable-background:new    ;}
	.st1{enable-background:new    ;}
	.st2{fill:#231C1D;}
	.st3{fill:#D1F100;enable-background:new    ;}
	.st4{fill:#FECE00;enable-background:new    ;}
	.st5{fill:#0065AC;}
	.st6{fill:#FFA000;}
</style>
<g>
	<g>
		<polygon class="st0" points="143.8,300.6 409.8,300.6 348.8,378.6 82.8,378.6 		"/>
		<g class="st1">
			<path class="st2" d="M192.2,364v-18.1h3.6c1.3,0,2.3,0.4,3.1,1.2c0.8,0.8,1.1,1.9,1.1,3.2v2c0,1.4-0.4,2.5-1.2,3.3
				c-0.8,0.8-1.8,1.2-3.1,1.2h-1.9v7.2H192.2z M193.9,355.3h1.9c0.8,0,1.4-0.2,1.8-0.7s0.7-1.2,0.7-2.1v-2c0-0.9-0.2-1.6-0.7-2.1
				s-1.1-0.7-1.8-0.7h-1.9V355.3z"/>
			<path class="st2" d="M202.4,360.3v-14.3h1.7v14.3c0,0.8,0.2,1.4,0.6,1.8c0.4,0.4,0.9,0.7,1.6,0.7c0.6,0,1.1-0.2,1.5-0.6
				c0.4-0.4,0.6-1,0.6-1.8v-14.3h1.7v14.3c0,1.2-0.4,2.2-1.1,2.9c-0.7,0.7-1.7,1.1-2.8,1.1c-1.1,0-2-0.4-2.7-1.1
				C202.8,362.5,202.4,361.5,202.4,360.3z"/>
			<path class="st2" d="M213.1,364v-18.1h3.6c1.2,0,2.2,0.4,3,1.1c0.7,0.7,1.1,1.8,1.1,3.1v0.5c0,0.9-0.2,1.7-0.5,2.3
				c-0.4,0.7-0.9,1.2-1.5,1.5c0.7,0.3,1.3,0.8,1.7,1.4c0.4,0.7,0.6,1.5,0.6,2.5v1.3c0,1.3-0.4,2.4-1.1,3.2s-1.8,1.2-3,1.2H213.1z
				 M214.8,353.9h1.8c0.8,0,1.4-0.2,1.8-0.7c0.4-0.5,0.7-1.2,0.7-2.1v-0.8c0-0.9-0.2-1.6-0.7-2.1c-0.4-0.5-1.1-0.7-1.8-0.7h-1.8
				V353.9z M214.8,362.5h2c0.8,0,1.4-0.2,1.8-0.7c0.4-0.5,0.7-1.2,0.7-2.1v-1.6c0-0.9-0.2-1.6-0.7-2.1c-0.4-0.5-1.1-0.7-1.8-0.7h-2
				V362.5z"/>
			<path class="st2" d="M223.7,364v-18.1h1.7v16.4h4.2v1.7H223.7z"/>
			<path class="st2" d="M231.8,364v-18.1h1.8V364H231.8z"/>
			<path class="st2" d="M236.6,360.3v-10.5c0-1.2,0.4-2.2,1.1-3c0.7-0.8,1.7-1.1,2.8-1.1c1.1,0,2,0.4,2.7,1.1
				c0.7,0.7,1.1,1.7,1.1,2.9v2.4h-1.7v-2.3c0-0.8-0.2-1.4-0.6-1.8c-0.4-0.4-0.9-0.7-1.5-0.7c-0.6,0-1.1,0.2-1.5,0.7
				c-0.4,0.4-0.6,1-0.6,1.8v10.5c0,0.8,0.2,1.4,0.6,1.8c0.4,0.4,0.9,0.7,1.6,0.7c0.6,0,1.1-0.2,1.5-0.6c0.4-0.4,0.6-1,0.6-1.8v-2.5
				h1.7v2.6c0,1.2-0.4,2.2-1.1,2.9c-0.7,0.7-1.6,1.1-2.7,1.1c-1.1,0-2-0.4-2.8-1.1C236.9,362.5,236.6,361.5,236.6,360.3z"/>
			<path class="st2" d="M247.2,364v-18.1h1.8V364H247.2z"/>
			<path class="st2" d="M251.2,347.6v-1.7h8.1v1.7h-3.2V364h-1.7v-16.4H251.2z"/>
			<path class="st2" d="M258.8,364l3.8-18.1h1.7L268,364h-1.9l-0.9-4.6h-3.9l-0.9,4.6H258.8z M261.6,358h3.4l-1.7-8.8L261.6,358z"/>
			<path class="st2" d="M269.7,364v-18.1h3.6c1.3,0,2.3,0.4,3.1,1.2c0.8,0.8,1.1,1.9,1.1,3.3v1.8c0,0.9-0.2,1.7-0.6,2.4
				c-0.4,0.7-0.9,1.1-1.6,1.4l2.9,8.1h-1.8l-2.6-7.6c-0.1,0-0.3,0-0.7,0h-1.8v7.5H269.7z M271.5,355h1.9c0.8,0,1.4-0.2,1.8-0.7
				c0.4-0.5,0.7-1.2,0.7-2.1v-1.8c0-0.9-0.2-1.6-0.7-2.1c-0.4-0.5-1.1-0.7-1.8-0.7h-1.9V355z"/>
			<path class="st2" d="M280.4,364v-18.1h1.8V364H280.4z"/>
			<path class="st2" d="M284.2,364l3.8-18.1h1.7l3.8,18.1h-1.9l-0.9-4.6h-3.9l-0.9,4.6H284.2z M287,358h3.4l-1.7-8.8L287,358z"/>
		</g>
		<g class="st1">
			<path class="st2" d="M162.1,317.9h3.2l1.7,11.4l1.7-11.4h3.2l-3.4,18.1h-3.1L162.1,317.9z"/>
			<path class="st2" d="M173.5,336v-18.1h3.2V336H173.5z"/>
			<path class="st2" d="M179.4,336v-18.1h4.4c1.4,0,2.5,0.4,3.3,1.2c0.8,0.8,1.2,1.9,1.2,3.4v8.9c0,1.5-0.4,2.6-1.3,3.4
				c-0.8,0.8-2,1.2-3.4,1.2H179.4z M182.6,333.1h1c0.5,0,0.9-0.2,1.2-0.5s0.4-0.8,0.4-1.4v-8.6c0-0.6-0.1-1-0.4-1.3
				s-0.7-0.5-1.2-0.5h-1V333.1z"/>
			<path class="st2" d="M190.6,336v-18.1h7.1v3.1h-4v4.2h3.2v2.9h-3.2v4.7h4.1v3.1H190.6z"/>
			<path class="st2" d="M199.4,331.8v-9.6c0-1.4,0.4-2.4,1.3-3.3c0.9-0.8,2-1.3,3.3-1.3c1.3,0,2.3,0.4,3.2,1.2s1.3,1.9,1.3,3.2v9.6
				c0,1.3-0.4,2.4-1.3,3.3c-0.9,0.8-2,1.2-3.2,1.2c-1.3,0-2.3-0.4-3.2-1.2C199.8,334.3,199.4,333.2,199.4,331.8z M202.6,331.8
				c0,0.5,0.1,0.9,0.4,1.1c0.2,0.3,0.6,0.4,1,0.4c0.4,0,0.8-0.1,1-0.4c0.2-0.3,0.4-0.7,0.4-1.1v-9.6c0-0.5-0.1-0.9-0.4-1.1
				c-0.2-0.3-0.6-0.4-1-0.4c-0.4,0-0.8,0.1-1,0.4c-0.2,0.3-0.4,0.7-0.4,1.1V331.8z"/>
			<path class="st2" d="M215.7,331.9c0-1,0.2-1.9,0.6-2.8c0.4-0.9,1.1-1.9,2.1-3c-0.6-0.9-1.1-1.7-1.4-2.4c-0.3-0.7-0.4-1.4-0.4-2.2
				c0-1.1,0.4-2.1,1.2-2.8c0.8-0.7,1.7-1.1,2.9-1.1c1.1,0,2,0.3,2.7,1c0.7,0.7,1.1,1.6,1.1,2.7c0,0.8-0.2,1.6-0.6,2.4
				c-0.4,0.8-1.1,1.6-2,2.6l1.9,2.9l1.7-3.6h2.7l-2.8,6l2.8,4.4h-3.1l-1.1-1.7c-0.5,0.7-1,1.2-1.6,1.5c-0.6,0.3-1.3,0.5-2.1,0.5
				c-1.3,0-2.3-0.4-3.1-1.2S215.7,333.2,215.7,331.9z M218.7,331.5c0,0.6,0.2,1.2,0.5,1.5c0.3,0.4,0.7,0.5,1.2,0.5
				c0.4,0,0.7-0.1,1-0.3c0.3-0.2,0.6-0.6,0.9-1.1l-2.3-3.7C219.1,329.5,218.7,330.6,218.7,331.5z M219.6,321.5
				c0,0.9,0.3,1.9,0.8,2.8c0.5-0.6,0.9-1.1,1.1-1.5s0.3-0.9,0.3-1.3c0-0.4-0.1-0.7-0.3-1c-0.2-0.2-0.5-0.4-0.8-0.4
				c-0.3,0-0.6,0.1-0.8,0.4C219.7,320.8,219.6,321.1,219.6,321.5z"/>
			<path class="st2" d="M235,336v-18.1h7v3.1h-3.8v5h3v2.9h-3v7H235z"/>
			<path class="st2" d="M243.2,331.8v-9.6c0-1.4,0.4-2.4,1.3-3.3c0.9-0.8,2-1.3,3.3-1.3c1.3,0,2.3,0.4,3.2,1.2s1.3,1.9,1.3,3.2v9.6
				c0,1.3-0.4,2.4-1.3,3.3c-0.9,0.8-2,1.2-3.2,1.2c-1.3,0-2.3-0.4-3.2-1.2C243.7,334.3,243.2,333.2,243.2,331.8z M246.4,331.8
				c0,0.5,0.1,0.9,0.4,1.1c0.2,0.3,0.6,0.4,1,0.4c0.4,0,0.8-0.1,1-0.4c0.2-0.3,0.4-0.7,0.4-1.1v-9.6c0-0.5-0.1-0.9-0.4-1.1
				c-0.2-0.3-0.6-0.4-1-0.4c-0.4,0-0.8,0.1-1,0.4c-0.2,0.3-0.4,0.7-0.4,1.1V331.8z"/>
			<path class="st2" d="M253.4,321.1v-3.1h8.8v3.1h-2.8v15h-3.2v-15H253.4z"/>
			<path class="st2" d="M263.3,331.8v-9.6c0-1.4,0.4-2.4,1.3-3.3c0.9-0.8,2-1.3,3.3-1.3c1.3,0,2.3,0.4,3.2,1.2s1.3,1.9,1.3,3.2v9.6
				c0,1.3-0.4,2.4-1.3,3.3c-0.9,0.8-2,1.2-3.2,1.2c-1.3,0-2.3-0.4-3.2-1.2C263.7,334.3,263.3,333.2,263.3,331.8z M266.5,331.8
				c0,0.5,0.1,0.9,0.4,1.1c0.2,0.3,0.6,0.4,1,0.4c0.4,0,0.8-0.1,1-0.4c0.2-0.3,0.4-0.7,0.4-1.1v-9.6c0-0.5-0.1-0.9-0.4-1.1
				c-0.2-0.3-0.6-0.4-1-0.4c-0.4,0-0.8,0.1-1,0.4c-0.2,0.3-0.4,0.7-0.4,1.1V331.8z"/>
			<path class="st2" d="M274.4,331.8v-9.6c0-1.4,0.4-2.4,1.3-3.3c0.9-0.8,2-1.3,3.3-1.3c1.3,0,2.4,0.4,3.2,1.2s1.3,1.9,1.3,3.2v2.1
				h-3.3v-2.1c0-0.5-0.1-0.9-0.3-1.1s-0.5-0.4-1-0.4s-0.8,0.1-1,0.4s-0.4,0.7-0.4,1.1v9.7c0,0.5,0.1,0.9,0.4,1.2s0.6,0.4,1.1,0.4
				c0.4,0,0.7-0.1,1-0.4c0.2-0.3,0.4-0.7,0.4-1.2v-3H279v-2.5h4.5v5.4c0,1.3-0.5,2.4-1.4,3.3c-0.9,0.8-2,1.2-3.3,1.2
				c-1.3,0-2.4-0.4-3.2-1.2C274.8,334.3,274.4,333.2,274.4,331.8z"/>
			<path class="st2" d="M285.8,336v-18.1h4.1c1.5,0,2.7,0.4,3.5,1.2c0.8,0.8,1.3,2,1.3,3.5v2c0,0.8-0.1,1.5-0.4,2.1
				c-0.3,0.6-0.7,1-1.2,1.4l2.3,7.9h-3.2l-2-6.9h-1.3v6.9H285.8z M288.9,326.5h1c0.5,0,0.9-0.2,1.2-0.5c0.3-0.3,0.4-0.8,0.4-1.3v-2
				c0-0.6-0.1-1-0.4-1.3s-0.7-0.5-1.2-0.5h-1V326.5z"/>
			<path class="st2" d="M295.6,336l3.6-18.1h3.1l3.4,18.1h-3.2l-0.5-3.5h-2.8l-0.5,3.5H295.6z M299.6,330h2l-1-6.4L299.6,330z"/>
			<path class="st2" d="M307,336v-18.1h7v3.1h-3.8v5h3v2.9h-3v7H307z"/>
			<path class="st2" d="M315.7,336v-18.1h3.2V336H315.7z M316.1,316.6l1.2-4.3h3.1l-2,4.3H316.1z"/>
			<path class="st2" d="M320.3,336l3.6-18.1h3.1l3.4,18.1h-3.2l-0.5-3.5H324l-0.5,3.5H320.3z M324.4,330h2l-1-6.4L324.4,330z"/>
		</g>
	</g>
	<g>
		<polygon class="st3" points="77.9,391.6 343.9,391.6 282.9,469.6 16.9,469.6 		"/>
		<g>
			<g class="st1">
				<path class="st2" d="M131.3,420.6h3.5l1.3,11.6l1.5-11.6h2.6l1.5,11.6l1.3-11.6h3.3l-3.1,18.8h-2.9l-1.5-10.3l-1.5,10.3h-2.9
					L131.3,420.6z"/>
				<path class="st2" d="M147.6,439.4v-18.8h7.4v3.3h-4.1v4.4h3.3v3.1h-3.3v4.9h4.3v3.3H147.6z"/>
				<path class="st2" d="M157,439.4v-18.8h4.6c1.4,0,2.5,0.4,3.3,1.2c0.8,0.8,1.2,1.9,1.2,3.3v0.6c0,0.9-0.2,1.6-0.5,2.3
					c-0.3,0.7-0.8,1.2-1.4,1.5c0.7,0.3,1.2,0.9,1.6,1.5s0.6,1.5,0.6,2.5v1.4c0,1.4-0.4,2.6-1.3,3.4c-0.8,0.8-2,1.2-3.3,1.2H157z
					 M160.3,428.5h0.9c0.5,0,1-0.2,1.2-0.5s0.4-0.8,0.4-1.4v-1.3c0-0.6-0.1-1.1-0.4-1.4s-0.7-0.5-1.2-0.5h-0.9V428.5z M160.3,436.7
					h1.2c0.5,0,1-0.2,1.2-0.5c0.3-0.3,0.4-0.8,0.4-1.4v-1.9c0-0.6-0.1-1.1-0.4-1.4c-0.3-0.3-0.7-0.5-1.2-0.5h-1.2V436.7z"/>
			</g>
			<g class="st1">
				<path class="st2" d="M172.6,439.4v-18.8h3.9c1.3,0,2.4,0.4,3.1,1.2c0.8,0.8,1.2,1.9,1.2,3.3v9.7c0,1.4-0.4,2.5-1.2,3.4
					c-0.8,0.8-1.9,1.2-3.2,1.2H172.6z M174.4,437.8h2c0.8,0,1.5-0.3,1.9-0.8s0.7-1.2,0.7-2.2v-9.7c0-1-0.2-1.7-0.7-2.2
					s-1.1-0.8-1.9-0.8h-2V437.8z"/>
				<path class="st2" d="M183.8,439.4v-18.8h6.6v1.7h-4.8v6.5h4v1.6h-4v7.3h4.9v1.7H183.8z"/>
				<path class="st2" d="M192.2,435.4v-1.2h1.9v1.1c0,0.9,0.2,1.5,0.6,2c0.4,0.5,0.9,0.7,1.5,0.7c0.7,0,1.3-0.2,1.7-0.7
					c0.4-0.5,0.7-1.1,0.7-1.9c0-0.9-0.2-1.7-0.7-2.5s-1.3-1.7-2.4-2.8c-0.9-0.9-1.6-1.9-2.2-2.8c-0.6-0.9-0.9-1.9-0.9-2.9
					c0-1.2,0.4-2.2,1.2-3c0.8-0.8,1.7-1.1,2.9-1.1c1.1,0,2.1,0.4,2.8,1.1c0.7,0.7,1.1,1.8,1.1,3v1h-1.7v-0.9c0-0.8-0.2-1.4-0.6-1.9
					s-1-0.7-1.6-0.7c-0.7,0-1.2,0.2-1.6,0.7c-0.4,0.4-0.6,1-0.6,1.8c0,0.8,0.2,1.5,0.7,2.2c0.4,0.7,1.1,1.5,2.1,2.4
					c1.2,1.1,2,2.2,2.6,3.2c0.6,1,0.9,2.1,0.9,3.3c0,1.3-0.4,2.3-1.2,3.1c-0.8,0.8-1.8,1.2-3,1.2c-1.2,0-2.2-0.4-2.9-1.2
					C192.6,437.8,192.2,436.7,192.2,435.4z"/>
				<path class="st2" d="M203.2,439.4v-18.8h1.9v18.8H203.2z"/>
				<path class="st2" d="M208.1,435.4v-10.7c0-1.3,0.4-2.4,1.2-3.2c0.8-0.8,1.8-1.2,3-1.2s2.2,0.4,3,1.2c0.8,0.8,1.2,1.8,1.2,3.1v2
					h-1.9v-1.9c0-0.8-0.2-1.5-0.7-2c-0.4-0.5-1-0.7-1.7-0.7c-0.7,0-1.3,0.2-1.7,0.7c-0.4,0.5-0.7,1.1-0.7,2v10.6
					c0,0.8,0.2,1.5,0.7,2c0.4,0.5,1,0.7,1.7,0.7c0.7,0,1.3-0.2,1.7-0.7c0.4-0.5,0.7-1.2,0.7-2v-4h-2.2v-1.5h4v5.5
					c0,1.3-0.4,2.4-1.2,3.2s-1.8,1.2-3,1.2c-1.2,0-2.2-0.4-3-1.2C208.5,437.8,208.1,436.7,208.1,435.4z"/>
				<path class="st2" d="M219.4,439.4v-18.8h1.7l5.1,14.4v-14.4h1.6v18.8h-1.6l-5.2-14.7v14.7H219.4z"/>
			</g>
		</g>
	</g>
	<g>
		<polygon class="st4" points="344.1,27.4 610.1,27.4 549.1,105.4 283.1,105.4 		"/>
		<g class="st1">
			<path class="st2" d="M377.3,74.8l3.8-18.1h1.7l3.8,18.1h-1.9l-0.9-4.6h-3.9l-0.9,4.6H377.3z M380.2,68.8h3.4l-1.7-8.8L380.2,68.8
				z"/>
			<path class="st2" d="M388.3,74.8V56.8h3.7c1.3,0,2.3,0.4,3,1.1c0.7,0.8,1.1,1.8,1.1,3.2v9.4c0,1.4-0.4,2.4-1.2,3.2
				s-1.8,1.2-3.1,1.2H388.3z M390,73.3h1.9c0.8,0,1.4-0.2,1.8-0.7c0.4-0.5,0.7-1.2,0.7-2.1v-9.3c0-0.9-0.2-1.6-0.7-2.1
				s-1.1-0.7-1.8-0.7H390V73.3z"/>
			<path class="st2" d="M399,74.8V56.8h1.7l4.9,13.8V56.8h1.6v18.1h-1.6l-5-14.1v14.1H399z"/>
			<path class="st2" d="M414.4,70.8c0-1,0.2-1.9,0.7-2.9c0.5-0.9,1.2-1.9,2.2-3c-0.6-1-1.1-1.9-1.3-2.6c-0.3-0.8-0.4-1.6-0.4-2.3
				c0-1,0.3-1.8,0.9-2.5c0.6-0.7,1.4-1,2.4-1c1,0,1.7,0.3,2.3,1s0.9,1.5,0.9,2.4c0,0.8-0.2,1.7-0.7,2.5c-0.5,0.8-1.2,1.7-2.2,2.7
				l2.7,4.1l2.1-4.7h1.6l-2.8,6.1l2.8,4.2h-1.9l-1.7-2.5c-1,1.9-2.3,2.8-3.9,2.8c-1.2,0-2.1-0.4-2.8-1.2S414.4,72.1,414.4,70.8z
				 M416,70.6c0,0.8,0.2,1.5,0.6,2.1c0.4,0.5,1,0.8,1.6,0.8c0.6,0,1.1-0.2,1.6-0.6s0.9-1.1,1.3-2l-3.1-4.7c-0.7,0.8-1.3,1.6-1.6,2.3
				S416,69.9,416,70.6z M417.1,59.9c0,0.6,0.1,1.2,0.3,1.8c0.2,0.6,0.5,1.3,1,2.1c0.8-0.8,1.3-1.6,1.6-2.1c0.3-0.6,0.5-1.2,0.5-1.8
				c0-0.5-0.1-1-0.4-1.4c-0.3-0.4-0.7-0.6-1.2-0.6c-0.5,0-1,0.2-1.3,0.5C417.3,58.9,417.1,59.4,417.1,59.9z"/>
		</g>
		<g class="st1">
			<path class="st2" d="M433.3,74.8V56.8h4.4c1.3,0,2.4,0.4,3.1,1.1c0.8,0.8,1.2,1.8,1.2,3.2v0.6c0,0.8-0.2,1.6-0.5,2.2
				c-0.3,0.6-0.8,1.1-1.3,1.5c0.7,0.3,1.2,0.8,1.5,1.5c0.4,0.6,0.5,1.4,0.5,2.4v1.3c0,1.4-0.4,2.5-1.2,3.2c-0.8,0.8-1.9,1.2-3.2,1.2
				H433.3z M436.4,64.3h0.9c0.5,0,0.9-0.2,1.2-0.5s0.4-0.8,0.4-1.3v-1.3c0-0.6-0.1-1-0.4-1.3c-0.3-0.3-0.7-0.5-1.2-0.5h-0.9V64.3z
				 M436.4,72.2h1.1c0.5,0,0.9-0.2,1.2-0.5c0.3-0.3,0.4-0.8,0.4-1.3v-1.8c0-0.6-0.1-1-0.4-1.3c-0.3-0.3-0.7-0.5-1.2-0.5h-1.1V72.2z"
				/>
			<path class="st2" d="M444.4,74.8V56.8h4.1c1.5,0,2.7,0.4,3.5,1.2c0.8,0.8,1.3,2,1.3,3.5v2c0,0.8-0.1,1.5-0.4,2.1
				c-0.3,0.6-0.7,1-1.2,1.4l2.3,7.9h-3.2l-2-6.9h-1.3v6.9H444.4z M447.5,65.3h1c0.5,0,0.9-0.2,1.2-0.5c0.3-0.3,0.4-0.8,0.4-1.3v-2
				c0-0.6-0.1-1-0.4-1.3s-0.7-0.5-1.2-0.5h-1V65.3z"/>
			<path class="st2" d="M454.2,74.8l3.6-18.1h3.1l3.4,18.1h-3.2l-0.5-3.5h-2.8l-0.5,3.5H454.2z M458.2,68.8h2l-1-6.4L458.2,68.8z"/>
			<path class="st2" d="M465.6,74.8V56.8h3.2l3.4,10.5V56.8h3v18.1h-3l-3.6-11.1v11.1H465.6z"/>
			<path class="st2" d="M477.4,74.8V56.8h4.4c1.4,0,2.5,0.4,3.3,1.2c0.8,0.8,1.2,1.9,1.2,3.4v8.9c0,1.5-0.4,2.6-1.3,3.4
				c-0.8,0.8-2,1.2-3.4,1.2H477.4z M480.5,71.9h1c0.5,0,0.9-0.2,1.2-0.5s0.4-0.8,0.4-1.4v-8.6c0-0.6-0.1-1-0.4-1.3s-0.7-0.5-1.2-0.5
				h-1V71.9z"/>
			<path class="st2" d="M488.7,74.8V56.8h3.2v18.1H488.7z"/>
			<path class="st2" d="M494.7,74.8V56.8h3.2l3.4,10.5V56.8h3v18.1h-3l-3.6-11.1v11.1H494.7z"/>
			<path class="st2" d="M506.1,70.6V61c0-1.4,0.4-2.4,1.3-3.3c0.9-0.8,2-1.3,3.3-1.3c1.3,0,2.4,0.4,3.2,1.2s1.3,1.9,1.3,3.2v2.1H512
				V61c0-0.5-0.1-0.9-0.3-1.1s-0.5-0.4-1-0.4s-0.8,0.1-1,0.4s-0.4,0.7-0.4,1.1v9.7c0,0.5,0.1,0.9,0.4,1.2s0.6,0.4,1.1,0.4
				c0.4,0,0.7-0.1,1-0.4c0.2-0.3,0.4-0.7,0.4-1.2v-3h-1.3v-2.5h4.5v5.4c0,1.3-0.5,2.4-1.4,3.3c-0.9,0.8-2,1.2-3.3,1.2
				c-1.3,0-2.4-0.4-3.2-1.2C506.6,73.1,506.1,72,506.1,70.6z"/>
		</g>
	</g>
	<g>
		<polygon class="st5" points="278.6,118.4 544.6,118.4 483.6,196.4 217.6,196.4 		"/>
		<g class="st1">
			<path class="st2" d="M324.7,162v-1.5h3.3v1.4c0,0.5,0.1,1,0.4,1.3c0.2,0.3,0.6,0.5,1,0.5c0.4,0,0.7-0.1,1-0.4s0.4-0.7,0.4-1.2
				c0-0.7-0.2-1.3-0.6-1.9s-1.1-1.5-2.1-2.5c-1.1-1-1.9-2-2.4-2.9c-0.5-0.9-0.8-1.9-0.8-2.9c0-1.3,0.4-2.4,1.3-3.3
				c0.9-0.8,2-1.2,3.3-1.2c1.3,0,2.3,0.4,3.1,1.2c0.8,0.8,1.2,1.9,1.2,3.2v1.3h-3.2v-1.1c0-0.5-0.1-0.9-0.3-1.2s-0.5-0.4-0.9-0.4
				c-0.4,0-0.7,0.1-0.9,0.4c-0.2,0.3-0.4,0.6-0.4,1.1c0,0.6,0.2,1.1,0.5,1.7c0.4,0.6,1.1,1.3,2.1,2.3c1.1,1.1,1.9,2.1,2.4,3.1
				c0.5,1,0.8,2,0.8,3.2c0,1.4-0.5,2.5-1.4,3.4s-2,1.3-3.4,1.3c-1.3,0-2.4-0.4-3.3-1.2C325.2,164.5,324.7,163.4,324.7,162z"/>
			<path class="st2" d="M335.8,161.9v-10c0-1.4,0.5-2.5,1.4-3.4s2-1.3,3.4-1.3c1.3,0,2.4,0.4,3.3,1.3c0.9,0.8,1.3,2,1.3,3.4v10
				c0,1.4-0.5,2.5-1.4,3.4c-0.9,0.9-2,1.3-3.4,1.3c-1.3,0-2.4-0.4-3.3-1.3C336.2,164.4,335.8,163.3,335.8,161.9z M339.1,161.8
				c0,0.5,0.1,0.9,0.4,1.2c0.3,0.3,0.6,0.4,1,0.4s0.8-0.1,1-0.4c0.2-0.3,0.4-0.7,0.4-1.2v-10c0-0.5-0.1-0.9-0.4-1.2
				c-0.3-0.3-0.6-0.4-1-0.4s-0.8,0.1-1,0.4c-0.3,0.3-0.4,0.7-0.4,1.2V161.8z"/>
			<path class="st2" d="M347.4,162v-10.3c0-1.4,0.4-2.5,1.3-3.3c0.9-0.8,2-1.3,3.3-1.3c1.3,0,2.4,0.4,3.2,1.2
				c0.9,0.8,1.3,1.9,1.3,3.2v2.7h-3.3v-2.6c0-0.5-0.1-0.8-0.3-1.1s-0.5-0.4-0.9-0.4c-0.4,0-0.7,0.1-0.9,0.4
				c-0.2,0.3-0.3,0.6-0.3,1.1V162c0,0.5,0.1,0.8,0.3,1.1c0.2,0.3,0.5,0.4,0.9,0.4s0.7-0.1,0.9-0.4c0.2-0.3,0.3-0.6,0.3-1.1v-2.8h3.3
				v2.9c0,1.3-0.4,2.4-1.3,3.2s-2,1.2-3.3,1.2c-1.3,0-2.4-0.4-3.2-1.2C347.8,164.5,347.4,163.4,347.4,162z"/>
			<path class="st2" d="M358.9,166.2v-18.8h3.3v18.8H358.9z"/>
			<path class="st2" d="M363.8,166.2l3.8-18.8h3.2l3.6,18.8H371l-0.6-3.6h-2.9l-0.6,3.6H363.8z M368,160h2.1l-1.1-6.7L368,160z"/>
			<path class="st2" d="M375.7,166.2v-18.8h3.3V163h3.7v3.3H375.7z"/>
		</g>
		<g class="st1">
			<path class="st2" d="M389.5,166.2v-18.8h1.9l3.8,12.4l3.8-12.4h1.8v18.8H399v-14.4l-3.5,11.3l-0.8,0l-3.5-11.3v14.4H389.5z"/>
			<path class="st2" d="M404,166.2v-18.8h6.6v1.7h-4.8v6.5h4v1.6h-4v7.3h4.9v1.7H404z"/>
			<path class="st2" d="M413.1,166.2v-18.8h3.9c1.3,0,2.4,0.4,3.1,1.2c0.8,0.8,1.2,1.9,1.2,3.3v9.7c0,1.4-0.4,2.5-1.2,3.4
				c-0.8,0.8-1.9,1.2-3.2,1.2H413.1z M414.9,164.6h2c0.8,0,1.5-0.3,1.9-0.8s0.7-1.2,0.7-2.2V152c0-1-0.2-1.7-0.7-2.2
				s-1.1-0.8-1.9-0.8h-2V164.6z"/>
			<path class="st2" d="M424.4,166.2v-18.8h1.9v18.8H424.4z"/>
			<path class="st2" d="M428.3,166.2l3.9-18.8h1.7l3.9,18.8h-1.9l-0.9-4.8h-4l-0.9,4.8H428.3z M431.2,160h3.5l-1.8-9.2L431.2,160z"
				/>
		</g>
	</g>
	<g>
		<polygon class="st6" points="210.3,209.5 476.3,209.5 415.3,287.5 149.3,287.5 		"/>
		<g class="st1">
			<path class="st2" d="M244.8,253v-10c0-1.4,0.5-2.5,1.4-3.4c0.9-0.9,2.1-1.3,3.4-1.3c1.3,0,2.5,0.4,3.3,1.3c0.9,0.8,1.3,2,1.3,3.4
				v2.2h-3.4v-2.2c0-0.5-0.1-0.9-0.4-1.2c-0.2-0.3-0.6-0.4-1-0.4s-0.8,0.1-1.1,0.4c-0.3,0.3-0.4,0.7-0.4,1.2V253
				c0,0.5,0.1,0.9,0.4,1.2c0.3,0.3,0.6,0.4,1.1,0.4c0.4,0,0.8-0.1,1-0.4s0.4-0.7,0.4-1.2v-3.2h-1.4v-2.6h4.7v5.6
				c0,1.4-0.5,2.5-1.4,3.4c-0.9,0.9-2.1,1.3-3.4,1.3c-1.3,0-2.5-0.4-3.3-1.3C245.2,255.5,244.8,254.4,244.8,253z"/>
			<path class="st2" d="M256.6,257.3v-18.8h4.3c1.6,0,2.8,0.4,3.6,1.2c0.9,0.8,1.3,2,1.3,3.7v2.1c0,0.8-0.2,1.6-0.5,2.2
				c-0.3,0.6-0.7,1.1-1.3,1.4l2.4,8.3h-3.3l-2-7.2h-1.4v7.2H256.6z M259.9,247.4h1c0.5,0,1-0.2,1.2-0.5c0.3-0.3,0.4-0.8,0.4-1.4
				v-2.1c0-0.6-0.1-1.1-0.4-1.4s-0.7-0.5-1.2-0.5h-1V247.4z"/>
			<path class="st2" d="M266.8,257.3l3.8-18.8h3.2l3.6,18.8h-3.3l-0.6-3.6h-2.9l-0.6,3.6H266.8z M271,251h2.1l-1.1-6.7L271,251z"/>
			<path class="st2" d="M278.8,257.3v-18.8h4.3c1.5,0,2.7,0.4,3.6,1.2c0.9,0.8,1.3,2,1.3,3.7v2.2c0,1.6-0.4,2.8-1.3,3.7
				c-0.9,0.9-2.1,1.3-3.7,1.3h-1v6.7H278.8z M282.1,247.6h1c0.5,0,1-0.2,1.2-0.5c0.3-0.3,0.4-0.8,0.4-1.4v-2.3
				c0-0.6-0.1-1.1-0.4-1.4c-0.3-0.3-0.7-0.5-1.2-0.5h-1V247.6z"/>
			<path class="st2" d="M290.1,257.3v-18.8h3.3v7.5h2.7v-7.5h3.3v18.8H296v-8.1h-2.7v8.1H290.1z"/>
			<path class="st2" d="M302.2,257.3v-18.8h3.3v18.8H302.2z"/>
			<path class="st2" d="M308.1,253.1v-10.3c0-1.4,0.4-2.5,1.3-3.3c0.9-0.8,2-1.3,3.3-1.3c1.3,0,2.4,0.4,3.2,1.2
				c0.9,0.8,1.3,1.9,1.3,3.2v2.7h-3.3v-2.6c0-0.5-0.1-0.8-0.3-1.1s-0.5-0.4-0.9-0.4c-0.4,0-0.7,0.1-0.9,0.4
				c-0.2,0.3-0.3,0.6-0.3,1.1V253c0,0.5,0.1,0.8,0.3,1.1c0.2,0.3,0.5,0.4,0.9,0.4s0.7-0.1,0.9-0.4c0.2-0.3,0.3-0.6,0.3-1.1v-2.8h3.3
				v2.9c0,1.3-0.4,2.4-1.3,3.2s-2,1.2-3.3,1.2c-1.3,0-2.4-0.4-3.2-1.2C308.5,255.5,308.1,254.4,308.1,253.1z"/>
		</g>
		<g class="st1">
			<path class="st2" d="M325.1,257.3v-18.8h3.9c1.3,0,2.4,0.4,3.1,1.2c0.8,0.8,1.2,1.9,1.2,3.3v9.7c0,1.4-0.4,2.5-1.2,3.4
				c-0.8,0.8-1.9,1.2-3.2,1.2H325.1z M326.9,255.7h2c0.8,0,1.5-0.3,1.9-0.8s0.7-1.2,0.7-2.2v-9.7c0-1-0.2-1.7-0.7-2.2
				s-1.1-0.8-1.9-0.8h-2V255.7z"/>
			<path class="st2" d="M336.2,257.3v-18.8h6.6v1.7H338v6.5h4v1.6h-4v7.3h4.9v1.7H336.2z"/>
			<path class="st2" d="M344.7,253.3v-1.2h1.9v1.1c0,0.9,0.2,1.5,0.6,2c0.4,0.5,0.9,0.7,1.5,0.7c0.7,0,1.3-0.2,1.7-0.7
				c0.4-0.5,0.7-1.1,0.7-1.9c0-0.9-0.2-1.7-0.7-2.5s-1.3-1.7-2.4-2.8c-0.9-0.9-1.6-1.9-2.2-2.8c-0.6-0.9-0.9-1.9-0.9-2.9
				c0-1.2,0.4-2.2,1.2-3c0.8-0.8,1.7-1.1,2.9-1.1c1.1,0,2.1,0.4,2.8,1.1c0.7,0.7,1.1,1.8,1.1,3v1h-1.7v-0.9c0-0.8-0.2-1.4-0.6-1.9
				s-1-0.7-1.6-0.7c-0.7,0-1.2,0.2-1.6,0.7c-0.4,0.4-0.6,1-0.6,1.8c0,0.8,0.2,1.5,0.7,2.2c0.4,0.7,1.1,1.5,2.1,2.4
				c1.2,1.1,2,2.2,2.6,3.2c0.6,1,0.9,2.1,0.9,3.3c0,1.3-0.4,2.3-1.2,3.1c-0.8,0.8-1.8,1.2-3,1.2c-1.2,0-2.2-0.4-2.9-1.2
				C345.1,255.6,344.7,254.6,344.7,253.3z"/>
			<path class="st2" d="M355.6,257.3v-18.8h1.9v18.8H355.6z"/>
			<path class="st2" d="M360.6,253.3v-10.7c0-1.3,0.4-2.4,1.2-3.2c0.8-0.8,1.8-1.2,3-1.2s2.2,0.4,3,1.2c0.8,0.8,1.2,1.8,1.2,3.1v2
				h-1.9v-1.9c0-0.8-0.2-1.5-0.7-2c-0.4-0.5-1-0.7-1.7-0.7c-0.7,0-1.3,0.2-1.7,0.7c-0.4,0.5-0.7,1.1-0.7,2v10.6c0,0.8,0.2,1.5,0.7,2
				c0.4,0.5,1,0.7,1.7,0.7c0.7,0,1.3-0.2,1.7-0.7c0.4-0.5,0.7-1.2,0.7-2v-4H365v-1.5h4v5.5c0,1.3-0.4,2.4-1.2,3.2
				c-0.8,0.8-1.8,1.2-3,1.2c-1.2,0-2.2-0.4-3-1.2C361,255.6,360.6,254.6,360.6,253.3z"/>
			<path class="st2" d="M371.9,257.3v-18.8h1.7l5.1,14.4v-14.4h1.6v18.8h-1.6l-5.2-14.7v14.7H371.9z"/>
		</g>
	</g>
</g>
</svg>
