<?xml version="1.0" encoding="utf-8"?>
<!-- Generator: Adobe Illustrator 24.1.2, SVG Export Plug-In . SVG Version: 6.00 Build 0)  -->
<svg version="1.1" id="Capa_1" xmlns="http://www.w3.org/2000/svg" xmlns:xlink="http://www.w3.org/1999/xlink" x="0px" y="0px"
	 viewBox="0 0 166.72 202.85" style="enable-background:new 0 0 166.72 202.85;" xml:space="preserve">
<style type="text/css">
	.st0{fill:url(#SVGID_1_);}
	.st1{fill:url(#SVGID_2_);}
	.st2{fill:url(#SVGID_3_);}
	.st3{fill:url(#SVGID_4_);}
	.st4{fill:#6B1D1E;}
	.st5{fill:url(#SVGID_5_);}
	.st6{fill:url(#SVGID_6_);}
	.st7{fill:url(#SVGID_7_);}
	.st8{fill:url(#SVGID_8_);}
</style>
<g>
	<g>
		<linearGradient id="SVGID_1_" gradientUnits="userSpaceOnUse" x1="83.3594" y1="134.9718" x2="83.3594" y2="15.9719">
			<stop  offset="0" style="stop-color:#C1954B"/>
			<stop  offset="1" style="stop-color:#681D1C"/>
		</linearGradient>
		<path class="st0" d="M12.78,78.72c-4.64-1.87-8.77-6.07-9.97-10.76c-1.39-5.4-0.09-11.5,3.65-15.64c0.27-0.3,0.56-0.59,0.85-0.87
			c7.64-7.22,19.3-6.03,28.45-2.98c31.21,10.37,62.11,26.03,95.35,30.08c6.5,0.79,13.38,0.57,19.22-2.4
			c5.84-2.97,10.35-9.22,9.73-15.74c-0.34-3.49-2.04-6.65-4.15-9.5c-0.48-0.64,0.28-1.47,0.96-1.05c5.28,3.23,8.27,10.01,7.47,16.27
			c-0.93,7.31-6.25,13.59-12.79,16.99c-6.55,3.39-14.17,4.2-21.52,3.72c-12.94-0.85-25.55-4.28-37.94-7.94
			c-12.56-3.71-24.94-8.03-37.08-12.95c-6.32-2.56-12.52-5.36-18.73-8.17c-5.98-2.71-12.61-4.9-19.21-3.32
			c-3.92,0.96-7.35,3.53-8.82,7.28c-2.34,5.97,1.19,11.37,5.12,15.94C13.84,78.24,13.45,78.99,12.78,78.72z"/>
		<linearGradient id="SVGID_2_" gradientUnits="userSpaceOnUse" x1="139.8548" y1="134.9717" x2="139.8548" y2="15.9717">
			<stop  offset="0" style="stop-color:#C1954B"/>
			<stop  offset="1" style="stop-color:#681D1C"/>
		</linearGradient>
		<path class="st1" d="M123.97,73.22c-0.43-0.08-0.4-0.69,0.03-0.75c17.4-2.39,24.08-12,26.44-17.13c0.58-1.26,2.11-1.51,3.14-0.62
			c4.96,4.31,1.61,12.28-2.8,15.53C143.4,75.71,132.29,74.74,123.97,73.22z"/>
		<linearGradient id="SVGID_3_" gradientUnits="userSpaceOnUse" x1="86.5145" y1="134.9717" x2="86.5145" y2="15.9718">
			<stop  offset="0" style="stop-color:#C1954B"/>
			<stop  offset="1" style="stop-color:#681D1C"/>
		</linearGradient>
		<path class="st2" d="M104.59,4.71C104.07,1.98,101.69,0,98.91,0H71.18c-2.64,0-4.91,1.86-5.43,4.44l-9.06,44.84
			c-0.26,1.28,0.43,2.56,1.63,3.06c9.06,3.72,29.97,11.83,54.51,18.21c2.01,0.52,3.88-1.22,3.5-3.26L104.59,4.71z"/>
		<g>
			<linearGradient id="SVGID_4_" gradientUnits="userSpaceOnUse" x1="73.6933" y1="134.9717" x2="73.6933" y2="15.9716">
				<stop  offset="0" style="stop-color:#C1954B"/>
				<stop  offset="1" style="stop-color:#681D1C"/>
			</linearGradient>
			<path class="st3" d="M133.92,91.49c0.85-0.21,0.71-1.48-0.17-1.49c-23.76-0.43-48.1-7.61-70.16-16.04
				c-6.38-2.44-12.68-5.08-18.91-7.88c-5.8-2.61-11.54-5.86-17.84-7.1c-7.26-1.42-16.17,3.04-13.44,11.68
				c1.99,6.29,8.58,9.61,14.04,12.41c5.24,2.69,10.85,4.62,16.58,5.94c1.01,0.23,1.93,0.4,2.78,0.56c0.94,0.17,1.55,1.07,1.36,2.01
				l-0.16,0.79l-0.53,2.61l-8.17,40.42c-0.69,3.4,1.91,6.58,5.39,6.58H69.6c1.27,0,2.33-0.97,2.44-2.23l1.91-21.07
				c0.12-1.31,1.22-2.31,2.53-2.31h14.75c1.42,0,2.6,1.09,2.73,2.5l1.81,20.89c0.11,1.26,1.16,2.23,2.43,2.23h25.4
				c3.5,0,6.12-3.21,5.41-6.64c-2.3-11.14-6.81-33.06-8.25-40.11c-0.15-0.75,0.37-1.47,1.13-1.57
				C126.06,93.13,130.1,92.42,133.92,91.49z"/>
		</g>
	</g>
	<g>
		<g>
			<path class="st4" d="M53.9,197.93c0-4.12,1.16-4.93,3.09-4.93c0.47,0,0.88,0.07,1.34,0.17c0.11,0.02,0.16,0.09,0.15,0.21
				l-0.08,1.03c-0.01,0.13-0.1,0.19-0.22,0.16c-0.32-0.07-0.64-0.1-0.92-0.1c-1.4,0-1.72,1.09-1.72,3.46c0,2.37,0.32,3.46,1.77,3.46
				c0.36,0,0.73-0.04,1.07-0.12c0.13-0.03,0.21,0.04,0.22,0.16l0.08,1.03c0.01,0.12-0.05,0.19-0.15,0.21
				c-0.48,0.12-0.93,0.19-1.49,0.19C55.07,202.85,53.9,202.05,53.9,197.93z"/>
			<path class="st4" d="M65.46,202.2c-0.75-0.72-0.93-2.1-0.93-4.26c0-2.09,0.19-3.43,0.85-4.18c0.45-0.51,1.12-0.73,2.06-0.73
				c0.94,0,1.61,0.25,2.05,0.78c0.63,0.75,0.82,2.09,0.82,4.13c0,2.19-0.2,3.57-0.97,4.29c-0.45,0.43-1.08,0.63-1.94,0.63
				C66.54,202.85,65.9,202.65,65.46,202.2z M67.43,201.38c0.6,0,0.85-0.31,0.98-0.91c0.2-0.65,0.28-1.35,0.28-2.53
				c0-1.15-0.08-1.87-0.28-2.53c-0.12-0.59-0.37-0.91-0.98-0.91c-0.61,0-0.86,0.31-0.98,0.91c-0.2,0.66-0.28,1.38-0.28,2.53
				c0,1.17,0.08,1.87,0.28,2.53C66.57,201.06,66.82,201.38,67.43,201.38L67.43,201.38z"/>
			<path class="st4" d="M81.39,194.4c0,0.12-0.07,0.19-0.19,0.19h-2.54c-0.03,0-0.05,0.02-0.05,0.05v2.64
				c0,0.03,0.02,0.05,0.05,0.05h2.28c0.12,0,0.19,0.07,0.19,0.19v1.06c0,0.13-0.07,0.19-0.19,0.19h-2.28
				c-0.03,0-0.05,0.02-0.05,0.05v3.69c0,0.13-0.07,0.19-0.19,0.19h-1.26c-0.12,0-0.19-0.07-0.19-0.19v-9.19
				c0-0.13,0.07-0.19,0.19-0.19h4.04c0.13,0,0.19,0.07,0.19,0.19L81.39,194.4L81.39,194.4z"/>
			<path class="st4" d="M92.28,194.4c0,0.12-0.07,0.19-0.19,0.19h-2.54c-0.03,0-0.05,0.02-0.05,0.05v2.64
				c0,0.03,0.02,0.05,0.05,0.05h2.28c0.12,0,0.19,0.07,0.19,0.19v1.06c0,0.13-0.07,0.19-0.19,0.19h-2.28
				c-0.03,0-0.05,0.02-0.05,0.05v3.69c0,0.13-0.07,0.19-0.19,0.19h-1.26c-0.12,0-0.19-0.07-0.19-0.19v-9.19
				c0-0.13,0.07-0.19,0.19-0.19h4.04c0.13,0,0.19,0.07,0.19,0.19L92.28,194.4L92.28,194.4z"/>
			<path class="st4" d="M100.45,201.26h2.69c0.12,0,0.19,0.07,0.19,0.19v1.07c0,0.13-0.07,0.19-0.19,0.19h-4.19
				c-0.13,0-0.19-0.07-0.19-0.19v-9.2c0-0.13,0.07-0.19,0.19-0.19h4.04c0.12,0,0.19,0.07,0.19,0.19v1.07c0,0.12-0.07,0.19-0.19,0.19
				h-2.54c-0.03,0-0.05,0.02-0.05,0.05v2.39c0,0.03,0.02,0.05,0.05,0.05h2.34c0.12,0,0.19,0.07,0.19,0.19v1.06
				c0,0.12-0.07,0.19-0.19,0.19h-2.34c-0.03,0-0.05,0.02-0.05,0.05v2.62C100.39,201.24,100.41,201.26,100.45,201.26z"/>
			<path class="st4" d="M111.64,201.26h2.69c0.13,0,0.19,0.07,0.19,0.19v1.07c0,0.13-0.07,0.19-0.19,0.19h-4.19
				c-0.13,0-0.19-0.07-0.19-0.19v-9.2c0-0.13,0.07-0.19,0.19-0.19h4.04c0.13,0,0.19,0.07,0.19,0.19v1.07c0,0.12-0.07,0.19-0.19,0.19
				h-2.54c-0.03,0-0.05,0.02-0.05,0.05v2.39c0,0.03,0.02,0.05,0.05,0.05h2.34c0.12,0,0.19,0.07,0.19,0.19v1.06
				c0,0.12-0.07,0.19-0.19,0.19h-2.34c-0.03,0-0.05,0.02-0.05,0.05v2.62C111.59,201.24,111.61,201.26,111.64,201.26z"/>
		</g>
	</g>
	<g>
		<path class="st4" d="M11.94,152.66c2.15,0,3.68,1.5,4.81,4.76c1.13,3.26,1.92,9.13,3.57,15.61c1.64,6.47,3.68,10.98,3.68,12.09
			c0,1.11-3.34,1.16-5.21,1.16c-1.87,0-2.49-4.29-2.77-5.79c-0.28-1.5-0.45-1.5-1.87-1.5c-1.41,0-6.17,0.77-7.19,0.77
			c-1.02,0-1.3,0.09-1.53,1.24c-0.23,1.16-0.96,4.84-2.09,4.84c-1.13,0-3.34-0.21-3.34-1.97c0-1.76,1.19-4.2,1.19-4.84
			c0-0.64-1.02-1.97-1.02-3.04c0-1.07,0.11-1.41,0.68-1.41s1.3,0.26,1.3,0.26s0.85-1.76,2.66-8.28c1.81-6.52,2.83-11.06,3.28-11.36
			c0.45-0.3,0.62-0.51,0.62-1.07c0-0.56-0.74-0.56-0.74-0.86C7.98,152.79,9.79,152.66,11.94,152.66z M7.19,174.92
			c0,0.17,1.47,0.21,3.23,0.21s3.91,0.26,3.91-0.43c0-0.69-2.66-12.99-3.17-12.99C10.24,161.71,7.19,174.75,7.19,174.92z"/>
		<g>
			<path class="st4" d="M48.55,160.67c0,7.72-7.14,13.17-7.14,13.52c0,0.34,1.53,0.3,3.28,1.89c1.75,1.59,1.05,6.61,3.76,6.61
				c1.87,0,2.26-0.43,2.66-0.43c0.45,0,0.79,0.26,0.79,0.69c0,0.56-2.96,2.83-6.02,2.83c-8.26,0-8.21-9.89-8.67-9.89
				c-0.45,0-3.51,0.54-3.51,1.44c0,0.9,0.06,6.39,0.06,7.16c0,0.77-0.96,1.37-1.75,1.37c-0.79,0-2.15,0.3-3,0.3
				c-0.85,0-2.26-1.93-2.26-3.09c0-1.16,0.11-13.33,0.11-19.21c0-5.87-0.06-9.09-0.06-9.95c0-0.86,0.17-1.12,1.08-1.12
				c0.91,0,2.21,1.03,3.06,1.03c0.85,0,1.39-1.63,7.17-1.63C45.12,152.19,48.55,156.17,48.55,160.67z M33.14,156.01
				c0,0.26,0.28,2.57,0.28,6.99s-0.28,9.86,0.28,9.86c2.43,0,6.75-6.95,6.75-13.9c0-2.49-0.32-4.41-2.81-4.41
				C35.73,154.55,33.14,155.75,33.14,156.01z"/>
		</g>
		<path class="st4" d="M67.1,153.01c3.62,0,5.89,1.89,5.89,7.93c0,4.33-1.36,7.76-2.83,7.76c-1.47,0-3.62-0.21-4.02-2.92
			c-0.4-2.7-0.23-5.02,0-5.66c0.62-1.76,2.49-0.47,2.49-2.49c0-0.94-0.28-2.57-2.55-2.57c-2.26,0-6.06,5.75-6.06,16.46
			c0,7.38,4.36,11.83,7.02,11.83c2.66,0,4.13-2.92,4.3-3.69c0.17-0.77,0.57-1.67,1.02-1.67s0.79,0.99,0.79,2.27s0.11,1.46,0.11,2.1
			c0,0.64-3.34,3.9-8.55,3.9c-5.21,0-11.94-5.02-12.05-15.35c-0.11-11.71,5.09-17.71,7.92-17.71c2.83,0,2.6,0.17,3.17,0.17
			C64.27,153.39,65.06,153.01,67.1,153.01z"/>
		<path class="st4" d="M88.13,152.66c2.15,0,3.68,1.5,4.81,4.76s1.92,9.13,3.57,15.61c1.64,6.47,3.68,10.98,3.68,12.09
			c0,1.11-3.34,1.16-5.21,1.16c-1.87,0-2.49-4.29-2.77-5.79c-0.28-1.5-0.45-1.5-1.87-1.5c-1.41,0-6.17,0.77-7.19,0.77
			c-1.02,0-1.3,0.09-1.53,1.24c-0.23,1.16-0.96,4.84-2.09,4.84c-1.13,0-3.34-0.21-3.34-1.97c0-1.76,1.19-4.2,1.19-4.84
			c0-0.64-1.02-1.97-1.02-3.04c0-1.07,0.11-1.41,0.68-1.41c0.57,0,1.3,0.26,1.3,0.26s0.85-1.76,2.66-8.28
			c1.81-6.52,2.83-11.06,3.28-11.36c0.45-0.3,0.62-0.51,0.62-1.07c0-0.56-0.74-0.56-0.74-0.86
			C84.17,152.79,85.98,152.66,88.13,152.66z M83.38,174.92c0,0.17,1.47,0.21,3.23,0.21c1.75,0,3.9,0.26,3.9-0.43
			c0-0.69-2.66-12.99-3.17-12.99C86.43,161.71,83.38,174.75,83.38,174.92z"/>
		<path class="st4" d="M110.99,152.96c10.19,0,17.43,5.53,17.43,16.12c0,10.59-10.7,17.24-16.41,17.24c-1.98,0-3.28-0.47-4.24-0.47
			c-0.96,0-1.19,0.13-1.75,0.13c-0.57,0-2.49-0.69-2.49-2.57c0-1.89-1.7-25.21-1.7-28.34c0-0.9-0.11-1.63,0.74-1.63
			c0.85,0,1.98,0.51,2.6,0.51C106.3,153.95,107.66,152.96,110.99,152.96z M110.65,181.95c0,1.07,0.4,1.16,1.3,1.16
			c4.75,0,9.85-5.1,9.85-13.63c0-6.65-5.43-14.15-11.94-14.15C109.3,155.62,110.65,180.88,110.65,181.95z"/>
		<path class="st4" d="M133.39,152.88c1.7,0,3.57,0.64,3.57,1.76c0,1.12,0.57,4.03,0.57,6.9c0,2.87,0.91,21.57,0.91,22.94
			c0,1.37-1.7,1.33-3.4,1.33c-1.7,0-3.4-1.84-3.4-7.67c0-5.83-0.06-18.69-0.06-21.61c0-2.44-1.08-2.57-1.08-3
			C130.5,153.31,131.69,152.88,133.39,152.88z"/>
		<path class="st4" d="M159.42,153.35c2.89,0,7.3,2.32,7.3,15.39c0,13.08-4.81,17.28-12,17.28c-7.19,0-12.39-3.86-12.39-14.28
			c0-10.42,5.49-18.95,10.02-18.95c2.15,0,3.28,0.99,3.62,0.99C156.93,153.78,156.53,153.35,159.42,153.35z M150.31,173.5
			c0,4.89,1.47,9.86,4.98,9.86s5.09-13.85,5.09-19.47s-2.77-8.4-3.85-8.4C154.83,155.49,150.31,162.31,150.31,173.5z"/>
	</g>
	<g>
		<linearGradient id="SVGID_5_" gradientUnits="userSpaceOnUse" x1="83.3594" y1="134.9718" x2="83.3594" y2="15.9719">
			<stop  offset="0" style="stop-color:#C1954B"/>
			<stop  offset="1" style="stop-color:#681D1C"/>
		</linearGradient>
		<path class="st5" d="M12.78,78.72c-4.64-1.87-8.77-6.07-9.97-10.76c-1.39-5.4-0.09-11.5,3.65-15.64c0.27-0.3,0.56-0.59,0.85-0.87
			c7.64-7.22,19.3-6.03,28.45-2.98c31.21,10.37,62.11,26.03,95.35,30.08c6.5,0.79,13.38,0.57,19.22-2.4
			c5.84-2.97,10.35-9.22,9.73-15.74c-0.34-3.49-2.04-6.65-4.15-9.5c-0.48-0.64,0.28-1.47,0.96-1.05c5.28,3.23,8.27,10.01,7.47,16.27
			c-0.93,7.31-6.25,13.59-12.79,16.99c-6.55,3.39-14.17,4.2-21.52,3.72c-12.94-0.85-25.55-4.28-37.94-7.94
			c-12.56-3.71-24.94-8.03-37.08-12.95c-6.32-2.56-12.52-5.36-18.73-8.17c-5.98-2.71-12.61-4.9-19.21-3.32
			c-3.92,0.96-7.35,3.53-8.82,7.28c-2.34,5.97,1.19,11.37,5.12,15.94C13.84,78.24,13.45,78.99,12.78,78.72z"/>
		<linearGradient id="SVGID_6_" gradientUnits="userSpaceOnUse" x1="139.8548" y1="134.9717" x2="139.8548" y2="15.9717">
			<stop  offset="0" style="stop-color:#C1954B"/>
			<stop  offset="1" style="stop-color:#681D1C"/>
		</linearGradient>
		<path class="st6" d="M123.97,73.22c-0.43-0.08-0.4-0.69,0.03-0.75c17.4-2.39,24.08-12,26.44-17.13c0.58-1.26,2.11-1.51,3.14-0.62
			c4.96,4.31,1.61,12.28-2.8,15.53C143.4,75.71,132.29,74.74,123.97,73.22z"/>
		<linearGradient id="SVGID_7_" gradientUnits="userSpaceOnUse" x1="86.5145" y1="134.9717" x2="86.5145" y2="15.9718">
			<stop  offset="0" style="stop-color:#C1954B"/>
			<stop  offset="1" style="stop-color:#681D1C"/>
		</linearGradient>
		<path class="st7" d="M104.59,4.71C104.07,1.98,101.69,0,98.91,0H71.18c-2.64,0-4.91,1.86-5.43,4.44l-9.06,44.84
			c-0.26,1.28,0.43,2.56,1.63,3.06c9.06,3.72,29.97,11.83,54.51,18.21c2.01,0.52,3.88-1.22,3.5-3.26L104.59,4.71z"/>
		<g>
			<linearGradient id="SVGID_8_" gradientUnits="userSpaceOnUse" x1="73.6933" y1="134.9717" x2="73.6933" y2="15.9716">
				<stop  offset="0" style="stop-color:#C1954B"/>
				<stop  offset="1" style="stop-color:#681D1C"/>
			</linearGradient>
			<path class="st8" d="M133.92,91.49c0.85-0.21,0.71-1.48-0.17-1.49c-23.76-0.43-48.1-7.61-70.16-16.04
				c-6.38-2.44-12.68-5.08-18.91-7.88c-5.8-2.61-11.54-5.86-17.84-7.1c-7.26-1.42-16.17,3.04-13.44,11.68
				c1.99,6.29,8.58,9.61,14.04,12.41c5.24,2.69,10.85,4.62,16.58,5.94c1.01,0.23,1.93,0.4,2.78,0.56c0.94,0.17,1.55,1.07,1.36,2.01
				l-0.16,0.79l-0.53,2.61l-8.17,40.42c-0.69,3.4,1.91,6.58,5.39,6.58H69.6c1.27,0,2.33-0.97,2.44-2.23l1.91-21.07
				c0.12-1.31,1.22-2.31,2.53-2.31h14.75c1.42,0,2.6,1.09,2.73,2.5l1.81,20.89c0.11,1.26,1.16,2.23,2.43,2.23h25.4
				c3.5,0,6.12-3.21,5.41-6.64c-2.3-11.14-6.81-33.06-8.25-40.11c-0.15-0.75,0.37-1.47,1.13-1.57
				C126.06,93.13,130.1,92.42,133.92,91.49z"/>
		</g>
	</g>
	<g>
		<g>
			<path class="st4" d="M53.9,197.93c0-4.12,1.16-4.93,3.09-4.93c0.47,0,0.88,0.07,1.34,0.17c0.11,0.02,0.16,0.09,0.15,0.21
				l-0.08,1.03c-0.01,0.13-0.1,0.19-0.22,0.16c-0.32-0.07-0.64-0.1-0.92-0.1c-1.4,0-1.72,1.09-1.72,3.46c0,2.37,0.32,3.46,1.77,3.46
				c0.36,0,0.73-0.04,1.07-0.12c0.13-0.03,0.21,0.04,0.22,0.16l0.08,1.03c0.01,0.12-0.05,0.19-0.15,0.21
				c-0.48,0.12-0.93,0.19-1.49,0.19C55.07,202.85,53.9,202.05,53.9,197.93z"/>
			<path class="st4" d="M65.46,202.2c-0.75-0.72-0.93-2.1-0.93-4.26c0-2.09,0.19-3.43,0.85-4.18c0.45-0.51,1.12-0.73,2.06-0.73
				c0.94,0,1.61,0.25,2.05,0.78c0.63,0.75,0.82,2.09,0.82,4.13c0,2.19-0.2,3.57-0.97,4.29c-0.45,0.43-1.08,0.63-1.94,0.63
				C66.54,202.85,65.9,202.65,65.46,202.2z M67.43,201.38c0.6,0,0.85-0.31,0.98-0.91c0.2-0.65,0.28-1.35,0.28-2.53
				c0-1.15-0.08-1.87-0.28-2.53c-0.12-0.59-0.37-0.91-0.98-0.91c-0.61,0-0.86,0.31-0.98,0.91c-0.2,0.66-0.28,1.38-0.28,2.53
				c0,1.17,0.08,1.87,0.28,2.53C66.57,201.06,66.82,201.38,67.43,201.38L67.43,201.38z"/>
			<path class="st4" d="M81.39,194.4c0,0.12-0.07,0.19-0.19,0.19h-2.54c-0.03,0-0.05,0.02-0.05,0.05v2.64
				c0,0.03,0.02,0.05,0.05,0.05h2.28c0.12,0,0.19,0.07,0.19,0.19v1.06c0,0.13-0.07,0.19-0.19,0.19h-2.28
				c-0.03,0-0.05,0.02-0.05,0.05v3.69c0,0.13-0.07,0.19-0.19,0.19h-1.26c-0.12,0-0.19-0.07-0.19-0.19v-9.19
				c0-0.13,0.07-0.19,0.19-0.19h4.04c0.13,0,0.19,0.07,0.19,0.19L81.39,194.4L81.39,194.4z"/>
			<path class="st4" d="M92.28,194.4c0,0.12-0.07,0.19-0.19,0.19h-2.54c-0.03,0-0.05,0.02-0.05,0.05v2.64
				c0,0.03,0.02,0.05,0.05,0.05h2.28c0.12,0,0.19,0.07,0.19,0.19v1.06c0,0.13-0.07,0.19-0.19,0.19h-2.28
				c-0.03,0-0.05,0.02-0.05,0.05v3.69c0,0.13-0.07,0.19-0.19,0.19h-1.26c-0.12,0-0.19-0.07-0.19-0.19v-9.19
				c0-0.13,0.07-0.19,0.19-0.19h4.04c0.13,0,0.19,0.07,0.19,0.19L92.28,194.4L92.28,194.4z"/>
			<path class="st4" d="M100.45,201.26h2.69c0.12,0,0.19,0.07,0.19,0.19v1.07c0,0.13-0.07,0.19-0.19,0.19h-4.19
				c-0.13,0-0.19-0.07-0.19-0.19v-9.2c0-0.13,0.07-0.19,0.19-0.19h4.04c0.12,0,0.19,0.07,0.19,0.19v1.07c0,0.12-0.07,0.19-0.19,0.19
				h-2.54c-0.03,0-0.05,0.02-0.05,0.05v2.39c0,0.03,0.02,0.05,0.05,0.05h2.34c0.12,0,0.19,0.07,0.19,0.19v1.06
				c0,0.12-0.07,0.19-0.19,0.19h-2.34c-0.03,0-0.05,0.02-0.05,0.05v2.62C100.39,201.24,100.41,201.26,100.45,201.26z"/>
			<path class="st4" d="M111.64,201.26h2.69c0.13,0,0.19,0.07,0.19,0.19v1.07c0,0.13-0.07,0.19-0.19,0.19h-4.19
				c-0.13,0-0.19-0.07-0.19-0.19v-9.2c0-0.13,0.07-0.19,0.19-0.19h4.04c0.13,0,0.19,0.07,0.19,0.19v1.07c0,0.12-0.07,0.19-0.19,0.19
				h-2.54c-0.03,0-0.05,0.02-0.05,0.05v2.39c0,0.03,0.02,0.05,0.05,0.05h2.34c0.12,0,0.19,0.07,0.19,0.19v1.06
				c0,0.12-0.07,0.19-0.19,0.19h-2.34c-0.03,0-0.05,0.02-0.05,0.05v2.62C111.59,201.24,111.61,201.26,111.64,201.26z"/>
		</g>
	</g>
	<g>
		<path class="st4" d="M11.94,152.66c2.15,0,3.68,1.5,4.81,4.76c1.13,3.26,1.92,9.13,3.57,15.61c1.64,6.47,3.68,10.98,3.68,12.09
			c0,1.11-3.34,1.16-5.21,1.16c-1.87,0-2.49-4.29-2.77-5.79c-0.28-1.5-0.45-1.5-1.87-1.5c-1.41,0-6.17,0.77-7.19,0.77
			c-1.02,0-1.3,0.09-1.53,1.24c-0.23,1.16-0.96,4.84-2.09,4.84c-1.13,0-3.34-0.21-3.34-1.97c0-1.76,1.19-4.2,1.19-4.84
			c0-0.64-1.02-1.97-1.02-3.04c0-1.07,0.11-1.41,0.68-1.41s1.3,0.26,1.3,0.26s0.85-1.76,2.66-8.28c1.81-6.52,2.83-11.06,3.28-11.36
			c0.45-0.3,0.62-0.51,0.62-1.07c0-0.56-0.74-0.56-0.74-0.86C7.98,152.79,9.79,152.66,11.94,152.66z M7.19,174.92
			c0,0.17,1.47,0.21,3.23,0.21s3.91,0.26,3.91-0.43c0-0.69-2.66-12.99-3.17-12.99C10.24,161.71,7.19,174.75,7.19,174.92z"/>
		<g>
			<path class="st4" d="M48.55,160.67c0,7.72-7.14,13.17-7.14,13.52c0,0.34,1.53,0.3,3.28,1.89c1.75,1.59,1.05,6.61,3.76,6.61
				c1.87,0,2.26-0.43,2.66-0.43c0.45,0,0.79,0.26,0.79,0.69c0,0.56-2.96,2.83-6.02,2.83c-8.26,0-8.21-9.89-8.67-9.89
				c-0.45,0-3.51,0.54-3.51,1.44c0,0.9,0.06,6.39,0.06,7.16c0,0.77-0.96,1.37-1.75,1.37c-0.79,0-2.15,0.3-3,0.3
				c-0.85,0-2.26-1.93-2.26-3.09c0-1.16,0.11-13.33,0.11-19.21c0-5.87-0.06-9.09-0.06-9.95c0-0.86,0.17-1.12,1.08-1.12
				c0.91,0,2.21,1.03,3.06,1.03c0.85,0,1.39-1.63,7.17-1.63C45.12,152.19,48.55,156.17,48.55,160.67z M33.14,156.01
				c0,0.26,0.28,2.57,0.28,6.99s-0.28,9.86,0.28,9.86c2.43,0,6.75-6.95,6.75-13.9c0-2.49-0.32-4.41-2.81-4.41
				C35.73,154.55,33.14,155.75,33.14,156.01z"/>
		</g>
		<path class="st4" d="M67.1,153.01c3.62,0,5.89,1.89,5.89,7.93c0,4.33-1.36,7.76-2.83,7.76c-1.47,0-3.62-0.21-4.02-2.92
			c-0.4-2.7-0.23-5.02,0-5.66c0.62-1.76,2.49-0.47,2.49-2.49c0-0.94-0.28-2.57-2.55-2.57c-2.26,0-6.06,5.75-6.06,16.46
			c0,7.38,4.36,11.83,7.02,11.83c2.66,0,4.13-2.92,4.3-3.69c0.17-0.77,0.57-1.67,1.02-1.67s0.79,0.99,0.79,2.27s0.11,1.46,0.11,2.1
			c0,0.64-3.34,3.9-8.55,3.9c-5.21,0-11.94-5.02-12.05-15.35c-0.11-11.71,5.09-17.71,7.92-17.71c2.83,0,2.6,0.17,3.17,0.17
			C64.27,153.39,65.06,153.01,67.1,153.01z"/>
		<path class="st4" d="M88.13,152.66c2.15,0,3.68,1.5,4.81,4.76s1.92,9.13,3.57,15.61c1.64,6.47,3.68,10.98,3.68,12.09
			c0,1.11-3.34,1.16-5.21,1.16c-1.87,0-2.49-4.29-2.77-5.79c-0.28-1.5-0.45-1.5-1.87-1.5c-1.41,0-6.17,0.77-7.19,0.77
			c-1.02,0-1.3,0.09-1.53,1.24c-0.23,1.16-0.96,4.84-2.09,4.84c-1.13,0-3.34-0.21-3.34-1.97c0-1.76,1.19-4.2,1.19-4.84
			c0-0.64-1.02-1.97-1.02-3.04c0-1.07,0.11-1.41,0.68-1.41c0.57,0,1.3,0.26,1.3,0.26s0.85-1.76,2.66-8.28
			c1.81-6.52,2.83-11.06,3.28-11.36c0.45-0.3,0.62-0.51,0.62-1.07c0-0.56-0.74-0.56-0.74-0.86
			C84.17,152.79,85.98,152.66,88.13,152.66z M83.38,174.92c0,0.17,1.47,0.21,3.23,0.21c1.75,0,3.9,0.26,3.9-0.43
			c0-0.69-2.66-12.99-3.17-12.99C86.43,161.71,83.38,174.75,83.38,174.92z"/>
		<path class="st4" d="M110.99,152.96c10.19,0,17.43,5.53,17.43,16.12c0,10.59-10.7,17.24-16.41,17.24c-1.98,0-3.28-0.47-4.24-0.47
			c-0.96,0-1.19,0.13-1.75,0.13c-0.57,0-2.49-0.69-2.49-2.57c0-1.89-1.7-25.21-1.7-28.34c0-0.9-0.11-1.63,0.74-1.63
			c0.85,0,1.98,0.51,2.6,0.51C106.3,153.95,107.66,152.96,110.99,152.96z M110.65,181.95c0,1.07,0.4,1.16,1.3,1.16
			c4.75,0,9.85-5.1,9.85-13.63c0-6.65-5.43-14.15-11.94-14.15C109.3,155.62,110.65,180.88,110.65,181.95z"/>
		<path class="st4" d="M133.39,152.88c1.7,0,3.57,0.64,3.57,1.76c0,1.12,0.57,4.03,0.57,6.9c0,2.87,0.91,21.57,0.91,22.94
			c0,1.37-1.7,1.33-3.4,1.33c-1.7,0-3.4-1.84-3.4-7.67c0-5.83-0.06-18.69-0.06-21.61c0-2.44-1.08-2.57-1.08-3
			C130.5,153.31,131.69,152.88,133.39,152.88z"/>
		<path class="st4" d="M159.42,153.35c2.89,0,7.3,2.32,7.3,15.39c0,13.08-4.81,17.28-12,17.28c-7.19,0-12.39-3.86-12.39-14.28
			c0-10.42,5.49-18.95,10.02-18.95c2.15,0,3.28,0.99,3.62,0.99C156.93,153.78,156.53,153.35,159.42,153.35z M150.31,173.5
			c0,4.89,1.47,9.86,4.98,9.86s5.09-13.85,5.09-19.47s-2.77-8.4-3.85-8.4C154.83,155.49,150.31,162.31,150.31,173.5z"/>
	</g>
</g>
</svg>
