<?xml version="1.0" encoding="utf-8"?>
<!-- Generator: Adobe Illustrator 24.1.2, SVG Export Plug-In . SVG Version: 6.00 Build 0)  -->
<svg version="1.1" id="Capa_1" xmlns="http://www.w3.org/2000/svg" xmlns:xlink="http://www.w3.org/1999/xlink" x="0px" y="0px"
	 viewBox="0 0 275.9 151.68" style="enable-background:new 0 0 275.9 151.68;" xml:space="preserve">
<style type="text/css">
	.st0{fill:#482752;}
</style>
<g>
	<g>
		<path class="st0" d="M96.41,38.58c1.4,0,2.54,0.65,3.41,1.96c0.39,0.63,0.65,1.74,0.8,3.34v0.44c0,2.81-1.04,7.18-3.12,13.13
			c-0.14,0.24-0.58,1.4-1.31,3.48c-0.1,0.24-0.53,1.33-1.31,3.26c-2.85,6.77-5.71,13.08-8.56,18.93c0,0.05-0.32,0.68-0.94,1.89
			l-0.87,1.89c-0.19,0.34-0.58,1.11-1.16,2.32c-0.44,0.77-0.97,1.89-1.6,3.34c-0.24,0.19-0.6,0.9-1.09,2.1
			c-2.27,4.26-3.41,6.43-3.41,6.53h0.07c11.27-0.63,25.32-0.94,42.15-0.94c2.8,0,7.04,0.05,12.7,0.15c1.16,0.48,1.74,0.99,1.74,1.52
			c0.15,0.29,0.22,0.58,0.22,0.87c0,0.73-0.32,1.38-0.94,1.96c-0.39,0.24-0.87,0.41-1.45,0.51c-0.29,0-0.48-0.02-0.58-0.07
			c-4.84-0.05-8.49-0.07-10.95-0.07h-5.73c-6.48,0-16.3,0.22-29.45,0.65c-2.22,0.14-5.44,0.29-9.65,0.44
			c-0.68,0-1.02,0.24-1.02,0.73c-0.48,0.73-0.92,1.48-1.31,2.25l-5.73,10.74c-0.29,0.39-0.8,1.35-1.52,2.9
			c-0.1,0-0.48,0.65-1.16,1.96c-1.4,2.42-2.78,4.96-4.13,7.62c-0.1,0-0.53,0.73-1.31,2.18c-0.05,0.05-1.86,3.26-5.44,9.65
			c-0.53,0.87-1.16,1.31-1.89,1.31c0,0.05-0.15,0.07-0.44,0.07c-1.06,0-1.81-0.58-2.25-1.74l-0.07-0.73c0-0.68,0.48-1.72,1.45-3.12
			c0.05-0.19,0.89-1.69,2.54-4.5l3.92-7.11c3.24-5.85,5.97-10.83,8.2-14.94c2.37-4.35,3.55-6.63,3.55-6.82l-0.15,0.15h-0.29
			c-5.71,0.39-10.74,0.82-15.09,1.31c-0.24,0.1-1.16,0.19-2.76,0.29l-10.59,1.38c-2.22,3.1-3.72,5.22-4.5,6.38
			c-1.11,1.5-2.83,3.94-5.15,7.33c-0.15,0.15-0.48,0.63-1.02,1.45c-0.53,0.68-1.16,1.02-1.89,1.02h-0.51
			c-0.87,0-1.55-0.63-2.03-1.89v-1.09l0.94-1.96c0.24-0.58,0.41-1.14,0.51-1.67v-0.36c0-0.82-0.85-1.57-2.54-2.25
			c-2.18-0.63-4.57-0.94-7.18-0.94c-2.47,0-5.73,0.32-9.79,0.94c-2.51,0.58-3.89,0.87-4.14,0.87H2.39c-1.11,0-1.86-0.65-2.25-1.96
			c0-0.24-0.05-0.41-0.14-0.51c0.14-0.77,0.44-1.38,0.87-1.81c0.58-0.44,1.74-0.8,3.48-1.09c0.77-0.34,2.9-0.92,6.38-1.74
			c4.55-1.06,6.94-1.6,7.18-1.6c0.24-0.15,1.74-0.46,4.5-0.94c0.1-0.1,1.16-0.31,3.19-0.65c2.61-0.58,6.36-1.23,11.24-1.96
			c0.34-0.19,1.04-1.09,2.1-2.68c2.37-3.19,3.55-4.81,3.55-4.86L51,86.31c3.29-4.45,7.13-9.48,11.53-15.09l3.26-4.06
			c0.1,0,0.39-0.39,0.87-1.16c0.19-0.1,0.63-0.58,1.31-1.45c3.48-4.21,6.77-8.05,9.87-11.53c3.29-3.63,6.26-6.65,8.92-9.07
			c3-2.61,5.42-4.21,7.25-4.79C94.79,38.87,95.58,38.67,96.41,38.58 M25.82,112.21c0,0.05,0.65,0.39,1.96,1.02
			c1.16,0.82,1.86,1.5,2.1,2.03h0.22c0-0.1,0.75-1.23,2.25-3.41c0.44-0.48,0.65-0.77,0.65-0.87h-0.44L25.82,112.21z M43.89,104.3
			h0.07c5.9-0.87,13.95-1.69,24.16-2.47c0.92-0.1,2.08-0.17,3.48-0.22c0.34-0.82,1.55-3.22,3.63-7.18
			c1.84-3.58,4.47-8.87,7.91-15.89c3.19-6.72,6.02-13.15,8.49-19.3c1.45-3.72,2.61-7.23,3.48-10.52c0.63-2.22,0.94-3.84,0.94-4.86
			c-0.05-0.19-0.07-0.36-0.07-0.51h-0.14c-0.53,0-1.81,0.85-3.84,2.54c-1.93,1.55-4.59,4.09-7.98,7.62c-1.5,1.6-3.05,3.29-4.64,5.08
			c-1.98,2.27-3.26,3.8-3.84,4.57c-0.1,0-0.92,0.94-2.47,2.83l-5.66,6.96c0,0.15-0.17,0.36-0.51,0.65c-0.1,0.19-1.04,1.4-2.83,3.63
			c-1.26,1.64-1.91,2.47-1.96,2.47c0,0.1-0.34,0.53-1.02,1.31c0,0.15-0.53,0.85-1.6,2.1c0,0.1-0.27,0.46-0.8,1.09
			c-2.37,3.1-4.06,5.37-5.08,6.82c-0.39,0.39-1.16,1.43-2.32,3.12c-1.5,1.93-3.34,4.45-5.51,7.54
			C44.52,103.28,43.89,104.15,43.89,104.3"/>
		<path class="st0" d="M92.13,110.17l2.1,3.12c0.29-0.19,0.51-0.36,0.65-0.51c0.48-0.39,1.04-0.77,1.67-1.16
			c0.8-0.5,1.9-0.35,2.79-0.22c0.15,0.02,0.31,0.05,0.45,0.11c0.14,0.06,0.27,0.15,0.4,0.23c1.75,1.05,4.3,0.81,6.25,0.83
			c3.59,0.02,7.19-0.22,10.78-0.22h0.43c0.63,0,1.18,0.29,1.67,0.87c0.24,0.24,0.41,0.61,0.51,1.09v0.65
			c-0.05,0.05-0.07,0.19-0.07,0.43c-0.14,0.29-0.39,0.61-0.73,0.94c-0.48,0.39-0.97,0.58-1.45,0.58c-1.52,0-3.05,0.04-4.57,0.07
			c-2.83,0.06-5.67,0.25-8.5,0.08c-0.78-0.05-1.55-0.12-2.32-0.21c-0.65-0.08-1.38-0.31-2.02-0.31c-0.39-0.1-0.85-0.24-1.38-0.44
			c-0.24-0.15-0.39-0.22-0.44-0.22h-0.07c-0.39,0.24-1.09,0.8-2.1,1.67c-2.17,1.95-4.19,4.11-6.02,6.38l-0.87,1.31
			c-0.43,0.48-0.75,0.75-0.94,0.8c-0.1,0.1-0.36,0.19-0.8,0.29c-0.05,0-0.1,0.03-0.15,0.07h-0.58c-0.1-0.05-0.24-0.1-0.44-0.14
			c-0.58-0.29-1.02-0.75-1.31-1.38c-0.05-0.1-0.1-0.36-0.14-0.8v-0.07c0-0.92,0.56-2.54,1.67-4.86l1.81-3.99
			c0.1-0.19,0.14-0.34,0.14-0.44l-0.14-0.07h-1.31c-0.73,0-1.31-0.17-1.74-0.51c-0.44-0.44-0.68-0.8-0.73-1.09
			c-0.05-0.15-0.07-0.29-0.07-0.44v-0.44c0-0.63,0.37-1.24,0.87-1.61c0.81-0.61,2.04-0.42,2.99-0.42c0.62,0,1.23,0,1.84,0h0.92
			C91.32,110.17,92.08,110.1,92.13,110.17"/>
		<path class="st0" d="M120.2,110.68h0.36c0.63,0,1.16,0.34,1.6,1.02c0.14,0.29,0.22,0.61,0.22,0.94c0,0.24-0.15,0.75-0.44,1.52
			c-0.24,0.53-0.36,0.82-0.36,0.87c-0.05,0-0.1,0.12-0.14,0.36v0.07c1.31-1.02,2.3-1.69,2.97-2.03c1.04-0.52,1.96-1,3.19-0.83
			c1.07,0.15,2.07,0.73,2.32,1.84c0.1,0.19,0.14,0.53,0.14,1.02c0,0.48-0.05,0.87-0.14,1.16c-0.24,0.73-0.44,1.23-0.58,1.52h0.07
			c0.58-0.43,1.02-0.77,1.31-1.02c1.67-1.33,3.33-2.66,5.03-3.95c0.28-0.21,0.68-0.65,1-0.57c0.37,0.1,0.86,0.67,1.17,0.9
			c0.5,0.38,0.99,0.76,1.47,1.17c0.23,0.19-0.07,1.31-0.18,1.57c-0.15,0.34-0.24,0.8-0.29,1.38c0,0.51-0.08,1.07,0.32,1.45
			c0.24,0.22,0.55,0.34,0.86,0.43c0.87,0.26,1.78,0.34,2.69,0.4c3.04,0.18,6.08,0.13,9.13,0.09c1.44-0.02,2.87-0.04,4.31-0.06
			c1.45-0.02,3.02-0.21,4.46-0.06c0.48,0.05,0.92,0.27,1.31,0.65c0.19,0.19-1.23,3.34-2.25,3.34c-5.42,0.1-9.31,0.14-11.68,0.14
			h-1.09c-2.95,0-6.06,0.01-8.88-0.95c-2.12-0.73-2.97-1.94-3.38-4.07c0.03,0.16-1.23,1.01-1.39,1.14c-0.53,0.41-1.07,0.8-1.62,1.17
			c-1,0.68-2.03,1.39-3.15,1.84c-1.16,0.46-2.37,0.98-3.56,0.24c-1.46-0.9-1.12-2.52-0.65-3.87c0,0,0.36-0.8,0.36-0.8
			c0.18-0.4,0.45-0.83,0.56-1.24c-0.52,0.17-1.1,0.86-1.53,1.21c-1.21,0.99-2.42,1.98-3.6,3c-0.29,0.24-0.63,0.53-1.02,0.87
			c-0.1,0.05-0.39,0.27-0.87,0.65c-0.26,0.18-0.51,0.35-0.78,0.5c-0.32,0.17-2.89-2.03-2.9-2.38c0-0.05,0.02-0.1,0.04-0.14
			c0.18-0.39,0.36-0.77,0.52-1.17l0.36-0.94l1.09-2.47l0.29-0.73c0.14-0.29,0.46-0.99,0.94-2.1
			C118.29,112.69,118.62,110.68,120.2,110.68"/>
		<path class="st0" d="M166.85,111.94c0.55-0.03,1.11,0.04,1.64,0.22c1.19,0.42,2.12,1.39,2.71,2.51c0.4,0.75,0.67,1.62,0.51,2.47
			c-0.16,0.84-0.83,1.62-1.69,1.69c0.25,0.73,1.2,0.88,1.97,0.91c6.62,0.23,10.49,0.17,17.1-0.17c0.99-0.05,2.08-0.08,2.87,0.53
			c1.11,0.85,0.94,2.86-0.29,3.51c-0.57,0.31-1.24,0.33-1.89,0.35c-2.94,0.08-3.13,0.15-6.07,0.19c-4.78,0.08-9.61,0.09-14.25-1.06
			c-0.29-0.07-0.6-0.14-0.87-0.03c-0.18,0.08-0.32,0.24-0.45,0.38c-1.58,1.8-3.56,3.24-5.74,4.22c-1.26,0.56-2.83,0.93-3.94,0.11
			c-0.92-0.68-1.17-1.96-1.15-3.1c0.1-4.21,3.03-9.3,6.51-11.66C164.72,112.41,165.79,112,166.85,111.94 M161.26,124.25v0.07
			c0.48-0.34,1.55-1.4,3.19-3.19c0.35-0.39,0.77-0.73,1.14-1.1c0.35-0.35,0.65-0.74,1.01-1.08c0.27-0.26,0.98-0.48,1.19-0.77
			c0.17-0.23-0.24-0.79-0.36-1.12c-0.07-0.19-0.27-0.52-0.44-0.63c-0.41-0.26-1.08,0.39-1.37,0.63
			C163.66,119.14,162.42,121.68,161.26,124.25"/>
		<path class="st0" d="M194.78,110.03h0.36c0.34,0,0.73,0.17,1.16,0.51c0.51,0.46,0.87,1.02,0.86,1.73c-0.01,0.56-0.2,1.09-0.43,1.6
			c-0.23,0.51-0.49,1-0.64,1.54c1.11-0.8,2.2-1.67,3.41-2.32c0.05,0,0.22-0.1,0.51-0.29c0.48-0.24,1.06-0.44,1.74-0.58
			c1.27,0,2.6,0.04,3.38,1.22c0.46,0.71,0.6,1.59,0.52,2.43c-0.08,0.84-0.37,1.65-0.7,2.42c-0.3,0.72-0.64,1.43-1.02,2.11
			c0.11-0.21,2.89,0.04,3.28,0.04c1.19,0.01,5.13,0.02,6.31,0.02c2.37,0.01,8.46-0.09,10.83-0.1c4.54-0.02,1.51-0.12,1.23-0.12
			c-0.09,0,0.19,0,0.28,0c0.39,0,0.82,0.19,1.31,0.58c0.24,0.29,0.44,0.61,0.58,0.94c0.05,0.24,0.07,0.39,0.07,0.44v0.44
			c0,0.24-0.17,0.63-0.51,1.16l-0.44,0.44c-0.39,0.19-0.7,0.29-0.94,0.29c-9.1,0-12.25,0.49-21.35,0.3
			c-1.19-0.03-2.38-0.08-3.56-0.21c-0.73-0.24-1.21-0.51-1.45-0.8c-0.48-0.48-0.73-1.04-0.73-1.67v-0.22c0-0.34,0.07-0.75,0.22-1.23
			c0.05-0.29,0.41-1.14,1.09-2.54c0.09-0.21,0.17-0.42,0.23-0.64c-0.09,0.15-0.22,0.27-0.36,0.38c-2.5,2.06-4.95,4.2-7.49,6.21
			c-0.21,0.15-0.43,0.31-0.64,0.46c-0.03,0.02-0.06,0.04-0.1,0.04c-0.04,0-0.07-0.03-0.1-0.05c-0.92-0.73-1.84-1.48-2.78-2.19
			c-0.24-0.14-0.36-0.29-0.36-0.44c0.58-1.4,0.87-2.13,0.87-2.18c0.1-0.19,0.19-0.44,0.29-0.72c0.29-0.58,0.44-0.9,0.44-0.94
			c0.67-1.46,1.25-2.95,1.89-4.42c0.29-0.68,0.48-1.16,0.58-1.45c0.15-0.24,0.27-0.53,0.36-0.87l0.22-0.43
			c0.44-0.44,0.85-0.7,1.23-0.8C194.41,110.05,194.53,110.03,194.78,110.03"/>
		<path class="st0" d="M249.77,96.94h0.58c0.19,0,0.46,0.1,0.8,0.29c0.43,0.24,0.75,0.65,0.94,1.23c0.05,0.29,0.07,0.46,0.07,0.51
			c0,0.78-0.6,1.61-0.95,2.28c-0.48,0.91-0.97,1.82-1.47,2.73c-0.57,1.03-1.15,2.05-1.74,3.07c-1.05,1.79-2.12,3.66-3.16,5.49
			c-0.15,0.24-0.34,0.61-0.58,1.09c-0.05,0.05-0.24,0.44-0.58,1.16c-0.14,0.15-0.56,0.87-1.23,2.18l-0.36,0.65
			c0.58,0.34,0.92,0.68,1.02,1.02c0.27,0.67,0.44,1.46-0.07,2.06c-0.75,0.87-2.27,1.35-3.34,1.71c-0.49,0.16-0.83,1.44-1.04,1.85
			c-0.5,0.96-1.19,3.27-2.44,3.51c0,0.05-0.24,0.1-0.73,0.14c-0.68,0-1.26-0.29-1.74-0.87c-0.19-0.39-0.29-0.75-0.29-1.09v-0.22
			c0-0.34,0.14-0.73,0.44-1.16c0.05-0.1,0.07-0.17,0.07-0.22v-0.07h-0.07c-1.57,0.56-3.2,0.95-4.87,1.1
			c-1.58,0.14-3.29,0.21-4.71-0.59l-0.29-0.22c-0.39-0.34-0.65-0.7-0.8-1.09c-0.05-0.24-0.07-0.41-0.07-0.51v-0.51
			c0-0.34,0.1-0.73,0.29-1.16c0.1-0.34,0.27-0.73,0.51-1.16c0.44-0.68,0.87-1.28,1.31-1.81c0.89-1.09,2.03-2.04,3.15-2.89
			c0.56-0.43,1.14-0.83,1.74-1.2c1.24-0.77,2.53-1.39,3.88-1.93l0.65-0.22l1.16-0.29c0.39-0.05,0.87-0.1,1.45-0.14
			c0.87,0.05,1.4,0.14,1.6,0.29c0.43,0.14,0.8,0.36,1.09,0.65c0.05,0,0.07,0.03,0.07,0.07h0.07c0,0,0.43-0.72,0.44-0.73
			c1.11-1.85,2.06-3.78,3.15-5.64c0.56-0.96,1.12-1.93,1.67-2.9c0.67-1.19,1.33-2.39,1.99-3.59c0.58-1.07,0.93-2.19,2.04-2.75
			C249.6,96.99,249.72,96.94,249.77,96.94 M228.01,121.24v0.07c0.15,0.14,0.39,0.22,0.73,0.22c0.87,0,1.7-0.26,2.53-0.48
			c0.55-0.15,1.07-0.25,1.6-0.46l1.31-0.43c0.73-0.24,1.23-0.44,1.52-0.58c0.5-0.14,0.9-0.26,1.11-0.77
			c0.24-0.58,1.44-2.74,0.41-3.14c-0.61-0.24-1.55,0.18-2.1,0.43c-0.73,0.34-1.43,0.73-2.1,1.16c-0.48,0.29-0.92,0.58-1.31,0.87
			c-0.72,0.48-1.55,1.09-2.47,1.81C228.47,120.62,228.06,121.05,228.01,121.24"/>
		<path class="st0" d="M255.43,111.49c2.1,0.01,3.92,1.28,4.72,3.22c0.24,0.63,0.36,1.06,0.36,1.31c0.1,0.53,0.14,1.06,0.14,1.6
			v0.65h0.07c2.66-0.05,9.7-0.05,12.41,0h0.44c0.73,0,1.28,0.19,1.67,0.58c0.34,0.29,0.55,0.63,0.65,1.02v0.36v0.22
			c0,1.12-1.02,1.86-2.05,1.95c-0.6,0.05-13.05-0.07-13.05-0.07c-0.07,0-0.14,0-0.21,0h-0.07h-0.07h-0.22h-0.36h-0.15h-0.07h-0.07
			h-0.07c-0.22,0-0.44,0-0.66,0c-0.01,0-0.03,0-0.04,0.01c-0.02,0.01-0.02,0.03-0.03,0.05c-0.19,0.86-0.88,1.62-1.45,2.26
			c-0.68,0.77-1.28,1.33-1.81,1.67c-2,1.27-4.6,2.31-6.87,0.99c-1.19-0.69-1.9-1.88-2.27-3.17c-0.24-0.92-0.36-1.69-0.36-2.32v-1.02
			c0-0.58,0.07-1.14,0.22-1.67c0-0.05,0.14-0.46,0.44-1.23c0.24-0.58,0.56-1.16,0.94-1.74c0.34-0.53,0.94-1.21,1.81-2.03
			c0.1-0.1,0.36-0.31,0.8-0.65C251.64,112.36,253.55,111.48,255.43,111.49 M250.06,121.53c0,0.6-0.01,1.88,0.61,2.25
			c0.33,0.2,0.86,0.01,1.19-0.09c0.79-0.24,1.32-0.73,1.97-1.21c0.15-0.18,0.57-0.53,0.57-0.78c0-0.07-0.02-0.14-0.04-0.21
			c-0.25-0.97,0.02-1.88,0.86-2.45c0.28-0.19,0.59-0.34,0.92-0.44c0.1-0.03,0.37-0.05,0.45-0.12c0.1-0.1,0.08-0.49,0.08-0.63
			c0-0.49,0.02-1.25-0.29-1.67c-0.14-0.2-0.3-0.38-0.53-0.49c-0.04-0.02-0.07-0.03-0.11-0.05c-0.03-0.01-0.07-0.03-0.1-0.03
			c-0.04-0.01-0.08-0.01-0.11-0.01c-1.01,0-2.04,0.46-2.83,1.07C251.16,117.85,250.06,119.53,250.06,121.53"/>
		<g>
			<path class="st0" d="M86.03,141.49l-0.63-2.26c2.54-0.12,3.62-1.73,3.62-2.97c0-1.06-0.55-1.75-1.57-1.75
				c-0.39,0-1.08,0.02-1.42,0.04l-3.11,11.7h-2.89l3.7-13.88h1.57c0,0,1.81-0.12,2.67-0.12c2.38,0,3.93,1.28,3.93,3.81
				C91.89,139.35,89.06,141.16,86.03,141.49z"/>
			<path class="st0" d="M106.59,146.25c0-0.49,0.06-0.85,0.16-1.34h-0.12l-2.1,1.28c-0.43,0.26-0.47,0.26-0.75,0.26
				c-1,0-1.89-0.85-1.89-2.71c0-4.21,2.67-6.7,5.33-6.7c0.33,0,1.47,0.1,3.89,0.53l-1.71,6.43c-0.16,0.63-0.28,1.63-0.28,2.24
				H106.59z M108.1,139.23c-0.63-0.16-1-0.22-1.22-0.22c-0.92,0-2.32,1.47-2.32,4.33c0,0.2,0.02,0.41,0.06,0.57l0.35,0.22
				c0.96-0.26,1.4-0.49,2.04-0.75L108.1,139.23z"/>
			<path class="st0" d="M131.43,140.04l-1.06,3.97c-0.2,0.73-0.31,1.57-0.31,2.24h-2.65c0-0.83,0.22-1.89,0.45-2.81l0.94-3.68
				l-0.28-0.37c-0.71,0.08-1.47,0.31-2.14,0.57l-1.65,6.29h-2.71l2.38-9l2.73-0.1l-0.33,1.18h0.06l2.18-1.06
				c0.35-0.16,0.59-0.22,0.98-0.22c0.81,0,1.63,0.71,1.63,1.47C131.66,138.94,131.6,139.43,131.43,140.04z"/>
			<path class="st0" d="M149.86,139.33h-2.3l-0.77,2.95c-0.14,0.57-0.2,1.1-0.2,1.55l0.22,0.04c0.88-0.37,1.3-0.59,2.12-1.08
				l0.69,1.65c-3.05,2.01-3.38,2.01-4.21,2.01c-1.14,0-1.69-0.98-1.69-1.95c0-0.39,0.1-0.92,0.2-1.3l1-3.87h-1.47l0.51-2.06h1.59
				l0.53-1.99l2.65-0.33l-0.63,2.32h2.32L149.86,139.33z"/>
			<path class="st0" d="M163.59,146.25h-2.69l2.38-8.91l2.71-0.1L163.59,146.25z M165.28,135.22c-0.71,0-1.26-0.57-1.26-1.28
				s0.55-1.28,1.26-1.28s1.28,0.57,1.28,1.28S165.99,135.22,165.28,135.22z"/>
			<path class="st0" d="M184.18,146.31c-1.02,3.85-3.3,5.37-6.17,5.37c-0.85,0-1.85-0.12-2.67-0.49l0.61-2.42
				c0.69,0.37,1.57,0.53,2.34,0.53c1.47,0,2.63-0.67,3.17-2.73l0.45-1.67h-0.16l-2.08,1.28c-0.35,0.22-0.45,0.26-0.75,0.26
				c-1,0-1.89-0.85-1.89-2.71c0-4.21,2.71-6.7,5.37-6.7c0.2,0,0.79,0,4.07,0.53L184.18,146.31z M183.41,139.23
				c-0.63-0.16-1.04-0.22-1.26-0.22c-1.06,0-2.44,1.47-2.44,4.33c0,0.2,0.02,0.41,0.06,0.57l0.35,0.22c0.96-0.26,1.57-0.49,2.2-0.75
				L183.41,139.23z"/>
			<path class="st0" d="M201.25,146.45c-2.32,0-3.58-1.65-3.58-3.7c0-3.7,2.87-5.7,5.15-5.7c2.16,0,3.58,1.49,3.58,3.7
				C206.4,144.09,203.87,146.45,201.25,146.45z M202.51,139.11c-1.06,0-2.14,1.65-2.14,3.79c0,1.06,0.51,1.51,1.18,1.51
				c1.14,0,2.14-1.81,2.14-3.79C203.69,139.55,203.18,139.11,202.51,139.11z"/>
			<path class="st0" d="M220.19,144.36l4.6,1.65l-1.04,2.12l-6.13-2.12v-2.06l4.78-4.46h-3.68l0.26-2.22h6.57v2.08L220.19,144.36z"
				/>
			<path class="st0" d="M240.04,146.45c-2.32,0-3.58-1.65-3.58-3.7c0-3.7,2.87-5.7,5.15-5.7c2.16,0,3.58,1.49,3.58,3.7
				C245.19,144.09,242.67,146.45,240.04,146.45z M241.31,139.11c-1.06,0-2.14,1.65-2.14,3.79c0,1.06,0.51,1.51,1.18,1.51
				c1.14,0,2.14-1.81,2.14-3.79C242.49,139.55,241.98,139.11,241.31,139.11z"/>
		</g>
	</g>
	<path class="st0" d="M201.25,22.59c-2.9-2.73-7.11-3.13-10.47-1l-16.59,10.5c-1.08,0.69-1.74,1.88-1.74,3.16v16L152.8,63.44
		c-0.05,0.03-0.1-0.02-0.08-0.07l19.62-42.41c0.02-0.05,0.1-0.04,0.1,0.02v4.97c0,0.8,0.86,1.31,1.56,0.92l3.67-2.01
		c1.39-0.76,2.25-2.22,2.25-3.8V3.98c0-1.65-0.95-3.23-2.51-3.77c-1.85-0.64-3.83,0.23-4.63,1.96l-32.18,69.56
		c-0.69,1.5-0.32,3.28,0.92,4.37c0.7,0.62,1.59,0.94,2.48,0.94c0.68,0,1.36-0.19,1.97-0.56l26.47-16.41v13.34
		c0,2.07,1.67,3.74,3.74,3.74c2.07,0,3.74-1.67,3.74-3.74V37.32l14.85-9.4c0.48-0.31,0.93-0.26,1.35,0.13
		c0.41,0.39,0.49,0.84,0.21,1.34l-7.8,14.22c-0.99,1.81-0.33,4.09,1.48,5.08c1.81,0.99,4.09,0.33,5.08-1.48l7.8-14.22
		C204.82,29.49,204.16,25.32,201.25,22.59z"/>
</g>
</svg>
