<?xml version="1.0" encoding="utf-8"?>
<!-- Generator: Adobe Illustrator 24.1.2, SVG Export Plug-In . SVG Version: 6.00 Build 0)  -->
<svg version="1.1" id="Capa_1" xmlns="http://www.w3.org/2000/svg" xmlns:xlink="http://www.w3.org/1999/xlink" x="0px" y="0px"
	 viewBox="0 0 477.55 136.93" style="enable-background:new 0 0 477.55 136.93;" xml:space="preserve">
<style type="text/css">
	.st0{fill:#1C2333;}
	.st1{fill:url(#SVGID_1_);}
</style>
<g>
	<g>
		<path class="st0" d="M318.66,67.51l-17.29-46.57H286.1c-0.38,0-0.64,0.38-0.49,0.73l25.97,64.69c0.28,0.7,0.97,1.17,1.72,1.17
			h10.33c0.76,0,1.44-0.46,1.72-1.17l25.97-64.69c0.14-0.35-0.12-0.73-0.49-0.73h-13.6c-0.78,0-1.47,0.48-1.74,1.21L318.66,67.51z"
			/>
		<path class="st0" d="M371.93,20.94h-5.67c-0.42,0-0.68,0.47-0.45,0.82l5.85,9.03c0.17,0.27,0.27,0.58,0.27,0.9v55.37h12.89
			c0.91,0,1.65-0.74,1.65-1.65V20.94h-4.31H371.93z"/>
		<path class="st0" d="M270.22,84.45l-26.78-62.92c-0.27-0.64-0.9-1.06-1.6-1.06h-7.32h-4.94l0,0.01h-9.99
			c-0.42,0-0.68,0.47-0.45,0.82l6.09,9.4l-22.87,53.74c-0.53,1.24,0.38,2.62,1.73,2.62h11.99l5.01-12.3l6.25-15.37h-0.03l3.32-8.11
			l5.46-13.33l5.46,13.33l0,0.01l3.32,8.1h-0.03l6.25,15.37l5.02,12.31h12.37C269.84,87.06,270.75,85.69,270.22,84.45z"/>
		<rect x="311.68" y="101.5" class="st0" width="1.66" height="14.72"/>
		<polygon class="st0" points="341.55,112.18 341.47,112.18 336.11,104.32 336.11,116.22 334.49,116.22 334.49,101.5 336.17,101.5 
			341.53,109.53 346.9,101.5 348.58,101.5 348.58,116.22 346.92,116.22 346.92,104.3 		"/>
		<path class="st0" d="M380.13,108.29c-0.31,0.6-0.73,1.11-1.25,1.51c-0.53,0.41-1.14,0.71-1.84,0.92c-0.7,0.2-1.44,0.31-2.23,0.31
			h-3.58v5.2h-1.66V101.5h5.51c0.83,0,1.58,0.11,2.26,0.33c0.68,0.22,1.26,0.52,1.75,0.92c0.48,0.4,0.86,0.89,1.11,1.47
			c0.26,0.58,0.39,1.24,0.39,1.97C380.6,106.99,380.44,107.69,380.13,108.29 M377.85,103.84c-0.73-0.54-1.68-0.81-2.88-0.81h-3.73
			v6.48h3.65c0.6,0,1.16-0.08,1.66-0.23c0.5-0.15,0.93-0.38,1.29-0.66c0.36-0.29,0.63-0.63,0.82-1.03c0.19-0.4,0.28-0.84,0.28-1.33
			C378.93,105.19,378.57,104.38,377.85,103.84"/>
		<path class="st0" d="M414.27,111.75c-0.37,0.92-0.88,1.73-1.54,2.43c-0.66,0.7-1.45,1.26-2.38,1.67
			c-0.92,0.41-1.95,0.62-3.07,0.62c-1.12,0-2.14-0.2-3.06-0.61c-0.92-0.41-1.71-0.96-2.37-1.65c-0.66-0.69-1.17-1.5-1.52-2.42
			c-0.36-0.92-0.54-1.89-0.54-2.91c0-1.02,0.18-2,0.55-2.91c0.36-0.92,0.88-1.73,1.54-2.43s1.45-1.26,2.38-1.67
			c0.93-0.41,1.95-0.62,3.07-0.62c1.12,0,2.14,0.2,3.06,0.61c0.92,0.41,1.71,0.96,2.37,1.65c0.66,0.69,1.17,1.5,1.53,2.42
			c0.36,0.92,0.54,1.89,0.54,2.91C414.82,109.86,414.64,110.83,414.27,111.75 M412.67,106.5c-0.29-0.74-0.69-1.39-1.21-1.94
			c-0.52-0.55-1.13-0.98-1.84-1.3c-0.71-0.32-1.48-0.48-2.32-0.48c-0.84,0-1.62,0.16-2.32,0.47c-0.71,0.32-1.32,0.75-1.82,1.29
			c-0.5,0.55-0.9,1.19-1.19,1.92c-0.29,0.74-0.43,1.52-0.43,2.37c0,0.84,0.14,1.63,0.43,2.38c0.29,0.74,0.69,1.39,1.21,1.94
			c0.52,0.55,1.13,0.98,1.84,1.3c0.71,0.32,1.48,0.48,2.32,0.48c0.84,0,1.62-0.16,2.33-0.47c0.71-0.32,1.31-0.75,1.82-1.29
			c0.51-0.55,0.9-1.19,1.19-1.92c0.29-0.74,0.43-1.52,0.43-2.37C413.1,108.04,412.95,107.25,412.67,106.5"/>
		<path class="st0" d="M445.3,116.22l-4.27-5.72h-4.21v5.72h-1.66V101.5h6.33c0.81,0,1.55,0.11,2.2,0.32
			c0.65,0.21,1.21,0.51,1.67,0.89c0.46,0.39,0.82,0.85,1.07,1.39c0.25,0.54,0.38,1.14,0.38,1.8c0,0.62-0.1,1.17-0.29,1.65
			c-0.2,0.48-0.47,0.9-0.83,1.26c-0.36,0.36-0.78,0.66-1.27,0.89c-0.49,0.24-1.02,0.41-1.6,0.51l4.52,6.01H445.3z M444.16,103.8
			c-0.66-0.51-1.59-0.77-2.78-0.77h-4.56v6h4.53c0.55,0,1.05-0.07,1.52-0.21c0.46-0.14,0.86-0.34,1.2-0.6
			c0.34-0.26,0.6-0.58,0.79-0.96c0.19-0.38,0.29-0.81,0.29-1.29C445.16,105.04,444.82,104.32,444.16,103.8"/>
		<polygon class="st0" points="472.61,116.22 470.94,116.22 470.94,103.03 466,103.03 466,101.5 477.55,101.5 477.55,103.03 
			472.61,103.03 		"/>
		<path class="st0" d="M475.67,84.45l-27.23-64h-8.47h-4.94l0,0.01h-9.99c-0.42,0-0.68,0.47-0.45,0.82l6.09,9.4l-22.88,53.77
			c-0.52,1.23,0.38,2.6,1.72,2.6h12.01l5.01-12.3l6.25-15.37h-0.02l3.32-8.11l5.46-13.33L447,51.26l0,0.01l3.32,8.1h-0.03
			l6.25,15.37l5.02,12.31h12.39C475.29,87.04,476.19,85.68,475.67,84.45z"/>
	</g>
	<linearGradient id="SVGID_1_" gradientUnits="userSpaceOnUse" x1="14.1077" y1="116.8037" x2="130.6926" y2="13.1176">
		<stop  offset="0" style="stop-color:#B0316C"/>
		<stop  offset="0.3949" style="stop-color:#673154"/>
		<stop  offset="0.8112" style="stop-color:#2E273C"/>
		<stop  offset="1" style="stop-color:#1C2232"/>
	</linearGradient>
	<path class="st1" d="M119.56,0H17.35C7.77,0,0,7.77,0,17.35v26.89c0,21.21,17.2,38.41,38.41,38.41c10.42,0,19.87-4.16,26.79-10.9
		c0.26-0.25,0.51-0.51,0.76-0.77c-0.25,0.26-0.51,0.51-0.76,0.77c-6.72,6.92-10.86,16.35-10.86,26.75
		c0,21.21,17.2,38.41,38.41,38.41h26.82c9.58,0,17.35-7.77,17.35-17.35V17.37C136.93,7.78,129.15,0,119.56,0z M70.6,66.04l7.09-18.8
		l37.29-25.63L89.07,58.7L70.6,66.04z M96.96,77.04l-6.29-16.72l33.36-47.68L76.1,45.63l-16.67-6.42l64.61-26.57L96.96,77.04z"/>
</g>
</svg>
