<?xml version="1.0" encoding="utf-8"?>
<!-- Generator: Adobe Illustrator 24.1.2, SVG Export Plug-In . SVG Version: 6.00 Build 0)  -->
<svg version="1.1" id="Capa_1" xmlns="http://www.w3.org/2000/svg" xmlns:xlink="http://www.w3.org/1999/xlink" x="0px" y="0px"
	 viewBox="0 0 170.94 56.98" style="enable-background:new 0 0 170.94 56.98;" xml:space="preserve">
<style type="text/css">
	.st0{fill:#0B0C0D;}
	.st1{fill:url(#SVGID_1_);}
	.st2{fill:none;}
	.st3{fill:url(#SVGID_2_);}
	.st4{fill:url(#SVGID_3_);}
	.st5{fill:url(#SVGID_4_);}
	.st6{fill:url(#SVGID_5_);}
	.st7{fill:url(#SVGID_6_);}
	.st8{fill:url(#SVGID_7_);}
</style>
<g>
	<g>
		<g>
			<path class="st0" d="M81.32,26.86c0,0.79,0.12,2.03,0.83,2.98c0,0-1.08-0.66-1.82-2.36c0.54,1.57,2.28,5.5,6.08,6.25
				c0.41,0.08,0.87,0.12,1.32,0.12c2.85,0,5.3-1.9,6.12-4.47v6.99l-0.12,0.04c-2.03,0.99-4.05,1.45-6.08,1.45
				c-3.31,0-6.12-0.99-8.36-2.98c-2.28-1.99-3.39-4.51-3.39-7.45c0-2.98,1.16-5.5,3.43-7.53c2.23-2.03,5.09-3.06,8.36-3.06
				c2.15,0,4.18,0.5,6.04,1.41l0.12,0.04v7.24c-0.83-2.61-3.27-4.51-6.12-4.51c-2.03,0-3.85,0.95-5.01,2.4
				c-0.79,0.95-1.28,2.07-1.37,3.35C81.36,26.78,81.36,26.82,81.32,26.86z"/>
			<path class="st0" d="M116.52,16.85v20.48h-5.34v-1.82c-1.99,1.57-4.1,2.36-6.33,2.36c-2.98,0-5.5-0.99-7.45-2.98
				c-1.9-2.03-2.9-4.55-2.9-7.57c0-2.98,0.99-5.5,2.9-7.49c1.94-1.99,4.39-2.98,7.32-2.98c0.12,0,0.25,0,0.37,0
				c0.54,0.04,1.99,0.17,3.56,0.87c0.79,0.37,1.49,0.83,2.19,1.41C111.35,19.58,116.52,16.85,116.52,16.85z M113,27.15
				c-0.74,2.15-2.52,2.73-2.52,2.73c0.54-0.62,0.74-1.45,0.83-2.23c0-0.12,0-0.25,0-0.37c0-1.78-0.37-3.14-1.45-4.3
				c-1.08-1.12-2.48-1.66-4.22-1.66c-1.61,0-2.98,0.54-4.1,1.7c-1.08,1.16-1.61,2.61-1.61,4.3c0,1.82,0.54,3.31,1.57,4.43
				c1.08,1.16,2.44,1.74,4.1,1.74c0.04,0,0.08,0,0.12,0c0.99-0.04,1.99-0.25,2.85-0.7c0.25-0.12,0.54-0.25,0.74-0.41
				C110.52,31.58,112.13,29.88,113,27.15z"/>
			<path class="st0" d="M118.24,17.39h5.3v19.94h-5.3V17.39z"/>
			<path class="st0" d="M147.11,27.48c0,2.98-0.99,5.46-2.94,7.45c-1.9,1.99-4.39,2.98-7.28,2.98c-2.4,0-4.59-0.83-6.5-2.48v6.9
				h-5.34V16.81h5.34v1.7c-1.28,1.45-1.74,2.98-1.74,2.98c0.58-0.91,1.16-1.66,1.74-2.23c1.86-1.61,4.01-2.4,6.37-2.4
				c2.98,0,5.46,0.99,7.41,3.02C146.11,21.9,147.11,24.42,147.11,27.48z M143.26,26.61c-0.58,1.24-1.28,2.07-1.86,2.57
				c-0.46,0.41-0.83,0.62-0.83,0.62c0.95-1.12,1.12-2.32,1.03-3.23c-0.12-1.41-0.66-2.61-1.53-3.56c-1.08-1.12-2.48-1.7-4.1-1.7
				c-1.74,0-3.19,0.54-4.26,1.66c-1.08,1.12-1.61,2.61-1.61,4.43c0,1.78,0.54,3.27,1.61,4.43c0.99,0.99,2.23,1.57,3.77,1.66
				c0.45,0.04,0.91,0.04,1.32-0.04c0.99-0.12,1.86-0.5,2.61-1.08C141.93,30.5,143.09,27.07,143.26,26.61z"/>
			<path class="st0" d="M170.94,27.4c0,2.98-1.12,5.5-3.35,7.53c-2.23,1.99-5.05,2.98-8.27,2.98c-3.23,0-6-1.03-8.15-3.06
				c-2.19-1.99-3.31-4.55-3.31-7.61c0-2.85,1.12-5.34,3.35-7.32c2.23-2.03,4.96-3.06,8.19-3.06c3.19,0,5.96,1.03,8.23,3.06
				C169.82,21.94,170.94,24.46,170.94,27.4z M167.09,26.61c-1.08,2.36-2.65,3.19-2.65,3.19c1.08-1.28,1.12-2.77,0.99-3.64
				c-0.08-0.29-0.12-0.58-0.21-0.83c-0.25-0.91-0.74-1.7-1.37-2.36c-1.08-1.03-2.52-1.61-4.26-1.66c-5.63-0.54-7.86,6.95-7.86,6.95
				c0.5-0.99,1.08-1.82,1.7-2.48v0.04c0.37-0.41,0.66-0.58,0.66-0.58c-0.54,0.74-0.79,1.57-0.83,2.28c0.04,1.82,0.58,3.27,1.66,4.3
				c1.12,1.12,2.61,1.7,4.47,1.7c0.04,0,0.08,0,0.12,0c1.2,0.04,2.19-0.25,3.06-0.74c0.37-0.17,0.7-0.41,0.99-0.66
				C165.89,30.25,166.93,27.07,167.09,26.61z"/>
		</g>
		<g>
			<g>
				<path class="st0" d="M79.59,49.09l-0.72-1.35h-0.63v1.35h-0.67v-3.53h1.27c0.46,0,0.8,0.09,1.03,0.27
					c0.23,0.18,0.34,0.45,0.34,0.8c0,0.25-0.06,0.46-0.17,0.63c-0.11,0.17-0.28,0.3-0.5,0.39l0.78,1.45H79.59z M78.24,47.16h0.61
					c0.22,0,0.39-0.04,0.49-0.12c0.11-0.08,0.16-0.21,0.16-0.4c0-0.18-0.05-0.31-0.16-0.38c-0.1-0.07-0.27-0.11-0.5-0.11h-0.6V47.16
					z"/>
				<path class="st0" d="M92.96,46.15v0.88h1.52v0.55h-1.52v0.92h1.63v0.59h-2.31v-3.53h2.31v0.59H92.96z"/>
				<path class="st0" d="M107.45,48.93c-0.28-0.15-0.49-0.36-0.64-0.64c-0.15-0.28-0.22-0.6-0.22-0.97c0-0.37,0.07-0.69,0.22-0.97
					c0.15-0.28,0.37-0.49,0.65-0.64c0.28-0.15,0.63-0.22,1.02-0.22c0.17,0,0.33,0.02,0.49,0.05c0.16,0.03,0.3,0.08,0.43,0.14v0.62
					h-0.02c-0.13-0.07-0.27-0.13-0.42-0.17c-0.15-0.04-0.29-0.06-0.43-0.06c-0.39,0-0.69,0.11-0.91,0.32
					c-0.22,0.21-0.33,0.52-0.33,0.92c0,0.4,0.11,0.7,0.33,0.91s0.51,0.32,0.89,0.32c0.15,0,0.29-0.02,0.44-0.07
					c0.15-0.05,0.3-0.11,0.43-0.2h0.02v0.62c-0.27,0.16-0.59,0.23-0.96,0.23C108.06,49.15,107.73,49.08,107.45,48.93z"/>
				<path class="st0" d="M122.21,48.93c-0.26-0.15-0.46-0.36-0.59-0.63c-0.14-0.27-0.2-0.6-0.2-0.97c0-0.37,0.07-0.7,0.2-0.97
					c0.14-0.27,0.33-0.49,0.59-0.63c0.26-0.15,0.57-0.22,0.93-0.22c0.36,0,0.67,0.07,0.93,0.22c0.26,0.15,0.46,0.36,0.59,0.63
					c0.14,0.27,0.2,0.6,0.2,0.97c0,0.37-0.07,0.7-0.2,0.97c-0.14,0.27-0.33,0.49-0.59,0.63c-0.26,0.15-0.57,0.22-0.93,0.22
					C122.78,49.15,122.47,49.08,122.21,48.93z M123.89,48.22c0.18-0.21,0.27-0.51,0.27-0.9c0-0.39-0.09-0.69-0.27-0.9
					s-0.43-0.31-0.75-0.31s-0.57,0.1-0.75,0.31c-0.18,0.21-0.27,0.51-0.27,0.9c0,0.39,0.09,0.69,0.27,0.9
					c0.18,0.21,0.43,0.31,0.75,0.31S123.71,48.43,123.89,48.22z"/>
				<path class="st0" d="M138.99,49.09l-0.72-1.35h-0.63v1.35h-0.67v-3.53h1.27c0.46,0,0.8,0.09,1.03,0.27
					c0.23,0.18,0.34,0.45,0.34,0.8c0,0.25-0.06,0.46-0.17,0.63c-0.11,0.17-0.28,0.3-0.5,0.39l0.78,1.45H138.99z M137.64,47.16h0.61
					c0.22,0,0.39-0.04,0.5-0.12c0.11-0.08,0.16-0.21,0.16-0.4c0-0.18-0.05-0.31-0.16-0.38c-0.1-0.07-0.27-0.11-0.5-0.11h-0.6V47.16z
					"/>
				<path class="st0" d="M153.93,45.78c0.26,0.14,0.46,0.35,0.59,0.61s0.2,0.58,0.2,0.94c0,0.36-0.07,0.67-0.2,0.94
					c-0.14,0.27-0.33,0.47-0.59,0.61c-0.26,0.14-0.57,0.22-0.93,0.22h-1.3v-3.53h1.3C153.36,45.56,153.67,45.63,153.93,45.78z
					 M153.75,48.2c0.18-0.2,0.27-0.49,0.27-0.87c0-0.38-0.09-0.67-0.27-0.87c-0.18-0.2-0.43-0.3-0.75-0.3h-0.63v2.35h0.63
					C153.32,48.5,153.57,48.4,153.75,48.2z"/>
				<path class="st0" d="M167.31,49.08c-0.21-0.05-0.42-0.12-0.6-0.21v-0.65c0.44,0.24,0.83,0.36,1.18,0.36
					c0.17,0,0.31-0.04,0.42-0.11s0.16-0.18,0.16-0.31c0-0.09-0.03-0.18-0.09-0.24c-0.06-0.07-0.13-0.12-0.22-0.16
					c-0.09-0.04-0.21-0.09-0.38-0.15c-0.22-0.08-0.4-0.16-0.54-0.23c-0.14-0.07-0.26-0.18-0.36-0.32c-0.1-0.14-0.15-0.31-0.15-0.53
					c0-0.32,0.11-0.57,0.33-0.74c0.22-0.18,0.52-0.27,0.9-0.27c0.18,0,0.36,0.02,0.53,0.06c0.17,0.04,0.33,0.1,0.48,0.17v0.63
					c-0.34-0.19-0.67-0.28-0.99-0.28c-0.18,0-0.31,0.03-0.41,0.09c-0.1,0.06-0.15,0.15-0.15,0.27c0,0.12,0.05,0.21,0.15,0.27
					c0.1,0.07,0.26,0.14,0.48,0.22c0.23,0.08,0.41,0.17,0.56,0.24c0.15,0.08,0.27,0.19,0.38,0.34c0.11,0.15,0.16,0.34,0.17,0.57
					c0,0.33-0.11,0.6-0.34,0.79c-0.23,0.19-0.53,0.29-0.91,0.29C167.72,49.15,167.52,49.13,167.31,49.08z"/>
			</g>
		</g>
	</g>
	<g>
		<g>
			<linearGradient id="SVGID_1_" gradientUnits="userSpaceOnUse" x1="4.3524" y1="20.6817" x2="49.8012" y2="31.6186">
				<stop  offset="0" style="stop-color:#CB4E36"/>
				<stop  offset="1" style="stop-color:#AB3829"/>
			</linearGradient>
			<path class="st1" d="M36.79,0C22.93,0,11.38,9.91,8.83,23.04l4.79,0c2.47-10.52,11.9-18.36,23.17-18.36
				c13.15,0,23.81,10.66,23.81,23.81c0,13.15-10.66,23.81-23.81,23.81c-11.23,0-20.64-7.78-23.15-18.25l-4.8,0
				c2.59,13.07,14.11,22.93,27.94,22.93c15.73,0,28.49-12.75,28.49-28.49C65.28,12.75,52.53,0,36.79,0z"/>
		</g>
		<g>
			<g>
				<polygon class="st2" points="27.68,35.19 26.95,35.19 26.95,35.19 27.68,35.19 				"/>
				<linearGradient id="SVGID_2_" gradientUnits="userSpaceOnUse" x1="4.3268" y1="20.7884" x2="49.7755" y2="31.7252">
					<stop  offset="0" style="stop-color:#CB4E36"/>
					<stop  offset="1" style="stop-color:#AB3829"/>
				</linearGradient>
				<path class="st3" d="M36.9,42.47h-1.14c-1.19,0-2.15-0.96-2.15-2.15V16.66c0-1.19,0.96-2.15,2.15-2.15h1.14
					c1.19,0,2.15,0.96,2.15,2.15v23.65C39.05,41.5,38.09,42.47,36.9,42.47z"/>
				<linearGradient id="SVGID_3_" gradientUnits="userSpaceOnUse" x1="3.6169" y1="23.7384" x2="49.0656" y2="34.6752">
					<stop  offset="0" style="stop-color:#CB4E36"/>
					<stop  offset="1" style="stop-color:#AB3829"/>
				</linearGradient>
				<path class="st4" d="M23.26,36.15h-1.14c-1.19,0-2.15-0.96-2.15-2.15V22.66c0-1.19,0.96-2.15,2.15-2.15h1.14
					c1.19,0,2.15,0.96,2.15,2.15v11.33C25.41,35.18,24.45,36.15,23.26,36.15z"/>
				<linearGradient id="SVGID_4_" gradientUnits="userSpaceOnUse" x1="4.6351" y1="19.5069" x2="50.0839" y2="30.4438">
					<stop  offset="0" style="stop-color:#CB4E36"/>
					<stop  offset="1" style="stop-color:#AB3829"/>
				</linearGradient>
				<path class="st5" d="M44.32,37.54h-1.14c-1.19,0-2.15-0.96-2.15-2.15V22.45c0-1.19,0.96-2.15,2.15-2.15h1.14
					c1.19,0,2.15,0.96,2.15,2.15v12.93C46.47,36.58,45.51,37.54,44.32,37.54z"/>
				<linearGradient id="SVGID_5_" gradientUnits="userSpaceOnUse" x1="3.9414" y1="22.3899" x2="49.3901" y2="33.3268">
					<stop  offset="0" style="stop-color:#CB4E36"/>
					<stop  offset="1" style="stop-color:#AB3829"/>
				</linearGradient>
				<path class="st6" d="M30.08,33.36h-1.14c-1.19,0-2.15-0.96-2.15-2.15v-5.34c0-1.19,0.96-2.15,2.15-2.15h1.14
					c1.19,0,2.15,0.96,2.15,2.15v5.34C32.23,32.4,31.27,33.36,30.08,33.36z"/>
				<linearGradient id="SVGID_6_" gradientUnits="userSpaceOnUse" x1="4.9854" y1="18.0515" x2="50.4341" y2="28.9884">
					<stop  offset="0" style="stop-color:#CB4E36"/>
					<stop  offset="1" style="stop-color:#AB3829"/>
				</linearGradient>
				<path class="st7" d="M51.47,34.02h-1.14c-1.19,0-2.15-0.96-2.15-2.15v-5.53c0-1.19,0.96-2.15,2.15-2.15h1.14
					c1.19,0,2.15,0.96,2.15,2.15v5.53C53.62,33.06,52.66,34.02,51.47,34.02z"/>
			</g>
			<g transform="matrix(0.8,0,0,0.8,3.2,4)">
				<g>
					<g>
						<g>
							<linearGradient id="SVGID_7_" gradientUnits="userSpaceOnUse" x1="-0.2312" y1="27.7991" x2="45.2175" y2="38.736">
								<stop  offset="0" style="stop-color:#CB4E36"/>
								<stop  offset="1" style="stop-color:#AB3829"/>
							</linearGradient>
							<path class="st8" d="M6.61,27.16l9.35-0.05c1.16-0.01,2.1,0.93,2.1,2.08l0.01,2.35c0.01,1.16-0.93,2.1-2.08,2.1L6.65,33.7
								L6.61,27.16z M5.01,33.71l-0.03-6.54l0.82,0l0.03,6.54L5.01,33.71z M0.11,31.28L0.1,29.64l4.07-0.02l0.01,1.64L0.11,31.28z
								 M-1.54,31.29l-0.01-1.64l0.82,0l0.01,1.64L-1.54,31.29z M-3.19,29.66L-4,30.5l0.82,0.79l0.82,0l-0.01-1.64L-3.19,29.66z"/>
						</g>
					</g>
				</g>
			</g>
		</g>
	</g>
</g>
</svg>
