<?xml version="1.0" encoding="utf-8"?>
<!-- Generator: Adobe Illustrator 24.1.2, SVG Export Plug-In . SVG Version: 6.00 Build 0)  -->
<svg version="1.1" id="Capa_1" xmlns="http://www.w3.org/2000/svg" xmlns:xlink="http://www.w3.org/1999/xlink" x="0px" y="0px"
	 viewBox="0 0 199.68 148.29" style="enable-background:new 0 0 199.68 148.29;" xml:space="preserve">
<style type="text/css">
	.st0{fill:url(#SVGID_1_);}
	.st1{fill:url(#SVGID_2_);}
	.st2{fill:url(#SVGID_3_);}
	.st3{fill:#FF7C00;}
	.st4{fill:#290A59;}
</style>
<g>
	<g>
		
			<radialGradient id="SVGID_1_" cx="90.8998" cy="7.431" r="167.3216" gradientTransform="matrix(1 0 0 -1 0 150)" gradientUnits="userSpaceOnUse">
			<stop  offset="0.2557" style="stop-color:#290A59"/>
			<stop  offset="0.3157" style="stop-color:#2F0D57"/>
			<stop  offset="0.3957" style="stop-color:#40164F"/>
			<stop  offset="0.487" style="stop-color:#5C2544"/>
			<stop  offset="0.5868" style="stop-color:#823A34"/>
			<stop  offset="0.6933" style="stop-color:#B4541F"/>
			<stop  offset="0.804" style="stop-color:#F07406"/>
			<stop  offset="0.8294" style="stop-color:#FF7C00"/>
		</radialGradient>
		<path class="st0" d="M103.28,40.25c3.98-3.98,7.83-7.84,11.81-11.82c1.16,1.2,2.31,2.43,3.51,3.62c1.91,1.89,3.78,3.8,5.04,6.22
			c1.82,3.5,2.5,7.19,2.09,11.1c-0.52,5-2.91,8.98-6.46,12.45c-6.08,5.94-12.04,12-18.05,18.01c-2.93,2.93-5.8,5.94-8.82,8.78
			c-5.01,4.71-10.96,6.28-17.68,4.82c-4.16-0.91-7.48-3.21-10.33-6.28c-5.67-6.11-11.8-11.83-17.71-17.71
			c-3.22-3.21-6.57-6.33-9.6-9.73c-3.69-4.16-5.08-9.13-4.49-14.65c0.5-4.68,2.6-8.53,5.92-11.82c7.31-7.26,14.57-14.58,21.86-21.86
			c2.22-2.22,4.38-4.51,6.77-6.54c3.79-3.22,8.29-4.53,13.26-4.23c5.45,0.33,9.83,2.79,13.5,6.72c1.31,1.4,2.72,2.7,4.06,4.02
			c-3.95,3.94-7.81,7.79-11.85,11.83c-0.72-0.79-1.44-1.66-2.24-2.45c-2.62-2.58-6.77-2.62-9.38-0.05
			c-4.18,4.11-8.31,8.26-12.46,12.41c-3.04,3.04-6.06,6.08-9.11,9.12c-3.01,3-2.99,7.12,0.02,10.11
			c7.12,7.1,14.21,14.23,21.33,21.32c2.79,2.78,6.96,2.79,9.74,0.03c6.8-6.77,13.58-13.56,20.35-20.36
			c0.85-0.85,1.75-1.72,2.36-2.75c1.59-2.71,1.02-6.06-1.25-8.28C104.73,41.6,103.99,40.92,103.28,40.25z"/>
		<g>
			
				<radialGradient id="SVGID_2_" cx="152.1896" cy="191.8155" r="162.7928" gradientTransform="matrix(1 0 0 -1 0 150)" gradientUnits="userSpaceOnUse">
				<stop  offset="0.1654" style="stop-color:#290A59"/>
				<stop  offset="0.235" style="stop-color:#2F0D57"/>
				<stop  offset="0.3278" style="stop-color:#40164F"/>
				<stop  offset="0.4337" style="stop-color:#5C2544"/>
				<stop  offset="0.5494" style="stop-color:#823A34"/>
				<stop  offset="0.6731" style="stop-color:#B4541F"/>
				<stop  offset="0.8015" style="stop-color:#F07406"/>
				<stop  offset="0.8309" style="stop-color:#FF7C00"/>
			</radialGradient>
			<path class="st1" d="M165.71,36.58c-1.84-2.85-4.44-5-6.71-7.32c-0.33-0.21-0.68-0.39-0.98-0.64c-0.09-0.05-0.15-0.11-0.19-0.19
				c-3.87,3.87-7.69,7.68-11.57,11.56c0.66,0.63,1.38,1.3,2.07,2c2.97,2.98,2.93,7.13-0.06,10.06c-2.11,2.07-4.18,4.18-6.27,6.27
				c-5.02,5.02-10.03,10.06-15.07,15.06c-2.81,2.79-6.9,2.76-9.73-0.01c-0.75-0.74-1.44-1.54-2.13-2.29
				c-4,4.01-7.85,7.88-11.71,11.75c1.9,1.93,3.73,3.98,5.76,5.79c5.3,4.73,11.44,6.12,18.3,4.29c3.38-0.91,6.17-2.8,8.63-5.26
				c8.89-8.91,17.77-17.81,26.69-26.68c3.34-3.32,5.42-7.21,5.91-11.91C169.1,44.56,168.16,40.39,165.71,36.58z"/>
			
				<radialGradient id="SVGID_3_" cx="152.1896" cy="191.8155" r="162.7928" gradientTransform="matrix(1 0 0 -1 0 150)" gradientUnits="userSpaceOnUse">
				<stop  offset="0.1654" style="stop-color:#290A59"/>
				<stop  offset="0.235" style="stop-color:#2F0D57"/>
				<stop  offset="0.3278" style="stop-color:#40164F"/>
				<stop  offset="0.4337" style="stop-color:#5C2544"/>
				<stop  offset="0.5494" style="stop-color:#823A34"/>
				<stop  offset="0.6731" style="stop-color:#B4541F"/>
				<stop  offset="0.8015" style="stop-color:#F07406"/>
				<stop  offset="0.8309" style="stop-color:#FF7C00"/>
			</radialGradient>
			<path class="st2" d="M140.86,10.92c-3.88,3.89-7.76,7.78-11.78,11.81c-0.69-0.75-1.38-1.56-2.14-2.3
				c-2.84-2.79-6.96-2.81-9.79-0.01c-5.07,5.03-10.11,10.09-15.16,15.14c-2.1,2.1-4.18,4.23-6.31,6.31
				c-3.01,2.95-3.05,7.12-0.06,10.11c0.7,0.7,1.42,1.37,2.08,2.01c-3.97,3.97-7.86,7.85-11.82,11.81c-2.48-2.77-5.62-5.11-7.74-8.39
				c-2.47-3.82-3.41-8.02-2.94-12.53c0.49-4.73,2.58-8.64,5.94-11.98c8.97-8.92,17.91-17.88,26.84-26.83
				c2.47-2.47,5.27-4.38,8.67-5.29c6.9-1.85,13.08-0.44,18.4,4.31C137.11,6.92,138.95,8.98,140.86,10.92z"/>
		</g>
	</g>
	<g>
		<path class="st3" d="M8.81,148.29c-4.83,0-8.81-2.5-8.81-9.34v-16.41c0-6.8,4.07-9.48,8.85-9.48c4.69,0,8.18,2.19,8.18,8.18
			c0,1.74-0.09,3.04-0.27,4.25l-5.01-0.31c0.18-0.98,0.27-1.88,0.27-3.13c0-3.13-1.12-4.02-2.86-4.02c-2.06,0-2.86,1.52-2.86,3.04
			v19.13c0,1.92,0.89,3.08,2.91,3.08c1.74,0,2.86-0.85,2.86-4.02c0-1.21-0.13-2.24-0.27-3.17l4.92-0.36
			c0.18,1.07,0.31,2.64,0.31,4.29C17.03,146.05,13.46,148.29,8.81,148.29z"/>
		<path class="st3" d="M30.76,148.29c-4.83,0-8.81-2.5-8.81-9.34v-16.41c0-6.8,4.07-9.48,8.85-9.48c4.69,0,8.18,2.19,8.18,8.18
			c0,1.74-0.09,3.04-0.27,4.25l-5.01-0.31c0.18-0.98,0.27-1.88,0.27-3.13c0-3.13-1.12-4.02-2.86-4.02c-2.06,0-2.86,1.52-2.86,3.04
			v19.13c0,1.92,0.89,3.08,2.91,3.08c1.74,0,2.86-0.85,2.86-4.02c0-1.21-0.13-2.24-0.27-3.17l4.92-0.36
			c0.18,1.07,0.31,2.64,0.31,4.29C38.98,146.05,35.4,148.29,30.76,148.29z"/>
		<path class="st4" d="M63.88,148.29c-4.83,0-8.81-2.5-8.81-9.34v-16.41c0-6.8,4.07-9.48,8.85-9.48c4.69,0,8.18,2.19,8.18,8.18
			c0,1.74-0.09,3.04-0.27,4.25l-5.01-0.31c0.18-0.98,0.27-1.88,0.27-3.13c0-3.13-1.12-4.02-2.86-4.02c-2.06,0-2.86,1.52-2.86,3.04
			v19.13c0,1.92,0.89,3.08,2.91,3.08c1.74,0,2.86-0.85,2.86-4.02c0-1.21-0.13-2.24-0.27-3.17l4.92-0.36
			c0.18,1.07,0.31,2.64,0.31,4.29C72.1,146.05,68.53,148.29,63.88,148.29z"/>
		<path class="st4" d="M95.21,139.17c0,6.39-4.25,8.99-9.03,8.99c-4.87,0-9.16-2.59-9.16-8.99v-16.94c0-6.66,4.34-9.16,9.16-9.16
			c4.83,0,9.03,2.41,9.03,9.16C95.21,122.23,95.21,139.17,95.21,139.17z M88.96,121.06c0-2.06-1.21-3.17-2.82-3.17
			c-1.74,0-2.91,1.03-2.91,3.17v19.13c0,2.1,1.16,3.26,2.95,3.26c1.7,0,2.77-1.16,2.77-3.22v-19.17H88.96z"/>
		<path class="st4" d="M119.8,139.44c0,5.41-3.93,8.72-9.12,8.72c-5.36,0-9.48-3.26-9.48-8.67v-25.84h6.21v26.47
			c0,1.88,0.98,3.08,3.49,3.08c2.1,0,3.22-1.43,3.22-3.13v-26.42h5.68C119.8,113.65,119.8,139.44,119.8,139.44z"/>
		<path class="st4" d="M137.9,131.34v0.18c3.44,0.76,4.25,3.04,4.34,7.51c0,0.94,0.04,2.28,0.04,3.04c0.04,3.49,0.22,4.38,0.67,5.54
			h-6.26c-0.27-0.36-0.4-1.03-0.45-2.19c-0.09-2.37-0.18-3.98-0.22-6.03c-0.13-4.2-0.72-5.41-2.86-5.41h-1.83v13.64h-6.21v-33.98
			h9.48c4.87,0,8.49,2.82,8.49,8.94C143.09,127.37,141.57,130.32,137.9,131.34z M133.61,118.65h-2.28v10.55h2.19
			c1.83,0,3.35-1.03,3.35-5.68C136.88,119.68,135.58,118.65,133.61,118.65z"/>
		<path class="st4" d="M154.76,147.62h-6.21v-33.98h6.21V147.62z"/>
		<path class="st4" d="M176.03,147.62h-14.84v-33.98h14.75v5.01h-8.54v8.76h7.38v5.01h-7.38v10.19h8.63L176.03,147.62L176.03,147.62
			z"/>
		<path class="st4" d="M194.49,131.34v0.18c3.44,0.76,4.25,3.04,4.34,7.51c0,0.94,0.04,2.28,0.04,3.04
			c0.04,3.49,0.22,4.38,0.67,5.54h-6.26c-0.27-0.36-0.4-1.03-0.45-2.19c-0.09-2.37-0.18-3.98-0.22-6.03
			c-0.13-4.2-0.72-5.41-2.86-5.41h-1.83v13.64h-6.21v-33.98h9.48c4.87,0,8.49,2.82,8.49,8.94
			C199.68,127.37,198.16,130.32,194.49,131.34z M190.2,118.65h-2.28v10.55h2.19c1.83,0,3.35-1.03,3.35-5.68
			C193.47,119.68,192.17,118.65,190.2,118.65z"/>
	</g>
</g>
</svg>
