<?xml version="1.0" encoding="utf-8"?>
<!-- Generator: Adobe Illustrator 24.1.2, SVG Export Plug-In . SVG Version: 6.00 Build 0)  -->
<svg version="1.1" id="Capa_1" xmlns="http://www.w3.org/2000/svg" xmlns:xlink="http://www.w3.org/1999/xlink" x="0px" y="0px"
	 viewBox="0 0 200.24 171.59" style="enable-background:new 0 0 200.24 171.59;" xml:space="preserve">
<style type="text/css">
	.st0{fill:#08090A;}
	.st1{fill:url(#SVGID_1_);}
	.st2{fill:#2C315C;}
	.st3{fill:url(#SVGID_2_);}
</style>
<g>
	<g>
		<path class="st0" d="M40.37,142.21c-0.91,3.26-2.6,8.2-3.64,10.48c-1.7,0.39-7.03,1.7-11.98,1.7C7.23,154.38,0,143.11,0,132.77
			c0-13.48,10.29-22.6,25.91-22.6c5.67,0,10.68,1.37,12.31,1.56c0.33,3.06,0.78,7.88,1.24,10.74l-2.6,0.46
			c-1.37-5.08-3.32-7.49-6.77-8.86c-1.56-0.65-3.91-0.91-5.67-0.91c-9.44,0-14.2,7.88-14.2,18.1c0,11.91,6.12,19.99,15.04,19.99
			c5.47,0,9.11-2.87,12.63-10.03L40.37,142.21z"/>
		<path class="st0" d="M81.65,142.34c-0.33,1.76-2.15,9.24-2.73,11.07H45.13v-2.34c5.93-0.59,6.31-0.91,6.31-6.38v-24.87
			c0-5.54-0.78-5.93-5.21-6.31v-2.41H67.4c6.84,0,9.11-0.07,10.03-0.13c0.07,1.17,0.39,6.51,0.65,10.55l-2.54,0.33
			c-0.59-2.21-1.7-4.88-2.8-6.06c-1.17-1.3-2.02-1.7-5.34-1.7h-4.23c-2.47,0-2.73,0.13-2.73,2.34v13.61h6.38
			c3.64,0,4.3-0.97,5.27-5.6h2.54v14.52h-2.54c-1.04-4.82-1.56-5.6-5.34-5.6h-6.31v11.2c0,4.5,0.13,5.86,4.17,5.93h4.63
			c3.64,0,4.63-0.46,6.06-2.21c1.63-1.89,2.93-4.3,3.97-6.51L81.65,142.34z"/>
		<path class="st0" d="M120.01,141.94c-0.52,2.8-2.34,9.7-2.93,11.46h-32.3v-2.41c5.73-0.39,6.25-0.84,6.25-6.31v-24.81
			c0-5.47-0.65-5.99-5.53-6.38v-2.41h20.31v2.41c-5.08,0.46-5.73,0.91-5.73,6.38v25.27c0,3.58,0.13,5.21,3.71,5.27
			c0.13,0.07,3.13,0.07,3.39,0.07c3.71,0,4.69-0.78,6.25-2.54c1.24-1.3,2.93-4.1,4.1-6.77L120.01,141.94z"/>
		<path class="st0" d="M158.82,142.34c-0.33,1.76-2.15,9.24-2.73,11.07H122.3v-2.34c5.93-0.59,6.31-0.91,6.31-6.38v-24.87
			c0-5.54-0.78-5.93-5.21-6.31v-2.41h21.16c6.84,0,9.11-0.07,10.03-0.13c0.07,1.17,0.39,6.51,0.65,10.55l-2.54,0.33
			c-0.59-2.21-1.7-4.88-2.8-6.06c-1.17-1.3-2.02-1.7-5.34-1.7h-4.23c-2.47,0-2.73,0.13-2.73,2.34v13.61h6.38
			c3.64,0,4.3-0.97,5.27-5.6h2.54v14.52h-2.54c-1.04-4.82-1.56-5.6-5.34-5.6h-6.31v11.2c0,4.5,0.13,5.86,4.17,5.93h4.63
			c3.64,0,4.63-0.46,6.06-2.21c1.63-1.89,2.93-4.3,3.97-6.51L158.82,142.34z"/>
		<path class="st0" d="M197.76,122.34c-0.72-3-2.15-5.47-2.8-6.38c-1.17-1.37-1.7-1.89-5.53-1.89h-4.17v30.61
			c0,5.47,0.65,5.86,6.44,6.31v2.41h-21.61v-2.41c5.53-0.46,6.12-0.84,6.12-6.31v-30.61h-3.97c-3.64,0-4.69,0.59-5.93,2.15
			c-0.91,1.24-1.83,3.58-2.67,6.19h-2.47c0.46-4.75,0.91-9.83,1.04-12.96h1.96c0.97,1.5,1.76,1.63,3.71,1.63h26.04
			c1.76,0,2.67-0.39,3.77-1.63h1.89c0.07,2.73,0.33,8.47,0.65,12.7L197.76,122.34z"/>
	</g>
	<g>
		<path class="st0" d="M12.34,164.5v7.01h-1.19v-7.01H12.34z"/>
		<path class="st0" d="M19.1,164.5c1.66,0,2.43,0.66,2.43,1.74v3.54c0,1.07-0.76,1.73-2.43,1.73h-2.5v-7.01H19.1z M19.09,170.8
			c0.85,0,1.27-0.35,1.27-0.99v-3.6c0-0.64-0.41-0.99-1.28-0.99h-1.28v5.59L19.09,170.8C19.09,170.79,19.09,170.8,19.09,170.8z"/>
		<path class="st0" d="M26.87,164.5v7.01h-1.19v-7.01H26.87z"/>
		<path class="st0" d="M31.05,166.19c0-1.07,0.81-1.76,2.44-1.76c1.65,0,2.45,0.69,2.45,1.76v3.62c0,1.06-0.81,1.76-2.45,1.76
			c-1.63,0-2.44-0.7-2.44-1.76V166.19z M32.22,169.86c0,0.64,0.41,1.01,1.27,1.01c0.87,0,1.27-0.37,1.27-1.01v-3.71
			c0-0.63-0.4-1.01-1.27-1.01c-0.85,0-1.27,0.38-1.27,1.01V169.86z"/>
		<path class="st0" d="M44.05,171.5h-1.14l-1.77-5.58v5.59H40.1v-7.01h1.66l1.75,5.59l1.69-5.59h1.66v7.01h-1.13v-5.63L44.05,171.5z
			"/>
		<path class="st0" d="M52.34,170.09l-0.41,1.41h-1.1l2.04-7.01h1.72l2.04,7.01h-1.2l-0.41-1.41H52.34z M52.49,169.43h2.38
			l-1.21-4.05L52.49,169.43z"/>
		<path class="st0" d="M65.23,166.18v0.19h-1.12v-0.23c0-0.63-0.37-1-1.22-1s-1.22,0.37-1.22,0.99c0,1.57,3.58,1.72,3.58,3.69
			c0,1.06-0.78,1.75-2.41,1.75s-2.39-0.69-2.39-1.75v-0.4h1.11v0.44c0,0.63,0.4,1,1.25,1s1.25-0.37,1.25-1
			c0-1.56-3.57-1.71-3.57-3.69c0-1.08,0.76-1.75,2.36-1.75C64.48,164.43,65.23,165.12,65.23,166.18z"/>
		<path class="st0" d="M76.63,169l-2.25-4.5h1.23l1.66,3.44l1.68-3.44h1.13l-2.27,4.5v2.51h-1.17L76.63,169L76.63,169z"/>
		<path class="st0" d="M90.95,171.51v-6.29h-1.97v-0.71h5.12v0.71h-1.97v6.29H90.95z"/>
		<path class="st0" d="M100.35,164.5c1.68,0,2.38,0.56,2.38,1.6v0.57c0,0.77-0.41,1.25-1.33,1.44c0.97,0.19,1.34,0.71,1.34,1.46
			v1.09c0,0.31,0.01,0.6,0.21,0.84h-1.21c-0.14-0.2-0.2-0.38-0.2-0.85v-1.1c0-0.79-0.57-1.04-1.55-1.04h-0.84v2.99h-1.19v-7.01h2.38
			L100.35,164.5L100.35,164.5z M100.05,167.81c0.95,0,1.51-0.2,1.51-0.96v-0.67c0-0.63-0.35-0.96-1.23-0.96h-1.16v2.6L100.05,167.81
			L100.05,167.81z"/>
		<path class="st0" d="M108.23,170.09l-0.41,1.41h-1.1l2.04-7.01h1.72l2.04,7.01h-1.19l-0.41-1.41H108.23z M108.38,169.43h2.38
			l-1.21-4.05L108.38,169.43z"/>
		<path class="st0" d="M119,164.5c1.66,0,2.43,0.66,2.43,1.74v3.54c0,1.07-0.76,1.73-2.43,1.73h-2.5v-7.01H119z M118.98,170.8
			c0.85,0,1.27-0.35,1.27-0.99v-3.6c0-0.64-0.41-0.99-1.28-0.99h-1.28v5.59L118.98,170.8L118.98,170.8L118.98,170.8z"/>
		<path class="st0" d="M126.72,169.86c0,0.63,0.38,1.01,1.25,1.01c0.85,0,1.23-0.38,1.23-1.01v-5.35h1.11v5.31
			c0,1.06-0.75,1.77-2.39,1.77c-1.63,0-2.38-0.71-2.38-1.77v-5.31h1.17L126.72,169.86L126.72,169.86z"/>
		<path class="st0" d="M139.24,166.19v0.63h-1.12v-0.67c0-0.63-0.38-1.01-1.25-1.01c-0.85,0-1.25,0.38-1.25,1.01v3.71
			c0,0.63,0.4,1.01,1.25,1.01c0.87,0,1.25-0.38,1.25-1.01v-0.91h1.12v0.87c0,1.06-0.76,1.76-2.4,1.76c-1.63,0-2.39-0.7-2.39-1.76
			v-3.62c0-1.06,0.76-1.76,2.39-1.76C138.48,164.43,139.24,165.14,139.24,166.19z"/>
		<path class="st0" d="M148.08,166.19v0.63h-1.12v-0.67c0-0.63-0.38-1.01-1.25-1.01c-0.85,0-1.25,0.38-1.25,1.01v3.71
			c0,0.63,0.4,1.01,1.25,1.01c0.87,0,1.25-0.38,1.25-1.01v-0.91h1.12v0.87c0,1.06-0.76,1.76-2.4,1.76c-1.63,0-2.39-0.7-2.39-1.76
			v-3.62c0-1.06,0.76-1.76,2.39-1.76C147.32,164.43,148.08,165.14,148.08,166.19z"/>
		<path class="st0" d="M153.4,164.5v7.01h-1.19v-7.01H153.4z"/>
		<path class="st0" d="M157.57,166.19c0-1.07,0.81-1.76,2.44-1.76c1.64,0,2.45,0.69,2.45,1.76v3.62c0,1.06-0.81,1.76-2.45,1.76
			c-1.63,0-2.44-0.7-2.44-1.76V166.19z M158.75,169.86c0,0.64,0.41,1.01,1.27,1.01c0.87,0,1.27-0.37,1.27-1.01v-3.71
			c0-0.63-0.4-1.01-1.27-1.01c-0.85,0-1.27,0.38-1.27,1.01V169.86z"/>
		<path class="st0" d="M167.7,171.51h-1.07v-7.01h1.51l2.47,5.07v-5.07h1.06v7.01h-1.23l-2.73-5.67L167.7,171.51L167.7,171.51z"/>
		<path class="st0" d="M179.72,167.6v0.7h-2.6v2.49h3.2v0.71h-4.39v-7.01h4.39v0.71h-3.2v2.39L179.72,167.6L179.72,167.6z"/>
		<path class="st0" d="M189.08,166.18v0.19h-1.13v-0.23c0-0.63-0.37-1-1.22-1s-1.22,0.37-1.22,0.99c0,1.57,3.58,1.72,3.58,3.69
			c0,1.06-0.78,1.75-2.41,1.75c-1.63,0-2.39-0.69-2.39-1.75v-0.4h1.11v0.44c0,0.63,0.4,1,1.25,1c0.85,0,1.25-0.37,1.25-1
			c0-1.56-3.56-1.71-3.56-3.69c0-1.08,0.76-1.75,2.36-1.75C188.32,164.43,189.08,165.12,189.08,166.18z"/>
	</g>
	<g>
		
			<linearGradient id="SVGID_1_" gradientUnits="userSpaceOnUse" x1="31.1172" y1="-82.6117" x2="172.1918" y2="-80.6524" gradientTransform="matrix(1 0 0 1 0 104)">
			<stop  offset="0" style="stop-color:#C52D38"/>
			<stop  offset="0.1266" style="stop-color:#BA2D3B"/>
			<stop  offset="0.3469" style="stop-color:#9F2D41"/>
			<stop  offset="0.6345" style="stop-color:#702D4D"/>
			<stop  offset="0.9752" style="stop-color:#31315C"/>
			<stop  offset="0.9995" style="stop-color:#2C315C"/>
		</linearGradient>
		<path class="st1" d="M166.67,19.75c-4.1-3.79-12.15-2.6-17-2.57c0.16-5.1-3.25-8.76-7.12-9.89c-7.66-2.24-15.93,1.78-23.15,4.46
			c-13.64,5.06-26.87,10.22-41.06,12.86c-4.54,0.84-9.33,1.85-13.95,1.7C38.21,25.44,36.24,0,36.24,0
			c-1.86,10.72-2.25,23.15,4.48,31.62c16.01,20.11,40.61,9.48,59.55,3.41c9.99-3.2,19.92-6.82,30.07-9.26
			c21.1-5.07,18.54,9.12,18.54,9.12c7.81-2.37,19.84,3.38,19.84,3.38C170.37,30.96,166.67,19.75,166.67,19.75z"/>
		<path class="st2" d="M164.27,44.33c-4.1-3.79-12.15-2.6-17-2.57c0.16-5.1-3.25-8.76-7.12-9.89c-7.66-2.24-15.93,1.78-23.15,4.46
			C103.36,41.4,90.13,46.56,75.95,49.2c-4.54,0.84-9.33,1.85-13.95,1.7C35.8,50.03,33.84,24.58,33.84,24.58
			c-1.86,10.72-2.25,23.15,4.48,31.62c16.01,20.11,40.61,9.48,59.55,3.41c9.99-3.2,19.92-6.82,30.07-9.26
			c21.1-5.07,18.54,9.12,18.54,9.12c7.81-2.37,19.84,3.38,19.84,3.38C167.97,55.54,164.27,44.33,164.27,44.33z"/>
		
			<linearGradient id="SVGID_2_" gradientUnits="userSpaceOnUse" x1="184.7711" y1="-29.8392" x2="32.5933" y2="-33.1048" gradientTransform="matrix(1 0 0 1 0 104)">
			<stop  offset="5.166997e-04" style="stop-color:#C52D38"/>
			<stop  offset="0.127" style="stop-color:#BA2D3B"/>
			<stop  offset="0.3472" style="stop-color:#9F2D41"/>
			<stop  offset="0.6347" style="stop-color:#702D4D"/>
			<stop  offset="0.9752" style="stop-color:#31315C"/>
			<stop  offset="0.9995" style="stop-color:#2C315C"/>
		</linearGradient>
		<path class="st3" d="M162.7,69.28c-4.1-3.79-12.15-2.6-17-2.57c0.16-5.1-3.25-8.76-7.12-9.89c-7.66-2.24-15.93,1.78-23.15,4.46
			c-13.64,5.06-26.87,10.22-41.06,12.86c-4.54,0.84-9.33,1.85-13.95,1.7c-26.19-0.87-28.15-26.31-28.15-26.31
			c-1.86,10.72-2.25,23.15,4.48,31.62c16.01,20.11,40.61,9.48,59.55,3.41c9.99-3.2,19.92-6.82,30.07-9.26
			c21.1-5.07,18.54,9.12,18.54,9.12c7.81-2.37,19.84,3.38,19.84,3.38C166.4,80.49,162.7,69.28,162.7,69.28z"/>
	</g>
</g>
</svg>
