<?xml version="1.0" encoding="utf-8"?>
<!-- Generator: Adobe Illustrator 24.1.2, SVG Export Plug-In . SVG Version: 6.00 Build 0)  -->
<svg version="1.1" id="Capa_1" xmlns="http://www.w3.org/2000/svg" xmlns:xlink="http://www.w3.org/1999/xlink" x="0px" y="0px"
	 viewBox="0 0 201.78 173.44" style="enable-background:new 0 0 201.78 173.44;" xml:space="preserve">
<style type="text/css">
	.st0{fill:url(#SVGID_1_);}
	.st1{fill:url(#SVGID_2_);}
	.st2{fill:#3B2551;}
</style>
<g>
	<linearGradient id="SVGID_1_" gradientUnits="userSpaceOnUse" x1="105.4872" y1="13.2185" x2="20.0926" y2="91.7264">
		<stop  offset="0" style="stop-color:#5DB3D9"/>
		<stop  offset="0.0483" style="stop-color:#5AA9CF"/>
		<stop  offset="0.3205" style="stop-color:#4D769B"/>
		<stop  offset="0.5612" style="stop-color:#455077"/>
		<stop  offset="0.7615" style="stop-color:#403760"/>
		<stop  offset="0.9137" style="stop-color:#3C2A55"/>
		<stop  offset="1" style="stop-color:#3B2551"/>
	</linearGradient>
	<path class="st0" d="M32.57,72.99L67.18,15.4c0.53-0.89,0.53-2,0-2.89L60.98,2.2c-1.76-2.93-6.02-2.93-7.78,0L0.66,89.63
		c-1.84,3.06,0.36,6.95,3.93,6.95l73.9,0c1.73,0,2.8-1.89,1.91-3.38l-8.78-14.61c-0.51-0.84-1.42-1.36-2.4-1.36l-34.24,0
		C32.8,77.23,31.45,74.85,32.57,72.99z"/>
	<linearGradient id="SVGID_2_" gradientUnits="userSpaceOnUse" x1="121.9078" y1="31.0795" x2="36.5132" y2="109.5874">
		<stop  offset="0" style="stop-color:#5DB3D9"/>
		<stop  offset="1" style="stop-color:#3B285B"/>
	</linearGradient>
	<path class="st1" d="M70.53,24.95L45.1,67.26c-0.69,1.15,0.14,2.61,1.48,2.61h27.35c1.14,0,2.2,0.6,2.78,1.59l13.92,23.53
		c0.58,0.98,1.64,1.59,2.78,1.59h13.18c4.45,0,7.2-4.86,4.9-8.68L73.55,24.94C72.87,23.8,71.21,23.81,70.53,24.95z"/>
	<g>
		<g>
			<path class="st2" d="M68.16,123.79c-4.71,0-8.41,3.63-8.41,8.27c0,4.64,3.7,8.31,8.41,8.31c2.35,0,4.77-1.08,6.56-2.8l2.35,2.63
				c-2.39,2.35-5.78,3.87-9.11,3.87c-6.9,0-12.25-5.21-12.25-11.98c0-6.69,5.42-11.84,12.38-11.84c3.33,0,6.66,1.38,8.95,3.63
				l-2.32,2.89C73.01,124.94,70.55,123.79,68.16,123.79z"/>
			<path class="st2" d="M104.67,120.36v3.57H91.81v6.39h11.51v3.53H91.81v6.49h13.25v3.57H89.33c-0.82,0-1.48-0.66-1.48-1.48v-20.59
				c0-0.82,0.66-1.48,1.48-1.48H104.67z"/>
			<path class="st2" d="M201.78,132.13c0,6.73-5.45,11.94-12.48,11.94c-7.03,0-12.48-5.21-12.48-11.94
				c0-6.76,5.45-11.88,12.48-11.88C196.33,120.26,201.78,125.41,201.78,132.13z M180.86,132.13c0,4.68,3.87,8.37,8.47,8.37
				c4.61,0,8.37-3.7,8.37-8.37s-3.77-8.31-8.37-8.31C184.69,123.82,180.86,127.46,180.86,132.13z"/>
			<path class="st2" d="M70.85,149.59h-6.32l-10.13,23.58h6.32l1.65-4.17h10.19l1.61,4.17h6.56L70.85,149.59z M64.22,164.29
				l3.3-8.41l3.23,8.41H64.22z"/>
			<path class="st2" d="M107.69,149.59v4.04l-12.44,14.6h12.65v4.94H87.01v-4l12.44-14.63H87.45v-4.94H107.69z"/>
			<path class="st2" d="M127.22,168.19c2.72,0,4.61-1.85,4.61-4.91v-13.69h6.16v13.69c0,6.22-4.18,10.16-10.8,10.16
				c-6.66,0-10.93-3.94-10.93-10.16v-13.69h6.15v13.69C122.41,166.31,124.43,168.19,127.22,168.19z"/>
			<path class="st2" d="M153.84,149.59v18.33h9.99v5.25h-13.95c-1.21,0-2.19-0.98-2.19-2.19v-21.39H153.84z"/>
			<path class="st2" d="M131.58,143.91h4.51l-5.28-7.87c3.13-1.21,4.87-3.87,4.87-7.64c0-5.11-3.46-8.04-9.49-8.04h-9.55v23.55h3.97
				v-19.98h5.58c3.64,0,5.72,1.48,5.72,4.57c0,3.2-2.08,4.74-5.72,4.74h-0.86l2.7,4.8l0,0L131.58,143.91z"/>
			<path class="st2" d="M162.24,143.23c0.26,0.42,0.71,0.68,1.21,0.68h3.72l-5.28-7.87c3.13-1.21,4.87-3.87,4.87-7.64
				c0-5.11-3.46-8.04-9.49-8.04h-9.55v23.55h3.97v-19.98h5.58c3.64,0,5.72,1.48,5.72,4.57c0,3.2-2.08,4.74-5.72,4.74h-0.86l2.7,4.8
				l0,0L162.24,143.23z"/>
		</g>
	</g>
</g>
</svg>
