<svg id="Capa_1" data-name="Capa 1" xmlns="http://www.w3.org/2000/svg" viewBox="0 0 716.48 588.8"><defs><style>.cls-1{fill:#fff;}.cls-2{fill:#f3ce1c;}</style></defs><path class="cls-1" d="M168.29,0h41.09c25.78,0,42.8,14.35,42.8,42.55v84.38c0,28.21-17.75,43.28-43.53,43.28H168.29ZM198,142.49h9.24c9.73,0,15.08-5.83,15.08-17V44.74c0-11.18-5.35-17-15.08-17H198Z"/><path class="cls-1" d="M334.36,170.21l-18.48-65.16H303.72v65.16H274.06V0h39.15C340.69,0,358,14.35,358,44.26V62.74c0,15.56-6.08,26.74-15.81,32.58l23.11,74.89Zm-30.64-90H313c9.72,0,15.07-5.83,15.07-17V44.74c0-11.18-5.35-17-15.07-17h-9.25Z"/><path class="cls-1" d="M379.83,0h30.4V170.21h-30.4Z"/><path class="cls-1" d="M463.23,67.6V170.21H435.75V0h29.91l27,95.56L519.64,0h28V170.21H520.13V67.6l-21.88,77.08H484.87Z"/><path class="cls-1" d="M252.18,379.51H221.3l-5.11-33.07h-26l-5.11,33.07H156.13l33.55-170.22h28.94Zm-58.6-56.9h19.21l-9.73-60.55Z"/><path class="cls-1" d="M290.35,274.71v104.8h-26V209.29h28L324.63,308V209.29h26V379.51h-26Z"/><path class="cls-1" d="M375,209.29h41.1c25.77,0,42.79,14.35,42.79,42.56v84.38c0,28.2-17.75,43.28-43.52,43.28H375Zm29.67,142.5h9.24c9.73,0,15.08-5.84,15.08-17V254c0-11.19-5.35-17-15.08-17h-9.24Z"/><path class="cls-1" d="M168.29,418.59h41.09c25.78,0,42.8,14.34,42.8,42.55v84.38c0,28.21-17.75,43.28-43.53,43.28H168.29ZM198,561.08h9.24c9.73,0,15.08-5.83,15.08-17V463.33c0-11.18-5.35-17-15.08-17H198Z"/><path class="cls-1" d="M271.63,459c0-26,19.21-42.79,43-42.79,23.58,0,42.06,15.8,42.06,41.82v90.7c0,26-19.45,42.55-43,42.55s-42.06-15.8-42.06-41.82Zm29.66,90c0,9.24,5.11,14.59,12.89,14.59s12.65-5.35,12.65-14.59V458.47c0-9-4.87-14.59-12.65-14.59s-12.89,5.59-12.89,14.59Z"/><path class="cls-1" d="M432.59,418.59H463V588.8h-30.4Z"/><path class="cls-1" d="M535,448V588.8H504.81V448h-26V418.59H561V448Z"/><path class="cls-2" d="M12.57,90.34,55.48,114.5v15.17L0,97V84L55.48,51.34V66Z"/><path class="cls-2" d="M77.84,90.34l42.92,24.16v15.17L65.27,97V84l55.49-32.64V66Z"/><path class="cls-2" d="M638.65,512.91l-42.92-24.15V473.58l55.48,32.64v13l-55.48,32.64V537.23Z"/><path class="cls-2" d="M703.92,512.91,661,488.76V473.58l55.48,32.64v13L661,551.91V537.23Z"/></svg>