<?xml version="1.0" encoding="utf-8"?>
<!-- Generator: Adobe Illustrator 24.1.2, SVG Export Plug-In . SVG Version: 6.00 Build 0)  -->
<svg version="1.1" id="Capa_1" xmlns="http://www.w3.org/2000/svg" xmlns:xlink="http://www.w3.org/1999/xlink" x="0px" y="0px"
	 viewBox="0 0 327.2 62.2" style="enable-background:new 0 0 327.2 62.2;" xml:space="preserve">
<style type="text/css">
	.st0{fill:#878788;}
	.st1{fill:#FF7800;}
</style>
<g>
	<g>
		<path class="st0" d="M84.7,19.2h33.8v9.9H96.2v6.4h20.2v9.2H96.2v6.7h22.6v9.9H84.7V19.2z"/>
		<path class="st0" d="M123.3,19.2h16.2c15,0,23.7,8.7,23.7,20.8v0.1c0,12.1-8.8,21.2-24,21.2h-16V19.2H123.3z M139.7,51
			c7,0,11.6-3.8,11.6-10.6v-0.1c0-6.7-4.6-10.6-11.6-10.6H135V51H139.7z"/>
		<path class="st0" d="M168,19.2h11.7v42.1H168V19.2z"/>
		<path class="st0" d="M185.9,19.2h33.7v10.2h-22v7.2h19.9v9.7h-19.9v15h-11.7V19.2z"/>
		<path class="st0" d="M223.6,19.2h11.7v42.1h-11.7V19.2z"/>
		<path class="st0" d="M240.1,40.4v-0.1c0-12.3,9.4-21.9,22.2-21.9c8.6,0,14.1,3.6,17.9,8.8l-8.8,6.8c-2.4-3-5.2-4.9-9.2-4.9
			c-5.9,0-10,5-10,11.1v0.1c0,6.3,4.1,11.2,10,11.2c4.4,0,7-2,9.5-5.1l8.8,6.3c-4,5.5-9.3,9.5-18.6,9.5
			C249.8,62.2,240.1,53,240.1,40.4z"/>
		<path class="st0" d="M298.1,18.9h11.2l17.9,42.4h-12.5l-3.1-7.5h-16.2l-3,7.5h-12.3L298.1,18.9z M308.3,44.7l-4.7-12l-4.7,12
			H308.3z"/>
	</g>
	<g>
		<polygon class="st1" points="38.7,0 32.7,0 32,0 25.9,61.6 32.7,61.6 38.7,61.6 45.4,61.6 39.3,0 		"/>
		<polygon class="st1" points="55,14 44,14 49.5,61.6 71.3,61.6 		"/>
		<polygon class="st1" points="16.3,14 0,61.6 21.8,61.6 27.3,14 		"/>
	</g>
</g>
</svg>
