<?xml version="1.0" encoding="utf-8"?>
<!-- Generator: Adobe Illustrator 24.1.2, SVG Export Plug-In . SVG Version: 6.00 Build 0)  -->
<svg version="1.1" id="Capa_1" xmlns="http://www.w3.org/2000/svg" xmlns:xlink="http://www.w3.org/1999/xlink" x="0px" y="0px"
	 viewBox="0 0 193.19 198.44" style="enable-background:new 0 0 193.19 198.44;" xml:space="preserve">
<style type="text/css">
	.st0{fill:url(#SVGID_1_);}
	.st1{fill:url(#SVGID_2_);}
	.st2{fill:url(#SVGID_3_);}
	.st3{fill:#019CBE;}
	.st4{fill:#007B9C;}
	.st5{fill:#79CCD3;}
</style>
<g>
	<g>
		<linearGradient id="SVGID_1_" gradientUnits="userSpaceOnUse" x1="31.5272" y1="65.6027" x2="162.7314" y2="65.6027">
			<stop  offset="0" style="stop-color:#019CBE"/>
			<stop  offset="1" style="stop-color:#007B9C"/>
		</linearGradient>
		<path class="st0" d="M97.13,0c-36.17,0-65.6,29.43-65.6,65.6c0,36.17,29.43,65.6,65.6,65.6c36.17,0,65.6-29.43,65.6-65.6
			C162.73,29.43,133.3,0,97.13,0z M97.13,121.73C66.18,121.73,41,96.55,41,65.6C41,34.65,66.18,9.47,97.13,9.47
			c30.95,0,56.13,25.18,56.13,56.13C153.26,96.55,128.08,121.73,97.13,121.73z"/>
		<g>
			<linearGradient id="SVGID_2_" gradientUnits="userSpaceOnUse" x1="65.0855" y1="44.2133" x2="130.9247" y2="44.2133">
				<stop  offset="0" style="stop-color:#019CBE"/>
				<stop  offset="1" style="stop-color:#007B9C"/>
			</linearGradient>
			<path class="st1" d="M128.74,30.85c-2.89-3.92-7.99-6.08-14.37-6.08c-4.53,0-9.34,1.18-12.25,3
				c-5.79,3.62-10.43,16.87-10.63,17.43l-0.41,1.18L92.27,46c0.11-0.03,2.64-0.82,4.44-1.72l0.19-0.09L96.99,44
				c6.72-13.19,18.21-11.55,18.44-11.53c0.06,0,5.64,0.52,7.34,4.27c1.34,2.96,0,7.18-3.9,12.45c-5.92,5.39-12.9,8.12-20.74,8.12
				c-9.4,0-17.07-3.92-19.23-5.43c-2.42-1.69-5.18-5.46-5.77-9.4c-0.42-2.8,0.26-5.36,2.01-7.6c2.88-3.69,7.81-4.46,11.44-4.46
				c2.97,0,5.27,0.52,5.29,0.52l1.37,0.31l-0.68-1.23c-0.02-0.03-1.86-3.37-3.16-6.58l-0.16-0.39l-0.63,0
				c-8.51,0-15.77,3.06-19.93,8.39c-3.43,4.4-4.43,9.95-2.86,16.13c5.28,13.11,20.6,17.78,33.19,17.78c5.86,0,11.54-0.99,15.58-2.72
				c7.07-3.02,13.32-10.55,15.54-18.72C131.55,38.65,131.06,34.01,128.74,30.85z"/>
			<linearGradient id="SVGID_3_" gradientUnits="userSpaceOnUse" x1="65.7502" y1="88.1995" x2="127.8643" y2="88.1995">
				<stop  offset="0" style="stop-color:#019CBE"/>
				<stop  offset="1" style="stop-color:#007B9C"/>
			</linearGradient>
			<path class="st2" d="M125.75,61.23l-0.66,0.38c-0.04,0.02-3.74,2.13-7.9,3.82l-0.81,0.33l0.57,0.66
				c4.4,5.15,5.2,11.45,2.38,18.72c-1.47,3.77-3.58,6.85-4.78,8.42c-0.74-4.79-4.25-19.4-19.75-21.67
				c-9.84,0.66-15.94,8.86-18.13,24.37c-4.01-7.89-5.01-14.45-2.95-19.5c2.29-5.62,7.69-7.34,7.75-7.36l1.06-0.33l-7.89-7.1
				l-0.42,0.39c-6.61,6.07-9.49,14.91-8.12,24.89c1.61,11.71,8.83,22.99,17.56,27.44l0.97,0.5l-0.06-1.09
				c-0.9-16.85,0.79-27.65,5.01-32.1c1.86-1.96,3.82-2.19,5.13-2.19c1.47,0,3.97,0.89,6.2,3.41c2.95,3.33,6.09,10.28,4.34,24.46
				l-0.14,1.12l1.03-0.48c30.6-14.17,19.98-46.05,19.87-46.37L125.75,61.23z"/>
		</g>
	</g>
	<g>
		<path class="st3" d="M14.17,185.52c-2.1,0-4.01-0.42-5.75-1.27c-1.74-0.85-3.23-2.01-4.48-3.47c-1.25-1.46-2.21-3.14-2.91-5.04
			c-0.69-1.9-1.04-3.89-1.04-5.99c0-2.21,0.36-4.3,1.07-6.25c0.71-1.96,1.7-3.65,2.96-5.1c1.26-1.44,2.78-2.59,4.54-3.44
			c1.76-0.85,3.7-1.27,5.84-1.27c2.49,0,4.67,0.59,6.55,1.78c1.88,1.19,3.43,2.73,4.65,4.62v-5.87h5.75v30.11
			c0,2.25-0.42,4.25-1.24,5.99c-0.83,1.74-1.99,3.21-3.47,4.42c-1.48,1.2-3.23,2.12-5.25,2.76c-2.02,0.63-4.19,0.95-6.52,0.95
			c-3.44,0-6.29-0.58-8.57-1.75c-2.27-1.17-4.18-2.8-5.72-4.89l3.68-3.44c1.19,1.66,2.72,2.92,4.59,3.79
			c1.88,0.87,3.88,1.3,6.02,1.3c1.34,0,2.62-0.18,3.82-0.53c1.21-0.36,2.26-0.91,3.17-1.66c0.91-0.75,1.63-1.7,2.16-2.85
			c0.53-1.15,0.8-2.51,0.8-4.09v-4.74c-1.11,1.9-2.63,3.36-4.56,4.39C18.34,185,16.3,185.52,14.17,185.52z M16.3,180.24
			c0.99,0,1.94-0.17,2.85-0.5c0.91-0.34,1.75-0.79,2.52-1.36c0.77-0.57,1.43-1.22,1.99-1.96c0.55-0.73,0.95-1.51,1.19-2.34v-8.12
			c-0.4-0.99-0.91-1.89-1.54-2.7c-0.63-0.81-1.35-1.51-2.16-2.1c-0.81-0.59-1.67-1.06-2.58-1.39c-0.91-0.34-1.82-0.5-2.73-0.5
			c-1.42,0-2.7,0.31-3.82,0.92c-1.13,0.61-2.08,1.42-2.87,2.43c-0.79,1.01-1.4,2.14-1.84,3.41c-0.44,1.27-0.65,2.57-0.65,3.91
			c0,1.42,0.25,2.76,0.74,4c0.49,1.25,1.18,2.33,2.05,3.26c0.87,0.93,1.89,1.67,3.05,2.22C13.64,179.96,14.92,180.24,16.3,180.24z"
			/>
		<path class="st3" d="M82.16,185.22h-6.52v-17.37c0-2.88-0.47-5-1.42-6.34c-0.95-1.34-2.33-2.02-4.15-2.02
			c-1.86,0-3.55,0.68-5.07,2.05c-1.52,1.36-2.62,3.13-3.29,5.31v18.38h-6.52v-17.37c0-2.92-0.47-5.05-1.42-6.37
			c-0.95-1.32-2.31-1.99-4.09-1.99c-1.86,0-3.56,0.67-5.1,2.02c-1.54,1.34-2.65,3.1-3.32,5.28v18.44h-6.52v-31h5.93v6.22
			c1.23-2.17,2.84-3.84,4.83-5.01c2-1.17,4.28-1.75,6.85-1.75c2.57,0,4.59,0.67,6.08,2.02c1.48,1.34,2.4,3.02,2.76,5.04
			c1.3-2.29,2.94-4.04,4.92-5.25c1.98-1.2,4.23-1.81,6.76-1.81c1.82,0,3.33,0.35,4.54,1.04c1.21,0.69,2.16,1.61,2.87,2.76
			c0.71,1.15,1.21,2.48,1.48,4c0.28,1.52,0.41,3.13,0.41,4.83V185.22z"/>
		<path class="st4" d="M98.46,185.81c-2.13,0-4.11-0.44-5.93-1.33c-1.82-0.89-3.38-2.06-4.68-3.53c-1.3-1.46-2.32-3.15-3.05-5.07
			c-0.73-1.92-1.1-3.92-1.1-6.02c0-2.17,0.36-4.24,1.07-6.19c0.71-1.96,1.69-3.67,2.93-5.13c1.24-1.46,2.73-2.62,4.45-3.47
			c1.72-0.85,3.61-1.27,5.66-1.27c2.61,0,4.92,0.68,6.94,2.05c2.02,1.36,3.6,3.01,4.74,4.95v-18.85h4.03V180
			c0,1.11,0.47,1.66,1.42,1.66v3.56c-0.59,0.12-1.07,0.18-1.42,0.18c-0.95,0-1.78-0.31-2.49-0.92c-0.71-0.61-1.07-1.35-1.07-2.22
			v-3.02c-1.23,2.02-2.88,3.62-4.98,4.8C102.89,185.22,100.72,185.81,98.46,185.81z M99.35,182.26c0.99,0,2.05-0.2,3.17-0.59
			c1.13-0.39,2.18-0.94,3.17-1.63c0.99-0.69,1.83-1.5,2.52-2.43c0.69-0.93,1.12-1.93,1.27-2.99v-9.54c-0.4-1.07-0.97-2.06-1.72-2.99
			c-0.75-0.93-1.61-1.75-2.58-2.46c-0.97-0.71-2.01-1.26-3.11-1.66c-1.11-0.39-2.19-0.59-3.26-0.59c-1.66,0-3.16,0.36-4.51,1.07
			c-1.34,0.71-2.5,1.65-3.47,2.82c-0.97,1.17-1.71,2.5-2.22,4c-0.51,1.5-0.77,3.04-0.77,4.62c0,1.66,0.3,3.24,0.89,4.74
			c0.59,1.5,1.4,2.82,2.43,3.94c1.03,1.13,2.24,2.03,3.65,2.7C96.22,181.92,97.73,182.26,99.35,182.26z"/>
		<path class="st4" d="M131.54,185.81c-2.25,0-4.32-0.43-6.2-1.27c-1.88-0.85-3.51-2.02-4.89-3.5c-1.38-1.48-2.46-3.19-3.23-5.13
			c-0.77-1.94-1.16-4.01-1.16-6.22c0-2.17,0.39-4.22,1.16-6.14c0.77-1.92,1.84-3.6,3.2-5.04c1.36-1.44,2.99-2.59,4.89-3.44
			c1.9-0.85,3.95-1.27,6.16-1.27c2.25,0,4.32,0.43,6.2,1.27c1.88,0.85,3.49,2.01,4.83,3.47c1.34,1.46,2.39,3.14,3.14,5.04
			c0.75,1.9,1.13,3.91,1.13,6.05c0,0.32,0,0.63,0,0.95c0,0.32-0.02,0.53-0.06,0.65h-26.44c0.12,1.66,0.5,3.19,1.16,4.59
			c0.65,1.4,1.49,2.62,2.52,3.65c1.03,1.03,2.2,1.83,3.53,2.4c1.32,0.57,2.74,0.86,4.24,0.86c0.99,0,1.98-0.14,2.96-0.41
			c0.99-0.28,1.9-0.65,2.73-1.13c0.83-0.47,1.58-1.06,2.25-1.75c0.67-0.69,1.19-1.45,1.54-2.28l3.5,0.95
			c-0.47,1.15-1.15,2.18-2.02,3.11c-0.87,0.93-1.88,1.74-3.02,2.43c-1.15,0.69-2.41,1.23-3.79,1.6
			C134.48,185.63,133.04,185.81,131.54,185.81z M142.92,168.15c-0.12-1.66-0.5-3.17-1.16-4.53c-0.65-1.36-1.48-2.54-2.49-3.53
			c-1.01-0.99-2.17-1.76-3.5-2.31c-1.32-0.55-2.74-0.83-4.24-0.83c-1.5,0-2.93,0.28-4.27,0.83c-1.34,0.55-2.52,1.32-3.53,2.31
			c-1.01,0.99-1.82,2.17-2.43,3.56c-0.61,1.38-0.98,2.89-1.1,4.51H142.92z"/>
		<path class="st4" d="M174.52,185.22h-4.03v-17.25c0-3.68-0.54-6.34-1.63-8c-1.09-1.66-2.76-2.49-5.01-2.49
			c-1.19,0-2.37,0.22-3.56,0.65c-1.19,0.44-2.28,1.05-3.29,1.84c-1.01,0.79-1.91,1.73-2.7,2.82c-0.79,1.09-1.36,2.26-1.72,3.53
			v18.91h-4.03v-30.88h3.68v6.99c1.26-2.25,3.07-4.07,5.42-5.45c2.35-1.38,4.91-2.08,7.68-2.08c1.7,0,3.14,0.32,4.33,0.95
			c1.19,0.63,2.13,1.52,2.85,2.67c0.71,1.15,1.23,2.55,1.54,4.21c0.32,1.66,0.47,3.5,0.47,5.51V185.22z"/>
		<path class="st4" d="M193.19,183.74c-0.24,0.12-0.58,0.28-1.04,0.47c-0.45,0.2-0.98,0.4-1.57,0.59c-0.59,0.2-1.27,0.38-2.02,0.53
			c-0.75,0.16-1.54,0.24-2.37,0.24c-0.87,0-1.7-0.12-2.49-0.36c-0.79-0.24-1.48-0.6-2.08-1.1c-0.59-0.49-1.07-1.12-1.42-1.87
			c-0.36-0.75-0.53-1.62-0.53-2.61v-22.11h-4.27v-3.2h4.27V143.9h4.03v10.43h7.11v3.2h-7.11v20.98c0.08,1.15,0.48,1.99,1.22,2.52
			c0.73,0.53,1.57,0.8,2.52,0.8c1.15,0,2.15-0.19,3.02-0.56c0.87-0.37,1.42-0.64,1.66-0.8L193.19,183.74z"/>
	</g>
	<g>
		<g>
			<path class="st5" d="M41.45,195.59h-0.97v-2.58c0-0.43-0.07-0.74-0.21-0.94c-0.14-0.2-0.35-0.3-0.62-0.3
				c-0.28,0-0.53,0.1-0.75,0.3c-0.23,0.2-0.39,0.47-0.49,0.79v2.73h-0.97v-2.58c0-0.43-0.07-0.75-0.21-0.95
				c-0.14-0.2-0.34-0.3-0.61-0.3c-0.28,0-0.53,0.1-0.76,0.3c-0.23,0.2-0.39,0.46-0.49,0.78v2.74H34.4v-4.61h0.88v0.93
				c0.18-0.32,0.42-0.57,0.72-0.74c0.3-0.17,0.64-0.26,1.02-0.26c0.38,0,0.68,0.1,0.9,0.3c0.22,0.2,0.36,0.45,0.41,0.75
				c0.19-0.34,0.44-0.6,0.73-0.78c0.29-0.18,0.63-0.27,1-0.27c0.27,0,0.49,0.05,0.67,0.15c0.18,0.1,0.32,0.24,0.43,0.41
				c0.11,0.17,0.18,0.37,0.22,0.59c0.04,0.23,0.06,0.47,0.06,0.72V195.59z"/>
			<path class="st5" d="M48.31,195.68c-0.36,0-0.68-0.06-0.98-0.19c-0.29-0.13-0.55-0.3-0.75-0.52c-0.21-0.22-0.37-0.47-0.48-0.76
				c-0.11-0.29-0.17-0.59-0.17-0.92c0-0.32,0.06-0.63,0.17-0.92c0.11-0.29,0.28-0.55,0.48-0.77c0.21-0.22,0.46-0.39,0.75-0.52
				c0.29-0.13,0.62-0.19,0.99-0.19c0.36,0,0.68,0.07,0.97,0.19c0.29,0.13,0.54,0.3,0.74,0.52c0.21,0.21,0.36,0.46,0.47,0.75
				c0.11,0.28,0.16,0.58,0.16,0.89c0,0.07,0,0.14-0.01,0.2c-0.01,0.06-0.01,0.11-0.02,0.15h-3.69c0.02,0.21,0.07,0.39,0.14,0.56
				c0.08,0.16,0.18,0.31,0.31,0.43c0.13,0.12,0.27,0.21,0.43,0.28c0.16,0.06,0.33,0.1,0.51,0.1c0.13,0,0.26-0.02,0.38-0.05
				c0.13-0.03,0.24-0.08,0.35-0.14c0.11-0.06,0.2-0.14,0.28-0.22c0.08-0.09,0.15-0.19,0.19-0.29l0.83,0.24
				c-0.16,0.35-0.42,0.63-0.79,0.85C49.23,195.57,48.8,195.68,48.31,195.68z M49.71,192.94c-0.02-0.19-0.07-0.37-0.15-0.54
				c-0.08-0.16-0.18-0.3-0.3-0.42c-0.12-0.11-0.27-0.2-0.43-0.27c-0.16-0.06-0.34-0.1-0.52-0.1s-0.35,0.03-0.52,0.1
				c-0.16,0.06-0.3,0.15-0.43,0.27c-0.12,0.11-0.22,0.25-0.3,0.42c-0.08,0.16-0.12,0.34-0.14,0.54H49.71z"/>
			<path class="st5" d="M54.64,197.28c-0.21,0-0.41-0.03-0.6-0.1c-0.19-0.06-0.36-0.16-0.51-0.3l0.43-0.65
				c0.08,0.07,0.16,0.12,0.26,0.15c0.1,0.03,0.2,0.05,0.3,0.05c0.17,0,0.32-0.06,0.45-0.19c0.13-0.13,0.2-0.29,0.2-0.48v-4.78h0.97
				v4.71c0,0.23-0.04,0.45-0.12,0.64c-0.08,0.19-0.19,0.36-0.33,0.5c-0.14,0.14-0.3,0.25-0.48,0.33
				C55.04,197.24,54.85,197.28,54.64,197.28z M55.18,190.23v-1.07h0.97v1.07H55.18z"/>
			<path class="st5" d="M63.04,195.68c-0.36,0-0.69-0.06-0.98-0.19c-0.29-0.13-0.54-0.3-0.74-0.52c-0.21-0.22-0.36-0.47-0.48-0.76
				c-0.11-0.29-0.17-0.59-0.17-0.91s0.06-0.62,0.17-0.91c0.11-0.29,0.27-0.55,0.48-0.76c0.21-0.22,0.46-0.39,0.75-0.52
				c0.29-0.13,0.62-0.19,0.97-0.19s0.68,0.07,0.97,0.19c0.29,0.13,0.54,0.3,0.75,0.52c0.21,0.22,0.37,0.47,0.48,0.76
				c0.11,0.29,0.17,0.59,0.17,0.91s-0.06,0.62-0.17,0.91c-0.11,0.29-0.27,0.55-0.48,0.76c-0.21,0.22-0.46,0.39-0.75,0.52
				C63.72,195.62,63.4,195.68,63.04,195.68z M61.66,193.3c0,0.22,0.04,0.43,0.11,0.62c0.07,0.19,0.17,0.35,0.29,0.49
				c0.12,0.14,0.27,0.25,0.44,0.33c0.17,0.08,0.35,0.12,0.54,0.12s0.37-0.04,0.54-0.12c0.17-0.08,0.31-0.19,0.44-0.33
				c0.12-0.14,0.22-0.31,0.29-0.49c0.07-0.19,0.11-0.39,0.11-0.62c0-0.22-0.04-0.42-0.11-0.61c-0.07-0.19-0.17-0.36-0.29-0.5
				c-0.12-0.14-0.27-0.25-0.44-0.33c-0.17-0.08-0.35-0.12-0.54-0.12c-0.19,0-0.37,0.04-0.53,0.12c-0.17,0.08-0.31,0.19-0.44,0.34
				c-0.12,0.14-0.22,0.31-0.29,0.5C61.7,192.88,61.66,193.08,61.66,193.3z"/>
			<path class="st5" d="M72.52,191.82c-0.38,0.01-0.71,0.1-1,0.26s-0.5,0.39-0.62,0.69v2.82h-0.97v-4.61h0.9v1.03
				c0.16-0.32,0.37-0.57,0.62-0.76c0.26-0.19,0.53-0.3,0.82-0.31c0.06,0,0.11,0,0.14,0c0.04,0,0.07,0,0.1,0.01V191.82z"/>
			<path class="st5" d="M78.04,195.68c-0.22,0-0.43-0.04-0.62-0.11c-0.19-0.07-0.36-0.17-0.49-0.3s-0.25-0.28-0.33-0.46
				c-0.08-0.18-0.12-0.37-0.12-0.57c0-0.22,0.05-0.41,0.14-0.59c0.09-0.18,0.23-0.33,0.4-0.46c0.17-0.13,0.38-0.23,0.62-0.3
				c0.24-0.07,0.5-0.11,0.79-0.11c0.22,0,0.43,0.02,0.64,0.06c0.21,0.04,0.4,0.09,0.57,0.15v-0.32c0-0.34-0.1-0.61-0.29-0.8
				c-0.19-0.19-0.47-0.29-0.84-0.29c-0.25,0-0.49,0.05-0.73,0.14c-0.24,0.09-0.48,0.22-0.74,0.39l-0.3-0.62
				c0.59-0.4,1.21-0.6,1.85-0.6c0.63,0,1.13,0.16,1.48,0.48c0.35,0.32,0.53,0.79,0.53,1.39v1.67c0,0.21,0.09,0.31,0.26,0.32v0.83
				c-0.09,0.02-0.17,0.03-0.24,0.04s-0.13,0.01-0.2,0.01c-0.19,0-0.33-0.05-0.44-0.14c-0.1-0.09-0.17-0.21-0.19-0.36l-0.03-0.29
				c-0.21,0.27-0.46,0.48-0.76,0.62C78.72,195.61,78.39,195.68,78.04,195.68z M78.31,194.97c0.23,0,0.46-0.04,0.66-0.13
				c0.21-0.09,0.37-0.2,0.49-0.36c0.12-0.11,0.19-0.22,0.19-0.33v-0.61c-0.16-0.06-0.34-0.11-0.52-0.15
				c-0.19-0.04-0.37-0.05-0.54-0.05c-0.35,0-0.63,0.07-0.85,0.22c-0.22,0.15-0.33,0.35-0.33,0.59c0,0.23,0.09,0.42,0.26,0.58
				C77.83,194.89,78.04,194.97,78.31,194.97z"/>
			<path class="st5" d="M92.5,195.59h-0.97v-2.58c0-0.43-0.07-0.74-0.21-0.94c-0.14-0.2-0.35-0.3-0.62-0.3
				c-0.28,0-0.53,0.1-0.75,0.3c-0.23,0.2-0.39,0.47-0.49,0.79v2.73h-0.97v-2.58c0-0.43-0.07-0.75-0.21-0.95
				c-0.14-0.2-0.34-0.3-0.61-0.3c-0.28,0-0.53,0.1-0.76,0.3c-0.23,0.2-0.39,0.46-0.49,0.78v2.74h-0.97v-4.61h0.88v0.93
				c0.18-0.32,0.42-0.57,0.72-0.74c0.3-0.17,0.64-0.26,1.02-0.26c0.38,0,0.68,0.1,0.9,0.3c0.22,0.2,0.36,0.45,0.41,0.75
				c0.19-0.34,0.44-0.6,0.73-0.78c0.29-0.18,0.63-0.27,1-0.27c0.27,0,0.49,0.05,0.67,0.15c0.18,0.1,0.32,0.24,0.43,0.41
				c0.11,0.17,0.18,0.37,0.22,0.59c0.04,0.23,0.06,0.47,0.06,0.72V195.59z"/>
			<path class="st5" d="M99.34,195.68c-0.36,0-0.69-0.06-0.98-0.19c-0.29-0.13-0.54-0.3-0.74-0.52c-0.21-0.22-0.36-0.47-0.48-0.76
				c-0.11-0.29-0.17-0.59-0.17-0.91s0.06-0.62,0.17-0.91c0.11-0.29,0.27-0.55,0.48-0.76c0.21-0.22,0.46-0.39,0.75-0.52
				c0.29-0.13,0.62-0.19,0.97-0.19c0.36,0,0.68,0.07,0.97,0.19c0.29,0.13,0.54,0.3,0.75,0.52c0.21,0.22,0.37,0.47,0.48,0.76
				c0.11,0.29,0.17,0.59,0.17,0.91s-0.06,0.62-0.17,0.91c-0.11,0.29-0.27,0.55-0.48,0.76c-0.21,0.22-0.46,0.39-0.75,0.52
				C100.03,195.62,99.7,195.68,99.34,195.68z M97.97,193.3c0,0.22,0.04,0.43,0.11,0.62c0.07,0.19,0.17,0.35,0.29,0.49
				c0.12,0.14,0.27,0.25,0.44,0.33c0.17,0.08,0.35,0.12,0.54,0.12s0.37-0.04,0.54-0.12c0.17-0.08,0.31-0.19,0.44-0.33
				c0.12-0.14,0.22-0.31,0.29-0.49c0.07-0.19,0.11-0.39,0.11-0.62c0-0.22-0.04-0.42-0.11-0.61c-0.07-0.19-0.17-0.36-0.29-0.5
				c-0.12-0.14-0.27-0.25-0.44-0.33c-0.17-0.08-0.35-0.12-0.54-0.12c-0.19,0-0.37,0.04-0.53,0.12c-0.17,0.08-0.31,0.19-0.44,0.34
				c-0.12,0.14-0.22,0.31-0.29,0.5C98.01,192.88,97.97,193.08,97.97,193.3z"/>
			<path class="st5" d="M107.91,195.68c-0.37,0-0.74-0.06-1.11-0.18c-0.37-0.12-0.68-0.29-0.95-0.52l0.39-0.62
				c0.28,0.2,0.55,0.35,0.82,0.45c0.27,0.1,0.55,0.15,0.83,0.15c0.29,0,0.52-0.06,0.68-0.17c0.17-0.11,0.25-0.27,0.25-0.48
				c0-0.19-0.09-0.33-0.28-0.42s-0.48-0.19-0.88-0.29c-0.29-0.08-0.53-0.15-0.74-0.22c-0.21-0.07-0.37-0.15-0.5-0.25
				c-0.13-0.09-0.22-0.2-0.28-0.33c-0.06-0.12-0.09-0.27-0.09-0.45c0-0.23,0.05-0.44,0.14-0.63c0.09-0.18,0.22-0.34,0.38-0.46
				c0.16-0.13,0.35-0.22,0.57-0.29c0.22-0.06,0.45-0.1,0.71-0.1c0.35,0,0.67,0.05,0.97,0.16c0.3,0.11,0.57,0.26,0.8,0.46l-0.41,0.58
				c-0.43-0.34-0.88-0.51-1.37-0.51c-0.25,0-0.45,0.05-0.62,0.15c-0.17,0.1-0.25,0.27-0.25,0.49c0,0.09,0.02,0.17,0.05,0.24
				c0.03,0.06,0.09,0.12,0.17,0.17c0.08,0.05,0.18,0.09,0.31,0.13c0.13,0.04,0.28,0.08,0.47,0.13c0.31,0.08,0.58,0.15,0.81,0.23
				c0.23,0.08,0.41,0.17,0.56,0.27c0.15,0.1,0.26,0.22,0.33,0.36c0.07,0.14,0.11,0.3,0.11,0.5c0,0.44-0.17,0.79-0.5,1.04
				C108.93,195.55,108.48,195.68,107.91,195.68z"/>
			<path class="st5" d="M122.66,195.35c-0.12,0.06-0.29,0.12-0.51,0.2c-0.22,0.07-0.45,0.11-0.7,0.11c-0.15,0-0.3-0.02-0.43-0.06
				c-0.14-0.04-0.25-0.1-0.36-0.18c-0.1-0.08-0.18-0.19-0.24-0.32c-0.06-0.13-0.09-0.29-0.09-0.48v-2.88h-0.61v-0.75h0.61v-1.52
				h0.97v1.52h1v0.75h-1v2.57c0.01,0.16,0.06,0.28,0.15,0.36c0.09,0.07,0.2,0.11,0.34,0.11c0.14,0,0.26-0.02,0.39-0.07
				c0.12-0.05,0.21-0.09,0.27-0.11L122.66,195.35z"/>
			<path class="st5" d="M128.4,195.68c-0.48,0-0.85-0.16-1.09-0.47c-0.25-0.31-0.37-0.78-0.37-1.41v-2.82h0.97v2.63
				c0,0.83,0.29,1.24,0.88,1.24c0.28,0,0.54-0.09,0.78-0.26c0.25-0.17,0.44-0.42,0.57-0.74v-2.87h0.97v3.46
				c0,0.11,0.02,0.19,0.06,0.24c0.04,0.05,0.11,0.07,0.21,0.08v0.83c-0.1,0.02-0.18,0.03-0.25,0.04c-0.06,0.01-0.13,0.01-0.19,0.01
				c-0.18,0-0.33-0.05-0.45-0.15c-0.12-0.1-0.19-0.22-0.19-0.37l-0.02-0.46c-0.21,0.33-0.47,0.59-0.8,0.76
				C129.16,195.59,128.8,195.68,128.4,195.68z"/>
			<path class="st5" d="M143.52,195.68c-0.37,0-0.74-0.06-1.11-0.18c-0.37-0.12-0.68-0.29-0.95-0.52l0.39-0.62
				c0.28,0.2,0.55,0.35,0.82,0.45c0.27,0.1,0.55,0.15,0.83,0.15c0.29,0,0.52-0.06,0.68-0.17c0.17-0.11,0.25-0.27,0.25-0.48
				c0-0.19-0.09-0.33-0.28-0.42s-0.48-0.19-0.88-0.29c-0.29-0.08-0.53-0.15-0.74-0.22c-0.21-0.07-0.37-0.15-0.5-0.25
				c-0.13-0.09-0.22-0.2-0.28-0.33c-0.06-0.12-0.09-0.27-0.09-0.45c0-0.23,0.05-0.44,0.14-0.63c0.09-0.18,0.22-0.34,0.38-0.46
				c0.16-0.13,0.35-0.22,0.57-0.29c0.22-0.06,0.45-0.1,0.71-0.1c0.35,0,0.67,0.05,0.97,0.16c0.3,0.11,0.57,0.26,0.8,0.46l-0.41,0.58
				c-0.43-0.34-0.88-0.51-1.37-0.51c-0.25,0-0.45,0.05-0.62,0.15c-0.17,0.1-0.25,0.27-0.25,0.49c0,0.09,0.02,0.17,0.05,0.24
				c0.03,0.06,0.09,0.12,0.17,0.17c0.08,0.05,0.18,0.09,0.31,0.13c0.13,0.04,0.28,0.08,0.47,0.13c0.31,0.08,0.58,0.15,0.81,0.23
				s0.41,0.17,0.56,0.27c0.15,0.1,0.26,0.22,0.33,0.36c0.07,0.14,0.11,0.3,0.11,0.5c0,0.44-0.17,0.79-0.5,1.04
				C144.54,195.55,144.09,195.68,143.52,195.68z"/>
			<path class="st5" d="M151.94,195.68c-0.36,0-0.69-0.06-0.98-0.19c-0.29-0.13-0.54-0.3-0.74-0.52c-0.21-0.22-0.36-0.47-0.48-0.76
				c-0.11-0.29-0.17-0.59-0.17-0.91s0.06-0.62,0.17-0.91c0.11-0.29,0.27-0.55,0.48-0.76c0.21-0.22,0.46-0.39,0.75-0.52
				c0.29-0.13,0.62-0.19,0.97-0.19c0.36,0,0.68,0.07,0.97,0.19c0.29,0.13,0.54,0.3,0.75,0.52c0.21,0.22,0.37,0.47,0.48,0.76
				c0.11,0.29,0.17,0.59,0.17,0.91s-0.06,0.62-0.17,0.91c-0.11,0.29-0.27,0.55-0.48,0.76c-0.21,0.22-0.46,0.39-0.75,0.52
				C152.63,195.62,152.3,195.68,151.94,195.68z M150.57,193.3c0,0.22,0.04,0.43,0.11,0.62c0.07,0.19,0.17,0.35,0.29,0.49
				c0.12,0.14,0.27,0.25,0.44,0.33c0.17,0.08,0.35,0.12,0.54,0.12c0.19,0,0.37-0.04,0.54-0.12c0.17-0.08,0.31-0.19,0.44-0.33
				c0.12-0.14,0.22-0.31,0.29-0.49c0.07-0.19,0.11-0.39,0.11-0.62c0-0.22-0.04-0.42-0.11-0.61c-0.07-0.19-0.17-0.36-0.29-0.5
				c-0.12-0.14-0.27-0.25-0.44-0.33c-0.17-0.08-0.35-0.12-0.54-0.12c-0.19,0-0.37,0.04-0.53,0.12c-0.17,0.08-0.31,0.19-0.44,0.34
				c-0.12,0.14-0.22,0.31-0.29,0.5C150.6,192.88,150.57,193.08,150.57,193.3z"/>
			<path class="st5" d="M162.96,195.59H162v-2.58c0-0.43-0.07-0.75-0.21-0.95c-0.14-0.2-0.34-0.3-0.61-0.3
				c-0.14,0-0.28,0.03-0.42,0.08c-0.14,0.05-0.27,0.13-0.4,0.22c-0.12,0.1-0.23,0.21-0.33,0.34c-0.1,0.13-0.17,0.28-0.22,0.44v2.74
				h-0.97v-4.61h0.88v0.93c0.18-0.31,0.43-0.56,0.77-0.74c0.33-0.18,0.71-0.27,1.11-0.27c0.28,0,0.5,0.05,0.68,0.15
				c0.18,0.1,0.32,0.24,0.42,0.41s0.17,0.37,0.22,0.6c0.04,0.23,0.06,0.47,0.06,0.72V195.59z"/>
			<path class="st5" d="M170.34,191.82c-0.38,0.01-0.71,0.1-1,0.26c-0.29,0.16-0.5,0.39-0.62,0.69v2.82h-0.97v-4.61h0.9v1.03
				c0.16-0.32,0.37-0.57,0.62-0.76c0.26-0.19,0.53-0.3,0.82-0.31c0.06,0,0.11,0,0.14,0c0.04,0,0.07,0,0.1,0.01V191.82z"/>
			<path class="st5" d="M174.7,190.23v-1.07h0.97v1.07H174.7z M174.7,195.59v-4.61h0.97v4.61H174.7z"/>
			<path class="st5" d="M182.17,195.68c-0.37,0-0.74-0.06-1.11-0.18c-0.37-0.12-0.68-0.29-0.95-0.52l0.39-0.62
				c0.28,0.2,0.55,0.35,0.82,0.45c0.27,0.1,0.55,0.15,0.83,0.15c0.29,0,0.52-0.06,0.68-0.17c0.17-0.11,0.25-0.27,0.25-0.48
				c0-0.19-0.09-0.33-0.28-0.42c-0.19-0.09-0.48-0.19-0.88-0.29c-0.29-0.08-0.53-0.15-0.74-0.22c-0.21-0.07-0.37-0.15-0.5-0.25
				c-0.13-0.09-0.22-0.2-0.28-0.33c-0.06-0.12-0.09-0.27-0.09-0.45c0-0.23,0.05-0.44,0.14-0.63c0.09-0.18,0.22-0.34,0.38-0.46
				c0.16-0.13,0.35-0.22,0.57-0.29c0.22-0.06,0.45-0.1,0.71-0.1c0.35,0,0.67,0.05,0.97,0.16c0.3,0.11,0.57,0.26,0.8,0.46l-0.41,0.58
				c-0.43-0.34-0.88-0.51-1.37-0.51c-0.25,0-0.45,0.05-0.62,0.15c-0.17,0.1-0.25,0.27-0.25,0.49c0,0.09,0.02,0.17,0.05,0.24
				c0.03,0.06,0.09,0.12,0.17,0.17c0.08,0.05,0.18,0.09,0.31,0.13c0.13,0.04,0.28,0.08,0.47,0.13c0.31,0.08,0.58,0.15,0.81,0.23
				c0.23,0.08,0.41,0.17,0.56,0.27c0.15,0.1,0.26,0.22,0.33,0.36c0.07,0.14,0.11,0.3,0.11,0.5c0,0.44-0.17,0.79-0.5,1.04
				C183.19,195.55,182.74,195.68,182.17,195.68z"/>
			<path class="st5" d="M189.74,195.68c-0.22,0-0.43-0.04-0.62-0.11c-0.19-0.07-0.36-0.17-0.49-0.3s-0.25-0.28-0.33-0.46
				c-0.08-0.18-0.12-0.37-0.12-0.57c0-0.22,0.05-0.41,0.14-0.59c0.09-0.18,0.23-0.33,0.4-0.46s0.38-0.23,0.62-0.3
				c0.24-0.07,0.5-0.11,0.79-0.11c0.22,0,0.43,0.02,0.64,0.06c0.21,0.04,0.4,0.09,0.57,0.15v-0.32c0-0.34-0.1-0.61-0.29-0.8
				c-0.19-0.19-0.47-0.29-0.84-0.29c-0.25,0-0.49,0.05-0.73,0.14s-0.48,0.22-0.74,0.39l-0.3-0.62c0.59-0.4,1.21-0.6,1.85-0.6
				c0.63,0,1.13,0.16,1.48,0.48c0.35,0.32,0.53,0.79,0.53,1.39v1.67c0,0.21,0.09,0.31,0.26,0.32v0.83
				c-0.09,0.02-0.17,0.03-0.24,0.04s-0.13,0.01-0.2,0.01c-0.19,0-0.33-0.05-0.44-0.14c-0.1-0.09-0.17-0.21-0.19-0.36l-0.03-0.29
				c-0.21,0.27-0.46,0.48-0.76,0.62C190.42,195.61,190.09,195.68,189.74,195.68z M190.01,194.97c0.23,0,0.46-0.04,0.66-0.13
				c0.21-0.09,0.37-0.2,0.49-0.36c0.12-0.11,0.19-0.22,0.19-0.33v-0.61c-0.16-0.06-0.34-0.11-0.52-0.15
				c-0.19-0.04-0.37-0.05-0.54-0.05c-0.35,0-0.63,0.07-0.85,0.22c-0.22,0.15-0.33,0.35-0.33,0.59c0,0.23,0.09,0.42,0.26,0.58
				C189.53,194.89,189.74,194.97,190.01,194.97z"/>
		</g>
	</g>
	<g>
		<g>
			<path class="st3" d="M158.76,19.02c-0.71,0-1.37-0.12-1.96-0.36c-0.6-0.24-1.11-0.58-1.55-1c-0.44-0.43-0.78-0.93-1.03-1.51
				c-0.25-0.58-0.37-1.21-0.37-1.9c0-0.68,0.12-1.3,0.37-1.88s0.59-1.08,1.03-1.5c0.44-0.42,0.96-0.75,1.55-0.99
				c0.6-0.24,1.25-0.36,1.96-0.36c0.71,0,1.37,0.12,1.97,0.36c0.6,0.24,1.12,0.57,1.57,0.99c0.44,0.42,0.79,0.92,1.04,1.5
				c0.25,0.58,0.38,1.21,0.38,1.88c0,0.68-0.13,1.32-0.38,1.9c-0.25,0.58-0.6,1.08-1.04,1.51c-0.44,0.43-0.97,0.76-1.57,1
				C160.13,18.9,159.48,19.02,158.76,19.02z M158.76,18.46c0.61,0,1.17-0.1,1.69-0.3c0.52-0.2,0.98-0.49,1.37-0.86
				c0.39-0.37,0.7-0.81,0.92-1.32c0.22-0.51,0.33-1.08,0.33-1.71c0-0.59-0.11-1.14-0.32-1.65c-0.22-0.51-0.52-0.95-0.9-1.32
				c-0.39-0.37-0.84-0.67-1.37-0.88c-0.53-0.21-1.1-0.32-1.71-0.32c-0.62,0-1.19,0.11-1.71,0.32c-0.52,0.22-0.97,0.51-1.35,0.88
				c-0.38,0.37-0.68,0.81-0.89,1.32c-0.21,0.5-0.32,1.05-0.32,1.64c0,0.6,0.11,1.15,0.32,1.66c0.21,0.51,0.51,0.95,0.89,1.33
				c0.38,0.38,0.83,0.67,1.35,0.89C157.57,18.35,158.14,18.46,158.76,18.46z M156.68,11.33h2.54c0.26,0,0.51,0.05,0.73,0.16
				c0.22,0.11,0.41,0.25,0.57,0.43c0.16,0.18,0.28,0.38,0.37,0.61c0.09,0.23,0.14,0.46,0.14,0.7c0,0.4-0.11,0.75-0.32,1.07
				c-0.22,0.32-0.5,0.53-0.85,0.65l1.41,2.23h-1.17l-1.29-2.04h-1.09v2.04h-1.04V11.33z M159.16,14.23c0.27,0,0.48-0.09,0.63-0.27
				c0.15-0.18,0.22-0.42,0.22-0.72c0-0.31-0.09-0.55-0.26-0.72c-0.17-0.17-0.38-0.26-0.64-0.26h-1.4v1.96H159.16z"/>
		</g>
	</g>
</g>
</svg>
