<?xml version="1.0" encoding="utf-8"?>
<!-- Generator: Adobe Illustrator 24.1.2, SVG Export Plug-In . SVG Version: 6.00 Build 0)  -->
<svg version="1.1" id="Capa_1" xmlns="http://www.w3.org/2000/svg" xmlns:xlink="http://www.w3.org/1999/xlink" x="0px" y="0px"
	 viewBox="0 0 239.49 84.74" style="enable-background:new 0 0 239.49 84.74;" xml:space="preserve">
<style type="text/css">
	.st0{fill:#919392;}
	.st1{font-family:'CachetStd-Medium';}
	.st2{font-size:9.5811px;}
	.st3{fill:url(#SVGID_1_);}
</style>
<g>
	<g>
		<g>
			<g>
				<path class="st0" d="M234.96,19.59c-1.2,0-2.37-0.27-3.21-1.18c-0.93-1-1.13-2.21-1.13-3.53c0-1.32,0.2-2.53,1.13-3.53
					c0.85-0.92,2.02-1.18,3.22-1.18c3.09,0,4.51,1.63,4.51,4.66C239.49,17.89,238.12,19.59,234.96,19.59z M237.54,12.27
					c-0.44-0.85-1.6-1.02-2.46-1.02s-2.05,0.18-2.52,1.01c-0.41,0.74-0.59,1.79-0.59,2.62c0,0.84,0.18,1.88,0.59,2.62
					c0.47,0.83,1.67,1.01,2.54,1.01c0.87,0,1.99-0.19,2.44-1.02c0.41-0.78,0.61-1.69,0.61-2.57
					C238.16,14.02,237.98,13.09,237.54,12.27z M236.78,17.23h-0.44c-0.21,0-0.36-0.03-0.5-0.2l-1.23-1.47h-0.16v1.32
					c0,0.42-0.39,0.35-0.69,0.35c-0.26,0-0.4-0.06-0.4-0.35v-4c0-0.27,0.16-0.34,0.4-0.34h1.37c0.5,0,0.92-0.03,1.3,0.34
					c0.34,0.34,0.4,0.88,0.4,1.33c0,0.67-0.24,1.17-0.94,1.31l1.07,1.2c0.06,0.07,0.12,0.18,0.12,0.27
					C237.09,17.18,236.93,17.23,236.78,17.23z M235.59,13.48c-0.08-0.04-0.39-0.04-0.5-0.04h-0.21c-0.18,0-0.42-0.04-0.42,0.2v1.04
					h0.78c0.44,0,0.52-0.08,0.52-0.52C235.76,14.01,235.76,13.56,235.59,13.48z"/>
			</g>
			<g>
				<text transform="matrix(1 -8.199997e-04 8.199997e-04 1 123.1813 78.4787)" class="st0 st1 st2">Vivir bien, vivir mejor</text>
				<g>
					<path class="st0" d="M145.71,54.36c-3.2,1-7.48,1.27-10.81,1.27c-16.22,0-20.09-7.61-20.09-22.63c0-7.88,0.73-18.22,9.15-21.69
						c3.34-1.34,7.34-1.6,10.95-1.6c3.27,0,6.67,0.13,9.95,0.47c2.07,0.2,4.14,0.47,4.14,3v2.2c0,2.67-0.47,3.87-3.34,3.87
						c-1.13,0-2.2-0.13-3.34-0.27c-2-0.2-4.07-0.27-6.07-0.27c-1.8,0-5.41,0.13-7.01,0.8c-4.34,1.87-3.67,9.75-3.67,13.55
						c0,4.87-0.47,12.15,5.67,13.28c1.6,0.33,3.34,0.27,5.01,0.27c0.8,0,1.6-0.13,2.4-0.27V35.74h-5.34c-3.4,0-3.6-2-3.6-4.67
						c0-2.47,0.93-3.81,3.6-3.81h12.15c2.27,0,3.67,1.13,3.67,3.47v19.56C149.12,52.76,147.98,53.69,145.71,54.36z"/>
					<path class="st0" d="M190.9,39.41c-4.2,2-10.88,1.47-15.42,1.47v10.28c0,4.2-3.47,3.6-6.47,3.6c-2.54,0-4.01-0.87-4.01-3.6
						V13.58c0-2.67,1.67-3.4,4.01-3.4h12.42c4.67,0,8.48-0.2,12.02,3.27c3.14,3.14,3.67,8.41,3.67,12.62
						C197.11,31.33,196.1,36.94,190.9,39.41z M175.48,19.12V32h7.21c1,0,2.67-0.07,3.34-0.93c0.67-0.87,0.67-3.61,0.67-4.74
						c0-1.54,0.13-6.14-1.4-6.88c-0.8-0.4-3.14-0.4-4.14-0.4C179.28,19.05,177.35,19.05,175.48,19.12z"/>
					<path class="st0" d="M218.99,54.76h-2.87c-2.54,0-4.01-0.87-4.01-3.6V13.58c0-2.67,1.67-3.4,4.01-3.4h2.87
						c2.27,0,3.6,1.07,3.6,3.4v37.58C222.6,53.56,221.39,54.76,218.99,54.76z"/>
				</g>
			</g>
		</g>
		<linearGradient id="SVGID_1_" gradientUnits="userSpaceOnUse" x1="-13.4202" y1="92.5785" x2="122.8002" y2="-30.0198">
			<stop  offset="0" style="stop-color:#630E41"/>
			<stop  offset="0.2821" style="stop-color:#640E37"/>
			<stop  offset="0.7558" style="stop-color:#690D1D"/>
			<stop  offset="1" style="stop-color:#6B0D0D"/>
		</linearGradient>
		<path class="st3" d="M72.12,0H12.62C5.68,0,0,5.68,0,12.62v59.51c0,6.94,5.68,12.62,12.62,12.62h59.51
			c6.94,0,12.62-5.68,12.62-12.62V12.62C84.74,5.68,79.06,0,72.12,0z M22.34,27.31c0.52-2.25,1.02-4.51,1.64-6.74
			c0.16-0.56,0.65-1.24,1.16-1.46c8.3-3.65,16.63-7.23,24.96-10.8c0.4-0.17,1.01-0.14,1.43,0.03c4.43,1.82,8.84,3.7,13.27,5.51
			c1.06,0.43,1.47,0.99,1.43,2.18c-0.1,3.04-0.04,6.09-0.04,9.14c0,0.42,0,0.83,0,1.51c-3.91-1.65-7.53-3.17-11.15-4.7
			c-1.22-0.52-2.43-1.07-3.67-1.53c-0.35-0.13-0.85-0.15-1.19,0c-9.19,3.95-18.37,7.93-27.56,11.9c-0.43,0.18-0.87,0.34-1.55,0.61
			C21.53,30.94,21.92,29.12,22.34,27.31z M17.05,49.97c0.6-2.63,1.19-5.26,1.88-7.86c0.11-0.43,0.62-0.88,1.06-1.07
			c9.91-4.34,19.83-8.66,29.77-12.92c0.59-0.25,1.46-0.25,2.06-0.01c5.69,2.34,11.35,4.78,17.03,7.15c0.86,0.36,1.2,0.86,1.17,1.83
			c-0.07,3.13-0.02,6.26-0.03,9.39c0,0.41-0.04,0.83-0.08,1.45c-2.16-0.9-4.15-1.73-6.15-2.58c-4.06-1.71-8.1-3.45-12.18-5.12
			c-0.45-0.18-1.1-0.22-1.53-0.03c-5.94,2.53-11.85,5.13-17.77,7.68c-5.34,2.3-10.68,4.56-16.26,6.94
			C16.39,53.08,16.69,51.52,17.05,49.97z M73.81,69.27c-2.06-0.86-3.93-1.64-5.8-2.44c-5.35-2.27-10.71-4.53-16.05-6.84
			c-0.92-0.4-1.68-0.27-2.55,0.11c-12.6,5.45-25.21,10.86-37.82,16.28c-0.14,0.06-0.3,0.07-0.67,0.15c0.35-1.6,0.65-3.04,0.99-4.48
			c0.58-2.5,1.26-4.98,1.75-7.5c0.2-1.03,0.66-1.56,1.57-1.94c9.03-3.83,18.06-7.65,27.05-11.58c2.35-1.02,4.63-2.45,7.12-3.08
			c1.79-0.45,3.38,0.19,5.05,0.91c6.17,2.64,12.35,5.25,18.51,7.92c0.35,0.15,0.8,0.62,0.81,0.95
			C73.83,61.48,73.81,65.25,73.81,69.27z"/>
	</g>
</g>
</svg>
