<?xml version="1.0" encoding="utf-8"?>
<!-- Generator: Adobe Illustrator 24.1.2, SVG Export Plug-In . SVG Version: 6.00 Build 0)  -->
<svg version="1.1" id="Capa_1" xmlns="http://www.w3.org/2000/svg" xmlns:xlink="http://www.w3.org/1999/xlink" x="0px" y="0px"
	 viewBox="0 0 386.22 98.83" style="enable-background:new 0 0 386.22 98.83;" xml:space="preserve">
<style type="text/css">
	.st0{fill:#C72429;}
	.st1{fill:#191E25;}
</style>
<g>
	<g>
		<path class="st0" d="M85.14,35.79c-0.73,1.13-0.65,2.6,0.2,3.64l21.96,26.97c0.61,0.74,1.5,1.14,2.41,1.14c0.5,0,1-0.12,1.46-0.36
			c1.31-0.7,1.94-2.22,1.51-3.64l-12.61-41.42c-0.35-1.16-1.34-2-2.54-2.17c-1.19-0.17-2.38,0.37-3.04,1.39L85.14,35.79z
			 M96.07,30.32l6.06,19.9L91.58,37.27L96.07,30.32z"/>
		<path class="st0" d="M120.15,93.16L72.7,38.59L94.15,4.97c0.61-0.95,0.65-2.16,0.11-3.16c-0.54-0.99-1.58-1.61-2.71-1.62
			L59.32,0.09c-1.02,0-1.95,0.48-2.53,1.3l-9.36,13.07L35.83,1.07c-0.73-0.84-1.86-1.23-2.95-1.01c-1.09,0.22-1.99,1.01-2.34,2.07
			L0.16,93.83c-0.31,0.94-0.15,1.98,0.43,2.79c0.58,0.81,1.51,1.29,2.51,1.29l39.98,0.13c0,0,0.01,0,0.01,0c1,0,1.94-0.48,2.52-1.29
			l11.81-16.44l13.31,16.63l0.02,0.03l0,0l0.01,0.02c0.59,0.73,1.47,1.16,2.41,1.16l44.62,0.15c0,0,0.01,0,0.01,0
			c1.21,0,2.32-0.71,2.82-1.81C121.13,95.38,120.95,94.08,120.15,93.16z M96.85,75.83L85.29,91.98l-10.6-0.04L35.33,42.03
			l14.86-20.75c0,0,0,0,0,0l3.34-4.67l2.34-3.27l14.67,17.11l-4.31,6.76c-0.74,1.16-0.63,2.67,0.27,3.71L96.85,75.83z M74.02,24.98
			L59.59,8.13L60.9,6.3l24.98,0.08L74.02,24.98z M34.72,9.26l9,10.39L20.56,52L34.72,9.26z M41.5,91.83L7.4,91.72l6.58-19.86
			l17.59-24.58l21.95,27.83L41.5,91.83z M92.91,92.01l8.13-11.36l9.93,11.43L92.91,92.01z"/>
	</g>
	<g>
		<g>
			<path class="st1" d="M212.99,77.42c-12.62-0.04-19.33-8.77-19.3-19.09c0.04-12.45,8.78-23.34,23.88-23.29
				c12.79,0.04,19.25,8.6,19.21,19.17C236.74,66.49,227.66,77.46,212.99,77.42z M221.34,54.84c0.01-3.92-1.43-7.08-5.18-7.1
				c-5.03-0.02-6.93,4.84-6.94,9.7c-0.01,4.27,1.94,7.34,5.1,7.35C218.32,64.81,221.32,60.55,221.34,54.84z"/>
			<path class="st1" d="M262.39,72.04c0.05,1.34-0.74,2.58-1.99,3.06c-1.95,0.75-5.1,1.69-8.77,1.67
				c-9.21-0.03-11.16-4.73-10.36-12.32l4.62-42.35c0.4-3.65,3.05-6.65,6.63-7.49l8.01-1.88c0.89-0.21,1.71,0.52,1.61,1.43
				l-5.17,47.52c-0.26,2.22-0.01,2.9,1.7,2.91c0.01,0,0.02,0,0.04,0c1.87-0.01,3.45,1.38,3.53,3.26L262.39,72.04z"/>
			<path class="st1" d="M287.92,66.1c0.23,5.91-4.43,10.76-10.34,10.76l-0.18,0c-9.21-0.03-11.16-4.73-10.36-12.32l4.55-41.76
				c0.44-4,3.35-7.29,7.27-8.21l7.68-1.8c0.77-0.18,1.49,0.45,1.4,1.24l-5.19,47.76c-0.26,2.22-0.01,2.9,1.7,2.91
				c0.43,0,0.99-0.07,1.53-0.17C286.96,64.34,287.88,65.09,287.92,66.1L287.92,66.1z"/>
			<path class="st1" d="M386.22,72.02c0.07,1.52-0.79,2.93-2.18,3.55c-1.73,0.78-4.29,1.64-7.18,1.63
				c-4.18-0.01-8.36-1.05-9.88-5.49l-0.09,0c-1.29,2.21-4.71,6.21-12.81,6.18c-9.47-0.03-13.96-7.81-13.93-18.3
				c0.05-14.84,10.32-24.11,24.05-24.06c8.98,0.03,14.21,2.76,17.02,5.05c1.81,1.48,2.76,3.76,2.51,6.09l-1.71,16.13
				c-0.18,1.7,0.33,2.22,1.95,2.23c0.3,0,0.76-0.13,1.15-0.29c0.73-0.3,0.79,0.98,0.79,0.98L386.22,72.02z M368.52,51.34
				c0.13-1.18-0.5-2.31-1.57-2.81c-0.95-0.44-2.38-0.8-4.49-0.81c-3.41-0.01-6.92,3.64-6.95,10.98c-0.02,4.95,1.85,6.92,5.27,6.93
				c1.8,0.01,3.26-0.54,4.39-1.23c1.34-0.82,2.16-2.28,2.33-3.85L368.52,51.34z"/>
		</g>
		<g>
			<path class="st1" d="M154.68,62.05"/>
			<path class="st1" d="M154.68,62.05c0,0,3.16-28.9,3.17-28.96l0.37-3.38c0.82-7.47-5.27-13.97-12.91-13.49
				c-1.01,0.06-1.92,0.95-2.03,1.95l-6.02,55.2c-0.14,1.25,0.78,2.39,2.04,2.48c7.75,0.58,14.45-5.09,15.27-12.7l0.11-1.05
				c0,0,0,0,0,0L154.68,62.05z"/>
			<polygon class="st1" points="154.68,62.1 154.68,62.1 154.68,62.05 			"/>
		</g>
		<path class="st1" d="M189.48,66.33c-0.36-1.69-2.09-2.66-3.81-2.46c-0.29,0.03-0.58,0.05-0.88,0.05c-1.45,0-2.56-0.43-3.66-2.91
			l-4.49-10.34c5.82-4.15,9.47-10.96,11.79-20.22c1.8-7.22-3.84-14.18-11.29-14.15c-1.45,0.01-2.64,1.18-2.82,2.62
			c-2.21,17.55-5.81,21.55-12.95,22.07c-0.78,0.06-1.41,0.69-1.49,1.47l-1.32,12.39c0,0,0,0,0,0c0,0,0,0,0,0
			c0,0.27,0.21,0.48,0.48,0.49l0.04,0l0.91,0c0.72,0,1.36,0.46,1.59,1.14l2.57,7.7c2.28,6.75,6.1,12.3,14.72,12.33
			c1.47,0,2.87-0.14,4.15-0.36C187.55,75.37,190.44,70.84,189.48,66.33z"/>
		<g>
			<path class="st1" d="M322.74,35.39c-6.57-0.02-10.07,2.61-11.96,4.91l0.01-0.11c0.25-2.36-1.9-4.27-4.22-3.72l-0.56,0.13
				c-6.24,1.47-10.88,6.71-11.57,13.09l-4.93,45.25c-0.23,2.07,1.4,3.97,3.49,3.89c6.57-0.25,12.02-5.29,12.73-11.89l0.66-6.08
				c0,0,2.22-26.61,2.23-26.64l0,0c0.16-1.88,1.04-3.67,2.57-4.78c1.14-0.82,2.6-1.45,4.44-1.45c3.67,0.01,5.62,2.41,5.61,7.27
				c-0.02,6.74-3.62,9.88-7.37,9.87c-0.39,0-0.75-0.02-1.09-0.06c-0.31-0.03-0.62-0.11-0.93-0.21c-0.13-0.04-0.26-0.08-0.38-0.13
				c-0.05-0.02-0.1-0.04-0.14-0.05c-0.06-0.02-0.12-0.05-0.2-0.07c-0.17-0.03-0.33,0.11-0.34,0.31l-0.72,9.02
				c-0.14,1.69,1.02,3.22,2.69,3.51c1.09,0.19,2.38,0.3,3.89,0.31c10.83,0.04,19.99-9.06,20.04-24.07
				C336.7,43.2,332.21,35.42,322.74,35.39z"/>
		</g>
	</g>
</g>
</svg>
