<?xml version="1.0" encoding="utf-8"?>
<!-- Generator: Adobe Illustrator 24.1.2, SVG Export Plug-In . SVG Version: 6.00 Build 0)  -->
<svg version="1.1" id="Capa_1" xmlns="http://www.w3.org/2000/svg" xmlns:xlink="http://www.w3.org/1999/xlink" x="0px" y="0px"
	 viewBox="0 0 453.64 296.17" style="enable-background:new 0 0 453.64 296.17;" xml:space="preserve">
<style type="text/css">
	.st0{fill:#EE9D2E;}
	.st1{fill:#401665;}
	.st2{fill:none;stroke:#423534;stroke-width:2.6157;stroke-miterlimit:10;}
	.st3{fill:#FFFFFF;}
</style>
<g>
	<g>
		<path class="st0" d="M132.71,6.72c-0.59,0.14-1.18,0.3-1.73,0.47c-32.16,9.57-64.53,18.6-96.84,27.78
			c-2.94,0.84-6.38,1.41-9.17,2.62C18.07,39.6-0.91,42.48,0.03,51.61c0.48,4.65,6.72,5.57,10.99,4.81
			c3.11-0.56,27.63-8.09,27.61-9.39l-2.71,106.73l0.09,0.28c0.98,3.07,4.6,4.41,8.66,3.15c5.43-1.67,6.89-5.95,7.2-10.49
			c2.22-32.53,5.27-65.01,7.7-97.53c0.21-2.78,0.49-5.57,0.56-8.36c0,0,74.45-21.98,74.45-21.98c4.37-1.38,7.6-4.25,6.56-8.59
			c-0.27-1.13-0.83-2.25-1.85-2.99C137.52,5.97,135.04,6.17,132.71,6.72z"/>
		<path class="st0" d="M123.59,41.78c-0.07-1.5-1.44-3.06-7.59-2.02c-3.19,0.54-5.95,1.21-7.48,4.02c0,0-0.14,0.26-0.14,0.51
			c-0.2,18.62,0.31,59.66-10,61.13c-13.08,1.87-10.56-33.76-10.18-42.26c0.42-9.52,0.42-11.83-0.31-12.4
			c-1.08-1.77-5.75-1.78-9.65-0.73c-3.92,1.04-5.39,2.68-5.45,3.87c0,0,0.04,5.16,0.04,5.16c0.11,12.42-0.76,25.01,2.17,37.26
			c1.43,6,3.64,12.7,9.17,16.9c10.94,8.3,24.85,0.86,30.03-8.61c9.6-17.56,9.39-39.87,9.41-58.89
			C123.6,44.4,123.65,43.08,123.59,41.78z"/>
		<path class="st0" d="M192.61,8.71c-4.55,1.14-9.11,4.75-9.82,10.19l-1.04,73.2c0,0-24.56,7.2-24.74,7.24
			c0.03-0.66,0.59-6.73,0.59-6.73c0.33-4.2-1.06-7.62-7.01-6.78c-2.37,0.34-7.81,1.9-8.34,7.47c-0.61,6.37-0.55,12.76-0.46,19.15
			c0.04,2.63,0.32,27.34,0.86,29.06c0.89,2.85,4.16,3.24,7.11,1.64c3.73-2.01,4.68-6.21,5.08-9.71c0.12-1.06,1.61-20.78,1.61-20.78
			c0,0,24.52-7.51,24.52-7.51c-0.09,8.71,0.02,5.55,0.27,14.24c0.13,4.7,5.24,5.81,9.22,3.17c2.54-1.69,3.42-4.94,3.62-7.55
			c0.05-0.67,5.5-92.58,6.09-100.1C200.51,10.44,196.06,7.84,192.61,8.71z"/>
		<path class="st0" d="M141.23,150.93c-0.15-0.41-0.31-0.82-0.48-1.22c-1.03-2.31-3.92-2.5-6.38-1.84
			c-4.88,1.31-6.12,2.49-6.77,4.58c-0.2,0.36-2.26,8.07-18.83,89.85c-0.05,1.52,1.35,5.12,4.81,4.19c5.24-1.4,5.6-2.85,6.21-8.52
			l4.36-16.94l16.69-4.47c0,0,0.98,11.32,1,11.39c0.82,3.48,6.45,0.02,7.55-0.94c3.76-3.27,2.45-7.34,2.01-11.33
			c-1.52-13.6-3.69-27.14-5.92-40.66c-0.7-4.25-1.42-8.49-2.15-12.73C142.69,158.62,142.5,154.52,141.23,150.93z M127.72,210.23
			l6.71-36.83l5.11,33.89L127.72,210.23z"/>
		<path class="st0" d="M191.2,175.79c1.22-3.21,19.58-51.55,19.58-51.55c1.5-3.14,1.57-5.41,0.2-6.75
			c-1.18-1.16-3.53-1.84-6.15-0.92c-3.78,1.33-8.79,6.28-10.1,9.78c-0.27,0.71-19.7,49.75-19.7,49.75l1.19-32.87
			c0.35-5.6-3.52-5.98-6.81-5.31c-4.13,0.84-7.51,3.95-7.88,7.24c0,0,2.21,85.52,2.2,85.74c-0.19,2.67,1.81,4.49,5.29,4.12
			c5.9-0.64,13.78-40.92,13.78-40.92c0.93-2.25,1.44-3.72,1.37-3.83c0,0,6.41,8.13,9.2,12.1c0.51,0.73,1.05,1.48,1.9,1.96
			c0.81,0.46,1.83,0.62,2.81,0.6c3.41-0.07,6.15-1.99,5.58-4.83c-0.42-2.07-1.33-4.09-2.25-6.05c-2.22-4.74-4.91-9.34-7.64-13.9
			C193.33,179.43,190.9,176.59,191.2,175.79z"/>
		<path class="st0" d="M218.54,40.72c4.87,0.46,3.45,18.84,3.45,18.84l-1.83,38.87c-0.13,2.93-0.72,7.39-4.84,7.35
			c-3.23-0.03-6.18-3.38-7.14-5.88c-2.65-6.88,0.02-42.99,0.02-42.99c0.27-4.35-0.33-11.99,3.95-15.22
			c1.52-1.24,3.67-1.67,5.68-1.17C218.06,40.56,218.28,40.69,218.54,40.72z"/>
		<path class="st0" d="M215.29,35.9c-2.56-0.93-4.41-2.86-5.28-5.11c-0.7-1.81-0.82-3.76-0.74-5.67c0.05-1.21,0.2-2.46,0.9-3.51
			c1.18-1.75,3.42-1.91,5.42-1.19c3.58,1.3,5.99,4.75,6.52,7.98C222.71,31.99,220.91,37.94,215.29,35.9z"/>
		<path class="st0" d="M226.15,151.23c4.87,0.46,3.45,18.84,3.45,18.84l-1.43,19.84c-0.13,2.93-0.72,7.39-4.84,7.35
			c-3.23-0.03-6.18-3.38-7.14-5.88c-2.65-6.88-0.38-23.97-0.38-23.97c0.27-4.35-0.33-11.99,3.95-15.22
			c1.52-1.24,3.67-1.67,5.68-1.17C225.67,151.07,225.89,151.2,226.15,151.23z"/>
		<path class="st0" d="M222.9,146.41c-2.56-0.93-4.41-2.86-5.28-5.11c-0.7-1.81-0.82-3.76-0.74-5.67c0.05-1.21,0.2-2.46,0.9-3.51
			c1.18-1.75,3.42-1.91,5.42-1.19c3.58,1.3,5.99,4.75,6.52,7.98C230.32,142.5,228.52,148.45,222.9,146.41z"/>
		<path class="st0" d="M133.44,135.96c1.01-4.01-2.36-19.57-2.36-19.57l-0.02,0.02c-0.03-0.29-0.03-0.57-0.07-0.86
			c-0.5-4.32-7.91-2.92-11.52-1.05c-5.42,2.81-6.74,10.01-8.66,14.65c-5.26,12.69-9.64,25.61-15.47,38.15
			c-6.06-11.64-12.16-23.28-18.24-34.91c-1.16-2.22-4.02-2.73-7.25-1.32c-3.55,1.55-7.38,5.44-7.38,9.02c0,0-7.4,85.31-7.75,90.75
			c-0.08,1.22-0.13,1.99-0.12,3.12c0,1.52-0.01,2.83,1.28,3.5c1.26,0.65,3.05,0.2,4.63-0.26c6.69-1.97,7.81-5.44,8.61-10.79
			c1.05-7.05,2.21-14.09,3.33-21.14c2.21-13.88,4.28-27.79,5.03-41.78c1.44,2.94,7.85,15.05,12.71,24.22
			c1.98,3.73,8.62,3.45,10.14-0.41l21.75-51.69c0,0-0.31,4.22,1.92,4.86C127.32,141.42,132.69,138.93,133.44,135.96z"/>
		<path class="st0" d="M149.59,77.79c-7.88-1.17-13.51-7.6-15.35-14.96c-3.24-12.97,2.17-31.75,16.8-38.4
			c5.94-2.62,13.15-1.36,17.04,3.49c2.85,3.56,3.24,8.41,1.26,12.39c-0.97,1.95-2.51,3.72-4.56,4.89c-0.69,0.39-1.48,0.72-2.3,0.69
			c-1.69-0.07-2.81-1.64-2.9-3.1c-0.09-1.46,0.53-2.87,0.82-4.3c0.29-1.44,0.14-3.11-1.14-4.06c-1.16-0.87-2.95-0.86-4.33-0.29
			c-1.38,0.57-2.43,1.61-3.33,2.68c-4.19,4.94-6.1,11.23-5.53,17.31c0.43,4.5,2.99,13.41,10.42,10.81c4.11-1.44,6.43-4.2,9.03-7.17
			c0.76-0.87,1.61-1.74,2.78-2.15c1.23-0.42,2.71-0.22,3.73,0.5c8.08,5.73-8.22,19.25-14.02,20.97
			C155,77.99,152.18,78.17,149.59,77.79z"/>
	</g>
	<g>
		<path class="st1" d="M140.37,0.43c-0.59,0.14-1.18,0.3-1.73,0.47c-20.62,6.13-41.31,12.08-62.03,17.94
			c-10.36,2.93-20.73,5.84-31.1,8.74c-9.4,2.63-19.6,4.6-28.58,8.17c-4.47,1.78-9.73,4.71-9.24,9.57c0.48,4.65,6.72,5.57,10.99,4.81
			c3.11-0.56,27.63-8.09,27.61-9.39l-2.71,106.73l0.09,0.28c0.98,3.07,4.6,4.41,8.66,3.15c5.43-1.67,6.89-5.95,7.2-10.49
			c2.22-32.53,5.27-65.01,7.7-97.53c0.21-2.78,0.49-5.57,0.56-8.36c0,0,74.45-21.98,74.45-21.98c4.37-1.38,7.6-4.25,6.56-8.59
			c-0.27-1.13-0.83-2.25-1.85-2.99C145.18-0.33,142.7-0.12,140.37,0.43z"/>
		<path class="st1" d="M131.25,35.48c-0.07-1.5-1.44-3.06-7.59-2.02c-3.19,0.54-5.95,1.21-7.48,4.02c0,0-0.14,0.26-0.14,0.51
			c-0.2,18.62,0.31,59.66-10,61.13c-13.08,1.87-10.56-33.76-10.18-42.26c0.42-9.52,0.42-11.83-0.31-12.4
			c-1.08-1.77-5.75-1.78-9.65-0.73c-3.92,1.04-5.39,2.68-5.45,3.87c0,0,0.04,5.16,0.04,5.16c0.11,12.42-0.76,25.01,2.17,37.26
			c1.43,6,3.64,12.7,9.17,16.9c10.94,8.3,24.85,0.86,30.03-8.61c9.6-17.56,9.39-39.87,9.41-58.89
			C131.25,38.11,131.31,36.79,131.25,35.48z"/>
		<path class="st1" d="M200.26,2.41c-4.55,1.14-9.11,4.75-9.82,10.19l-1.04,73.2c0,0-24.56,7.2-24.74,7.24
			c0.03-0.66,0.59-6.73,0.59-6.73c0.33-4.2-1.06-7.62-7.01-6.78c-2.37,0.34-7.81,1.9-8.34,7.47c-0.61,6.37-0.55,12.76-0.46,19.15
			c0.04,2.63,0.32,27.34,0.86,29.06c0.89,2.85,4.16,3.24,7.11,1.64c3.73-2.01,4.68-6.21,5.08-9.71c0.12-1.06,1.61-20.78,1.61-20.78
			c0,0,24.52-7.51,24.52-7.51c-0.09,8.71,0.02,5.55,0.27,14.24c0.13,4.7,5.24,5.81,9.22,3.17c2.54-1.69,3.42-4.94,3.62-7.55
			c0.05-0.67,5.5-92.58,6.09-100.1C208.16,4.15,203.72,1.55,200.26,2.41z"/>
		<path class="st1" d="M148.89,144.64c-0.15-0.41-0.31-0.82-0.48-1.22c-1.03-2.31-3.92-2.5-6.38-1.84
			c-4.88,1.31-6.12,2.49-6.77,4.58c-0.2,0.36-2.26,8.07-18.83,89.85c-0.05,1.52,1.35,5.12,4.81,4.19c5.24-1.4,5.6-2.85,6.21-8.52
			l4.36-16.94l16.69-4.47c0,0,0.98,11.32,1,11.39c0.82,3.48,6.45,0.02,7.55-0.94c3.76-3.27,2.45-7.34,2.01-11.33
			c-1.52-13.6-3.69-27.14-5.92-40.66c-0.7-4.25-1.42-8.49-2.15-12.73C150.35,152.33,150.16,148.22,148.89,144.64z M135.38,203.93
			l6.71-36.83l5.11,33.89L135.38,203.93z"/>
		<path class="st1" d="M198.86,169.49c1.22-3.21,19.58-51.55,19.58-51.55c1.5-3.14,1.57-5.41,0.2-6.75
			c-1.18-1.16-3.53-1.84-6.15-0.92c-3.78,1.33-8.79,6.28-10.1,9.78c-0.27,0.71-19.7,49.75-19.7,49.75l1.19-32.87
			c0.35-5.6-3.52-5.98-6.81-5.31c-4.13,0.84-7.51,3.95-7.88,7.24c0,0,2.21,85.52,2.2,85.74c-0.19,2.67,1.81,4.49,5.29,4.12
			c5.9-0.64,13.78-40.92,13.78-40.92c0.93-2.25,1.44-3.72,1.37-3.83c0,0,6.41,8.13,9.2,12.1c0.51,0.73,1.05,1.48,1.9,1.96
			c0.81,0.46,1.83,0.62,2.81,0.6c3.41-0.07,6.15-1.99,5.58-4.83c-0.42-2.07-1.33-4.09-2.25-6.05c-2.22-4.74-4.91-9.34-7.64-13.9
			C200.98,173.13,198.55,170.29,198.86,169.49z"/>
		<path class="st1" d="M226.19,34.42c4.87,0.46,3.45,18.84,3.45,18.84l-1.83,38.87c-0.13,2.93-0.72,7.39-4.84,7.35
			c-3.23-0.03-6.18-3.38-7.14-5.88c-2.65-6.88,0.02-42.99,0.02-42.99c0.27-4.35-0.33-11.99,3.95-15.22
			c1.52-1.24,3.67-1.67,5.68-1.17C225.72,34.26,225.94,34.4,226.19,34.42z"/>
		<path class="st1" d="M222.95,29.61c-2.56-0.93-4.41-2.86-5.28-5.11c-0.7-1.81-0.82-3.76-0.74-5.67c0.05-1.21,0.2-2.46,0.9-3.51
			c1.18-1.75,3.42-1.91,5.42-1.19c3.58,1.3,5.99,4.75,6.52,7.98C230.37,25.7,228.57,31.65,222.95,29.61z"/>
		<path class="st1" d="M233.8,144.93c4.87,0.46,3.45,18.84,3.45,18.84l-1.43,19.84c-0.13,2.93-0.72,7.39-4.84,7.35
			c-3.23-0.03-6.18-3.38-7.14-5.88c-2.65-6.88-0.38-23.97-0.38-23.97c0.27-4.35-0.33-11.99,3.95-15.22
			c1.52-1.24,3.67-1.67,5.68-1.17C233.33,144.77,233.55,144.91,233.8,144.93z"/>
		<path class="st1" d="M230.56,140.12c-2.56-0.93-4.41-2.86-5.28-5.11c-0.7-1.81-0.82-3.76-0.74-5.67c0.05-1.21,0.2-2.46,0.9-3.51
			c1.18-1.75,3.42-1.91,5.42-1.19c3.58,1.3,5.99,4.75,6.52,7.98C237.98,136.21,236.18,142.16,230.56,140.12z"/>
		<path class="st1" d="M141.09,129.67c1.01-4.01-2.36-19.57-2.36-19.57l-0.02,0.02c-0.03-0.29-0.03-0.57-0.07-0.86
			c-0.5-4.32-7.91-2.92-11.52-1.05c-5.42,2.81-6.74,10.01-8.66,14.65c-5.26,12.69-9.64,25.61-15.47,38.15
			c-6.06-11.64-12.16-23.28-18.24-34.91c-1.16-2.22-4.02-2.73-7.25-1.32c-3.55,1.55-7.38,5.44-7.38,9.02c0,0-7.4,85.31-7.75,90.75
			c-0.08,1.22-0.13,1.99-0.12,3.12c0,1.52-0.01,2.83,1.28,3.5c1.26,0.65,3.05,0.2,4.63-0.26c6.69-1.97,7.81-5.44,8.61-10.79
			c1.05-7.05,2.21-14.09,3.33-21.14c2.21-13.88,4.28-27.79,5.03-41.78c1.44,2.94,7.85,15.05,12.71,24.22
			c1.98,3.73,8.62,3.45,10.14-0.41l21.75-51.69c0,0-0.31,4.22,1.92,4.86C134.98,135.13,140.34,132.63,141.09,129.67z"/>
		<path class="st1" d="M157.25,71.49c-7.88-1.17-13.51-7.6-15.35-14.96c-3.24-12.97,2.17-31.75,16.8-38.4
			c5.94-2.62,13.15-1.36,17.04,3.49c2.85,3.56,3.24,8.41,1.26,12.39c-0.97,1.95-2.51,3.72-4.56,4.89c-0.69,0.39-1.48,0.72-2.3,0.69
			c-1.69-0.07-2.81-1.64-2.9-3.1c-0.09-1.46,0.53-2.87,0.82-4.3c0.29-1.44,0.14-3.11-1.14-4.06c-1.16-0.87-2.95-0.86-4.33-0.29
			c-1.38,0.57-2.43,1.61-3.33,2.68c-4.19,4.94-6.1,11.23-5.53,17.31c0.43,4.5,2.99,13.41,10.42,10.81c4.11-1.44,6.43-4.2,9.03-7.17
			c0.76-0.87,1.61-1.74,2.78-2.15c1.23-0.42,2.71-0.22,3.73,0.5c8.08,5.73-8.22,19.25-14.02,20.97
			C162.66,71.69,159.83,71.88,157.25,71.49z"/>
	</g>
	<g>
		<g>
			<g>
				<path class="st2" d="M293.71,275.24"/>
				<path class="st3" d="M449.02,151.02c-2.68-3.53-6.36-6.05-10.98-7.54c6.37-9.46,16-29.69,4.46-54.34l0,0
					c-1.83-3.9-7.63-2.91-8.07,1.37v0c-0.11,1.01-2.65,23.07-20.62,30.35c-0.24-8.96-2.39-25.91-14.11-38.81
					c-9.9-10.89-24.33-16.42-42.89-16.42h-3.1c-3.81,0-4.96,5.18-1.5,6.78l2.81,1.31c8.91,4.15,14.77,10.01,17.42,17.44
					c2.43,6.82,1.81,13.9,0.63,19.16C353.58,80.42,330.38,75.7,317.7,75.7c-9,0-15.01,2.25-15.26,2.35l0,0
					c-3.79,1.45-3.59,6.87,0.3,8.03l0,0c13.97,4.17,21.74,11.74,26.07,18.78c-11.09-6.82-23.72-7.31-27.05-7.31
					c-0.52,0-0.79,0.01-0.79,0.01l-0.01,0c-4.21,0.17-5.62,5.71-2.01,7.88v0c5.97,3.58,9.24,7.12,11.03,10.02
					c-13.29-5.09-25.48-6.27-33.93-6.27c-7.71,0-12.58,0.98-12.78,1.02l0,0c-4.16,0.85-4.63,6.61-0.66,8.12l0,0
					c13.96,5.33,18.89,12.74,20.62,17.18c-18.36,3.23-26.75,16.42-27.13,17.02l-2.31,3.72c-0.96,1.54,0.3,3.5,2.1,3.27l4.35-0.54
					c4.63-0.58,8.67-0.87,12-0.87c0,0,0,0,0,0c0.09,0,0.18,0,0.26,0c-2.33,5.27-2.47,11.35-2.12,15.71
					c-0.93,1.46-1.79,3.08-2.59,4.93c-3.7,8.5-4.2,15.43-4.1,19.28c-16.38,4.64-27.73,20.42-26.46,37.86
					c1.26,17.33,15.23,31.76,32.48,33.56c1.3,0.14,2.62,0.21,3.92,0.21c2.85,0,5.67-0.33,8.41-0.98c2.79,4.21,6.99,8.04,12.34,11.22
					c0,0,0.45,0.27,1.24,0.66c1.46,0.9,7.08,4.22,13.38,6.18c1.79,0.56,3.63,0.84,5.47,0.84c1.15,0,2.3-0.11,3.42-0.34
					c3.63-0.73,9.82-2.75,15.38-8.39c7.4,10.69,19.7,17.3,32.93,17.3c0.97,0,1.94-0.03,2.92-0.1c17.96-1.28,32.51-14.9,36.15-32.21
					c2.76,1.86,6.38,3.26,11.01,3.26c2.26,0,4.65-0.34,7.1-1.02c6.64-1.61,19.38-10.19,19.19-30.9c-0.02-0.75-0.23-6.38-2.86-10.84
					c0.69-5.39,2.08-22.06-4.28-37.43c2.23,0.72,5.03,2.12,8.24,4.8l0,0c2.51,2.09,6.34,0.69,6.9-2.53l0,0
					c0.08-0.48,1.18-7.32-2.61-15.45l0,0c1.72,1.63,4.56,0.7,4.98-1.64l0.41-2.32C453.43,169.35,455.17,159.1,449.02,151.02z"/>
			</g>
		</g>
		<g>
			<path class="st0" d="M356.81,69.88c29.76,17.18,21.33,47.81,17.18,51.07c-28.61-43.46-63.3-34.64-63.3-34.64
				c26.93,10.97,27.96,37.63,27.96,37.63c-11.29-13.4-28.99-15.82-28.99-15.82c4.82,4.57,7.53,11.7,8.89,16.41
				c0.55,1.9-1.39,3.59-3.23,2.82c-24.45-10.17-45.65-7.9-45.65-7.9c23.19,8.42,19.02,22.21,19.02,22.21
				c-18.11,5.78-28.39,15.65-28.39,15.65c15.73-1.87,16.73,2.32,16.73,2.32c-1.71,6.81-1.21,17.68-1.21,17.68
				c-7.21,2.5-8.18,21.3-8.18,21.3l0.29,1.12l5.47-0.5c0,0,2.82-23.17,11.19-32.98c0,0-2.7,5.17,0,10.32
				c0,0,14.14-23.59,37.85-27.77c1.44-0.25,2.33,1.55,1.27,2.56c-3.84,3.65-10.19,8.96-8.78,19.71c0,0,14.67-13,44.99-15.26
				c0,0-1.8,16.92-14.03,28.39c0,0,27.82-1.35,34.12-22.85c0,0,8.02,16.72,1.71,35.54c0,0,13.22-7.28,20.98-20.6
				c0,0,2.07,10.87,0.26,30.48l8.24-1.76l-10.73,31.54c0.01,0.54,4.38-1.25,4.74-1.66c2.52-2.86,7.39-8.9,11.25-11.5
				c0,0,0.39-0.77,12.32-2.39c0,0,4.05-21.29-1.06-37.2c-0.66-2.07,3.67-0.7,5.68,0.12c4.52,1.85,7.07-2.17,9.32,1.36
				c0,0-0.71-14.03-15.46-25.06c6.43-1.47,14.71-3.88,21.45,10.24c0,0-2.65-20.37-19.32-23.6c2.16-3.6,27.47-19.03,13.78-46.86
				c0,0-5.38,24.48-30.21,27.13c-2.69,0.29-2.54-0.53-2.97-3.18C407.88,110.95,403.09,77.1,356.81,69.88z"/>
			<g>
				<path class="st1" d="M352.85,199.2c8.96-2.58,25.24-5.01,35.98,6.68c1.65,1.8,4.6,0.13,4-2.24c-1.7-6.7-5.95-14.8-16.52-17.26
					c-7.86-1.83-18.69,0.53-25.95,9.04C348.84,197.2,350.61,199.85,352.85,199.2z"/>
				<path class="st1" d="M315.09,228.68c-1.13-1.19-2.41-1.84-3.68-1.56c-1.31,0.18-2.32,1.13-2.92,2.62
					c-0.55,1.48-2.33,1.55-1.97-0.53c0.15-1.05,0.62-2.1,1.39-3c0.79-0.89,1.93-1.47,3.08-1.68c1.16-0.19,2.45,0.03,3.46,0.62
					c0.99,0.6,1.76,1.41,2.28,2.31C317.8,229.23,316.18,229.88,315.09,228.68z"/>
				<path class="st2" d="M293.71,275.24"/>
				<path class="st1" d="M349.17,222.73c-0.32,0.06-0.63,0.04-0.89-0.15c-0.43-0.31-0.45-0.97-0.2-1.44c1.07-2,4.14-3.46,6.13-4.26
					c3.49-1.4,7.54-1.36,11.08-0.28c4.91,1.35,9.23,4.95,12.2,9.01c0.98,1.33,0.45,3.76-1.56,2.5c-4.19-2.56-8.47-5.13-13.27-6.34
					c-4.17-1.05-8.7-1.04-12.64,0.67C349.76,222.55,349.46,222.67,349.17,222.73z"/>
				<path class="st1" d="M286.83,203.09c-0.15-0.01-0.29-0.03-0.41-0.08c-0.59-0.24-0.68-1.07-0.22-1.47
					c1.69-1.46,3.68-2.55,5.82-3.31c3.4-1.21,7.08-1.48,10.49-0.14c4.21,1.65,7.93,5.74,8.07,10.42c0.05,1.52-1.4,2.62-2.52,1.29
					c-2.5-2.96-4.7-5.66-8.62-6.7c-3.44-0.9-7.06-0.56-10.56-0.25C288.37,202.9,287.47,203.13,286.83,203.09z"/>
				<path class="st1" d="M277.76,181.57c7.06-1.75,21.25-3.1,33.01,9.3c1.4,1.47,3.85,0.22,3.4-1.76
					c-1.52-6.71-5.58-16.14-16.41-19.01c0,0-13.93-4.13-22.12,8.45C274.67,180.06,276.01,182.01,277.76,181.57z"/>
				<g>
					<g id="XMLID_2_">
						<g>
							<path class="st1" d="M320.67,253.74l-1.39,1.83c-4.81,6.46-9.58,9.98-14.2,10.46c-0.4,0.04-0.77,0.07-1.1,0.07
								c-3.16,0-4.99-1.5-5.21-1.72c-8.69-5.14-6.64-17.61-6.57-18.16l0.33-1.83l1.83,0.37c10.16,1.91,23.63,7.81,24.18,8.03
								L320.67,253.74z M305.23,262.03c2.2-0.29,5.65-1.8,10.05-7.15c-3.85-1.58-12.18-4.84-19.22-6.46
								c-0.15,3.23,0.26,9.69,5.25,12.66C301.6,261.3,302.88,262.33,305.23,262.03z"/>
							<path class="st0" d="M315.28,254.88c-4.4,5.36-7.85,6.86-10.05,7.15c-2.35,0.29-3.63-0.73-3.93-0.95
								c-4.99-2.97-5.39-9.43-5.25-12.66C303.1,250.04,311.43,253.3,315.28,254.88z"/>
						</g>
						<g>
						</g>
					</g>
				</g>
				<path class="st1" d="M409.2,238.47c1.01-1.23,2.18-2.34,3.48-3.29c2.1-1.56,4.65-2.7,7.43-2.93c2.77-0.23,5.67,0.68,7.71,2.44
					c1.15,0.73,1.88,1.88,2.75,2.83c0.7,1.1,0.07,1.59-0.89,0.82c-1.02-0.69-1.85-1.59-2.93-2.06c-1.99-1.23-4.23-1.79-6.46-1.58
					c-2.24,0.14-4.45,0.99-6.58,2.09c-1.32,0.72-2.63,1.52-3.91,2.41C409.03,239.74,408.58,239.23,409.2,238.47z"/>
				<path class="st1" d="M416.64,233.97c1.59,1.32,2.78,2.78,3.79,4.46c0.98,1.67,1.62,3.57,1.7,5.5c0.06,1.92-0.28,3.86-1.18,5.5
					c-0.79,1.7-1.13,1.46-0.57-0.24c0.68-1.65,0.76-3.46,0.52-5.13c-0.27-1.69-1.01-3.26-2.02-4.63c-1.01-1.34-2.32-2.59-3.64-3.45
					l-0.06-0.04c-0.57-0.37-0.73-1.13-0.36-1.71c0.37-0.57,1.13-0.73,1.71-0.36C416.56,233.91,416.6,233.94,416.64,233.97z"/>
				<path class="st1" d="M449.02,151.02c-2.68-3.53-6.36-6.05-10.98-7.54c6.37-9.46,16-29.69,4.46-54.34l0,0
					c-1.83-3.9-7.63-2.91-8.07,1.37v0c-0.11,1.01-2.65,23.07-20.62,30.35c-0.24-8.96-2.39-25.91-14.11-38.81
					c-9.9-10.89-24.33-16.42-42.89-16.42h-3.1c-3.81,0-4.96,5.18-1.5,6.78l2.81,1.31c8.91,4.15,14.77,10.01,17.42,17.44
					c2.43,6.82,1.81,13.9,0.63,19.16C353.58,80.42,330.38,75.7,317.7,75.7c-9,0-15.01,2.25-15.26,2.35l0,0
					c-3.79,1.45-3.59,6.87,0.3,8.03l0,0c13.97,4.17,21.74,11.74,26.07,18.78c-11.09-6.82-23.72-7.31-27.05-7.31
					c-0.52,0-0.79,0.01-0.79,0.01l-0.01,0c-4.21,0.17-5.62,5.71-2.01,7.88v0c5.97,3.58,9.24,7.12,11.03,10.02
					c-13.29-5.09-25.48-6.27-33.93-6.27c-7.71,0-12.58,0.98-12.78,1.02l0,0c-4.16,0.85-4.63,6.61-0.66,8.12l0,0
					c13.96,5.33,18.89,12.74,20.62,17.18c-18.36,3.23-26.75,16.42-27.13,17.02l-2.31,3.72c-0.96,1.54,0.3,3.5,2.1,3.27l4.35-0.54
					c4.63-0.58,8.67-0.87,12-0.87c0,0,0,0,0,0c0.09,0,0.18,0,0.26,0c-2.33,5.27-2.47,11.35-2.12,15.71
					c-0.93,1.46-1.79,3.08-2.59,4.93c-3.7,8.5-4.2,15.43-4.1,19.28c-16.38,4.64-27.73,20.42-26.46,37.86
					c1.26,17.33,15.23,31.76,32.48,33.56c1.3,0.14,2.62,0.21,3.92,0.21c2.85,0,5.67-0.33,8.41-0.98c2.79,4.21,6.99,8.04,12.34,11.22
					c0,0,0.45,0.27,1.24,0.66c1.46,0.9,7.08,4.22,13.38,6.18c1.79,0.56,3.63,0.84,5.47,0.84c1.15,0,2.3-0.11,3.42-0.34
					c3.63-0.73,9.82-2.75,15.38-8.39c7.4,10.69,19.7,17.3,32.93,17.3c0.97,0,1.94-0.03,2.92-0.1c17.96-1.28,32.51-14.9,36.15-32.21
					c2.76,1.86,6.38,3.26,11.01,3.26c2.26,0,4.65-0.34,7.1-1.02c6.64-1.61,19.38-10.19,19.19-30.9c-0.02-0.75-0.23-6.38-2.86-10.84
					c0.69-5.39,2.08-22.06-4.28-37.43c2.23,0.72,5.03,2.12,8.24,4.8l0,0c2.51,2.09,6.34,0.69,6.9-2.53l0,0
					c0.08-0.48,1.18-7.32-2.61-15.45l0,0c1.72,1.63,4.56,0.7,4.98-1.64l0.41-2.32C453.43,169.35,455.17,159.1,449.02,151.02z
					 M327.49,265.79c-2.11,3-4.28,5.37-6.45,7.11c-0.22,0.17-0.44,0.33-0.67,0.5c-0.24,0.18-0.48,0.33-0.72,0.49
					c-1.59,1.06-3.42,2.03-5.53,2.84c-0.19,0.06-0.38,0.14-0.57,0.2c-0.99,0.28-4.84,1.19-9.23,0.63c-1.85-0.3-3.42-0.78-4.62-1.25
					c-0.48-0.2-0.98-0.37-1.45-0.63l0,0.01c-0.59-0.29-0.97-0.5-1.06-0.56c-15.77-9.35-14.18-22.84-12.76-28.21
					c0.21-0.79,0.94-1.33,1.74-1.33c0.1,0,0.21,0.01,0.31,0.03c26.54,4.76,38.23,13.09,42.02,16.46c0.26,0.23,0.42,0.54,0.47,0.86
					C328.65,263.71,328.17,264.68,327.49,265.79z M368.81,291.83c-0.88,0.06-1.75,0.09-2.62,0.09c-13.86,0-25.8-7.93-31.73-19.47
					l-0.26-0.64c-0.03-0.06-1.69-7.1-2.06-10.27l-0.78-6.69c0,0-1.38,5.04-1.38,5.04c0.08-0.31-2.65-2.08-2.94-2.28
					c-1.49-1.05-3.05-2.02-4.64-2.92c-4.81-2.71-9.94-4.83-15.17-6.58c-3.57-1.19-7.19-2.23-10.84-3.12
					c-1.85-0.45-3.71-0.86-5.58-1.23c-0.58-0.12-4.88-1.31-5.2-0.7c0.4-0.76,0.84-1.5,1.39-2.17c0.78-0.99,1.81-1.77,2.94-2.37
					c1.13-0.64,2.44-0.88,3.76-1.06c-1.32-0.03-2.71-0.02-4.01,0.45c-1.3,0.43-2.57,1.1-3.62,2.05c-1.45,1.31-2.66,2.95-3.49,4.74
					c-0.88,1.9-1.21,3.86-1.46,5.92c-0.52,4.28,0.13,8.79,1.79,12.76c0.08,0.19,0.16,0.38,0.24,0.56c-3.02,0.93-6.22,1.46-9.54,1.46
					c-1.11,0-2.23-0.06-3.36-0.17c-15.1-1.53-27.28-13.76-28.74-28.86c-1.66-17.08,10.03-31.72,25.85-34.83l6.21-0.94
					c0.52-0.12,0.93-0.55,1.01-1.13c0.76-5.89,1.94-11.82,3.61-17.54c0.94-3.16,2.06-6.29,3.45-9.25c0.04,1.81,0.42,3.65,1.24,5.33
					c0.1,0.2,0.25,0.37,0.44,0.51c0.59,0.4,1.4,0.25,1.83-0.38c2.33-3.44,5.07-6.76,7.93-9.85c2.89-3.09,5.96-6.02,9.3-8.57
					c3.35-2.54,6.92-4.78,10.72-6.47c2.64-1.1,5.39-1.88,8.17-2.35c-0.75,0.78-1.47,1.58-2.16,2.42c-1.53,1.89-2.87,3.93-3.98,6.11
					c-1.14,2.16-1.93,4.52-2.44,6.93c-0.57,2.41-0.54,4.92-0.39,7.39c0.02,0.25,0.11,0.51,0.28,0.72c0.44,0.55,1.25,0.64,1.87,0.14
					c6.28-5.04,13.34-9.36,20.75-12.58c3.73-1.56,7.58-2.83,11.5-3.66c3.52-0.65,7.09-0.88,10.61-0.63
					c-0.17,2.08-0.52,4.23-1.04,6.29c-0.63,2.49-1.47,4.93-2.54,7.26c-2.08,4.7-5.09,8.95-8.73,12.62
					c-0.27,0.28-0.42,0.67-0.36,1.08c0.09,0.71,0.75,1.21,1.46,1.12c3.7-0.49,7.22-1.32,10.73-2.37c3.49-1.08,6.94-2.39,10.17-4.18
					c3.22-1.79,6.34-3.9,8.9-6.69c1.59-1.75,2.89-3.75,3.91-5.9c1.03,4.09,1.86,8.27,2.29,12.47c0.56,5.55,0.51,11.15-0.5,16.62
					c-0.05,0.27-0.01,0.55,0.12,0.81c0.32,0.63,1.09,0.89,1.73,0.57c2.26-1.14,4.16-2.47,6.05-3.94c1.86-1.47,3.62-3.07,5.26-4.79
					c2.47-2.61,4.59-5.52,6.52-8.54c0.67,4.09,1.09,8.26,1.11,12.38c0.02,5.17-0.52,10.55-2.91,14.89
					c-0.17,0.31-0.21,0.68-0.09,1.04c0.23,0.69,0.97,1.06,1.65,0.83l6.86-2.28c-0.12,0.38-0.23,0.76-0.35,1.14
					c-0.31,1.02-0.62,2.05-0.93,3.07c-0.45,1.49-0.9,2.97-1.36,4.46c-0.54,1.77-1.08,3.54-1.61,5.31c-0.57,1.87-1.14,3.75-1.71,5.62
					c-0.55,1.8-1.09,3.6-1.64,5.39c-0.47,1.54-0.94,3.08-1.41,4.62c-0.52,1.7-1.8,4.09-1.32,5.88c0.21,0.76,0.59,1.45,0.89,2.18
					c2.46,6.04,3.36,14,1.97,20.41c-0.51,2.36-1.27,4.67-2.26,6.87c-1.94,4.29-4.78,8.16-8.32,11.27
					C384.01,288.41,376.52,291.29,368.81,291.83z M437.38,235.24c0.08,8.65-2.48,17.78-9.78,23.06c-6.31,4.56-16.81,5.41-21.6-1.77
					c-1.47-2.2-2.29-4.75-2.83-7.32c-0.27-1.29-0.59-2.57-0.87-3.86c-0.35-1.59-1.74-3.39-0.46-4.81c1.77-1.97,3.56-3.93,5.32-5.92
					c2.32-2.48,4.72-5.02,7.3-6.94c0.03-0.02,0.08-0.06,0.11-0.08c1.36-1.12,3.02-2.15,4.69-2.95c1.68-0.81,3.45-1.41,5.26-1.75
					c1.8-0.37,3.64-0.35,5.43-0.08c0.4,0.05,0.77,0.2,1.16,0.3c0.34,0.15,0.68,0.31,0.99,0.51
					C437.22,226.85,437.38,235.16,437.38,235.24z M446.29,163.43c-1.61-1.42-3.47-2.57-5.47-3.32c-1.99-0.78-4.07-1.25-6.16-1.45
					c-2.11-0.19-4.15-0.18-6.34,0.17c-0.36,0.06-0.7,0.27-0.9,0.6c-0.37,0.61-0.18,1.4,0.43,1.77l0.09,0.05l3.69,2.25
					c1.13,0.88,2.36,1.65,3.41,2.61c2.19,1.84,4.1,3.97,5.74,6.28c1.56,2.36,2.8,4.92,3.56,7.64c0.49,1.7,0.77,3.52,0.84,5.28
					c-0.58-0.45-1.17-0.89-1.79-1.24c-1.57-0.88-3.23-1.44-4.9-1.87c-3.35-0.85-6.68-1.17-10.13-1.16c-0.21,0-0.43,0.05-0.63,0.16
					c-0.62,0.35-0.84,1.13-0.5,1.75l0.04,0.07c1.68,3,3.26,6.08,4.32,9.39c1.11,3.27,1.99,6.64,2.5,10.08c1,6.26,1.15,12.74,0.46,19
					c-1.35-0.59-2.75-1.08-4.22-1.26c-2.1-0.32-4.26-0.33-6.32,0.09c-2.06,0.39-4.05,1.07-5.92,1.96c-1.42,0.7-2.74,1.52-4.04,2.45
					c-3.13,1.79-7.8,4.89-11.62,9.21l8.67-28.56c0.08-0.25,0.08-0.53-0.01-0.79c-0.23-0.69-0.97-1.06-1.65-0.83l-6.42,2.13
					c0.63-1.69,1.06-3.43,1.36-5.16c0.48-2.73,0.59-5.47,0.59-8.19c-0.03-5.46-0.68-10.8-1.74-16.16c-0.07-0.36-0.3-0.69-0.64-0.88
					c-0.63-0.35-1.42-0.13-1.77,0.5l-0.02,0.03c-2.2,3.94-4.88,7.61-7.97,10.88c-1.55,1.63-3.22,3.14-4.98,4.54
					c-1.06,0.83-2.18,1.61-3.32,2.32c0.63-4.86,0.62-9.76,0.14-14.59c-0.59-5.75-1.68-11.36-3.39-16.94
					c-0.13-0.41-0.46-0.75-0.9-0.87c-0.69-0.19-1.41,0.22-1.6,0.91l-0.02,0.07c-0.89,3.24-2.55,6.22-4.83,8.75
					c-2.3,2.52-5.19,4.48-8.22,6.17c-3.04,1.68-6.34,2.94-9.7,3.98c-2.14,0.65-4.34,1.17-6.55,1.61c2.67-3.17,4.92-6.69,6.6-10.48
					c1.14-2.47,2.03-5.06,2.69-7.69c0.67-2.66,1.13-5.29,1.25-8.14c0.02-0.66-0.48-1.24-1.14-1.31c-4.27-0.46-8.56-0.2-12.72,0.57
					c-4.14,0.87-8.15,2.2-12.02,3.82c-3.85,1.66-7.55,3.62-11.13,5.78c-2.83,1.74-5.55,3.62-8.2,5.64c0-1.4,0.09-2.79,0.42-4.17
					c0.47-2.16,1.16-4.29,2.21-6.27c1.02-1.99,2.26-3.88,3.68-5.64c1.41-1.74,3.04-3.42,4.71-4.77l0.06-0.05
					c0.31-0.25,0.49-0.64,0.47-1.06c-0.03-0.72-0.64-1.27-1.36-1.24c-4.49,0.2-8.87,1.29-12.97,2.99c-4.05,1.79-7.79,4.15-11.28,6.8
					c-3.48,2.66-6.64,5.69-9.62,8.87c-2.37,2.57-4.56,5.27-6.64,8.1c-0.22-1.05-0.33-2.13-0.24-3.23c0.14-1.9,0.68-3.91,1.46-5.59
					l0.03-0.07c0.25-0.54,0.1-1.2-0.39-1.58c-0.57-0.44-1.39-0.33-1.83,0.23c-3.92,5.07-6.11,10.95-7.87,16.81
					c-1.63,5.6-2.76,11.27-3.55,17.06l-3.08,0.71l-0.24-0.87c0.13-3.54,0.6-7.18,1.53-10.58c0.46-1.73,1.12-3.39,1.98-4.85
					c0.85-1.45,1.99-2.68,3.36-3.18c0.59-0.22,0.96-0.84,0.84-1.48l-0.01-0.04c-0.75-3.89-1-8.07-0.47-12
					c0.5-3.94,2-7.75,4.86-10.21l0.12-0.11c0.15-0.13,0.27-0.3,0.34-0.5c0.23-0.63-0.09-1.33-0.73-1.56
					c-2.16-0.79-3.72-0.8-5.55-0.96c-1.76-0.1-3.51-0.09-5.24-0.04c-2.42,0.08-4.82,0.29-7.21,0.54c1.1-1.28,2.28-2.52,3.55-3.62
					c2.06-1.77,4.29-3.36,6.7-4.62c2.4-1.26,4.91-2.35,7.55-3.03c2.61-0.79,5.32-1.14,8.04-1.41l0.12-0.01
					c0.66-0.07,1.15-0.65,1.1-1.32c-0.28-3.48-1.51-6.4-3.09-9.2c-1.61-2.76-3.7-5.18-6.01-7.32c-2.29-2.18-4.94-3.88-7.6-5.51
					c-1.27-0.71-2.57-1.35-3.87-2.01c2.76-0.24,5.54-0.38,8.31-0.34c4.4,0.08,8.81,0.45,13.15,1.2c4.34,0.75,8.65,1.72,12.83,3.12
					c4.22,1.29,8.26,3.07,12.24,4.94l0.11,0.05c0.12,0.06,0.26,0.1,0.41,0.11c0.68,0.07,1.29-0.43,1.35-1.12
					c0.27-2.77-0.37-5.06-1.26-7.35c-0.92-2.25-2.25-4.27-3.75-6.1c-1.48-1.87-3.24-3.44-5.02-4.96c-0.58-0.46-1.19-0.89-1.79-1.33
					c2.05,0.19,4.1,0.46,6.1,0.87c3.52,0.73,6.95,1.84,10.2,3.33c3.27,1.46,6.21,3.51,8.85,5.86c2.69,2.33,4.66,5.31,6.43,8.36
					l0.06,0.11c0.24,0.41,0.69,0.67,1.19,0.64c0.71-0.04,1.26-0.65,1.21-1.37c-0.3-4.95-1.57-9.53-3.49-13.93
					c-1.95-4.35-4.5-8.48-7.77-11.98c-3.29-3.45-6.97-6.59-11.15-8.87c-1.98-1.33-4.25-2.12-6.37-3.18
					c-0.91-0.37-1.84-0.69-2.76-1.01c5.52-1.22,11.42-1.38,17.07-0.53c7.04,1.03,13.79,3.64,19.91,7.32l4.46,2.99
					c1.46,1.03,2.75,2.29,4.14,3.42c2.86,2.19,5.1,5.04,7.62,7.6c2.35,2.72,4.41,5.69,6.62,8.53l5.69,9.21l0.02,0.04
					c0.05,0.08,0.13,0.15,0.22,0.19c0.25,0.11,0.54,0,0.65-0.25c2.05-4.68,3.27-9.62,3.81-14.66c0.51-5.03,0.13-10.18-1.4-14.99
					c-1.48-4.82-4.17-9.3-7.85-12.74c-1.04-1.2-2.29-2.16-3.56-3.09c-0.44-0.34-0.9-0.68-1.37-1.01c-0.3-0.22-0.6-0.43-0.89-0.66
					c-0.11-0.07-0.23-0.13-0.34-0.2c-1.86-1.23-3.92-2.39-6.23-3.46c3.71,0,7.16,0.24,10.37,0.67c-3.46-0.38-6.96-0.41-10.37-0.67
					c3.72,0.29,7.39,0.41,11.01,0.9l5.4,1.15c0.89,0.21,1.81,0.35,2.69,0.61l2.57,0.99c7.03,2.21,13.22,6.64,18.04,12.06
					c4.84,5.48,8.13,12.21,10.04,19.25c1.87,7.04,2.66,14.46,2.15,21.68l0,0.05c0,0.07,0,0.15,0.02,0.22
					c0.1,0.38,0.48,0.61,0.86,0.51c4.03-1.03,8.13-2.25,11.62-4.66c3.51-2.28,6.73-5.12,9.2-8.52c2.52-3.35,4.55-7.06,6.1-10.94
					c1.04-2.66,1.89-5.37,2.52-8.16c1.24,3.33,2.27,6.73,2.72,10.25c0.81,4.75,0.74,9.62,0.02,14.37
					c-0.72,4.75-2.15,9.41-4.26,13.76c-2.08,4.33-4.79,8.49-7.94,11.96c-0.17,0.18-0.28,0.41-0.33,0.67
					c-0.12,0.73,0.37,1.42,1.09,1.54l0.04,0.01c1.32,0.22,2.66,0.38,3.96,0.65c1.24,0.44,2.6,0.62,3.75,1.25
					c3.12,1.43,4.56,2.44,6.18,4.54c1.64,1.98,2.73,4.4,3.3,6.96c0.3,1.39,0.45,2.84,0.48,4.28
					C447.5,164.62,446.95,163.97,446.29,163.43z"/>
			</g>
			<g>
				<path class="st0" d="M367.65,238.92c6.28,0,12.1,1.93,16.92,5.22c0.75,0.51,1.62-0.46,1.06-1.18
					c-4.85-6.14-12.35-10.09-20.79-10.09c-14.15,0-25.7,11.08-26.47,25.03c-0.03,0.49,0.8,1.33,1.27,0.12
					C344.04,246.84,354.91,238.92,367.65,238.92z"/>
			</g>
			<g>
				<path class="st0" d="M289.35,233.94c0.28-0.1,0.54-0.22,0.83-0.31c1.68-0.5,3.4-0.8,5.12-1.12c0.02-0.45,0.1-0.9,0.1-1.36
					c0-14.64-11.87-26.51-26.51-26.51c-0.8,0-1.59,0.05-2.37,0.12C279.62,208.03,289.34,219.84,289.35,233.94z"/>
			</g>
			<g id="XMLID_1_">
				<g>
					<path class="st0" d="M330.47,265.88c0.66,2.2,0.73,5.36,1.17,6.38c-5.21,7.48-11.23,8.84-14.86,9.54
						c-1.98,0.4-4.11,0.29-6.16-0.33c-0.99-0.33-2.02-0.7-3.01-1.1c3.93-0.07,6.86-0.99,7.12-1.06
						C323.79,275.94,328.34,269.88,330.47,265.88z"/>
				</g>
				<g>
				</g>
			</g>
		</g>
	</g>
</g>
</svg>
