<?xml version="1.0" encoding="utf-8"?>
<!-- Generator: Adobe Illustrator 24.1.2, SVG Export Plug-In . SVG Version: 6.00 Build 0)  -->
<svg version="1.1" id="Capa_1" xmlns="http://www.w3.org/2000/svg" xmlns:xlink="http://www.w3.org/1999/xlink" x="0px" y="0px"
	 viewBox="0 0 678.76 678.84" style="enable-background:new 0 0 678.76 678.84;" xml:space="preserve">
<style type="text/css">
	.st0{fill-rule:evenodd;clip-rule:evenodd;fill:#99CBD0;}
	
		.st1{clip-path:url(#SVGID_1_);fill:none;stroke:#FFFFFF;stroke-width:3;stroke-linecap:round;stroke-linejoin:round;stroke-miterlimit:22.9256;}
	.st2{fill-rule:evenodd;clip-rule:evenodd;fill:#F8F8F8;}
	.st3{fill-rule:evenodd;clip-rule:evenodd;fill:#272525;}
	.st4{fill-rule:evenodd;clip-rule:evenodd;fill:#1B1D1B;}
	.st5{fill-rule:evenodd;clip-rule:evenodd;fill:#6DC1C9;}
</style>
<g>
	<path class="st0" d="M339.38,0c187.43,0,339.38,151.96,339.38,339.42c0,187.46-151.94,339.42-339.38,339.42
		C151.95,678.84,0,526.87,0,339.42C0,151.96,151.95,0,339.38,0"/>
	<g>
		<defs>
			<path id="SVGID_3_" d="M339.38,0c187.43,0,339.38,151.96,339.38,339.42c0,187.46-151.94,339.42-339.38,339.42
				C151.95,678.84,0,526.87,0,339.42C0,151.96,151.95,0,339.38,0"/>
		</defs>
		<clipPath id="SVGID_1_">
			<use xlink:href="#SVGID_3_"  style="overflow:visible;"/>
		</clipPath>
		<polyline class="st1" points="32.12,503.02 94.67,500.08 119.7,511.11 127.79,487.56 135.89,528.77 141.77,496.39 172.68,494.92 
			181.51,513.32 196.23,461.07 210.95,576.61 225.66,497.13 265.4,498.6 302.93,386.01 314.71,508.91 330.9,401.47 348.56,454.45 
			373.58,359.52 388.29,408.09 406.69,221.91 419.94,605.31 450.11,358.78 489.85,440.47 508.24,40.88 534.74,645.04 569.32,347.01 
			612,422.81 624.51,282.99 642.18,340.39 684.86,338.18 		"/>
	</g>
	<path class="st2" d="M87.87,388.5l-10.37-8.74c-3.24-2.91-8.51-6.17-9.62-8.89c-1.52-0.34-1.12-0.54-1.96-1.62
		c-0.82-1.04-0.94-0.89-1.81-1.8c-1.09-1.15-0.6-0.71-1.84-1.65c-1.34-1.01-0.61-0.69-1.69-1.88c-1.28-1.42-2.76-2.35-4.05-3.48
		l-9.21-8.95c-0.75-0.83-0.84-1.17-1.48-2.01c-0.85-1.11-2.36-2.6-3.44-3.67c-2.84-2.82-7.39-9.1-8.67-13.02
		c-1.03-3.17-2.09-9.44-0.62-12.98c1.33-3.2,2.5-6.63,4.94-9.64c0.54-0.66,1.2-1.16,1.77-1.8c4.56-5.17,10.5-7.39,18.01-7.36
		c6.69,0.02,10.69,1.51,16.36,2.43l7.9,2.63c1.78,0.51,3.03,1.52,4.87,2.1c2.22,0.7,3.6,0.8,5.67,1.59
		c0.97,0.37,1.53,0.81,2.72,1.17c8.13,2.39,5.22,2.14,7.63,2.91l5.36,1.77c4.03,1.28,11.37,4.67,15.29,6.51
		c2.51,1.18,6.58,4.25,6.82,7.3l1.24,1.88c2.14,5.14,0.33,14.07-0.36,19.07l-2.24,15.82c-0.45,12.2-1.15,15.06-0.12,28.79
		c0.55,7.36,1.67,12.67,4.41,19.49c0.27,0.65,0.35,1.51,0.71,2.48l18.12,32.78c0.7,1.09,0.54,0.43,1.13,1.92l7.71,16.35
		c1.66,5.6,3.54,8.1,3.84,10.91c0.9,0.98,2.25,5.55,2.32,7.63c0.04,1.19,0.05,2.38,0.04,3.57c-0.03,3.31,0.72,2.77,0.76,5.72
		c0.09,6.21,0.36,38.84-0.3,40.91c-1.05,3.33-0.45,16.67-0.46,20.18c-0.01,4.72-0.38,24.74,0.07,27.66
		c7.08,0.82,18.76,0.13,26.33,0.13c1.25,0,25.46,0.53,26.44-0.45c1.12-1.12-0.16-3.03-0.94-4.15c-1.14-1.64-0.37-0.58-1.6-1.51
		c-0.89-0.68-1.08-1.02-1.86-1.69c-2.8-2.4-9.13-5.45-12.99-6.45c-0.6-0.16-1.57-0.56-2.26-0.89c-5.25-2.54-0.4,0.3-6.65-3.5
		c-1.78-1.08-2.3-1.75-3.75-2.91c-2.06-1.64-1.53-0.78-3.19-3.39l-0.34-0.54c-0.12-0.2-0.56-1.06-0.6-1.16
		c-0.45-0.96-0.65-1.71-1.01-2.56c-1.87-4.29-1.72-5.78-1.75-11.42c-0.06-8.69,0.01-17.41,0-26.1l0.17-84.81
		c1.31-7.93,0.17-5.2,0.62-12.53c0.07-1.15,0.2-1.48,0.42-2.64c0.11-0.55,0.18-1.1,0.31-1.46c0.47-1.36,0.18-0.62,0.69-1.27
		c-0.66-3.28,2.27-7.03,3.64-9.46c1.14-2.02,2.73-3.59,4.31-5.43c5.37-6.24,14.24-6.63,21.99-5.7c4.27,0.52,11.66,2.69,15.03,4.38
		c0.64,0.32,1.41,0.62,2.02,0.95c1.41,0.76-0.23,0.49,3.66,2.17c3.71,1.6,12.07,6.92,16.25,9.42l12.99,9.12
		c2.74,2.3,4.79,3.83,7.2,5.61l24.45,20.7c0.7,0.67,1.01,0.86,1.69,1.41l6.59,6.27c0.68,0.65,0.85,0.67,1.22,1.48
		c1.75,0.79,1.25,0.7,2.85,2.4c0.97,1.03,1.62,1.69,2.61,2.71l7.53,7.54c1.83,1.74,6.81,6.96,7.14,8.86
		c1.23,0.62,3.32,3.87,4.37,5.28c0.8,1.08,3.56,3.76,4.87,4.84l38.07,32.74c0.33,0.24,1.09,0.75,1.28,0.92
		c0.96,0.82,1.2,1.44,2.51,2.35l5.51,4.21c0.76,0.7,1.88,1.5,2.72,2.15c1.12,0.87,2.01,0.98,3.06,1.83
		c1.64,1.34,3.06,2.96,5.09,4.63c5.98,4.91,10.27,6.9,16.39,12.44c2.15,0.68,9.88,7.08,12.46,9.07c1.79,1.38,4.27,2.94,6.32,4.37
		c1.58,1.11,4.9,3.48,5.9,5.05c1.72,0.32,5.48,3.98,7.13,5.41c3.74,3.23,5.98,3.47,9,6l9.69,6.25c14.37,0.31,28.95,0.04,43.35,0.06
		c13.43,0.02,30.44,0.77,42.9-0.38l4.88-0.39c2.49-3.5,0.41-4.64-1.11-7.17c-1.74-0.62-1.35-1-2.61-1.61
		c-0.92-0.45-2.53-0.83-3.8-0.94c-5.93-0.51-21.59-0.03-28.33-0.04c-3.3-0.01-5.36-0.44-8.85-0.45c-2.88-0.01-6.91,0.15-9.66-0.17
		c-3.72-0.44-9.21-0.56-12.73-1.45c-2-0.5-7.63-0.72-11.68-2.53c-3.16-1.42-11.79-4.67-14.25-6.53c-2.97-2.25-7.43-4.18-10.87-5.97
		c-2.63-1.37-8.47-6.02-11.09-7.91l-8.02-6.1c-1.03-0.78-1.84-0.9-2.95-1.94l-14.55-13.7c-0.61-0.77-0.34-0.65-0.91-1.34
		c-0.36-0.43-0.71-0.68-1.16-1.1c-0.92-0.87-1.46-1.53-2.24-2.57l-3.06-4.06c-0.55-0.65-0.58-0.62-1.19-1.41l-7.54-11.54
		c-0.52-0.9-1.12-1.47-1.76-2.62l-2.92-6.38c-1.32-3.19,0.33-1.38-2.63-6.68l-3.43-11.21c-0.21-1.17-1.19-2.76-2.18-6.99
		c-0.66-2.82-1.13-5.57-1.51-8.24c-1-6.9-0.64-11.25,0-18c1.41-1.67,0.69-0.16,1.86-2.31c1.73-3.19,3.6-3.15,8.04-6.41
		c1.57-1.61,4.88-2.8,6.7-2.94c2.7-0.2,3.2,0.41,3.91,0.64c1.15,0.38,2.89,0.4,4.16,0.32c8.37,0.01,16.09,1.55,24.01-1.04
		c4.2-1.38,10.03-2.76,13.76-5.72c1.2-0.95,2.73-1.77,3.85-2.79c8.37-7.64,4.53-16.15,4.67-26.22c0.04-2.73,0.72-3.02,1.79-4.84
		c2.9-4.91,2.19-8.01,3.76-9.84c-0.1-3.39,1.11-5.61,0.04-8.53c-2.8-1.05-4.15-0.15-6.48,0.5l-9.75,4.47
		c-1.52,0.98-2.53,2.28-4.78,2.18c-1.61-3.19-1.17-4.3-2.5-5.75l-12.7-11.61l-8.38-3.96c-4.76-1.56-6.81,1.47-8.45-4.13
		c-0.4-1.36-0.29-2.01-0.6-3.44c-0.22-1.01-0.81-1.75-1.06-2.88c-0.71-3.17-0.81-3.81-2.08-6.27c-0.24-0.47-0.45-0.93-0.75-1.33
		c-0.05-0.07-0.14-0.16-0.2-0.23c-0.06-0.07-0.15-0.16-0.21-0.23l-1.76-3.17c-2.06-5.93-5.84-3.36-8.87,0.01
		c-0.76,0.84-1.16,1.65-1.88,2.52c-3.49,4.19-1.71,3.31-4.05,6.09c-0.25,0.3-0.5,0.66-0.7,1.04c-0.58,1.07-1,1.69-1.4,2.98
		c-0.55,1.78-3.15,5.75-4.13,8.06c-1.73,1.75-2.17,1.7-5.27,2.13c-6.92,0.96-14.32,5.45-15.99,5.86c-0.55,0.31-0.7,0.37-1.24,0.78
		c-7.1,5.44-12.14,7.74-9.95,18.37c0.51,2.5,3.74,8.5,5.19,10.65c0.99,1.47,1.98,3.68,3.04,4.87c0.73,0.82,1.24,1.23,1.91,2.08
		c6.55,8.37,10.43,7.99,5.66,19.81c-0.58,1.43-0.13,0.31-0.64,1.19c-2.32,3.94-3.88,8.85-11.04,9.13
		c-3.22,0.12-11.17-0.76-14.29-1.52c-4.44-1.09-15.8-5.64-19.91-7.92c-1.2-0.67-1.48-0.72-2.55-1.42c-1.97-1.29-2.76-2.29-4.35-3.6
		c-0.52-0.43-0.64-0.57-1.17-1.04c-3.08-2.75-6.38-5.75-8.53-9.18l-2.08-2.77c-0.06-0.07-0.13-0.18-0.19-0.26
		c-2.65-3.74-1.33-2.85-3.48-6.71l-3.19-8.86c-0.6-1.52-0.96-0.88-1.36-2.57c-0.28-1.18-0.02-2.02-0.42-3.15l-1.93-6.02
		c-0.42-1.35-0.96-1.48-1.38-2.46c-0.39-0.93-0.54-2.11-0.89-3.11l-2.6-7.59c-0.23-0.6-0.21-0.81-0.41-1.38l-4.46-11.02
		l-12.71-23.18l-18.03-21.29c-1.28-1.12-2.62-2.33-3.89-3.65l-9.22-6.68c-6.51-4.23-18.01-7.27-25.16-5.6
		c-1.47,0.34-1.23,0.56-3.36,0.63c-5.61,0.19-11.48,1.67-16.84,3.05c-4.09,1.05-8.29,1.79-11.69,4.17c-1.11,0.78-1.15,0.87-2.64,1.3
		c-4.82,1.41-10.79,5.34-15.61,7.82c-3.68,1.89-9.76,6.69-14.01,4.13l-1.48-0.81c-0.56-0.27-0.45-0.1-1.14-0.65
		c-5.03-4.03-1.56-1.25-7.7-4.2c-1.82-0.88-2.78-2.02-4.99-2.42c-2.96-0.73-5.73-2.33-8.73-3.32l-8.44-3.05
		c-2.88-0.9-4.4-1.93-6.77-2.42c-1.69-0.35-1.03-0.29-2.08-0.63c-0.91-0.3-1.6-0.27-2.62-0.5l-1.96-0.73
		c-1.07-0.42-1.31-0.26-2.44-0.63c-4.68-1.5-5.28-0.29-11.77-2.8c-3.47-1.34-28.78-2.03-32.98-1.32c-1.24,0.21-0.78,0.38-2.31,0.72
		c-6.21,1.38-8.85,2.67-13.88,6.43c-2.32,1.74-3.83,4.15-5.63,6.27c-0.7,0.82-1.28,2.69-1.96,3.81c-4.89,8.04-3.72,14.31-0.04,22.69
		l1.81,3.93c3.64,8.52,7.15,10.78,11.6,17.62l5.87,5.59c4.76,4.16,17.11,13.31,19.59,15.84c4.56,4.65,1.7,1.93,4.86,3.9
		c3.94,2.46,10.01,9,9.99,16.05c-0.01,3.62,0.07,2.84-1.12,5.26c-1.99,4.03-5.69,6.81-10.7,6.94c-5.86,0.16-6.53,0.34-10.54-1.04
		c-1.31-0.45-6.75-1.56-8.87-2.81l-8.15-3.8c-2.61-1.46-4.79-3.24-7.06-4.42c-2.86-1.48-5.93-3.99-8.58-6
		c-2.59-1.97-2.38-3-5.37-2.83c-0.84,7.55,7.33,10.56,13.58,15.36c3.35,2.57,4.04,2.37,7.78,4.61c3.12,1.87,2.95,0.83,6.5,3.69
		c1.38,1.11,1.5,0.6,3.16,1.2c0.79,0.28,0.14,0.11,1.24,0.51c2.03,0.75,3.77,1.38,6.07,1.89c1.12,0.25,2.31,0.88,3.29,1.05
		l8.29,0.11c1.88-0.07,5.51-1.98,9.19-3.07c3.89-1.15,2.43-1.53,5.05-2.9c5.15-2.7,10.01-10.99,7.74-15.9
		C90.02,392.31,87.97,389.23,87.87,388.5"/>
	<path class="st3" d="M126.86,307.97c2.21,0.4,3.17,1.54,4.99,2.42c6.14,2.95,2.67,0.17,7.7,4.2c0.69,0.56,0.58,0.38,1.14,0.65
		l1.48,0.81c4.25,2.57,10.33-2.23,14.01-4.13c4.82-2.48,10.79-6.42,15.61-7.82c1.48-0.43,1.52-0.52,2.64-1.3
		c3.4-2.38,7.6-3.13,11.69-4.17c5.36-1.38,11.23-2.86,16.84-3.05c2.13-0.07,1.88-0.29,3.36-0.63c7.15-1.66,18.65,1.38,25.16,5.6
		l9.22,6.68c1.27,1.33,2.61,2.53,3.89,3.65l18.03,21.29l12.71,23.18l4.46,11.02c0.2,0.57,0.18,0.78,0.41,1.38l2.6,7.59
		c0.35,0.99,0.5,2.18,0.89,3.11c0.41,0.98,0.96,1.12,1.38,2.46l1.93,6.02c0.4,1.13,0.14,1.97,0.42,3.15
		c0.4,1.69,0.77,1.05,1.36,2.57l3.19,8.86c2.15,3.86,0.83,2.97,3.48,6.71c0.05,0.08,0.13,0.19,0.19,0.26l2.08,2.77
		c2.15,3.43,5.45,6.43,8.53,9.18c0.52,0.47,0.65,0.61,1.17,1.04c1.59,1.31,2.37,2.31,4.35,3.6c1.07,0.7,1.35,0.76,2.55,1.42
		c4.11,2.28,15.46,6.84,19.91,7.92c3.12,0.76,11.06,1.65,14.29,1.52c7.16-0.28,8.72-5.19,11.04-9.13c0.51-0.88,0.06,0.23,0.64-1.19
		c4.77-11.82,0.89-11.43-5.66-19.81c-0.67-0.86-1.19-1.27-1.91-2.08c-1.06-1.19-2.04-3.4-3.04-4.87c-1.46-2.15-4.68-8.15-5.19-10.65
		c-2.18-10.62,2.86-12.92,9.95-18.37c0.54-0.42,0.69-0.48,1.24-0.78c0.41-1.28-0.05-0.69,0.9-1.46c-0.09-0.07-0.24-0.13-0.31-0.16
		c-0.07-0.03-0.22-0.12-0.31-0.16l-1.21-0.58c-2.03-1.08-3.2-1.19-5.71-1.15c-6.31,0.08-11.74-4.71-14.76-9.78l-1.75-3.12
		c-0.58-0.79-0.45-0.27-1.24-1.41c-1.89-2.73-4.3-7.89-5.91-10.91c-4.39-8.2-8.52-18.11-11.72-26.78c-0.42-1.14-0.71-2.74-1.13-3.76
		c-0.52-1.25-1.24-1.56-1.96-2.85l-2.51-6.76c-1.77-3.88-2.77-8.47-4.96-12.35l-8.14-14.39c-0.05-0.09-0.11-0.2-0.15-0.29l-3.92-6.7
		c-1.33-1.89-1.03-3.16-2.53-4.59c-2-1.91-0.7-0.15-2.04-2.8c-1.51-2.99-3.78-6.03-6.05-8.56l-5.85-8.78
		c-1.17-2.3-6.73-8.62-8.84-10.59c-0.98-0.91-1.19-1.33-2.16-2.27c-3.31-3.19-6.01-6.88-9.43-10.04l-4.51-4.36
		c-0.06-0.07-0.14-0.17-0.2-0.24c-2.92-3.27-13.51-8.57-18.24-10.94c-2.47-1.24-5-1.31-7.41-2.32c-3.68-1.53-13.96-0.84-18.38-0.72
		c-4.53,0.12-13.39,2.31-18.36,3.79c-6.77,2.02-3.97-0.56-9.15,2.82c-1.12,0.73-2.05,0.82-3.34,1.56c-1.11,0.63-1.89,1.14-3.25,1.63
		c-4.64,1.69-5.48,1.54-9.76,4.75c-1.4,1.05-2.28,0.81-3.49,1.45c-1.11,0.59-0.74,0.82-2.1,1.44c-3.12,1.44-5.36,3.23-8,5.22
		c-0.71,0.53-0.53,0.35-1.25,0.95c-1.1,0.92-1.59,1.54-2.88,1.99c-5.94,2.08-10.72,2-16.73,1.57c-2.65-0.19-6.85,0.52-9.15-0.67
		c-1.63-0.85-5.47-1.38-7.31-2.4c-2.9-1.63-6.27-1.89-9.61-4.2c-0.07-0.05-0.18-0.12-0.26-0.18c-1.54-1.14-0.9-1.4-2.52-2.4
		l-4.05-3.39c-0.06-0.06-0.16-0.15-0.22-0.21c-1.58-1.69-2.51-3.68-3.83-5.45c-1.77-2.37-2.5-5.55-3.57-8.38
		c-2.15-5.68-2.46-10.2-2.45-16.67c0.01-7.27,2.15-16.34,7.7-21.12c1.42-1.22,8.65-8.4,10.16-9.27c1.11-0.64,0.82-0.23,2.03-0.62
		c7.02-2.3,9.76-7.63,19.78-3.3c2.23,0.96,5.4,1.53,6.89,2.86c0.59,0.52,0.12,0.23,0.75,0.63l3.98,2.28
		c0.63,0.33,0.89,0.38,1.44,0.74c2,1.32,4.31,2.44,7.31,2.36c1.42-2.22,1.86-4.89,1.03-7.55c-1.27-4.11-3.7-7.73-6.95-10.45
		l-8.05-4.89c-3.95-1.09-7.52-1.03-11.92-1.02c-1.45,0.01-2.95-0.09-4.37,0.16c-7.81,1.35-7.06,2.09-11.28,3.29
		c-3.92,1.11-10.7,5.14-13.89,7.92l-0.69,0.73c-1.48,1.75-0.75,0.98-2.63,2.08l-3.84,4.62c-1.03,1-0.13-0.02-0.97,1.43
		c-2.38,4.07-1.19,2.47-3.19,4.14c-1.04,0.87-1.59,2.16-2.12,3.35c-0.74,1.65-1.78,1.82-2.71,3.4c-0.56,0.94-0.71,2-1.31,3.11
		c-1.65,3.04-1.89,6.77-3,9.86c-1.54,4.27-0.57,11.52-0.17,15.91c0.21,2.31,1.66,8.46,2.66,10.31l8.62,12.63
		c1.16,1.47,0.03,0.17,1.14,1.12l2.97,3.2c1.54,1.59,3.08,2.53,4.48,4.34c1.63,2.11,2.68,2.19,4.67,3.76
		c1.62,1.29,0.96,0.7,2.88,1.61c1.33,0.63,1.1,0.92,2.21,1.72c1.17,0.84,1.87,0.67,2.9,1.52c1.2,1,0.1,0.82,2.29,1.76l5.69,3.1
		c2.86,2.16,8.5,4.09,12.07,4.86c2.97,0.65,3.91,1.62,6.89,1.75c1.38,3.45,2.82,2.3,2.77,8.39c1.01-0.94-0.55,0.46-0.93,1.58
		c-0.94,2.81-1.29,6.47-1.92,9.21c-0.98,4.26-0.69,9.63-1.53,13.56c-1.43,6.72-0.92,14.31-0.14,21.03l-0.78,4.52
		c-0.34,0.91-0.22,0.17-0.46,1.91L126.86,307.97z"/>
	<path class="st3" d="M376.85,361.06c0.98-2.32,3.58-6.29,4.13-8.06c0.4-1.29,0.81-1.91,1.4-2.98c0.2-0.38,0.45-0.75,0.7-1.04
		c2.33-2.78,0.56-1.9,4.05-6.09c0.72-0.87,1.13-1.68,1.88-2.52c3.03-3.37,6.81-5.94,8.87-0.01l1.76,3.17
		c0.06,0.07,0.15,0.16,0.21,0.23c0.05,0.07,0.15,0.16,0.2,0.23c0.3,0.4,0.5,0.86,0.75,1.33c1.28,2.47,1.37,3.1,2.08,6.27
		c0.25,1.13,0.85,1.87,1.06,2.88c0.31,1.43,0.2,2.08,0.6,3.44c1.64,5.59,3.69,2.56,8.45,4.13l8.38,3.96l12.7,11.61
		c1.33,1.45,0.89,2.56,2.5,5.75c2.25,0.1,3.26-1.2,4.78-2.18l9.75-4.47c2.33-0.65,3.69-1.55,6.48-0.5c1.06,2.92-0.15,5.14-0.04,8.53
		c0.06,7.03-3.77,11.39-4.14,12.96c-0.58,2.43,0.01,13.82,0.02,17.23c0.64,1.16,0.41,1.89,0.43,3.54c2.25-0.88-0.51-0.49,1.85-0.92
		c1.91-0.35,2.48,0.78,3.44,1.32c1.72,0.96,3.73,1.22,5.41,1.64c2.34,0.58,1.6,0.97,3.11,1.31c6.58,1.5,14.04,0.52,16.23,1.65
		l0.49,0.4l5.63-0.06c2.05-1.97,1.21-0.5,7.57-2.3c2.89-0.82,7.34-4.5,8.97-6.98c2.04-3.09,2.11-2.31,2.86-3.72
		c1.7-3.18,5.32-11.08,4.47-14.33c-1.26-4.8-8.16-3.81-10.6-5.74l-3.19-2.58c-0.08-0.05-0.18-0.14-0.25-0.19l-10.33-5.59
		c-1.56-1.09-1.49-1.82-3.56-3.08c-2.54-1.56-4.83-3.94-6.3-6.58c-0.72-1.3-1.64-2.49-2.55-3.61c-0.85-1.03-1.01-0.96-1.65-1.89
		c-0.47-0.68-0.63-1.25-1.11-2.02l-5-6.49c-3.15-4.24-3.28-5.19-5.56-8.6l-3.32-4.62c-1.6-2.85-6.92-7.27-9.41-8.3
		c-2.09-0.87-2.43-0.88-4.25-1.95c-9.12-5.32-10.14-4.01-16-6.53c-0.77-0.33-1.59-0.57-2.27-0.86c-0.15-3.35,0.58-3.11,2.31-4.93
		c2.32-2.43,6.74-4.76,8.52-6.91c2.86-3.44,3.61-2.05,6.17-4.93c1.93-2.17,0.42-2.57-1.69-3.46c-5.9-2.5-7.07-1.05-10.99-0.06
		c-3.36,0.85-1.25-1.22-10.81,2.52c-1.29,0.51-2.02,0.66-3.34,1.1c-1.91,0.64-13.25,6.79-15.37,8.57c-0.07,0.06-0.16,0.15-0.23,0.22
		c-0.48,0.44-0.62,0.65-1.13,1.05l-4.88,3.55c-5.1,3.54-2.14,1.89-4.64,4.21c-2.32,2.16-7.28,6.15-8.92,8.78l-6.54,10.71
		c-0.59,0.92-1.31,1.87-1.73,2.67c-4.98,9.38-5.98,7.69-9.42,12.22C371.11,363.35,376.35,361.1,376.85,361.06"/>
	<path class="st3" d="M390.9,437.15c-4.44,3.26-6.31,3.22-8.04,6.41c-1.17,2.16-0.45,0.64-1.86,2.31c-0.63,6.76-1,11.1,0,18
		c0.39,2.67,0.86,5.42,1.51,8.24c0.99,4.23,1.97,5.82,2.18,6.99l3.43,11.21c2.96,5.3,1.32,3.49,2.63,6.68l2.92,6.38
		c0.64,1.16,1.25,1.73,1.76,2.62l7.54,11.54c0.61,0.79,0.64,0.76,1.19,1.41l3.06,4.06c0.78,1.04,1.32,1.69,2.24,2.57
		c0.44,0.42,0.8,0.67,1.16,1.1c0.57,0.69,0.3,0.57,0.91,1.34l14.55,13.7c1.12,1.04,1.93,1.16,2.95,1.94l8.02,6.1
		c2.62,1.89,8.46,6.53,11.09,7.91c3.44,1.79,7.9,3.72,10.87,5.97c2.46,1.86,11.09,5.11,14.25,6.53c4.04,1.81,9.67,2.03,11.68,2.53
		c3.52,0.88,9.01,1.01,12.73,1.45c2.75,0.32,6.78,0.17,9.66,0.17c3.48,0.01,5.54,0.44,8.85,0.45c6.73,0.01,22.39-0.47,28.33,0.04
		c1.27,0.11,2.88,0.49,3.8,0.94c1.25,0.61,0.86,1,2.61,1.61c4.91,1.57,2.57,7.29,2.57,7.3c1.25-0.48,1.32-1.09,3.13-1.54
		c1.46-0.36,2.67-0.07,4.08-0.39l6.18-2.97c0.49-7.03-0.9-4.97-5.42-7.52c-1.61-0.91-1.65-1.57-4.22-2.3
		c-2.93-0.83-8.85-0.48-12.3-0.49c-2.66,0-3.46-0.36-5.74-0.5c-4.12-0.25-8.27-0.06-12.24-0.61c-4.06-0.57-8.4-0.24-12.56-0.28
		c-4.06-0.04-7.81-0.94-11.54-1.2c-2.11-0.15-4.48,0-6.62-0.03c-2.6-0.04-11.57-3.41-14.71-4.44c-1.87-0.61-9.15-5.22-11.29-6.83
		c-1.93-1.44-5.14-2.87-6.51-4.62c-0.95-1.2,0.19-0.49-1.61-1.37c-3.61-1.77-0.9-0.3-3.69-2.56l-10.75-8.74
		c-1.8-1.96-1.92-1.2-3.62-2.55c-0.44-0.35-0.46-0.47-0.89-0.89c-0.09-0.09-0.35-0.36-0.45-0.45c-2.14-2.02-2.66-3.85-6.07-7.63
		c-2.48-2.76-4-3.16-4.96-4.32c-2.29-2.74-4.98-4.99-5.23-7.59c-0.79-0.3-0.5-0.05-1.45-0.79c-1.62-1.27-1.98-3.02-2.91-4.16
		c-1.41-1.72-3.66-2.25-4.6-5.37c-0.56-1.15-0.6-0.75-1.24-1.6c-0.59-0.79-0.77-1.29-1.41-2.15c-0.58-0.79-2.47-3.07-2.77-3.94
		c-1.58-0.87-0.6-0.05-1.58-1.44c-0.5-0.71-0.35-0.7-1.06-1.58c-5.38-6.65-4.91-8.42-7.68-14.41c-0.5-1.09-0.17-0.4-0.57-1.63
		l-2.39-7.34c-0.56-2.06,0.12-2.43-0.8-4.56c-0.93-2.16-0.44-1.24-0.77-4.01c-0.49-4.01-1.93-7.55-2.19-12.44
		c-0.13-2.48-2.03-7.13-0.91-13.04L390.9,437.15z"/>
	<path class="st3" d="M185.36,415.28c-0.51,0.66-0.22-0.08-0.69,1.27c-0.13,0.36-0.2,0.92-0.31,1.46c-0.22,1.16-0.35,1.48-0.42,2.64
		c-0.45,7.33,0.69,4.6-0.62,12.53L183.15,518c0,8.7-0.06,17.41,0,26.1c0.04,5.64-0.11,7.13,1.75,11.42c0.37,0.85,0.57,1.6,1.01,2.56
		c0.04,0.09,0.49,0.96,0.6,1.16l0.34,0.54c1.66,2.61,1.13,1.75,3.19,3.39c1.45,1.16,1.97,1.83,3.75,2.91
		c6.25,3.79,1.4,0.95,6.65,3.5c0.69,0.33,1.66,0.74,2.26,0.89c3.85,1,10.19,4.04,12.99,6.45c0.78,0.67,0.97,1.01,1.86,1.69
		c1.23,0.93,0.46-0.13,1.6,1.51c0.78,1.13,2.07,3.03,0.94,4.15c-0.98,0.98-25.19,0.45-26.44,0.45c-7.57,0-19.25,0.69-26.33-0.13
		c-0.44-2.92-0.08-22.94-0.07-27.66c0.01-3.5-0.59-16.85,0.46-20.18c0.65-2.06,0.38-34.69,0.3-40.91c-0.04-2.95-0.79-2.41-0.76-5.72
		c0.01-1.19,0-2.38-0.04-3.57c-0.07-2.09-1.42-6.65-2.32-7.63l-1.3,0.13c-0.01,9.74-0.31,18.51-0.59,27.9
		c-0.28,9.25,0.42,19.15-0.09,28.28c-0.13,2.27-0.4,3.85-0.4,6.65c0,5.92-0.12,2.92-0.71,6.26c-0.42,2.35-0.11,23.75-0.16,28.25
		c-0.03,2.36-0.07,4.72-0.09,7.08l0.12,5.27c0.22,1.07,0.26,1.09,0.74,1.23c0.09,0.02,0.25,0.09,0.36,0.12l1.2,0.2
		c4.86,0.43,58.96,0.04,59.63-0.18c2.06-0.68,2.76-6.25,2.59-7.98c-0.15-1.52-0.22-1.13-0.46-1.86c-0.77-2.36-0.47-1.83-1.7-3.27
		c-0.06-0.07-0.14-0.16-0.2-0.23c-0.06-0.07-0.13-0.17-0.19-0.24c-1.83-2.29,0.25-0.47-2.26-1.83l-5.61-2.33
		c-0.49-0.14-1.23-0.33-1.64-0.58c-0.96-0.6-0.45-0.2-0.85-0.91c-1.99,0.06-2.88-0.97-4.57-1.62c-5.13-1.96-3.82-0.82-8.25-3.73
		c-3.72-2.45-7.09-4.36-8.6-8.88c-1.14-3.42-2.36-4.86-2.45-9.43c-0.31-15.67-0.02-31.66,0-47.36c0.03-15.78-0.03-31.56-0.02-47.34
		c0.01-14.29-0.23-26.99,0.36-41.18c0.12-2.79,1.46-2.76,0.34-4.54C187.6,408.12,187.02,411.94,185.36,415.28"/>
	<path class="st4" d="M130.46,329.44l-0.38-0.51c-0.05-0.07-0.13-0.19-0.19-0.26c-1.21-1.8-1.55-2.93-4.06-3.27
		c0.11,2.43,0.37,4.84,0.53,7.66c0.17,2.84,1.13,3.59,1.24,6.61l1.56,14.7c1.21-2.44,0.53-3.2,1.23-5.89
		c0.57-2.19,0.95-3.51,1.03-6.11C131.73,332.18,131.38,336.23,130.46,329.44"/>
	<path class="st4" d="M567.48,593.89c2.73-0.03,1.3-0.46,3.28-2.22l9.13-8.65c0.76-0.66,1.1-1.06,2.1-1.9
		c1.41-1.19,1.1-0.6,1.46-2.58c-1.7,0.74-8.75,7.86-10.47,9.51l-4.73,4.55C567.56,593.56,567.93,593.05,567.48,593.89"/>
	<path class="st5" d="M87.87,388.5c-1.09-2.21-1.03-1.4-2.63-2.76c-0.79-0.67-1.38-1.51-2.16-2.31l-7.51-6.58
		c-0.96-0.71-1.51-0.75-2.68-1.76c-1.61-1.39-3.06-3.56-5.01-4.21c1.11,2.72,6.38,5.98,9.62,8.89L87.87,388.5z"/>
	<path class="st5" d="M369.33,357.35c1.69-0.71,5.35-4.68,3.77-6.8c-1.05,0.48-0.74,0.36-1.34,1.23
		C370.47,353.63,369.57,354.85,369.33,357.35"/>
	<path class="st3" d="M408.22,124.39c2.8,0.93,4.4,0.04,6.56-0.49c0.67-0.17,8.64,0.21,10.78-5c0.32-0.78,0.69-2.13,0.33-3.34
		c-0.49-1.67-1.19-1.45-2.95-1.45l-0.41,0c-9.18,0.03-1.96,5.99-10,7.92C408.95,122.88,408.85,121.97,408.22,124.39 M550.69,247.68
		c1.24,1.61,4.22,2.6,6.23,3.61c2.31,1.16,4.17,2.84,7.31,2.57c1.03-1.42,2.82-2.67,2.03-5.68
		C564.41,241.11,551.76,244.26,550.69,247.68z M226.95,98.91c-0.56-1.4-1.32-1.55-2.65-2.35c-2.92-1.76-25.07-11.65-26.47-2.56
		c-0.62,4.04,2.76,6.51,5.5,7.31c1.26,0.37,1.04,0.38,2.14,0.73c4.1,1.33,10.38,1.38,14.32,0.53
		C221.81,102.12,225.86,100.64,226.95,98.91z M372.37,110.83c-4.21,0-8.88,0.12-11.69,3.33c-1.53,1.75-4.03,4.47-5.04,6.64
		c-3.75,7.98,0.17,11.03,7.21,8.33c1.09-0.42,0.96-0.63,1.85-0.96c3.74-1.39,0.98,0.61,6.4-2.35c9.26-5.05,16.77-5.19,9.45-11.49
		C378.36,112.44,376.11,110.83,372.37,110.83z M417.22,148.64c-0.02,4.45,0.72,7.89-1.5,10.62c-1.64,2.02-4.32,3.28-7.75,1.88
		c-2.21-0.9-5.03-3-5.42-5.04c-1.07-5.53,2.47-4.69,2.8-7.31c-2.93-1.61-7.22,2.46-7.35,2.69c-1.46,2.66,1.58,6.64,3.04,7.86
		c1.56,1.29,5.07,3.16,7.31,4.36c5.25,2.8,13.38,3.01,16.6-3.47c2.67-5.37-3.17-15.44,1.46-19.29c2.85-2.37,7.79,0.35,8.52,1.9
		c0.58,5.2-1.39,3.5-1.17,6.57c7.03,0.04,8.48-8.48-3.81-12.31c-3.7-1.15-8.45-1.54-11.04,0.88
		C414.2,142.34,417.24,143.2,417.22,148.64z M580.02,261.79c0.26,2.54,4.14,2.93,3.78,4.95c-1.05,1.92-3.68,1.96-5.54,2.81
		c-1.14,0.51-1.44,0.89-2.62,1.53c-2.14,1.17-4.33,1.31-8.51,4.76c-1.53,1.26-3.56,1.96-5.16,3.55c-1.39,1.38-3.1,3.52-3.27,5.58
		c-0.66,8.35,9.3,11.51,15.47,11.51c2.37,0,4.13-0.49,2.85-2.81c-1.76-0.87-5.75-0.76-7.64-1.4c-4-1.37-3-6.48,3.26-10.48l6.01-3.56
		c6.81-3.72,10.61-9.77,17.98-2.03c1.58,1.66,2.6,4.13,5.39,4.31c-0.48-6.02-14.23-9.36,2.32-12.28c1.48-0.26,2.62-0.72,4.29-1.03
		c1.74-0.32,2.84-0.98,4.19-1.57c-0.23-2.34-0.47-2.48-2.49-3.16c-2.45-0.82-1.56-1.24-5.07-1.24c-0.66,0-6.59,1.04-7.17,1.27
		c-0.93,0.36-1.47,0.84-2.78,1.3c-7.33,2.6-6.32,2.45-8.94,0.29C584.49,262.54,583.05,261.38,580.02,261.79z M554.72,269.62
		c-4.57-1.85-6.9,1.06-11.77-5.62c-3.08-4.23-1.72-8.31,2.17-11.82c3.84-3.46,3.44-3.87,13.93,1.92c1.67,0.92,1.75,1.42,3.05,2.3
		c1.22,0.83,2.28,0.92,3.73,1.69c8.15,4.33,10.76-2.74,7.36-8.6c-1.59-2.75-2.27-3.48-4.88-5.45c-4.47-3.36-11.89-4.04-17.22-2.86
		c-5.19,1.15-10.13,3.09-13.78,6.91c-7.34,7.69-7.34,13.89,1.51,20.44C540.9,270.08,554.3,274.62,554.72,269.62z M305.28,91.03
		c1.07,1.3,0.57,0.35,1.99,1.24c-0.19,1.98-2.82,3.77-4.17,5.32l-4.22,5.31c-0.83,0.92-6.76,10.36-1.35,13.27
		c5.35,2.87,11.21-1.12,15.54-2.33c3.02-0.85,4.1-1.73,6.55-2.95l2.87-1.73c1.04-0.7,1.64-1.28,3.22-1.31
		c0.1,4.04-5.89,7.88-2.93,13.25c1.6,2.91,3.45,2.44,7.33,2.4c2.82-0.03,6.2-0.67,7.13-2.63l-0.96-0.35
		c-1.96-0.21-3.65,1.33-5.22-0.63c-1.67-1.99,0.72-5.52,1.54-7.32c1.75-3.8,0.8-3.19,3.9-6.01c2.05-1.86,3.54-3.13,5.39-4.55
		c2.66-2.03,4.84-2.79,4.73-5.18c-5.33-3.5-8.45,0.03-11.3,1.54c-6.26,3.33-11.09,8.1-14.24,9.05c-2.08,0.62-3.65,1.27-5.23,2.53
		c-0.98,0.78-8.88,5.55-10.46,0.77c-1.22-3.67,7.32-14.5,12.87-17.81c1.12-0.67,4.29-1.93,4.69-2.93c1.07-2.61-3.44-2.31-5.3-2.17
		c-1.62,0.12-1.39,0.34-2.78,0.78C314,88.87,306.79,89.18,305.28,91.03z M370.59,129.25c-0.15,2.96-7.25,10.06-1.14,12.78
		c4.64,2.07,6.37,2.48,11.2,0.45c1.81-0.76,2.37-0.36,2.43-2.52c-2.95-1.38-3.67,1.71-6.62-0.04c-0.69-1.11-0.8-2.81-0.16-4.36
		c0.58-1.4,1.44-1.36,2.42-2.53c0.87-1.04,1.09-1.91,2.03-2.95c1.11-1.22,6.8-5.52,8.93-6.39c1.98-0.81,6.25-1.6,7.1-3.24
		c-0.39-1.69-0.84-1.5-2.86-1.74c-6.49-0.78-6.75-3.51-9.7-5.12c-6.01-3.29-7.54-4.84-16.01-4.82c-3.57,0-5.83-0.15-8.4,1.18
		c-1.87,0.96-7.83,1.34-11.99,7.08c-1.27,1.76-2.64,4.61-3.09,6.87c-0.35,1.82,1.11,6.45,1.91,7.34c2.15,2.41,4.56,1.81,8.31,1.86
		C361.32,133.17,365.73,128.7,370.59,129.25z M481.15,149.68c3.75-0.19,9.49-4.52,12.39-6.24c8.72-5.17,21.01-5.86,29.42,0.49
		c7.9,5.96,12.94,14.62,10.16,24.71c-1.93,7.03-0.98,2.68-2.41,6.53c-3.29,8.86-4.95,9.81-10.37,17.4
		c-2.56,3.59-5.33,6.71-9.14,9.54c-3.13,2.32-5.85,5.52-9.88,8.34c-1.98,1.39-3.69,2.38-5.45,3.68c-2.68,1.98-4.63,2.54-4.7,4.95
		c0.09,0.07,0.23,0.05,0.28,0.19c0.4,1.11,7.37,0.83,8.15,0.82l14.09-0.05c4.87,0,10.93,0.89,15.74,1.19l21.98,0.47l12.17-1.25
		c6.79-1.61,6.17-0.04,14.76-5.07c0.7-0.41,1.54-0.74,2.18-1.16c7.97-5.25,13.42-14.44,9.07-24.21c-1.2-2.7-2.79-6.16-5.86-7.27
		c-3.02-1.09-14.96-3.06-15.29,1.93c3.08,1.92,7.82-1.53,11.36,4.8c0.7,1.25,0.79,3.17,0.8,4.74c0.06,5.56-0.04,4.93-2.31,8.68
		c-5.36,8.85-13.68,12.97-23.62,14.83c-1.83,0.35-2.59,0.86-4.51,0.97l-21.15,0.01c-3.42,0-4.69-0.51-7.47-0.72
		c-2.32-0.17-14.88-0.15-15.7-1c-0.12-0.18-0.76,0.37-0.28-1.47c0.2-0.75,0.49-0.82,1.1-1.37c0.92-0.83,1.47-1.1,2.6-1.98
		c0.99-0.78,1.38-1.49,2.25-2.27c3.81-3.4,9.77-7.09,12.82-9.99c2.64-2.51,5.68-6.33,8.56-9.67c8.85-10.24,14.17-28.8,5.55-40.65
		c-3.25-4.46-4.08-5.4-9.54-8.67c-6.15-3.69-10.73-3.69-18.12-3.69c-13.34,0-17.71,2.67-27.09,9.18
		C482.01,147.56,481.46,147.34,481.15,149.68z M291.44,99.02c-1.77,0.03-5.35,2.89-6.81,3.74c-5.53,3.22-7.95,2.87-13.8,2.87
		c-2.42,0-7.26-0.61-9.07-1.37c-2.66-1.13-5.92-1.06-8.39-2.04c-1.35-0.53-1.67-1.12-3.32-1.54c-3.7-0.93-3.92-1.05-7.46-2.95
		c-4.17-2.25-3.21-2.42,0.3-6.04c1.2-1.24,2.21-2.03,3.37-3.26l12.59-14.75c2.01-3.05,3.54-5.36,5.22-8.48
		c2.71-5.04,13.93-18.76,18.39-22.2c7.76-5.97,21.77-4.79,28.99,0.78c1.3,1,1.05,1.28,2,2.6c0.94,1.32,1.29,0.98,1.42,3.19
		c0.32,5.78-3.11,8.13,0.29,8.18c0.64,0.01,0.67-0.05,1.19-0.31c1.05-0.52,4.08-4.1,4.8-5.16c2.69-3.99,3.31-5.03,1.63-10.24
		c-1.87-5.82-8.41-6.57-9.52-7.08c-3.47-1.58-3.97-1.14-9.28-1.14c-2.67,0.01-7.12-0.22-9.44,0.66c-1.83,0.69-1.99,0.53-3.98,1.07
		c-0.72,0.19-2.5,1.09-3.65,1.59c-1.48,0.64-2.12,0.72-3.69,1.32l-6.27,4.03c-1.33,1-2.02,1.2-3.14,2.23
		c-1.8,1.65-3.32,2.9-5.29,4.66c-3.86,3.43-11.82,12.68-14.14,16.95l-13.8,21.84c-0.97,1.27-1.7,1.6-2.63,2.76
		c-2,2.47-2.96,3.36-6.99,1.45c-0.97-0.46-2.08-1.21-3.17-1.8c-5.54-3.02-15.37-4.22-22.17-3.48c-5.66,0.62-10.84,2.13-13.49,6.93
		c-1.52,2.75-1.96,4.04-0.11,7.07c4.2,6.86,24.7,5.88,33.18,1.96c5.31-2.46,5.95-3.21,14.51,1.71c5.47,3.15,4.44,2.85,10.4,4.84
		c2.05,0.68,1.88,1.08,4.1,1.21c2.06,0.12,2.89-0.12,4.67,0.43c1.78,0.55,2.16,0.83,4.46,0.86c8.12,0.12,4.6,0,9.21-1.12
		c5.53-1.34,8.97-2.01,14.32-6.36c1.34-1.09,1.26-1.12,2.9-2.11C291.11,101.69,291.65,101.16,291.44,99.02z"/>
</g>
</svg>
