<?xml version="1.0" encoding="utf-8"?>
<!-- Generator: Adobe Illustrator 24.1.2, SVG Export Plug-In . SVG Version: 6.00 Build 0)  -->
<svg version="1.1" id="Capa_1" xmlns="http://www.w3.org/2000/svg" xmlns:xlink="http://www.w3.org/1999/xlink" x="0px" y="0px"
	 viewBox="0 0 198.31 186.35" style="enable-background:new 0 0 198.31 186.35;" xml:space="preserve">
<style type="text/css">
	.st0{fill:#6F6F6F;}
</style>
<g>
	<g>
		<g>
			<g>
				<path class="st0" d="M97.84,75.72c-14.27,0-25.88-11.61-25.88-25.88c0-14.27,11.61-25.88,25.88-25.88s25.88,11.61,25.88,25.88
					C123.71,64.11,112.11,75.72,97.84,75.72z M97.84,24.79c-13.81,0-25.05,11.24-25.05,25.05c0,13.81,11.24,25.05,25.05,25.05
					s25.05-11.24,25.05-25.05C122.88,36.03,111.65,24.79,97.84,24.79z"/>
			</g>
			<g>
				<g>
					<path class="st0" d="M97.5,61.09L97.5,61.09c-0.12,0-0.24-0.05-0.32-0.15L85.45,46.96c-0.13-0.15-0.13-0.38,0-0.53l4.72-5.62
						c0.08-0.09,0.19-0.15,0.32-0.15l14.06-0.07c0,0,0,0,0,0c0.12,0,0.24,0.05,0.32,0.15l4.73,5.64c0.13,0.15,0.13,0.38,0,0.53
						L97.82,60.94C97.74,61.03,97.63,61.09,97.5,61.09z M86.31,46.69L97.5,60.03l11.23-13.39l-4.38-5.22l-13.67,0.07L86.31,46.69z"
						/>
				</g>
				<g>
					<path class="st0" d="M101.05,47.09L101.05,47.09c-0.14,0-0.28-0.07-0.35-0.19l-3.17-5.04l-3.17,5.04
						c-0.15,0.24-0.55,0.24-0.7,0l-3.52-5.6c-0.12-0.19-0.06-0.45,0.13-0.57c0.19-0.12,0.45-0.06,0.57,0.13l3.17,5.04l3.17-5.04
						c0.15-0.24,0.55-0.24,0.7,0l3.17,5.04l3.26-5.19c0.12-0.19,0.38-0.25,0.57-0.13c0.19,0.12,0.25,0.38,0.13,0.57l-3.61,5.74
						C101.32,47.01,101.19,47.09,101.05,47.09z"/>
				</g>
				<g>
					<path class="st0" d="M109.28,47.11h-23.5c-0.23,0-0.42-0.19-0.42-0.42c0-0.23,0.19-0.42,0.42-0.42h23.5
						c0.23,0,0.42,0.19,0.42,0.42C109.69,46.92,109.51,47.11,109.28,47.11z"/>
				</g>
				<g>
					<path class="st0" d="M97.5,60.99C97.5,60.99,97.5,60.99,97.5,60.99c-0.21,0-0.38-0.14-0.43-0.34L93.6,46.77
						c-0.06-0.22,0.08-0.45,0.3-0.5c0.22-0.06,0.45,0.08,0.5,0.3l3.1,12.4l3.14-12.4c0.06-0.22,0.28-0.36,0.5-0.3
						c0.22,0.06,0.36,0.28,0.3,0.5l-3.51,13.88C97.89,60.83,97.69,60.99,97.5,60.99z"/>
				</g>
			</g>
			<g>
				<g>
					<path class="st0" d="M106.32,22.2c-1.15,0-2.31-0.29-3.38-0.91c-1.27-0.73-2.18-2-2.51-3.49c-0.49-2.24,0.15-4.27,1.72-5.42
						c1.44-1.05,3.36-1.16,4.9-0.27c0.85,0.49,1.47,1.35,1.68,2.35c0.29,1.35-0.03,2.58-0.89,3.37c-0.78,0.72-1.89,0.99-2.91,0.69
						c-0.22-0.06-0.35-0.29-0.28-0.51c0.06-0.22,0.29-0.35,0.51-0.28c0.74,0.21,1.55,0.02,2.11-0.5c0.65-0.6,0.88-1.52,0.65-2.59
						c-0.17-0.79-0.63-1.43-1.29-1.81c-1.26-0.73-2.83-0.64-4,0.22c-1.32,0.97-1.83,2.63-1.4,4.57c0.28,1.26,1.05,2.34,2.11,2.95
						c2.85,1.64,6.5,0.66,8.14-2.19c2.08-3.61,0.84-8.23-2.77-10.31c0,0-0.07-0.04-0.07-0.04c-1.55-0.88-3.35-1.05-5.08-0.5
						c-1.78,0.57-3.26,1.87-4.06,3.56l-2.97,6.34c-0.89,1.9-2.55,3.36-4.56,4c-1.95,0.62-3.99,0.42-5.74-0.57l-0.08-0.05
						c-4-2.31-5.38-7.44-3.07-11.45c1.87-3.24,6.03-4.36,9.27-2.49c1.27,0.73,2.18,2,2.51,3.49c0.49,2.24-0.15,4.27-1.72,5.42
						c-1.44,1.05-3.36,1.16-4.9,0.27c-0.85-0.49-1.47-1.35-1.68-2.35c-0.29-1.35,0.03-2.58,0.89-3.37c0.78-0.72,1.89-0.99,2.91-0.69
						c0.22,0.06,0.35,0.29,0.28,0.51c-0.06,0.22-0.3,0.35-0.51,0.28c-0.74-0.21-1.55-0.02-2.11,0.5c-0.65,0.6-0.88,1.52-0.65,2.59
						c0.17,0.79,0.63,1.43,1.29,1.81c1.26,0.73,2.83,0.64,4-0.22c1.32-0.97,1.83-2.63,1.4-4.57c-0.28-1.26-1.05-2.34-2.11-2.95
						c-2.85-1.64-6.5-0.66-8.14,2.19c-2.08,3.61-0.84,8.23,2.77,10.31l0.07,0.04c1.55,0.87,3.35,1.05,5.08,0.5
						c1.78-0.57,3.26-1.87,4.06-3.56l2.97-6.34c0.89-1.9,2.55-3.36,4.56-4c1.95-0.62,3.99-0.42,5.74,0.57l0.05,0.03
						c4.03,2.32,5.41,7.46,3.1,11.46C110.96,20.98,108.67,22.2,106.32,22.2z"/>
				</g>
				<g>
					<path class="st0" d="M97.65,6.14c-1.69,0-3.07-1.38-3.07-3.07c0-1.69,1.38-3.07,3.07-3.07c1.69,0,3.07,1.38,3.07,3.07
						C100.72,4.77,99.35,6.14,97.65,6.14z M97.65,0.83c-1.24,0-2.24,1.01-2.24,2.24c0,1.24,1.01,2.24,2.24,2.24
						c1.24,0,2.24-1.01,2.24-2.24C99.89,1.84,98.89,0.83,97.65,0.83z"/>
				</g>
			</g>
			<g>
				<g>
					<g>
						<path class="st0" d="M74.76,12.1c-0.49,0-0.99-0.12-1.45-0.37c0,0,0,0,0,0c-1.49-0.8-2.05-2.67-1.24-4.16
							c0.81-1.49,2.67-2.05,4.16-1.24c1.49,0.8,2.05,2.67,1.24,4.16C76.91,11.52,75.85,12.1,74.76,12.1z M73.7,11
							c1.09,0.59,2.45,0.18,3.04-0.91c0.59-1.09,0.18-2.45-0.91-3.04c-1.09-0.59-2.45-0.18-3.04,0.91C72.2,9.05,72.61,10.41,73.7,11
							L73.7,11z"/>
					</g>
				</g>
				<g>
					<path class="st0" d="M81.01,26.46c-0.06,0-0.13-0.02-0.19-0.04c-0.12-0.06-0.21-0.18-0.22-0.32l-0.99-7.45
						c-0.02-0.17,0.06-0.34,0.21-0.42c0.15-0.08,0.34-0.06,0.47,0.05l5.74,4.85c0.1,0.09,0.16,0.22,0.15,0.36
						c-0.01,0.14-0.09,0.26-0.21,0.32l-4.75,2.6C81.15,26.44,81.08,26.46,81.01,26.46z M80.58,19.61l0.77,5.79l3.69-2.02
						L80.58,19.61z"/>
				</g>
			</g>
			<g>
				<g>
					<path class="st0" d="M106.23,93.98c-1.15,0-2.31-0.29-3.38-0.91c-1.27-0.73-2.18-2-2.51-3.49c-0.49-2.24,0.15-4.27,1.72-5.42
						c1.44-1.05,3.36-1.16,4.9-0.27c0.85,0.49,1.47,1.35,1.68,2.35c0.29,1.35-0.03,2.58-0.89,3.38c-0.78,0.72-1.89,0.99-2.91,0.69
						c-0.22-0.06-0.35-0.29-0.28-0.51c0.06-0.22,0.3-0.34,0.51-0.28c0.74,0.21,1.55,0.02,2.11-0.5c0.65-0.6,0.88-1.52,0.65-2.59
						c-0.17-0.79-0.63-1.43-1.29-1.81c-1.26-0.72-2.83-0.64-4,0.22c-1.32,0.97-1.83,2.63-1.4,4.57c0.28,1.26,1.05,2.34,2.11,2.95
						c2.85,1.64,6.5,0.66,8.14-2.19c2.08-3.61,0.84-8.23-2.77-10.31l0.13-0.4l-0.2,0.36c-1.55-0.88-3.35-1.05-5.08-0.5
						c-1.78,0.57-3.26,1.87-4.06,3.56l-2.97,6.34c-0.89,1.9-2.55,3.36-4.56,4c-1.95,0.62-3.99,0.42-5.74-0.57l-0.08-0.05
						c-4-2.31-5.38-7.44-3.07-11.45c1.87-3.24,6.03-4.36,9.27-2.49c1.27,0.73,2.18,2,2.51,3.49c0.49,2.24-0.15,4.27-1.72,5.42
						c-1.44,1.05-3.36,1.16-4.9,0.27c-0.85-0.49-1.47-1.35-1.68-2.35c-0.29-1.35,0.03-2.58,0.89-3.37c0.78-0.72,1.89-0.99,2.91-0.69
						c0.22,0.06,0.35,0.29,0.28,0.51c-0.06,0.22-0.3,0.35-0.51,0.28c-0.74-0.21-1.55-0.02-2.11,0.5c-0.65,0.6-0.88,1.52-0.65,2.59
						c0.17,0.79,0.63,1.43,1.29,1.81c1.26,0.73,2.83,0.64,4-0.22c1.32-0.97,1.83-2.63,1.4-4.57c-0.28-1.26-1.05-2.34-2.11-2.95
						c-2.85-1.64-6.5-0.66-8.14,2.19c-2.08,3.61-0.84,8.23,2.77,10.31l0.07,0.04c1.55,0.88,3.35,1.05,5.08,0.5
						c1.78-0.57,3.26-1.87,4.06-3.56l2.97-6.34c0.89-1.9,2.55-3.36,4.56-4c1.95-0.62,3.99-0.42,5.74,0.57c0,0,0.08,0.04,0.08,0.04
						c4,2.31,5.38,7.44,3.08,11.45C110.87,92.76,108.58,93.98,106.23,93.98z"/>
				</g>
				<g>
					<path class="st0" d="M97.56,99.95c-1.69,0-3.07-1.38-3.07-3.07c0-1.69,1.38-3.07,3.07-3.07c1.69,0,3.07,1.38,3.07,3.07
						C100.63,98.57,99.25,99.95,97.56,99.95z M97.56,94.64c-1.24,0-2.24,1.01-2.24,2.24c0,1.24,1.01,2.24,2.24,2.24
						c1.24,0,2.24-1.01,2.24-2.24C99.8,95.64,98.8,94.64,97.56,94.64z"/>
				</g>
			</g>
			<g>
				<g>
					<g>
						<path class="st0" d="M120.45,93.99c-0.5,0-1-0.12-1.46-0.37c-0.72-0.39-1.25-1.04-1.48-1.82c-0.23-0.79-0.15-1.62,0.24-2.34
							c0.81-1.49,2.67-2.05,4.16-1.24l0,0c1.49,0.8,2.05,2.67,1.24,4.16c-0.39,0.72-1.04,1.25-1.82,1.48
							C121.04,93.95,120.74,93.99,120.45,93.99z M120.45,88.68c-0.8,0-1.57,0.43-1.98,1.18c-0.28,0.53-0.35,1.13-0.18,1.71
							c0.17,0.57,0.56,1.05,1.08,1.33c0.53,0.28,1.13,0.35,1.71,0.18c0.57-0.17,1.05-0.56,1.33-1.08c0.59-1.09,0.18-2.45-0.91-3.04
							l0,0C121.18,88.76,120.81,88.68,120.45,88.68z"/>
					</g>
				</g>
				<g>
					<path class="st0" d="M115.19,81.77c-0.1,0-0.19-0.03-0.27-0.1l-5.74-4.85c-0.1-0.09-0.16-0.22-0.15-0.36
						c0.01-0.14,0.09-0.26,0.21-0.32l4.75-2.6c0.12-0.07,0.27-0.07,0.39-0.01c0.12,0.06,0.21,0.18,0.22,0.32l0.99,7.45
						c0.02,0.17-0.06,0.34-0.21,0.42C115.32,81.75,115.26,81.77,115.19,81.77z M110.17,76.58l4.46,3.77l-0.77-5.79L110.17,76.58z"/>
				</g>
			</g>
			<g>
				<g>
					<path class="st0" d="M62.46,46.4c-0.73,0-1.46-0.1-2.18-0.29c-2.16-0.58-3.97-1.97-5.09-3.91c-1.87-3.24-0.76-7.4,2.48-9.27
						c1.27-0.73,2.83-0.89,4.28-0.42c2.19,0.69,3.62,2.27,3.83,4.2c0.19,1.77-0.68,3.49-2.22,4.38c-0.85,0.49-1.9,0.59-2.88,0.28
						c-1.31-0.42-2.21-1.32-2.48-2.46c-0.24-1.03,0.09-2.13,0.86-2.86c0.16-0.16,0.43-0.15,0.59,0.01c0.16,0.17,0.15,0.43-0.01,0.59
						c-0.56,0.53-0.79,1.33-0.62,2.08c0.2,0.86,0.88,1.52,1.92,1.86c0.77,0.25,1.55,0.17,2.21-0.21c1.26-0.73,1.97-2.13,1.81-3.57
						c-0.18-1.62-1.36-2.9-3.25-3.5c-1.23-0.39-2.55-0.26-3.61,0.35c-2.85,1.64-3.82,5.29-2.18,8.14c1.01,1.75,2.64,3,4.59,3.52
						c1.95,0.52,3.98,0.26,5.73-0.75l0.07-0.04c1.53-0.9,2.59-2.37,2.98-4.15c0.4-1.83,0.02-3.76-1.05-5.3l-4-5.75
						c-1.2-1.73-1.63-3.89-1.18-5.95c0.44-2,1.63-3.66,3.37-4.68l0.08-0.05c1.94-1.12,4.19-1.41,6.36-0.84
						c2.16,0.58,3.97,1.97,5.09,3.91c1.87,3.24,0.76,7.4-2.48,9.27c-1.27,0.73-2.83,0.89-4.28,0.42c-2.19-0.69-3.62-2.27-3.83-4.2
						c-0.19-1.77,0.68-3.49,2.22-4.38c0.85-0.49,1.9-0.59,2.88-0.28c1.31,0.42,2.21,1.32,2.48,2.46c0.24,1.03-0.09,2.13-0.86,2.86
						c-0.17,0.16-0.43,0.15-0.59-0.01c-0.16-0.17-0.15-0.43,0.01-0.59c0.56-0.53,0.79-1.33,0.62-2.08c-0.2-0.86-0.88-1.52-1.92-1.86
						c-0.77-0.25-1.55-0.17-2.21,0.21c-1.26,0.73-1.97,2.13-1.81,3.57c0.18,1.62,1.36,2.9,3.25,3.5c1.23,0.39,2.55,0.26,3.61-0.35
						c2.85-1.64,3.82-5.29,2.18-8.14c-1.01-1.75-2.64-3-4.59-3.52c-1.95-0.52-3.98-0.25-5.73,0.75l-0.07,0.04
						c-1.53,0.9-2.59,2.37-2.98,4.15c-0.4,1.83-0.02,3.76,1.05,5.3l4,5.75c1.2,1.73,1.63,3.89,1.18,5.95
						c-0.44,2-1.63,3.66-3.37,4.68l-0.08,0.05C65.35,46.02,63.91,46.4,62.46,46.4z"/>
				</g>
				<g>
					<path class="st0" d="M57.02,29.52c-0.52,0-1.05-0.13-1.53-0.41l0,0c-1.47-0.85-1.97-2.73-1.12-4.2
						c0.85-1.47,2.73-1.97,4.2-1.12c1.47,0.85,1.97,2.73,1.12,4.2C59.12,28.97,58.09,29.52,57.02,29.52z M55.91,28.39
						c1.07,0.62,2.44,0.25,3.06-0.82c0.62-1.07,0.25-2.44-0.82-3.06c-1.07-0.62-2.44-0.25-3.06,0.82
						C54.47,26.4,54.84,27.77,55.91,28.39L55.91,28.39z"/>
				</g>
			</g>
			<g>
				<g>
					<g>
						<path class="st0" d="M50.73,52.18c-0.24,0-0.49-0.03-0.73-0.09c-0.8-0.19-1.47-0.68-1.9-1.39c-0.88-1.45-0.43-3.34,1.02-4.22
							c1.45-0.88,3.34-0.42,4.22,1.02c0.88,1.45,0.42,3.34-1.02,4.22l0,0C51.84,52.03,51.29,52.18,50.73,52.18z M52.11,51.37
							L52.11,51.37L52.11,51.37z M50.72,46.87c-0.4,0-0.8,0.11-1.16,0.33c-1.05,0.64-1.39,2.03-0.74,3.08
							c0.31,0.51,0.8,0.87,1.39,1.01c0.58,0.14,1.18,0.05,1.7-0.27l0,0c1.05-0.64,1.39-2.03,0.74-3.08
							C52.22,47.25,51.48,46.87,50.72,46.87z"/>
					</g>
				</g>
				<g>
					<path class="st0" d="M68.58,52.68c-0.05,0-0.11-0.01-0.16-0.03l-6.94-2.9c-0.16-0.07-0.26-0.22-0.25-0.39
						c0-0.17,0.11-0.32,0.28-0.38l7.08-2.52c0.13-0.05,0.27-0.03,0.38,0.05c0.11,0.08,0.17,0.21,0.17,0.35l-0.14,5.42
						c0,0.14-0.07,0.26-0.19,0.34C68.74,52.66,68.66,52.68,68.58,52.68z M62.79,49.4l5.39,2.25l0.11-4.21L62.79,49.4z"/>
				</g>
			</g>
			<g>
				<g>
					<path class="st0" d="M124.55,82.42c-0.73,0-1.46-0.1-2.18-0.29c-2.16-0.58-3.97-1.97-5.09-3.91c-1.87-3.24-0.76-7.4,2.48-9.27
						c1.27-0.73,2.83-0.88,4.28-0.42c2.19,0.69,3.62,2.26,3.83,4.2c0.19,1.77-0.68,3.49-2.22,4.38c-0.85,0.49-1.9,0.59-2.88,0.28
						c-1.31-0.42-2.21-1.32-2.48-2.46c-0.24-1.03,0.09-2.13,0.86-2.86c0.17-0.16,0.43-0.15,0.59,0.01c0.16,0.17,0.15,0.43-0.01,0.59
						c-0.56,0.53-0.79,1.33-0.62,2.08c0.2,0.86,0.88,1.52,1.92,1.86c0.77,0.25,1.55,0.17,2.21-0.21c1.26-0.73,1.97-2.13,1.81-3.57
						c-0.18-1.62-1.36-2.9-3.25-3.5c-1.23-0.39-2.55-0.26-3.61,0.35c-2.85,1.64-3.82,5.29-2.18,8.14c1.01,1.75,2.64,3,4.59,3.52
						c1.95,0.52,3.98,0.26,5.73-0.75l0.06-0.03c1.55-0.91,2.6-2.38,2.99-4.15c0.4-1.83,0.02-3.76-1.05-5.3l-4-5.75
						c-1.2-1.73-1.63-3.89-1.18-5.95c0.44-2,1.63-3.66,3.37-4.68c0,0,0.08-0.04,0.08-0.04c4-2.31,9.14-0.93,11.45,3.07
						c1.87,3.24,0.76,7.4-2.48,9.27c-1.27,0.73-2.83,0.89-4.28,0.42c-2.19-0.69-3.62-2.27-3.83-4.2c-0.19-1.77,0.68-3.49,2.22-4.38
						c0.85-0.49,1.9-0.59,2.88-0.28c1.31,0.42,2.21,1.32,2.47,2.46c0.24,1.03-0.09,2.13-0.86,2.86c-0.17,0.16-0.43,0.15-0.59-0.01
						c-0.16-0.17-0.15-0.43,0.01-0.59c0.56-0.53,0.79-1.33,0.62-2.08c-0.2-0.86-0.88-1.52-1.92-1.86c-0.77-0.25-1.55-0.17-2.21,0.21
						c-1.26,0.73-1.97,2.13-1.81,3.57c0.18,1.62,1.36,2.9,3.25,3.5c1.23,0.39,2.55,0.26,3.61-0.35c2.84-1.64,3.82-5.29,2.18-8.14
						c-2.08-3.61-6.71-4.85-10.32-2.76l-0.28-0.32l0.21,0.36c-1.53,0.9-2.59,2.37-2.98,4.14c-0.4,1.83-0.02,3.76,1.05,5.3l4,5.75
						c1.2,1.73,1.63,3.89,1.18,5.95c-0.44,2-1.63,3.66-3.37,4.68l-0.08,0.05C127.43,82.04,126,82.42,124.55,82.42z"/>
				</g>
				<g>
					<path class="st0" d="M138.18,76.57c-0.52,0-1.05-0.13-1.53-0.41c-1.47-0.85-1.97-2.73-1.12-4.2c0.41-0.71,1.07-1.22,1.87-1.43
						c0.79-0.21,1.62-0.1,2.33,0.31l0,0c0.71,0.41,1.22,1.07,1.43,1.87c0.21,0.79,0.1,1.62-0.31,2.33
						C140.27,76.02,139.24,76.57,138.18,76.57z M138.19,71.26c-0.19,0-0.39,0.03-0.58,0.08c-0.58,0.15-1.06,0.53-1.36,1.04
						c-0.62,1.07-0.25,2.44,0.82,3.06c1.07,0.62,2.44,0.25,3.06-0.82c0.3-0.52,0.38-1.12,0.23-1.7c-0.15-0.58-0.53-1.06-1.04-1.36
						l0,0C138.96,71.36,138.58,71.26,138.19,71.26z"/>
				</g>
			</g>
			<g>
				<g>
					<g>
						<path class="st0" d="M144.49,53.92c-0.24,0-0.49-0.03-0.73-0.09c-0.8-0.19-1.47-0.68-1.9-1.39c-0.43-0.7-0.56-1.53-0.36-2.32
							c0.19-0.8,0.68-1.47,1.38-1.9c0.7-0.43,1.53-0.56,2.32-0.36c0.8,0.19,1.47,0.68,1.9,1.39c0.88,1.45,0.43,3.34-1.02,4.22
							C145.6,53.76,145.05,53.92,144.49,53.92z M144.48,48.6c-0.41,0-0.81,0.11-1.16,0.33l0,0c-0.51,0.31-0.87,0.8-1.01,1.39
							c-0.14,0.58-0.05,1.18,0.27,1.7c0.31,0.51,0.8,0.87,1.39,1.01c0.58,0.14,1.18,0.05,1.69-0.27c0.51-0.31,0.87-0.8,1.01-1.39
							c0.14-0.58,0.05-1.18-0.27-1.7c-0.31-0.51-0.8-0.87-1.39-1.01C144.84,48.62,144.66,48.6,144.48,48.6z M143.1,48.57
							L143.1,48.57L143.1,48.57z"/>
					</g>
				</g>
				<g>
					<path class="st0" d="M126.49,53.51c-0.09,0-0.17-0.03-0.24-0.08c-0.11-0.08-0.17-0.21-0.17-0.35l0.14-5.42
						c0-0.14,0.07-0.26,0.19-0.34c0.11-0.07,0.26-0.09,0.39-0.03l6.94,2.9c0.16,0.07,0.26,0.22,0.25,0.39
						c0,0.17-0.11,0.32-0.28,0.38l-7.08,2.52C126.58,53.5,126.54,53.51,126.49,53.51z M127.03,48.3l-0.11,4.21l5.5-1.96L127.03,48.3
						z"/>
				</g>
			</g>
			<g>
				<path class="st0" d="M97.84,72.35c-12.41,0-22.51-10.1-22.51-22.51c0-12.41,10.1-22.51,22.51-22.51
					c12.41,0,22.51,10.1,22.51,22.51C120.35,62.25,110.25,72.35,97.84,72.35z M97.84,28.16c-11.95,0-21.68,9.73-21.68,21.68
					c0,11.95,9.73,21.68,21.68,21.68c11.95,0,21.68-9.73,21.68-21.68C119.52,37.88,109.79,28.16,97.84,28.16z"/>
			</g>
			<g>
				<path class="st0" d="M69.41,82.53c-0.03,0-0.06,0-0.09,0c-3.74-0.04-6.76-3.12-6.72-6.86c0.02-1.46,0.68-2.88,1.81-3.9
					c1.71-1.53,3.79-1.96,5.57-1.16c1.62,0.74,2.66,2.36,2.64,4.14c-0.01,0.98-0.46,1.94-1.23,2.62c-1.03,0.91-2.26,1.23-3.38,0.88
					c-1.01-0.32-1.79-1.16-2.03-2.2c-0.05-0.22,0.09-0.45,0.31-0.5c0.22-0.05,0.45,0.09,0.5,0.31c0.17,0.75,0.74,1.36,1.47,1.59
					c0.84,0.27,1.76,0.02,2.58-0.71c0.6-0.53,0.94-1.25,0.95-2.01c0.02-1.45-0.83-2.78-2.15-3.38c-1.49-0.67-3.19-0.3-4.67,1.02
					c-0.96,0.86-1.52,2.06-1.54,3.29c-0.03,3.28,2.61,5.99,5.89,6.02c0.03,0,0.05,0,0.08,0c4.13,0,7.51-3.33,7.55-7.47l0-0.08
					c0-1.78-0.72-3.44-2.05-4.67c-1.37-1.28-3.23-1.93-5.09-1.79l-6.98,0.51c-2.1,0.15-4.18-0.58-5.72-2.01
					c-1.5-1.39-2.32-3.27-2.32-5.28l0-0.09c0.05-4.59,3.8-8.29,8.38-8.29c0.03,0,0.06,0,0.09,0c3.74,0.04,6.76,3.12,6.72,6.86
					c-0.02,1.46-0.68,2.88-1.81,3.9c-1.71,1.53-3.79,1.96-5.57,1.16c-1.62-0.74-2.66-2.36-2.64-4.14c0.01-0.98,0.46-1.94,1.23-2.62
					c1.03-0.91,2.26-1.23,3.38-0.88c1.01,0.32,1.79,1.16,2.03,2.2c0.05,0.22-0.09,0.45-0.31,0.5c-0.22,0.05-0.45-0.09-0.5-0.31
					c-0.17-0.75-0.74-1.36-1.47-1.59c-0.84-0.27-1.76-0.02-2.58,0.71c-0.6,0.53-0.94,1.25-0.95,2.01c-0.02,1.45,0.83,2.78,2.15,3.38
					c1.49,0.68,3.19,0.3,4.67-1.02c0.96-0.86,1.52-2.06,1.54-3.29c0.02-1.59-0.59-3.09-1.7-4.23c-1.11-1.14-2.6-1.77-4.19-1.79
					c-0.03,0-0.05,0-0.08,0c-4.13,0-7.51,3.33-7.55,7.47l-0.42,0.08l0.42,0c0,1.78,0.72,3.44,2.05,4.67
					c1.37,1.28,3.23,1.93,5.09,1.79l6.98-0.51c2.1-0.16,4.18,0.58,5.72,2.01c1.5,1.39,2.32,3.27,2.32,5.28l0,0.09
					C77.74,78.83,73.99,82.53,69.41,82.53z"/>
			</g>
			<g>
				<path class="st0" d="M56.7,75.99c-0.28,0-0.56-0.04-0.83-0.12c-0.79-0.22-1.45-0.74-1.85-1.45c-0.4-0.72-0.5-1.54-0.28-2.33
					c0.22-0.79,0.74-1.45,1.45-1.85c1.48-0.83,3.35-0.3,4.18,1.17c0.4,0.72,0.5,1.54,0.28,2.33c-0.22,0.79-0.74,1.45-1.45,1.85v0
					C57.74,75.86,57.22,75.99,56.7,75.99z M56.69,70.68c-0.37,0-0.75,0.09-1.09,0.29c-0.52,0.29-0.9,0.77-1.06,1.35
					c-0.16,0.58-0.09,1.18,0.2,1.7c0.29,0.52,0.77,0.9,1.35,1.06c0.58,0.16,1.18,0.09,1.7-0.2v0c0.52-0.29,0.9-0.77,1.06-1.35
					c0.16-0.58,0.09-1.18-0.2-1.7C58.24,71.09,57.48,70.68,56.69,70.68z"/>
			</g>
			<g>
				<g>
					<path class="st0" d="M73.23,93.1c-1.67,0-3.04-1.34-3.07-3.01c-0.02-0.82,0.29-1.6,0.86-2.19c0.57-0.59,1.33-0.93,2.15-0.94
						c1.7-0.05,3.1,1.32,3.13,3.01v0c0.03,1.69-1.32,3.1-3.01,3.13C73.28,93.1,73.25,93.1,73.23,93.1z M73.23,87.79
						c-0.02,0-0.03,0-0.05,0c-0.6,0.01-1.16,0.26-1.57,0.69c-0.41,0.43-0.64,1-0.62,1.6c0.02,1.24,1.06,2.23,2.29,2.2
						c1.24-0.02,2.22-1.05,2.2-2.29v0C75.45,88.76,74.45,87.79,73.23,87.79z"/>
				</g>
				<g>
					<path class="st0" d="M78.96,81.15c-0.08,0-0.15-0.02-0.22-0.06c-0.15-0.09-0.22-0.26-0.19-0.43l1.39-7.39
						c0.03-0.13,0.12-0.25,0.24-0.3c0.13-0.05,0.27-0.04,0.39,0.03l4.61,2.85c0.12,0.07,0.19,0.2,0.2,0.33
						c0.01,0.14-0.06,0.27-0.16,0.35l-6,4.53C79.14,81.12,79.05,81.15,78.96,81.15z M80.65,74.02l-1.08,5.74l4.66-3.52L80.65,74.02z
						"/>
				</g>
			</g>
			<g>
				<path class="st0" d="M132.03,47.43c-0.03,0-0.06,0-0.09,0c-3.74-0.04-6.76-3.12-6.72-6.86c0.02-1.46,0.68-2.88,1.81-3.9
					c1.71-1.53,3.79-1.96,5.57-1.16c1.62,0.74,2.66,2.36,2.64,4.14c-0.01,0.98-0.46,1.94-1.23,2.62c-1.03,0.91-2.26,1.23-3.38,0.88
					c-1.01-0.32-1.79-1.16-2.03-2.2c-0.05-0.22,0.09-0.45,0.31-0.5c0.22-0.05,0.45,0.09,0.5,0.31c0.17,0.75,0.74,1.36,1.47,1.59
					c0.84,0.27,1.76,0.02,2.58-0.71c0.6-0.53,0.94-1.25,0.95-2.01c0.02-1.45-0.83-2.78-2.15-3.38c-1.49-0.67-3.19-0.3-4.67,1.02
					c-0.96,0.86-1.52,2.06-1.54,3.29c-0.02,1.59,0.59,3.09,1.7,4.23c1.11,1.14,2.6,1.77,4.19,1.79c2.03,0.03,3.92-0.74,5.36-2.15
					c1.44-1.41,2.25-3.3,2.27-5.32l0-0.08c0-1.78-0.72-3.44-2.05-4.67c-1.37-1.28-3.23-1.93-5.09-1.79l-6.98,0.51
					c-2.1,0.16-4.18-0.58-5.72-2.01c-1.5-1.39-2.32-3.27-2.32-5.28l0-0.09c0.05-4.59,3.8-8.29,8.38-8.29c0.03,0,0.06,0,0.09,0
					c3.74,0.04,6.76,3.12,6.72,6.86c-0.02,1.46-0.68,2.88-1.81,3.9c-1.71,1.53-3.79,1.96-5.57,1.16c-1.62-0.74-2.66-2.36-2.64-4.14
					c0.01-0.98,0.46-1.94,1.23-2.62c1.03-0.91,2.26-1.23,3.38-0.88c1.01,0.32,1.79,1.16,2.03,2.2c0.05,0.22-0.09,0.45-0.31,0.5
					c-0.22,0.05-0.45-0.09-0.5-0.31c-0.17-0.75-0.74-1.36-1.47-1.59c-0.84-0.27-1.76-0.02-2.58,0.71c-0.6,0.53-0.94,1.25-0.95,2.01
					c-0.02,1.45,0.83,2.78,2.15,3.38c1.49,0.68,3.19,0.3,4.67-1.02c0.96-0.86,1.52-2.06,1.54-3.29c0.04-3.28-2.61-5.99-5.89-6.02
					c-0.03,0-0.05,0-0.08,0c-4.13,0-7.51,3.33-7.55,7.47l-0.42,0.08l0.42,0c0,1.78,0.72,3.44,2.05,4.67
					c1.37,1.28,3.22,1.93,5.09,1.79l6.98-0.51c2.1-0.15,4.18,0.58,5.72,2.01c1.5,1.39,2.32,3.27,2.32,5.28l0,0.09
					c-0.02,2.24-0.92,4.34-2.52,5.9C136.31,46.58,134.23,47.43,132.03,47.43z"/>
			</g>
			<g>
				<path class="st0" d="M138.52,30.1c-0.28,0-0.56-0.04-0.83-0.12c-0.79-0.22-1.45-0.74-1.85-1.45c-0.4-0.72-0.5-1.54-0.28-2.33
					c0.22-0.79,0.74-1.45,1.45-1.85v0c1.48-0.83,3.35-0.3,4.18,1.17c0.4,0.72,0.5,1.54,0.28,2.33c-0.22,0.79-0.74,1.45-1.45,1.85
					C139.55,29.97,139.04,30.1,138.52,30.1z M138.51,24.79c-0.37,0-0.75,0.09-1.09,0.29v0c-0.52,0.29-0.9,0.77-1.06,1.35
					c-0.16,0.58-0.09,1.18,0.2,1.7c0.29,0.52,0.77,0.9,1.35,1.06c0.58,0.16,1.18,0.09,1.7-0.2c0.52-0.29,0.9-0.77,1.06-1.35
					c0.16-0.58,0.09-1.18-0.2-1.7C140.06,25.2,139.29,24.79,138.51,24.79z M137.21,24.71L137.21,24.71L137.21,24.71z"/>
			</g>
			<g>
				<g>
					<path class="st0" d="M121.98,12.99c-0.8,0-1.55-0.3-2.13-0.86c-0.59-0.57-0.93-1.33-0.94-2.15c-0.03-1.69,1.32-3.1,3.01-3.13
						c1.68-0.06,3.1,1.32,3.13,3.01c0.03,1.69-1.32,3.1-3.01,3.13C122.02,12.99,122,12.99,121.98,12.99z M121.98,7.68
						c-0.02,0-0.03,0-0.05,0c-1.24,0.02-2.22,1.05-2.2,2.29c0.01,0.6,0.26,1.16,0.69,1.57c0.43,0.41,1,0.64,1.6,0.62
						c1.24-0.02,2.22-1.05,2.2-2.29C124.2,8.65,123.19,7.68,121.98,7.68z"/>
				</g>
				<g>
					<path class="st0" d="M114.86,27.02c-0.08,0-0.15-0.02-0.22-0.06l-4.61-2.85c-0.12-0.07-0.19-0.2-0.2-0.33
						c-0.01-0.14,0.06-0.27,0.16-0.35l6-4.53c0.14-0.1,0.32-0.11,0.47-0.02c0.15,0.09,0.22,0.26,0.19,0.43l-1.39,7.39
						c-0.03,0.13-0.12,0.25-0.24,0.3C114.97,27,114.92,27.02,114.86,27.02z M110.99,23.71l3.58,2.22l1.08-5.74L110.99,23.71z"/>
				</g>
			</g>
		</g>
		<path class="st0" d="M64.26,90.57H34.2c-0.71-0.14-1.37-0.49-1.91-1c-0.75-0.72-1.18-1.69-1.21-2.73
			c-0.02-1.04,0.36-2.03,1.08-2.78c0.72-0.75,1.69-1.18,2.73-1.21c1.95-0.07,3.61,1.36,3.9,3.27c0.02,0.16,0.04,0.33,0.04,0.49
			c0.01,0.23,0.21,0.41,0.42,0.41c0.23-0.01,0.41-0.2,0.41-0.42c0-0.2-0.02-0.4-0.05-0.6c-0.35-2.32-2.39-4.01-4.74-3.97
			c-1.26,0.03-2.44,0.55-3.31,1.46c-0.87,0.91-1.34,2.11-1.31,3.38c0.03,1.26,0.55,2.44,1.46,3.31c0.15,0.14,0.31,0.27,0.48,0.4
			L4.84,90.51c-0.04,0-0.08,0-0.11,0c-2.56,0-4.67,2.05-4.73,4.62c-0.03,1.26,0.43,2.46,1.31,3.38c0.87,0.91,2.05,1.43,3.31,1.46
			c0.04,0,0.08,0,0.11,0c2.3,0,4.28-1.69,4.63-3.98c0.03-0.2,0.05-0.4,0.05-0.6c0.01-0.23-0.18-0.42-0.4-0.43
			c-0.23,0.01-0.42,0.18-0.43,0.4c0,0.17-0.02,0.33-0.04,0.49c-0.29,1.91-1.99,3.33-3.9,3.27c-1.04-0.02-2.01-0.45-2.73-1.21
			c-0.72-0.75-1.1-1.74-1.08-2.78c0.05-2.12,1.79-3.81,3.9-3.81c0.03,0,0.06,0,0.09,0l59.43,0.06c0.23,0,0.42-0.19,0.42-0.42
			C64.67,90.75,64.49,90.57,64.26,90.57z"/>
		<path class="st0" d="M134.05,90.57h30.05c0.71-0.14,1.37-0.49,1.91-1c0.75-0.72,1.18-1.69,1.21-2.73
			c0.02-1.04-0.36-2.03-1.08-2.78c-0.72-0.75-1.69-1.18-2.73-1.21c-1.95-0.07-3.61,1.36-3.9,3.27c-0.02,0.16-0.04,0.33-0.04,0.49
			c-0.01,0.23-0.21,0.41-0.42,0.41c-0.23-0.01-0.41-0.2-0.41-0.42c0-0.2,0.02-0.4,0.05-0.6c0.35-2.32,2.39-4.01,4.74-3.97
			c1.26,0.03,2.44,0.55,3.31,1.46c0.87,0.91,1.34,2.11,1.31,3.38c-0.03,1.26-0.55,2.44-1.46,3.31c-0.15,0.14-0.31,0.27-0.48,0.4
			l27.36-0.06c0.04,0,0.08,0,0.11,0c2.56,0,4.67,2.05,4.73,4.62c0.03,1.26-0.43,2.46-1.31,3.38c-0.87,0.91-2.05,1.43-3.31,1.46
			c-0.04,0-0.08,0-0.11,0c-2.3,0-4.28-1.69-4.63-3.98c-0.03-0.2-0.05-0.4-0.05-0.6c-0.01-0.23,0.18-0.42,0.4-0.43
			c0.23,0.01,0.42,0.18,0.43,0.4c0,0.17,0.02,0.33,0.04,0.49c0.29,1.91,1.99,3.33,3.9,3.27c1.04-0.02,2.01-0.45,2.73-1.21
			c0.72-0.75,1.1-1.74,1.08-2.78c-0.05-2.12-1.79-3.81-3.9-3.81c-0.03,0-0.06,0-0.09,0l-59.43,0.06c-0.23,0-0.42-0.19-0.42-0.42
			C133.64,90.75,133.82,90.57,134.05,90.57z"/>
		<g>
			<g>
				<path class="st0" d="M74.52,179.27c-1.48,0-2.93-0.69-3.85-1.98c-1.52-2.12-1.02-5.08,1.1-6.6c1.91-1.37,4.56-1.1,6.16,0.62
					c0.14,0.15,0.26,0.3,0.38,0.47c0.13,0.19,0.09,0.45-0.1,0.58c-0.19,0.13-0.45,0.09-0.58-0.1c-0.1-0.14-0.2-0.26-0.31-0.38
					c-1.31-1.42-3.49-1.64-5.07-0.51c-1.75,1.25-2.16,3.69-0.91,5.44c1.25,1.75,3.69,2.16,5.44,0.91l10.24-7.32
					c2.12-1.52,5.09-1.02,6.6,1.1c1.52,2.12,1.02,5.09-1.1,6.6c-1.94,1.39-4.65,1.13-6.29-0.59c-0.16-0.16-0.3-0.34-0.44-0.53
					c-0.13-0.19-0.09-0.45,0.1-0.58c0.19-0.13,0.45-0.09,0.58,0.1c0.11,0.16,0.23,0.3,0.36,0.44c1.36,1.43,3.6,1.64,5.21,0.49
					c1.75-1.25,2.16-3.69,0.91-5.45c-1.25-1.75-3.69-2.16-5.45-0.91l-10.24,7.32C76.43,178.98,75.47,179.27,74.52,179.27z"/>
			</g>
			<g>
				<path class="st0" d="M117.74,179.27c-0.95,0-1.91-0.29-2.74-0.88l-10.24-7.32c-0.85-0.61-1.88-0.84-2.91-0.68
					c-1.03,0.17-1.93,0.73-2.53,1.58c-1.25,1.75-0.85,4.19,0.91,5.45c1.61,1.15,3.85,0.94,5.21-0.49c0.13-0.14,0.25-0.28,0.36-0.44
					c0.13-0.19,0.39-0.23,0.58-0.1c0.19,0.13,0.23,0.39,0.1,0.58c-0.13,0.19-0.28,0.36-0.44,0.53c-1.64,1.72-4.35,1.98-6.29,0.59
					c-2.12-1.52-2.62-4.48-1.1-6.6c0.74-1.03,1.83-1.71,3.07-1.92c1.25-0.21,2.5,0.08,3.53,0.82l10.24,7.32
					c1.75,1.25,4.19,0.84,5.44-0.91c1.25-1.75,0.84-4.19-0.91-5.44c-1.57-1.13-3.75-0.91-5.07,0.51c-0.11,0.12-0.22,0.25-0.31,0.38
					c-0.13,0.19-0.39,0.23-0.58,0.1c-0.19-0.13-0.23-0.39-0.1-0.58c0.12-0.16,0.24-0.32,0.38-0.47c1.6-1.72,4.24-1.99,6.16-0.62
					c2.12,1.52,2.61,4.48,1.1,6.6C120.67,178.58,119.22,179.27,117.74,179.27z"/>
			</g>
			<g>
				<path class="st0" d="M96.27,186.35L96.27,186.35c-0.17,0-0.33-0.11-0.39-0.27l-2.38-6.37c-0.07-0.19,0-0.4,0.18-0.5
					c0.41-0.24,0.8-0.54,1.15-0.87c0.42-0.4,0.78-0.86,1.08-1.36c0.08-0.13,0.22-0.22,0.37-0.2c0.15,0.01,0.29,0.09,0.36,0.23
					c0.22,0.45,0.51,0.85,0.85,1.21c0.39,0.4,0.84,0.73,1.34,0.98c0.19,0.09,0.28,0.32,0.21,0.52l-2.38,6.37
					C96.6,186.25,96.44,186.35,96.27,186.35z M94.4,179.75l1.87,5.01l1.86-4.98c-0.46-0.26-0.87-0.59-1.24-0.97
					c-0.24-0.25-0.46-0.52-0.65-0.81c-0.25,0.35-0.53,0.67-0.84,0.96C95.09,179.24,94.76,179.51,94.4,179.75z"/>
			</g>
		</g>
		<g>
			<path class="st0" d="M49.77,156.55H2.91c-0.23,0-0.42-0.19-0.42-0.42s0.19-0.42,0.42-0.42h46.87c0.23,0,0.42,0.19,0.42,0.42
				S50,156.55,49.77,156.55z"/>
		</g>
		<g>
			<path class="st0" d="M194.62,156.55h-46.87c-0.23,0-0.42-0.19-0.42-0.42s0.19-0.42,0.42-0.42h46.87c0.23,0,0.42,0.19,0.42,0.42
				S194.85,156.55,194.62,156.55z"/>
		</g>
	</g>
</g>
<g>
	<g>
		<path class="st0" d="M0.43,138.94c0-0.76,0.25-1.12,0.7-1.12c0.25,0,1.14,0.2,1.69,0.2c1.24,0,1.49-0.31,1.49-2.14v-26.2
			c0-1.78-0.3-2.14-1.29-2.14c-0.79,0-2.28,0.26-2.68,0.26c-0.35,0-0.55-0.36-0.55-1.12c0-0.66,0.35-0.97,1.04-0.97
			c0.84,0,3.71,0,6.34,0c2.73,0,5.18,0,6.03,0c0.65,0,0.99,0.31,0.99,0.97c0,0.76-0.2,1.12-0.55,1.12c-0.4,0-1.89-0.26-2.68-0.26
			c-0.99,0-1.24,0.36-1.24,2.14v25.9c0,1.48,0.7,2.19,2.09,2.19h3.53c4.62,0,7.5-2.8,7.5-7.29c0-0.82-0.1-2.55-0.1-2.96
			c0-0.56,0.45-0.87,1.39-0.87c0.6,0,0.89,0.26,0.89,0.82c-0.15,2.04-0.25,3.62-0.25,4.74c0,1.02,0,2.24,0.05,3.67
			c0.05,1.43,0.1,2.5,0.1,3.21c0,0.56-0.3,0.82-0.89,0.82c-0.25,0-0.89-0.05-1.94-0.1c-1.04-0.05-1.89-0.05-2.58-0.05H5.1
			c-1.64,0-3.77,0.2-4.02,0.2C0.63,139.96,0.43,139.6,0.43,138.94z"/>
		<path class="st0" d="M32.41,125.74l-0.05-16.01c0.05-1.78-0.25-2.14-1.19-2.14c-0.79,0-2.23,0.25-2.68,0.25
			c-0.4,0-0.6-0.36-0.6-1.12c0-0.66,0.35-1.02,1.04-1.02c0.5,0,1.14,0.05,1.94,0.1c0.89,0.1,2.28,0.15,4.22,0.15
			c1.99,0,3.38-0.05,4.22-0.15c0.84-0.05,1.54-0.1,1.99-0.1c0.74,0,0.99,0.26,0.99,1.02c0,0.76-0.2,1.12-0.55,1.12
			c-0.45,0-1.89-0.25-2.63-0.25c-0.99,0-1.29,0.36-1.29,2.14v16.01c0,8.56,2.14,12.74,7.7,12.74c5.91,0,9.09-4.38,9.09-12.8v-14.43
			c0-1.99-0.89-3.62-2.14-3.62c-0.65,0-1.69,0.26-1.94,0.26c-0.4,0-0.6-0.41-0.6-1.17c0-0.82,0.25-1.02,1.04-1.02
			c0.25,0,0.89,0.05,1.89,0.15c0.74,0.05,1.64,0.1,2.73,0.1c0.99,0,1.99-0.05,2.98-0.1c0.6-0.1,1.14-0.15,1.69-0.15
			c0.74,0,0.99,0.2,0.99,1.02c0,0.76-0.2,1.17-0.55,1.17c-0.25,0-1.24-0.26-2.04-0.26c-1.24,0-2.09,1.63-2.09,3.62v14.43
			c0,5-1.04,8.72-3.13,11.21c-2.04,2.5-4.72,3.72-7.95,3.72C37.38,140.62,32.41,135.32,32.41,125.74z"/>
		<path class="st0" d="M96.67,138.99c0,0.82-0.25,0.97-1.04,0.97c-0.6,0-3.13-0.26-6.66-0.26c-3.03,0-5.56,0.26-6.56,0.26
			c-0.74,0-0.99-0.2-0.99-0.97s0.2-1.17,0.55-1.17c0.35,0,1.49,0.26,2.14,0.26c1.19,0,1.49-0.82,0.55-2.45l-6.11-10.2l-7.05,10.4
			c-0.79,1.27-0.55,2.24,0.6,2.24c0.84,0,2.28-0.2,2.63-0.2c0.4,0,0.6,0.36,0.6,1.12c0,0.82-0.3,0.97-1.29,0.97
			c-0.84,0-2.98-0.26-5.17-0.26c-2.23,0-4.12,0.26-4.87,0.26s-0.99-0.2-0.99-0.97s0.2-1.12,0.55-1.12s1.49,0.2,2.14,0.2
			c1.29,0,2.48-0.76,3.58-2.34l8.24-12.03l-8.39-13.97c-0.89-1.48-2.09-2.24-3.63-2.24c-0.45,0-1.49,0.26-1.84,0.26
			c-0.35,0-0.55-0.41-0.55-1.17c0-0.76,0.25-0.92,0.99-0.92c0.55,0,3.18,0.25,6.7,0.25c2.98,0,5.56-0.25,6.56-0.25
			c0.74,0,0.99,0.15,0.99,0.92c0,0.76-0.2,1.17-0.6,1.17c-0.35,0-1.34-0.26-1.99-0.26c-1.19,0-1.59,0.66-0.79,2.24l5.71,9.53
			l6.41-9.53c0.84-1.38,0.3-2.24-0.89-2.24c-0.99,0-2.28,0.26-2.53,0.26c-0.4,0-0.6-0.41-0.6-1.17c0-0.61,0.35-0.92,1.04-0.92
			c0.84,0,3.28,0.25,5.46,0.25c2.23,0,4.17-0.25,4.92-0.25s0.99,0.15,0.99,0.92c0,0.76-0.2,1.17-0.55,1.17s-1.44-0.26-2.09-0.26
			c-1.24,0-2.43,0.76-3.48,2.29L81.72,121l8.74,14.58c1.04,1.68,2.28,2.5,3.77,2.5c0.55,0,1.59-0.26,1.84-0.26
			C96.47,137.82,96.67,138.23,96.67,138.99z"/>
		<path class="st0" d="M103.28,125.74l-0.05-16.01c0.05-1.78-0.25-2.14-1.19-2.14c-0.79,0-2.23,0.25-2.68,0.25
			c-0.4,0-0.6-0.36-0.6-1.12c0-0.66,0.35-1.02,1.04-1.02c0.5,0,1.14,0.05,1.94,0.1c0.89,0.1,2.28,0.15,4.22,0.15
			c1.99,0,3.38-0.05,4.22-0.15c0.84-0.05,1.54-0.1,1.99-0.1c0.74,0,0.99,0.26,0.99,1.02c0,0.76-0.2,1.12-0.55,1.12
			c-0.45,0-1.89-0.25-2.63-0.25c-0.99,0-1.29,0.36-1.29,2.14v16.01c0,8.56,2.14,12.74,7.7,12.74c5.91,0,9.09-4.38,9.09-12.8v-14.43
			c0-1.99-0.89-3.62-2.14-3.62c-0.65,0-1.69,0.26-1.94,0.26c-0.4,0-0.6-0.41-0.6-1.17c0-0.82,0.25-1.02,1.04-1.02
			c0.25,0,0.89,0.05,1.89,0.15c0.74,0.05,1.64,0.1,2.73,0.1c0.99,0,1.99-0.05,2.98-0.1c0.6-0.1,1.14-0.15,1.69-0.15
			c0.74,0,0.99,0.2,0.99,1.02c0,0.76-0.2,1.17-0.55,1.17c-0.25,0-1.24-0.26-2.04-0.26c-1.24,0-2.09,1.63-2.09,3.62v14.43
			c0,5-1.04,8.72-3.13,11.21c-2.04,2.5-4.72,3.72-7.95,3.72C108.24,140.62,103.28,135.32,103.28,125.74z"/>
		<path class="st0" d="M166.4,136.9c0.45,0.36,0.55,0.71,0.3,1.07c-0.89,1.27-2.33,1.94-4.32,1.94c-3.63,0-6.16-2.8-6.75-8.67
			c-0.35-3.31-0.99-5.56-1.99-6.78c-0.99-1.27-2.93-1.89-5.81-1.89h-2.73v13.36c0,1.78,0.25,2.14,1.24,2.14
			c0.79,0,2.28-0.2,2.68-0.2c0.35,0,0.55,0.36,0.55,1.07c0,0.66-0.35,1.02-0.99,1.02c-0.79,0-3.18-0.26-6.11-0.26
			c-2.83,0-5.46,0.26-6.26,0.26c-0.7,0-1.04-0.36-1.04-1.02c0-0.71,0.2-1.07,0.55-1.07c0.4,0,1.89,0.2,2.68,0.2
			c0.99,0,1.29-0.36,1.29-2.14v-26.25c0-1.84-0.25-2.14-1.49-2.14c-0.55,0-1.44,0.2-1.69,0.2c-0.45,0-0.7-0.36-0.7-1.12
			c0-0.61,0.2-0.92,0.6-0.92c0.2,0,1.54,0.15,2.78,0.15h4.47c0.6,0,1.64-0.05,3.08-0.1c1.44-0.1,2.53-0.15,3.18-0.15
			c7.95,0,11.92,2.75,11.92,8.31c0,4.28-2.68,7.14-7.7,8.21c4.47,1.22,6.85,4.03,7.2,8.46c0.25,3.11,0.5,5.15,0.7,6.01
			c0.2,0.87,0.65,1.33,1.39,1.33c0.6,0,1.19-0.36,1.84-1.07C165.55,136.49,165.95,136.54,166.4,136.9z M145.09,120.79h4.22
			c5.02,0,7.4-2.75,7.4-6.88c0-3.93-2.09-6.37-6.7-6.37h-2.73c-1.54,0-2.19,0.61-2.19,2.29V120.79z"/>
		<path class="st0" d="M198.58,106.62c0,0.76-0.2,1.17-0.6,1.17c-0.35,0-1.44-0.26-2.09-0.26c-1.34,0-2.14,0.46-2.93,2.24
			l-7.3,16.36v9.68c0,1.84,0.3,2.19,1.24,2.19c0.79,0,2.23-0.26,2.68-0.26c0.4,0,0.6,0.36,0.6,1.12c0,0.66-0.35,1.02-1.04,1.02
			c-0.5,0-1.14-0.05-1.94-0.1c-1.19-0.15-2.58-0.2-4.22-0.2c-1.69,0-3.08,0.05-4.22,0.2c-0.84,0.05-1.54,0.1-1.99,0.1
			c-0.74,0-0.99-0.25-0.99-1.02c0-0.77,0.2-1.12,0.55-1.12c0.45,0,1.89,0.26,2.63,0.26c0.99,0,1.29-0.36,1.29-2.19v-9.38l-8.1-16.57
			c-0.79-1.58-1.89-2.34-3.33-2.34c-0.55,0-1.59,0.26-1.84,0.26c-0.4,0-0.6-0.41-0.6-1.17c0-0.66,0.35-0.97,1.04-0.97
			c0.05,0,3.08,0.25,6.7,0.25c3.03,0,5.96-0.25,6.51-0.25c0.7,0,1.04,0.31,1.04,0.97c0,0.76-0.2,1.17-0.6,1.17
			c-0.35,0-1.44-0.26-2.09-0.26c-1.54,0-1.74,0.41-0.89,2.29l6.56,13.66l6.01-13.76c0.6-1.48,0.3-2.19-0.94-2.19
			c-0.74,0-1.94,0.26-2.28,0.26c-0.4,0-0.6-0.41-0.6-1.17c0-0.66,0.35-0.97,1.04-0.97c0.45,0,2.78,0.25,4.77,0.25
			c2.33,0,4.52-0.25,4.87-0.25C198.23,105.65,198.58,105.96,198.58,106.62z"/>
	</g>
</g>
<g>
	<g>
		<path class="st0" d="M58.23,152.02c1-1.05,2.37-1.57,4.09-1.57c1.2,0,2.15,0.28,2.87,0.84c0.72,0.55,1.09,1.15,1.09,1.81
			c0,0.62-0.45,1.07-1.07,1.07c-0.53,0-0.97-0.44-0.97-0.95c0-0.23,0.08-0.45,0.27-0.65c0.12-0.12,0.17-0.22,0.17-0.32
			c0.07-0.33-0.68-1.16-2.35-1.17c-2.34,0-3.51,1.71-3.51,5.14c0,3.4,0.99,5.19,3.21,5.19c1.65,0,2.59-1.31,2.59-3.4v-0.33
			c0-0.59-0.1-0.72-0.43-0.72c-0.67,0-1.32,0.08-1.37,0.08c-0.12,0-0.18-0.13-0.18-0.39c0-0.22,0.12-0.32,0.33-0.32
			c0.33,0,1.34,0.08,2.55,0.08c1,0,1.82-0.08,2.09-0.08c0.23,0,0.35,0.1,0.35,0.32c0,0.25-0.07,0.39-0.2,0.39
			c-0.12,0-0.63-0.08-0.9-0.08c-0.33,0-0.42,0.13-0.42,0.72v3.43c0,0.2,0.03,0.57,0.03,0.69c0,0.15-0.13,0.23-0.38,0.23
			c-0.25,0-0.38-0.08-0.38-0.23c0-0.15,0.02-0.55,0.02-0.75c0-0.44-0.08-0.65-0.27-0.65s-0.55,0.42-0.97,0.84
			c-0.42,0.42-1.37,0.84-2.45,0.84c-1.59,0-2.87-0.54-3.84-1.61c-0.95-1.07-1.44-2.49-1.44-4.25
			C56.74,154.45,57.24,153.06,58.23,152.02z"/>
		<path class="st0" d="M78.96,150.93c0,0.25-0.07,0.39-0.2,0.39c-0.12,0-0.48-0.08-0.7-0.08c-0.45,0-0.72,0.15-0.99,0.74l-2.45,5.37
			v3.18c0,0.6,0.1,0.72,0.42,0.72c0.27,0,0.75-0.08,0.9-0.08c0.13,0,0.2,0.12,0.2,0.37c0,0.22-0.12,0.34-0.35,0.34
			c-0.17,0-0.38-0.02-0.65-0.03c-0.4-0.05-0.87-0.07-1.42-0.07c-0.57,0-1.03,0.02-1.42,0.07c-0.28,0.02-0.52,0.03-0.67,0.03
			c-0.25,0-0.33-0.08-0.33-0.34c0-0.25,0.07-0.37,0.18-0.37c0.15,0,0.63,0.08,0.89,0.08c0.33,0,0.43-0.12,0.43-0.72v-3.08L70.08,152
			c-0.27-0.52-0.63-0.77-1.12-0.77c-0.18,0-0.53,0.08-0.62,0.08c-0.13,0-0.2-0.13-0.2-0.39c0-0.22,0.12-0.32,0.35-0.32
			c0.02,0,1.03,0.08,2.25,0.08c1.02,0,2-0.08,2.19-0.08c0.23,0,0.35,0.1,0.35,0.32c0,0.25-0.07,0.39-0.2,0.39
			c-0.12,0-0.48-0.08-0.7-0.08c-0.52,0-0.58,0.13-0.3,0.75l2.2,4.49l2.02-4.52c0.2-0.49,0.1-0.72-0.32-0.72
			c-0.25,0-0.65,0.08-0.77,0.08c-0.13,0-0.2-0.13-0.2-0.39c0-0.22,0.12-0.32,0.35-0.32c0.15,0,0.94,0.08,1.6,0.08
			c0.78,0,1.52-0.08,1.64-0.08C78.84,150.61,78.96,150.72,78.96,150.93z"/>
		<path class="st0" d="M94,161.53c0,0.22-0.12,0.34-0.35,0.34c-0.17,0-0.38-0.02-0.65-0.03c-0.4-0.05-0.87-0.07-1.42-0.07
			c-0.57,0-1.03,0.02-1.42,0.07c-0.28,0.02-0.52,0.03-0.67,0.03c-0.25,0-0.33-0.08-0.33-0.34c0-0.25,0.07-0.37,0.18-0.37
			c0.15,0,0.63,0.08,0.88,0.08c0.33,0,0.43-0.12,0.43-0.72v-8.12l-3.72,9.39c-0.05,0.12-0.18,0.18-0.38,0.18
			c-0.2,0-0.32-0.07-0.37-0.18l-3.99-9.44l0.02,7.68c0,0.62,0.3,1.17,0.72,1.17c0.22,0,0.57-0.07,0.65-0.07
			c0.13,0,0.2,0.13,0.2,0.39c0,0.22-0.12,0.34-0.35,0.34c-0.08,0-0.3-0.02-0.63-0.05c-0.37-0.03-0.67-0.05-0.92-0.05
			c-0.42,0-0.75,0.02-1,0.05c-0.2,0.03-0.38,0.05-0.57,0.05c-0.22,0-0.33-0.12-0.33-0.34c0-0.25,0.07-0.39,0.18-0.39
			c0.08,0,0.42,0.07,0.68,0.07c0.42,0,0.7-0.52,0.7-1.17v-8.02c0-0.54-0.22-0.8-0.63-0.8c-0.25,0-0.58,0.07-0.67,0.07
			c-0.15,0-0.23-0.12-0.23-0.34c0-0.22,0.07-0.33,0.2-0.33c0.08,0,0.75,0.07,1.4,0.07h1c0.25,0,0.57-0.03,0.63-0.03
			c0.18,0,0.32,0.08,0.38,0.23l3.49,8.49l3.24-8.47c0.08-0.17,0.2-0.25,0.37-0.25c0.07,0,0.42,0.03,0.73,0.03h0.8
			c0.58,0,1.24-0.07,1.32-0.07c0.13,0,0.2,0.12,0.2,0.33c0,0.22-0.08,0.34-0.23,0.34c-0.08,0-0.4-0.07-0.6-0.07
			c-0.35,0-0.47,0.17-0.47,0.64v8.67c0,0.6,0.1,0.72,0.42,0.72c0.27,0,0.75-0.08,0.9-0.08C93.93,161.16,94,161.28,94,161.53z"/>
		<path class="st0" d="M108.96,160.99c-0.23,0.74-0.77,1.1-1.59,1.1c-0.78,0-1.5-0.32-2.14-0.94c-0.72,0.62-1.62,0.94-2.69,0.94
			c-2.45,0-3.91-1.26-3.91-3.35c0-1.67,1.14-2.86,2.82-3.42c-0.63-1.1-0.95-1.96-0.95-2.54c0-1.41,0.95-2.34,2.64-2.34
			c1.54,0,2.49,0.8,2.49,2.16c0,1.27-0.97,2.26-2.42,2.81c0,0.02,0.02,0.05,0.03,0.07l2.09,3.3l0.38,0.6
			c0.28-0.6,0.47-1.31,0.58-2.09c0.05-0.65-0.18-1.17-0.6-1.17c-0.22,0-0.57,0.07-0.65,0.07c-0.13,0-0.2-0.13-0.2-0.39
			c0-0.22,0.12-0.32,0.35-0.32c0.2,0,0.42,0.02,0.63,0.03c0.37,0.03,0.67,0.05,0.92,0.05c0.42,0,0.75-0.02,1-0.05
			c0.27-0.02,0.45-0.03,0.57-0.03c0.22,0,0.33,0.1,0.33,0.32c0,0.25-0.07,0.39-0.18,0.39c-0.08,0-0.42-0.07-0.68-0.07
			c-0.45,0-0.77,0.55-0.82,1.21c-0.15,1.09-0.43,1.99-0.83,2.7c0.65,0.94,1.17,1.41,1.54,1.41c0.35,0,0.57-0.22,0.68-0.67
			C108.46,160.38,109.11,160.53,108.96,160.99z M102.7,161.43c0.82,0,1.52-0.25,2.1-0.77c-0.25-0.32-0.48-0.64-0.67-0.95l-2.19-3.55
			c-0.05-0.07-0.08-0.12-0.1-0.17c-0.95,0.59-1.42,1.51-1.42,2.76C100.43,160.41,101.22,161.43,102.7,161.43z M101.95,152.41
			c0,0.54,0.32,1.36,0.95,2.48c0.89-0.55,1.34-1.37,1.34-2.44c0-0.92-0.4-1.44-1.08-1.44C102.4,151,101.95,151.54,101.95,152.41z"/>
		<path class="st0" d="M115.29,161.11c-0.75-0.67-1.14-1.37-1.14-2.13c0-0.72,0.43-1.12,1.05-1.12c0.6,0,1,0.39,1,0.92
			c0,0.32-0.12,0.57-0.33,0.77c-0.13,0.13-0.2,0.27-0.2,0.4c0,0.28,0.22,0.59,0.63,0.94c0.43,0.33,1.03,0.5,1.82,0.5
			c1.62,0,2.49-0.87,2.49-2.09c0-0.72-0.27-1.24-0.89-1.62c-0.32-0.2-0.6-0.35-0.85-0.45c-0.25-0.12-0.6-0.25-1.07-0.42l-0.99-0.35
			c-0.23-0.1-0.53-0.25-0.88-0.45s-0.62-0.4-0.8-0.6c-0.35-0.42-0.68-1.14-0.68-1.96c0-0.9,0.35-1.62,1.03-2.18
			c0.68-0.55,1.59-0.82,2.7-0.82c1.09,0,1.99,0.27,2.67,0.82c0.7,0.55,1.05,1.16,1.05,1.81c0,0.69-0.4,1.12-0.99,1.12
			c-0.55,0-0.95-0.38-0.95-0.85c0-0.27,0.1-0.5,0.28-0.69c0.12-0.15,0.18-0.28,0.18-0.4c0-0.22-0.43-1.12-2.25-1.12
			c-1.49,0-2.27,0.82-2.27,1.82c0,0.62,0.25,1.07,0.83,1.46c0.6,0.35,0.99,0.52,1.85,0.84c0.45,0.15,0.78,0.28,1.03,0.4
			c0.25,0.1,0.57,0.27,0.94,0.49c0.37,0.22,0.65,0.44,0.83,0.65c0.4,0.45,0.75,1.19,0.75,2.06c0,0.92-0.37,1.69-1.1,2.31
			c-0.73,0.62-1.72,0.94-2.94,0.94C117.01,162.1,116.05,161.76,115.29,161.11z"/>
		<path class="st0" d="M132.88,153.9c0,2.21-1.42,3.31-4.24,3.31h-1.69v3.35c0,0.59,0.08,0.7,0.42,0.7c0.27,0,0.77-0.07,0.9-0.07
			c0.12,0,0.18,0.12,0.18,0.35c0,0.22-0.12,0.33-0.33,0.33c-0.27,0-1.07-0.08-2.05-0.08c-0.95,0-1.84,0.08-2.1,0.08
			c-0.23,0-0.35-0.12-0.35-0.33c0-0.23,0.07-0.35,0.18-0.35c0.13,0,0.63,0.07,0.9,0.07c0.33,0,0.43-0.12,0.43-0.7v-8.62
			c0-0.6-0.08-0.7-0.5-0.7c-0.18,0-0.48,0.07-0.57,0.07c-0.15,0-0.23-0.12-0.23-0.37c0-0.2,0.07-0.3,0.2-0.3
			c0.07,0,0.52,0.05,0.94,0.05h1.19c0.22,0,0.58-0.02,1.13-0.03c0.55-0.03,0.95-0.05,1.19-0.05
			C131.41,150.6,132.88,151.7,132.88,153.9z M128.19,156.59c1.84,0,2.75-0.9,2.75-2.7c0-1.77-0.92-2.66-2.75-2.66h-0.5
			c-0.52,0-0.73,0.2-0.73,0.75v4.6H128.19z"/>
		<path class="st0" d="M143.33,161.55c0,0.22-0.12,0.32-0.35,0.32c-0.18,0-1.08-0.1-2.24-0.1c-0.95,0-1.8,0.1-2.14,0.1
			c-0.22,0-0.33-0.1-0.33-0.32c0-0.25,0.07-0.39,0.18-0.39c0.12,0,0.5,0.08,0.72,0.08c0.53,0,0.7-0.28,0.52-0.87l-0.87-2.44h-3.44
			l-0.83,2.41c-0.2,0.6-0.03,0.9,0.5,0.9c0.25,0,0.57-0.08,0.68-0.08c0.13,0,0.2,0.13,0.2,0.39c0,0.22-0.12,0.32-0.35,0.32
			c-0.28,0-0.95-0.1-1.62-0.1c-0.8,0-1.44,0.1-1.69,0.1c-0.22,0-0.33-0.1-0.33-0.32c0-0.25,0.07-0.39,0.2-0.39
			c0.12,0,0.4,0.08,0.62,0.08c0.45,0,0.78-0.3,1-0.89l3.39-9.61c0.05-0.13,0.2-0.2,0.43-0.2c0.25,0,0.42,0.07,0.47,0.2l3.51,9.64
			c0.22,0.57,0.53,0.85,0.95,0.85c0.18,0,0.53-0.08,0.62-0.08C143.26,161.16,143.33,161.3,143.33,161.55z M135.6,157.28h2.99
			l-1.52-4.25L135.6,157.28z"/>
	</g>
</g>
</svg>
