<?xml version="1.0" encoding="utf-8"?>
<!-- Generator: Adobe Illustrator 24.1.2, SVG Export Plug-In . SVG Version: 6.00 Build 0)  -->
<svg version="1.1" id="Capa_1" xmlns="http://www.w3.org/2000/svg" xmlns:xlink="http://www.w3.org/1999/xlink" x="0px" y="0px"
	 viewBox="0 0 2.43 22.51" style="enable-background:new 0 0 2.43 22.51;" xml:space="preserve">
<style type="text/css">
	.st0{fill:url(#SVGID_1_);}
	.st1{fill:url(#SVGID_2_);}
	.st2{fill:url(#SVGID_3_);}
	.st3{fill:url(#SVGID_4_);}
	.st4{fill:url(#SVGID_5_);}
	.st5{fill:url(#SVGID_6_);}
	.st6{fill:url(#SVGID_7_);}
	.st7{fill:url(#SVGID_8_);}
	.st8{fill:url(#SVGID_9_);}
	.st9{fill:url(#SVGID_10_);}
	.st10{fill:url(#SVGID_11_);}
	.st11{fill:url(#SVGID_12_);}
	.st12{fill:url(#SVGID_13_);}
	.st13{fill:url(#SVGID_14_);}
	.st14{fill:url(#SVGID_15_);}
	.st15{fill:url(#SVGID_16_);}
	.st16{fill:url(#SVGID_17_);}
	.st17{fill:url(#SVGID_18_);}
	.st18{fill:url(#SVGID_19_);}
	.st19{fill:url(#SVGID_20_);}
</style>
<g>
	<g>
		<g>
			<g>
				<linearGradient id="SVGID_1_" gradientUnits="userSpaceOnUse" x1="-40.493" y1="116.1065" x2="-37.0356" y2="116.1065">
					<stop  offset="0" style="stop-color:#19182B"/>
					<stop  offset="1" style="stop-color:#201D34"/>
				</linearGradient>
				<path class="st0" d="M-40.16,124.38h2.79c0.18,0,0.33-0.15,0.33-0.33v-15.87c0-0.18-0.15-0.33-0.33-0.33h-2.79
					c-0.19,0-0.33,0.15-0.33,0.33v15.87C-40.49,124.23-40.34,124.38-40.16,124.38z"/>
				<g>
					<g>
						<linearGradient id="SVGID_2_" gradientUnits="userSpaceOnUse" x1="-84.2027" y1="116.1176" x2="-58.9619" y2="116.1176">
							<stop  offset="0" style="stop-color:#19182B"/>
							<stop  offset="1" style="stop-color:#201D34"/>
						</linearGradient>
						<path class="st1" d="M-63.92,119.61l-2.47-2.15l-0.15-0.13c2.09-0.64,3.29-2.06,3.29-4.34c0-3.31-2.51-5.15-6.58-5.15h-13.85
							c-0.28,0-0.51,0.23-0.51,0.51v9.19c0,0.18,0.15,0.33,0.33,0.33h2.79c0.18,0,0.33-0.15,0.33-0.33l0.01-1.68h-0.01v-4.63
							c0-0.19,0.16-0.35,0.35-0.35h10.82c2.13,0,2.78,1.4,2.78,2.49c0,0.87-0.42,1.94-1.67,2.33c-0.32,0.1-0.68,0.16-1.11,0.16
							l-2.44-0.06c-0.31,0-0.45,0.38-0.23,0.58l2.84,2.6l1.6,1.47l3.64,3.33l0.52,0.47c0.06,0.06,0.14,0.09,0.23,0.09l4.11,0.06
							c0.31,0,0.45-0.38,0.22-0.59L-63.92,119.61z"/>
					</g>
				</g>
				<g>
					<g>
						<linearGradient id="SVGID_3_" gradientUnits="userSpaceOnUse" x1="31.2411" y1="109.385" x2="50.6026" y2="109.385">
							<stop  offset="0" style="stop-color:#19182B"/>
							<stop  offset="1" style="stop-color:#201D34"/>
						</linearGradient>
						<path class="st2" d="M43.97,110.93h6.3c0.18,0,0.33-0.15,0.33-0.33v-2.42c0-0.18-0.15-0.33-0.33-0.33H37.16
							c-2.59,0-4.92,0.72-5.88,2.6c-0.11,0.22,0.05,0.49,0.3,0.49h5.27H43.97z"/>
						<linearGradient id="SVGID_4_" gradientUnits="userSpaceOnUse" x1="30.7287" y1="122.8233" x2="51.2334" y2="122.8233">
							<stop  offset="0" style="stop-color:#19182B"/>
							<stop  offset="1" style="stop-color:#201D34"/>
						</linearGradient>
						<path class="st3" d="M45.43,121.28H31.06c-0.18,0-0.33,0.15-0.33,0.33v2.42c0,0.19,0.15,0.33,0.33,0.33h14.15
							c3.33,0,5.19-1.01,5.99-2.62c0.11-0.22-0.05-0.49-0.3-0.49h-5.24C45.58,121.27,45.51,121.28,45.43,121.28z"/>
						<linearGradient id="SVGID_5_" gradientUnits="userSpaceOnUse" x1="30.9137" y1="116.1019" x2="51.5707" y2="116.1019">
							<stop  offset="0" style="stop-color:#19182B"/>
							<stop  offset="1" style="stop-color:#201D34"/>
						</linearGradient>
						<path class="st4" d="M45.26,114.7l-7.62-0.6c-1.6-0.13-2.47-0.35-2.92-0.7c-0.08-0.06-0.18-0.11-0.28-0.11h-3.2
							c-0.21,0-0.38,0.19-0.33,0.39c0.5,2.26,2.6,3.3,5.83,3.55l8,0.63c1.57,0.13,2.52,0.42,3,0.92c0.07,0.07,0.15,0.11,0.25,0.11
							h3.24c0.21,0,0.37-0.19,0.33-0.39C51.07,115.98,48.7,114.98,45.26,114.7z"/>
					</g>
				</g>
				<g>
					<g>
						<linearGradient id="SVGID_6_" gradientUnits="userSpaceOnUse" x1="-1.4743" y1="116.1065" x2="8.8028" y2="116.1065">
							<stop  offset="0" style="stop-color:#19182B"/>
							<stop  offset="1" style="stop-color:#201D34"/>
						</linearGradient>
						<path class="st5" d="M8.8,116.11c0-5.93-3.19-8.17-9.92-8.47c-0.19-0.01-0.36,0.14-0.36,0.34c0,0.64,0,1.97,0,2.59
							c0,0.18,0.15,0.32,0.33,0.33c4.3,0.16,6.42,1.1,6.42,5.22c0,4.12-2.12,5.06-6.42,5.22c-0.18,0.01-0.33,0.15-0.33,0.33v2.59
							c0,0.19,0.16,0.35,0.36,0.34C5.61,124.28,8.8,122.04,8.8,116.11z"/>
						<linearGradient id="SVGID_7_" gradientUnits="userSpaceOnUse" x1="-14.4079" y1="116.1065" x2="-4.1329" y2="116.1065">
							<stop  offset="0" style="stop-color:#19182B"/>
							<stop  offset="1" style="stop-color:#201D34"/>
						</linearGradient>
						<path class="st6" d="M-10.88,116.11c0-4.12,2.12-5.06,6.42-5.22c0.18-0.01,0.33-0.15,0.33-0.33v-2.59
							c0-0.19-0.16-0.35-0.36-0.34c-6.73,0.3-9.92,2.54-9.92,8.47c0,5.93,3.19,8.17,9.92,8.47c0.19,0.01,0.36-0.15,0.36-0.34v-2.59
							c0-0.18-0.15-0.33-0.33-0.33C-8.76,121.17-10.88,120.22-10.88,116.11z"/>
					</g>
				</g>
			</g>
			<g>
				<g>
					<linearGradient id="SVGID_8_" gradientUnits="userSpaceOnUse" x1="-83.3285" y1="135.1067" x2="-82.5327" y2="135.1067">
						<stop  offset="0" style="stop-color:#19182B"/>
						<stop  offset="1" style="stop-color:#201D34"/>
					</linearGradient>
					<path class="st7" d="M-82.53,131.63v6.96h-0.8v-6.96H-82.53z"/>
					<linearGradient id="SVGID_9_" gradientUnits="userSpaceOnUse" x1="-72.4671" y1="135.1067" x2="-66.6777" y2="135.1067">
						<stop  offset="0" style="stop-color:#19182B"/>
						<stop  offset="1" style="stop-color:#201D34"/>
					</linearGradient>
					<path class="st8" d="M-71.64,131.63l4.18,5.66v-5.66h0.79v6.96h-0.82l-4.18-5.65v5.65h-0.8v-6.96H-71.64z"/>
					<linearGradient id="SVGID_10_" gradientUnits="userSpaceOnUse" x1="-57.2598" y1="135.1117" x2="-51.0226" y2="135.1117">
						<stop  offset="0" style="stop-color:#19182B"/>
						<stop  offset="1" style="stop-color:#201D34"/>
					</linearGradient>
					<path class="st9" d="M-51.75,135.19h0.71v2.53c-0.69,0.55-1.65,0.91-2.59,0.91c-2.02,0-3.63-1.55-3.63-3.51
						c0-1.96,1.62-3.5,3.67-3.5c0.96,0,1.9,0.37,2.57,0.95l-0.46,0.58c-0.57-0.51-1.33-0.81-2.11-0.81c-1.59,0-2.86,1.23-2.86,2.78
						c0,1.55,1.28,2.79,2.87,2.79c0.63,0,1.29-0.22,1.83-0.59V135.19z"/>
					<linearGradient id="SVGID_11_" gradientUnits="userSpaceOnUse" x1="-41.1567" y1="135.1067" x2="-36.3023" y2="135.1067">
						<stop  offset="0" style="stop-color:#19182B"/>
						<stop  offset="1" style="stop-color:#201D34"/>
					</linearGradient>
					<path class="st10" d="M-36.43,131.63v0.74h-3.93v2.34h3.51v0.73h-3.51v2.43h4.06v0.74h-4.85v-6.96H-36.43z"/>
					<linearGradient id="SVGID_12_" gradientUnits="userSpaceOnUse" x1="-26.7253" y1="135.1067" x2="-20.9354" y2="135.1067">
						<stop  offset="0" style="stop-color:#19182B"/>
						<stop  offset="1" style="stop-color:#201D34"/>
					</linearGradient>
					<path class="st11" d="M-25.9,131.63l4.18,5.66v-5.66h0.79v6.96h-0.82l-4.18-5.65v5.65h-0.8v-6.96H-25.9z"/>
					<linearGradient id="SVGID_13_" gradientUnits="userSpaceOnUse" x1="-10.8609" y1="135.1067" x2="-10.0651" y2="135.1067">
						<stop  offset="0" style="stop-color:#19182B"/>
						<stop  offset="1" style="stop-color:#201D34"/>
					</linearGradient>
					<path class="st12" d="M-10.07,131.63v6.96h-0.8v-6.96H-10.07z"/>
					<linearGradient id="SVGID_14_" gradientUnits="userSpaceOnUse" x1="0" y1="135.1067" x2="4.8544" y2="135.1067">
						<stop  offset="0" style="stop-color:#19182B"/>
						<stop  offset="1" style="stop-color:#201D34"/>
					</linearGradient>
					<path class="st13" d="M4.73,131.63v0.74H0.8v2.34h3.51v0.73H0.8v2.43h4.06v0.74H0v-6.96H4.73z"/>
					<linearGradient id="SVGID_15_" gradientUnits="userSpaceOnUse" x1="14.432" y1="135.1067" x2="19.893" y2="135.1067">
						<stop  offset="0" style="stop-color:#19182B"/>
						<stop  offset="1" style="stop-color:#201D34"/>
					</linearGradient>
					<path class="st14" d="M18.99,138.59l-1.46-2.23c-0.14,0.01-0.29,0.02-0.45,0.02h-1.85v2.21h-0.8v-6.96h2.65
						c1.74,0,2.75,0.86,2.75,2.34c0,1.14-0.57,1.93-1.57,2.25l1.64,2.38H18.99z M17.08,135.64c1.26,0,1.98-0.57,1.98-1.66
						c0-1.06-0.72-1.62-1.98-1.62h-1.85v3.28H17.08z"/>
					<linearGradient id="SVGID_16_" gradientUnits="userSpaceOnUse" x1="28.923" y1="135.1117" x2="36.2149" y2="135.1117">
						<stop  offset="0" style="stop-color:#19182B"/>
						<stop  offset="1" style="stop-color:#201D34"/>
					</linearGradient>
					<path class="st15" d="M36.21,135.11c0,1.96-1.61,3.51-3.64,3.51c-2.04,0-3.65-1.55-3.65-3.51c0-1.96,1.61-3.5,3.65-3.5
						C34.6,131.61,36.21,133.15,36.21,135.11z M29.73,135.11c0,1.54,1.29,2.79,2.84,2.79c1.55,0,2.82-1.24,2.82-2.79
						c0-1.54-1.27-2.77-2.82-2.77C31.02,132.34,29.73,133.56,29.73,135.11z"/>
					<linearGradient id="SVGID_17_" gradientUnits="userSpaceOnUse" x1="44.8865" y1="135.1067" x2="50.0692" y2="135.1067">
						<stop  offset="0" style="stop-color:#19182B"/>
						<stop  offset="1" style="stop-color:#201D34"/>
					</linearGradient>
					<path class="st16" d="M47.64,132.37c-0.9,0-1.48,0.36-1.48,0.96c0,1.81,3.92,0.87,3.91,3.39c0,1.15-1.02,1.9-2.52,1.9
						c-1.01,0-2.01-0.44-2.67-1.06l0.36-0.69c0.65,0.62,1.53,0.97,2.32,0.97c1,0,1.63-0.41,1.63-1.08c0.01-1.86-3.91-0.88-3.91-3.37
						c0-1.09,0.96-1.79,2.41-1.79c0.81,0,1.63,0.26,2.21,0.65l-0.34,0.71C48.94,132.54,48.2,132.37,47.64,132.37z"/>
				</g>
			</g>
		</g>
		<g>
			<linearGradient id="SVGID_18_" gradientUnits="userSpaceOnUse" x1="-172.135" y1="97.9318" x2="-44.4877" y2="42.17">
				<stop  offset="0" style="stop-color:#B53131"/>
				<stop  offset="1" style="stop-color:#C93E54"/>
			</linearGradient>
			<path class="st17" d="M-131.48,81.76l9.46-3.71c0.54-0.21,0.92-0.69,1-1.26l1.98-13.77c0.18-1.22-1.02-2.17-2.17-1.72
				l-22.42,8.74c-0.54,0.21-0.92,0.69-1,1.26l-4.13,28.65c-0.18,1.21,1.02,2.17,2.17,1.72l11.22-4.35c0.54-0.21,0.92-0.69,1.01-1.27
				l1.88-13.03C-132.4,82.45-132.02,81.97-131.48,81.76z"/>
			<linearGradient id="SVGID_19_" gradientUnits="userSpaceOnUse" x1="-163.6339" y1="117.3923" x2="-35.9865" y2="61.6306">
				<stop  offset="0" style="stop-color:#B53131"/>
				<stop  offset="1" style="stop-color:#C93E54"/>
			</linearGradient>
			<path class="st18" d="M-105.03,76.88l-10.77,4.18c-0.61,0.24-1.05,0.78-1.14,1.43l-1.85,12.79c-0.09,0.65-0.53,1.19-1.13,1.43
				l-9.24,3.62c-0.61,0.24-1.04,0.78-1.13,1.43l-1.91,13.29c-0.2,1.37,1.16,2.45,2.45,1.95l21.97-8.56
				c0.61-0.24,1.04-0.78,1.14-1.43l4.06-28.17C-102.38,77.46-103.74,76.38-105.03,76.88z"/>
			<linearGradient id="SVGID_20_" gradientUnits="userSpaceOnUse" x1="-173.9695" y1="93.7323" x2="-46.3222" y2="37.9706">
				<stop  offset="0" style="stop-color:#B53131"/>
				<stop  offset="1" style="stop-color:#C93E54"/>
			</linearGradient>
			<path class="st19" d="M-101.83,54.32l-11.27,4.24c-0.5,0.19-0.86,0.64-0.94,1.17l-2.05,14.21c-0.16,1.11,0.93,1.99,1.98,1.59
				l11.41-4.34c0.51-0.19,0.86-0.65,0.94-1.18l1.91-14.11C-99.7,54.79-100.79,53.92-101.83,54.32z"/>
		</g>
	</g>
</g>
</svg>
