<?xml version="1.0" encoding="utf-8"?>
<!-- Generator: Adobe Illustrator 24.1.2, SVG Export Plug-In . SVG Version: 6.00 Build 0)  -->
<svg version="1.1" id="Capa_1" xmlns="http://www.w3.org/2000/svg" xmlns:xlink="http://www.w3.org/1999/xlink" x="0px" y="0px"
	 viewBox="0 0 522.87 149.83" style="enable-background:new 0 0 522.87 149.83;" xml:space="preserve">
<style type="text/css">
	.st0{fill-rule:evenodd;clip-rule:evenodd;fill:#D584B0;}
	.st1{fill:#D584B0;}
</style>
<g>
	<path class="st0" d="M93.04,147.58c-1.53-3.24-4.44-5.89-6.19-8.78c-4.04,0.06-6.34,1.08-14.27,0.9c-4.87-0.11-9.24-0.81-13.46-1.9
		C17.5,127.09-2.77,80.17,19.07,42.13c16.46-28.68,53.52-40.42,83.7-25.72c45,21.92,47.8,80.8,13.38,108.47
		c-1.99,1.6-6.74,5.39-9.32,6.2l-23.9-32.32c11.8-1.33,20.33-4.91,26.39-15.39c11.21-19.39,2.05-45.39-24.67-49.95
		c-6.63-1.13-33.7-0.88-41.68-0.66c0.5,1.23,9.49,9.6,9.86,9.72c4.01,1.29,26.95-1.91,36.5,2.52c4.5,2.09,8.41,5.67,10.5,9.42
		c5.79,10.38,2.97,21.95-4.36,28.65c-9.25,8.45-17.82,6.69-32.01,7.4c2.95,5.22,28.04,37,34.48,46.71c1.57,2.36,3.42,4.38,4.99,6.83
		c4.64-0.37,18.48-10.05,22.19-13.76c3.15-3.16,6-5.89,8.83-9.47c2.66-3.36,4.95-7.05,7.16-11.15c9.58-17.78,11.27-39.78,4.17-60.02
		c-6.05-17.24-19.6-32.25-33.5-39.77C93.93,0.16,74.02-3.31,51.88,3.68C14.09,15.62-8.46,57.42,2.98,95.54
		c8.3,27.66,30.88,47.82,57.15,52.74C74.73,151.02,79.72,149.73,93.04,147.58"/>
	<g>
		<path class="st1" d="M222.6,85.79h-7.08v19.19h-7.76V45.01h17.02c4.82,0.65,8.89,2.64,12.22,5.96c3.97,4,5.96,8.8,5.96,14.39
			c0,5.65-1.99,10.47-5.96,14.47c-2.75,2.75-4.85,4.3-6.3,4.65l13.3,20.5h-9.41L222.6,85.79z M215.52,52.8v25.19h7.08
			c3.45,0,6.4-1.23,8.86-3.69c2.46-2.46,3.69-5.44,3.69-8.94c0-3.47-1.23-6.43-3.69-8.88c-2.46-2.45-5.42-3.67-8.86-3.67H215.52z"/>
		<path class="st1" d="M333.85,53.22c6,6,8.99,13.23,8.99,21.7s-3,15.7-8.99,21.7c-6,6-13.23,9-21.7,9c-8.47,0-15.7-3-21.7-9
			c-6-6-8.99-13.23-8.99-21.7s3-15.7,8.99-21.7s13.23-9,21.7-9C320.62,44.22,327.86,47.22,333.85,53.22z M312.15,52.06
			c-6.32,0-11.71,2.23-16.17,6.69c-4.46,4.46-6.69,9.85-6.69,16.17c0,6.32,2.24,11.72,6.71,16.19c4.47,4.47,9.86,6.71,16.15,6.71
			c6.32,0,11.71-2.24,16.17-6.71c4.46-4.47,6.69-9.87,6.69-16.19c0-6.32-2.23-11.71-6.69-16.17
			C323.87,54.28,318.48,52.06,312.15,52.06z"/>
		<path class="st1" d="M388.94,45.01l19.45,33.62l19.38-33.62h7.08v59.97h-7.76V61.65l-18.7,32.38l-18.78-32.38v43.33h-7.76V45.01
			H388.94z"/>
		<path class="st1" d="M494.35,80.91l-20.73-35.9h8.92l15.67,27.13l15.7-27.13h8.96l-20.76,35.9v24.06h-7.76V80.91z"/>
	</g>
</g>
</svg>
