<?xml version="1.0" encoding="utf-8"?>
<!-- Generator: Adobe Illustrator 24.1.2, SVG Export Plug-In . SVG Version: 6.00 Build 0)  -->
<svg version="1.1" id="Capa_1" xmlns="http://www.w3.org/2000/svg" xmlns:xlink="http://www.w3.org/1999/xlink" x="0px" y="0px"
	 viewBox="0 0 196.28 170.03" style="enable-background:new 0 0 196.28 170.03;" xml:space="preserve">
<style type="text/css">
	.st0{fill:#252525;}
	.st1{fill:#FF6F61;}
</style>
<g>
	<g>
		<g>
			<path class="st0" d="M22.43,153.38l-6.2-10.6c-0.41,0.05-0.82,0.05-1.28,0.05H6.86v10.55H0v-35.85h14.96
				c9.27,0,14.55,4.46,14.55,12.34c0,5.63-2.51,9.68-7.12,11.63l7.89,11.88H22.43z M6.86,136.78h8.09c5.12,0,7.99-2.2,7.99-6.71
				c0-4.4-2.87-6.56-7.99-6.56H6.86V136.78z"/>
			<path class="st0" d="M57.37,147.54c5.43,0,8.86-3.38,8.86-9.12v-20.9h6.86v20.9c0,9.42-5.99,15.26-15.72,15.26
				c-9.78,0-15.93-5.84-15.93-15.26v-20.9h6.86v20.9C48.3,144.11,51.94,147.54,57.37,147.54z"/>
			<path class="st0" d="M98.09,123.47c-3.23,0-5.33,1.18-5.33,3.38c0,7.27,19.26,3.33,19.21,16.19c0,6.71-5.84,10.6-13.73,10.6
				c-5.74,0-11.32-2.31-15.16-5.74l2.87-5.79c3.69,3.28,8.55,5.28,12.4,5.28c3.84,0,6.15-1.44,6.15-3.94
				c0-7.48-19.26-3.23-19.26-15.98c0-6.25,5.38-10.24,13.42-10.24c4.76,0,9.53,1.54,12.96,3.79l-2.77,5.94
				C105.01,124.64,100.86,123.47,98.09,123.47z"/>
			<path class="st0" d="M135.38,123.47c-3.23,0-5.33,1.18-5.33,3.38c0,7.27,19.26,3.33,19.21,16.19c0,6.71-5.84,10.6-13.73,10.6
				c-5.74,0-11.32-2.31-15.16-5.74l2.87-5.79c3.69,3.28,8.55,5.28,12.4,5.28s6.15-1.44,6.15-3.94c0-7.48-19.26-3.23-19.26-15.98
				c0-6.25,5.38-10.24,13.42-10.24c4.76,0,9.53,1.54,12.96,3.79l-2.77,5.94C142.3,124.64,138.15,123.47,135.38,123.47z"/>
			<path class="st0" d="M196.28,135.45c0,10.29-8.3,18.23-19.1,18.23c-10.81,0-19.11-7.94-19.11-18.23
				c0-10.35,8.3-18.13,19.11-18.13C187.99,117.32,196.28,125.15,196.28,135.45z M165.09,135.45c0,6.76,5.58,12.09,12.19,12.09
				c6.56,0,11.98-5.33,11.98-12.09c0-6.76-5.43-11.98-11.98-11.98C170.62,123.47,165.09,128.69,165.09,135.45z"/>
		</g>
		<g>
			<g>
				<path class="st1" d="M151.47,3.4c0,1.9-1.48,3.38-3.37,3.38c-1.9,0-3.36-1.49-3.36-3.36c0-1.88,1.46-3.36,3.37-3.36
					C150.03,0.06,151.47,1.51,151.47,3.4z M151.02,3.4c0-1.66-1.23-2.92-2.91-2.92c-1.68,0-2.93,1.3-2.93,2.94
					c0,1.64,1.25,2.94,2.91,2.94S151.02,5.06,151.02,3.4z M149.02,3.98l0.87,1.34h-0.66l-0.79-1.22h-0.16h-0.88v1.22h-0.65V1.52
					h1.53c0.95,0,1.54,0.51,1.54,1.3C149.82,3.39,149.53,3.8,149.02,3.98z M149.19,2.81c0-0.49-0.35-0.75-0.96-0.75h-0.84v1.52h0.84
					C148.84,3.57,149.19,3.3,149.19,2.81z"/>
			</g>
			<g>
				<path class="st1" d="M42.22,53.36c4.4-5.36,10.58-10.71,17.3-12.74c12.04-3.63,24.03,1.06,34.29,7.25
					c10.74,6.48,20.23,14.71,30.21,22.24c7.82,5.91,16.22,12.73,26.53,12.89c4.74,0.08,9.18-1.71,12.5-5.11
					c-0.76,0.78-1.39,1.75-2.14,2.56c-1.88,2.03-3.99,3.87-6.26,5.46c-6.86,4.8-15.18,6.97-23.5,5.61
					c-11.66-1.91-21.67-9.62-30.03-17.54c-3.37-3.2-6.32-6.78-9.47-10.19c-3.92-4.24-8.14-8.22-12.78-11.67
					c-4.71-3.49-9.87-6.62-15.82-7.27c-1.36-0.15-2.72-0.16-4.08-0.04C52.51,45.41,46.77,48.88,42.22,53.36z"/>
				<path class="st1" d="M118.57,10.58c-1.74-1.75-3.89-3.16-6.01-4.39c-5.4-3.15-11.49-5.08-17.69-5.82
					c-9.72-1.17-19.56,0.59-28.68,3.97C56.31,8,46.99,13.61,39.64,21.26c-0.52,0.54-1.02,1.1-1.47,1.7c0.44-0.6,1.5-1.08,2.1-1.49
					c1.88-1.29,3.81-2.52,5.77-3.7c5.64-3.39,11.62-6.43,17.9-8.44C73.77,6.16,85.4,5.17,95.25,8.9c4.64,1.76,8.75,4.73,11.54,8.87
					c0,0,6.36,10.07-6.01,18.79c-0.35,0.21-8.31,5.06-11.47,5.53c0,0,12.85,7.08,18.96,12.52c0,0,0.95-0.39,2.53-1.42l0.02,0.02
					c0,0,0.35-0.24,0.95-0.69c1.32-0.95,2.93-2.28,4.73-4.11C123.92,41.1,134.24,26.35,118.57,10.58z"/>
			</g>
		</g>
	</g>
	<g>
		<g>
			<path class="st0" d="M76.1,168.99l0.17-0.23c0.43,0.49,1.28,0.87,2.21,0.87c1.41,0,2.03-0.64,2.03-1.41
				c0-2.14-4.22-0.87-4.22-3.35c0-0.9,0.69-1.72,2.28-1.72c0.74,0,1.48,0.24,1.98,0.61l-0.14,0.26c-0.54-0.39-1.22-0.58-1.83-0.58
				c-1.36,0-1.98,0.65-1.98,1.43c0,2.15,4.22,0.91,4.22,3.34c0,0.91-0.72,1.71-2.33,1.71C77.5,169.92,76.57,169.54,76.1,168.99z"/>
			<path class="st0" d="M92.41,167.92H88.4l-0.9,1.96h-0.35l3.1-6.69h0.32l3.1,6.69h-0.35L92.41,167.92z M92.28,167.64l-1.87-4.08
				l-1.88,4.08H92.28z"/>
			<path class="st0" d="M100.7,163.19h0.32v6.4h3.92v0.3h-4.24V163.19z"/>
			<path class="st0" d="M111.17,166.53c0-1.94,1.48-3.38,3.45-3.38c1.98,0,3.46,1.44,3.46,3.38c0,1.94-1.48,3.38-3.46,3.38
				C112.66,169.92,111.17,168.47,111.17,166.53z M117.76,166.53c0-1.77-1.35-3.09-3.14-3.09c-1.78,0-3.13,1.32-3.13,3.09
				s1.35,3.09,3.13,3.09C116.41,169.62,117.76,168.3,117.76,166.53z"/>
			<path class="st0" d="M130.93,163.19v6.69h-0.27l-4.75-6.1v6.1h-0.32v-6.69h0.27l4.75,6.1v-6.1H130.93z"/>
			<path class="st0" d="M151.91,169.98l-1-1.08c-0.53,0.69-1.28,1.02-2.22,1.02c-1.24,0-2.12-0.66-2.12-1.65
				c0-0.76,0.45-1.34,1.78-2.12l-0.05-0.06c-0.68-0.72-0.85-1.09-0.85-1.61c0-0.79,0.58-1.33,1.5-1.33c0.86,0,1.41,0.47,1.41,1.23
				c0,0.65-0.39,1.09-1.57,1.81l2.1,2.26c0.22-0.38,0.39-0.85,0.5-1.41l0.27,0.07c-0.12,0.62-0.32,1.13-0.57,1.54l1.04,1.12
				L151.91,169.98z M150.71,168.69l-2.18-2.35c-1.28,0.76-1.65,1.23-1.65,1.9c0,0.85,0.75,1.41,1.82,1.41
				C149.55,169.65,150.24,169.34,150.71,168.69z M148.56,165.95l0.04,0.04c1.11-0.66,1.46-1.03,1.46-1.61c0-0.58-0.4-0.97-1.12-0.97
				c-0.76,0-1.19,0.43-1.19,1.06C147.75,164.92,147.91,165.24,148.56,165.95z"/>
			<path class="st0" d="M166.61,168.99l0.17-0.23c0.43,0.49,1.28,0.87,2.21,0.87c1.41,0,2.03-0.64,2.03-1.41
				c0-2.14-4.22-0.87-4.22-3.35c0-0.9,0.69-1.72,2.28-1.72c0.74,0,1.48,0.24,1.98,0.61l-0.14,0.26c-0.54-0.39-1.22-0.58-1.83-0.58
				c-1.36,0-1.98,0.65-1.98,1.43c0,2.15,4.22,0.91,4.22,3.34c0,0.91-0.72,1.71-2.33,1.71C168.02,169.92,167.08,169.54,166.61,168.99
				z"/>
			<path class="st0" d="M183.8,165.41c0,1.41-0.99,2.23-2.66,2.23h-2v2.25h-0.32v-6.69h2.32
				C182.81,163.19,183.8,164.01,183.8,165.41z M183.48,165.41c0-1.22-0.82-1.92-2.32-1.92h-2.02v3.85h2.02
				C182.66,167.34,183.48,166.64,183.48,165.41z"/>
			<path class="st0" d="M195.03,167.92h-4.01l-0.9,1.96h-0.35l3.1-6.69h0.32l3.1,6.69h-0.35L195.03,167.92z M194.91,167.64
				l-1.87-4.08l-1.88,4.08H194.91z"/>
		</g>
	</g>
</g>
</svg>
